G04 Layer: TopPasteMaskLayer*
G04 EasyEDA v6.2.35, 2019-08-15T18:41:42+02:00*
G04 d928556bf1d54400a7a5e192a75a7165,10119efe1344418d97fa33539d7a4e55,10*
G04 Gerber Generator version 0.2*
G04 Scale: 100 percent, Rotated: No, Reflected: No *
G04 Dimensions in millimeters *
G04 leading zeros omitted , absolute positions ,3 integer and 3 decimal *
%FSLAX33Y33*%
%MOMM*%
G90*
G71D02*

%ADD14R,3.799992X2.299995*%
%ADD15R,1.199998X1.999996*%
%ADD16R,1.160018X1.450010*%
%ADD17R,1.399540X1.300480*%
%ADD18R,0.450012X1.999996*%
%ADD19R,1.599997X1.199896*%
%ADD20R,1.999996X0.899998*%
%ADD21R,4.999990X4.999990*%
%ADD22R,0.899998X1.999996*%
%ADD23R,1.699997X0.999998*%
%ADD24R,1.450010X1.160018*%
%ADD25R,1.300480X1.399540*%
%ADD26R,1.050036X2.199894*%
%ADD27R,1.050036X0.999998*%
%ADD28R,4.064000X1.524000*%
%ADD29R,0.399999X0.650011*%

%LPD*%
G54D14*
G01X27686Y8509D03*
G54D15*
G01X27686Y2159D03*
G01X29985Y2159D03*
G01X25386Y2159D03*
G54D16*
G01X34290Y7493D03*
G01X32258Y7493D03*
G54D17*
G01X21717Y15494D03*
G01X21717Y17594D03*
G54D18*
G01X37103Y4949D03*
G01X36453Y4949D03*
G01X35803Y4949D03*
G01X35153Y4949D03*
G01X34503Y4949D03*
G54D19*
G01X37409Y638D03*
G01X34130Y654D03*
G54D20*
G01X2015Y35363D03*
G54D21*
G01X9516Y27864D03*
G54D20*
G01X2015Y34093D03*
G01X2015Y32823D03*
G01X2015Y31553D03*
G01X2015Y30283D03*
G01X2015Y29013D03*
G01X2015Y27743D03*
G01X2015Y26473D03*
G01X2015Y25203D03*
G01X2015Y23933D03*
G01X2015Y22663D03*
G01X2015Y21393D03*
G01X2015Y20123D03*
G01X2015Y18853D03*
G01X19015Y35363D03*
G01X19015Y34093D03*
G01X19015Y32823D03*
G01X19015Y31553D03*
G01X19015Y30283D03*
G01X19015Y29013D03*
G01X19015Y27743D03*
G01X19015Y26473D03*
G01X19015Y25203D03*
G01X19015Y23933D03*
G01X19015Y22663D03*
G01X19015Y21393D03*
G01X19015Y20123D03*
G01X19015Y18853D03*
G54D22*
G01X4801Y17853D03*
G01X6071Y17853D03*
G01X7341Y17853D03*
G01X8611Y17853D03*
G01X9881Y17853D03*
G01X11151Y17853D03*
G01X12421Y17853D03*
G01X13691Y17853D03*
G01X14961Y17853D03*
G01X16231Y17853D03*
G54D16*
G01X22225Y7493D03*
G01X20193Y7493D03*
G01X2286Y13716D03*
G01X4318Y13716D03*
G54D23*
G01X13155Y3180D03*
G01X6656Y3180D03*
G01X13155Y6979D03*
G01X6656Y6979D03*
G01X6656Y13449D03*
G01X13155Y13449D03*
G01X6656Y9648D03*
G01X13155Y9648D03*
G54D16*
G01X34290Y10033D03*
G01X32258Y10033D03*
G01X20193Y4953D03*
G01X22225Y4953D03*
G54D24*
G01X15748Y3937D03*
G01X15748Y5969D03*
G54D16*
G01X2286Y3302D03*
G01X4318Y3302D03*
G54D24*
G01X15748Y12573D03*
G01X15748Y10541D03*
G54D16*
G01X2286Y10287D03*
G01X4318Y10287D03*
G54D14*
G01X27686Y18542D03*
G54D15*
G01X27686Y12192D03*
G01X29985Y12192D03*
G01X25386Y12192D03*
G54D16*
G01X20193Y10160D03*
G01X22225Y10160D03*
G01X20193Y2413D03*
G01X22225Y2413D03*
G01X2286Y6858D03*
G01X4318Y6858D03*
G01X22098Y21463D03*
G01X24130Y21463D03*
G54D25*
G01X26762Y24003D03*
G01X28863Y24003D03*
G54D16*
G01X22225Y12700D03*
G01X20193Y12700D03*
G36*
G01X31393Y35560D02*
G01X31396Y35620D01*
G01X31407Y35679D01*
G01X31425Y35737D01*
G01X31450Y35792D01*
G01X31481Y35843D01*
G01X31518Y35891D01*
G01X31561Y35934D01*
G01X31609Y35971D01*
G01X31660Y36002D01*
G01X31715Y36027D01*
G01X31773Y36045D01*
G01X31832Y36056D01*
G01X31893Y36059D01*
G01X33892Y36059D01*
G01X33953Y36056D01*
G01X34012Y36045D01*
G01X34070Y36027D01*
G01X34125Y36002D01*
G01X34176Y35971D01*
G01X34224Y35934D01*
G01X34267Y35891D01*
G01X34304Y35843D01*
G01X34335Y35792D01*
G01X34360Y35737D01*
G01X34378Y35679D01*
G01X34389Y35620D01*
G01X34392Y35560D01*
G01X34389Y35499D01*
G01X34378Y35440D01*
G01X34360Y35382D01*
G01X34335Y35327D01*
G01X34304Y35276D01*
G01X34267Y35228D01*
G01X34224Y35185D01*
G01X34176Y35148D01*
G01X34125Y35117D01*
G01X34070Y35092D01*
G01X34012Y35074D01*
G01X33953Y35063D01*
G01X33892Y35059D01*
G01X31893Y35059D01*
G01X31832Y35063D01*
G01X31773Y35074D01*
G01X31715Y35092D01*
G01X31660Y35117D01*
G01X31609Y35148D01*
G01X31561Y35185D01*
G01X31518Y35228D01*
G01X31481Y35276D01*
G01X31450Y35327D01*
G01X31425Y35382D01*
G01X31407Y35440D01*
G01X31396Y35499D01*
G01X31393Y35560D01*
G37*
G36*
G01X31393Y33560D02*
G01X31396Y33620D01*
G01X31407Y33679D01*
G01X31425Y33737D01*
G01X31450Y33792D01*
G01X31481Y33843D01*
G01X31518Y33891D01*
G01X31561Y33934D01*
G01X31609Y33971D01*
G01X31660Y34002D01*
G01X31715Y34027D01*
G01X31773Y34045D01*
G01X31832Y34056D01*
G01X31893Y34059D01*
G01X33892Y34059D01*
G01X33953Y34056D01*
G01X34012Y34045D01*
G01X34070Y34027D01*
G01X34125Y34002D01*
G01X34176Y33971D01*
G01X34224Y33934D01*
G01X34267Y33891D01*
G01X34304Y33843D01*
G01X34335Y33792D01*
G01X34360Y33737D01*
G01X34378Y33679D01*
G01X34389Y33620D01*
G01X34392Y33560D01*
G01X34389Y33499D01*
G01X34378Y33440D01*
G01X34360Y33382D01*
G01X34335Y33327D01*
G01X34304Y33276D01*
G01X34267Y33228D01*
G01X34224Y33185D01*
G01X34176Y33148D01*
G01X34125Y33117D01*
G01X34070Y33092D01*
G01X34012Y33074D01*
G01X33953Y33063D01*
G01X33892Y33059D01*
G01X31893Y33059D01*
G01X31832Y33063D01*
G01X31773Y33074D01*
G01X31715Y33092D01*
G01X31660Y33117D01*
G01X31609Y33148D01*
G01X31561Y33185D01*
G01X31518Y33228D01*
G01X31481Y33276D01*
G01X31450Y33327D01*
G01X31425Y33382D01*
G01X31407Y33440D01*
G01X31396Y33499D01*
G01X31393Y33560D01*
G37*
G36*
G01X31393Y31560D02*
G01X31396Y31620D01*
G01X31407Y31679D01*
G01X31425Y31737D01*
G01X31450Y31792D01*
G01X31481Y31843D01*
G01X31518Y31891D01*
G01X31561Y31934D01*
G01X31609Y31971D01*
G01X31660Y32002D01*
G01X31715Y32027D01*
G01X31773Y32045D01*
G01X31832Y32056D01*
G01X31893Y32059D01*
G01X33892Y32059D01*
G01X33953Y32056D01*
G01X34012Y32045D01*
G01X34070Y32027D01*
G01X34125Y32002D01*
G01X34176Y31971D01*
G01X34224Y31934D01*
G01X34267Y31891D01*
G01X34304Y31843D01*
G01X34335Y31792D01*
G01X34360Y31737D01*
G01X34378Y31679D01*
G01X34389Y31620D01*
G01X34392Y31560D01*
G01X34389Y31499D01*
G01X34378Y31440D01*
G01X34360Y31382D01*
G01X34335Y31327D01*
G01X34304Y31276D01*
G01X34267Y31228D01*
G01X34224Y31185D01*
G01X34176Y31148D01*
G01X34125Y31117D01*
G01X34070Y31092D01*
G01X34012Y31074D01*
G01X33953Y31063D01*
G01X33892Y31059D01*
G01X31893Y31059D01*
G01X31832Y31063D01*
G01X31773Y31074D01*
G01X31715Y31092D01*
G01X31660Y31117D01*
G01X31609Y31148D01*
G01X31561Y31185D01*
G01X31518Y31228D01*
G01X31481Y31276D01*
G01X31450Y31327D01*
G01X31425Y31382D01*
G01X31407Y31440D01*
G01X31396Y31499D01*
G01X31393Y31560D01*
G37*
G36*
G01X31393Y29560D02*
G01X31396Y29620D01*
G01X31407Y29679D01*
G01X31425Y29737D01*
G01X31450Y29792D01*
G01X31481Y29843D01*
G01X31518Y29891D01*
G01X31561Y29934D01*
G01X31609Y29971D01*
G01X31660Y30002D01*
G01X31715Y30027D01*
G01X31773Y30045D01*
G01X31832Y30056D01*
G01X31893Y30059D01*
G01X33892Y30059D01*
G01X33953Y30056D01*
G01X34012Y30045D01*
G01X34070Y30027D01*
G01X34125Y30002D01*
G01X34176Y29971D01*
G01X34224Y29934D01*
G01X34267Y29891D01*
G01X34304Y29843D01*
G01X34335Y29792D01*
G01X34360Y29737D01*
G01X34378Y29679D01*
G01X34389Y29620D01*
G01X34392Y29560D01*
G01X34389Y29499D01*
G01X34378Y29440D01*
G01X34360Y29382D01*
G01X34335Y29327D01*
G01X34304Y29276D01*
G01X34267Y29228D01*
G01X34224Y29185D01*
G01X34176Y29148D01*
G01X34125Y29117D01*
G01X34070Y29092D01*
G01X34012Y29074D01*
G01X33953Y29063D01*
G01X33892Y29059D01*
G01X31893Y29059D01*
G01X31832Y29063D01*
G01X31773Y29074D01*
G01X31715Y29092D01*
G01X31660Y29117D01*
G01X31609Y29148D01*
G01X31561Y29185D01*
G01X31518Y29228D01*
G01X31481Y29276D01*
G01X31450Y29327D01*
G01X31425Y29382D01*
G01X31407Y29440D01*
G01X31396Y29499D01*
G01X31393Y29560D01*
G37*
G36*
G01X31393Y27560D02*
G01X31396Y27620D01*
G01X31407Y27679D01*
G01X31425Y27737D01*
G01X31450Y27792D01*
G01X31481Y27843D01*
G01X31518Y27891D01*
G01X31561Y27934D01*
G01X31609Y27971D01*
G01X31660Y28002D01*
G01X31715Y28027D01*
G01X31773Y28045D01*
G01X31832Y28056D01*
G01X31893Y28060D01*
G01X33892Y28060D01*
G01X33953Y28056D01*
G01X34012Y28045D01*
G01X34070Y28027D01*
G01X34125Y28002D01*
G01X34176Y27971D01*
G01X34224Y27934D01*
G01X34267Y27891D01*
G01X34304Y27843D01*
G01X34335Y27792D01*
G01X34360Y27737D01*
G01X34378Y27679D01*
G01X34389Y27620D01*
G01X34392Y27560D01*
G01X34389Y27499D01*
G01X34378Y27440D01*
G01X34360Y27382D01*
G01X34335Y27327D01*
G01X34304Y27276D01*
G01X34267Y27228D01*
G01X34224Y27185D01*
G01X34176Y27148D01*
G01X34125Y27117D01*
G01X34070Y27092D01*
G01X34012Y27074D01*
G01X33953Y27063D01*
G01X33892Y27060D01*
G01X31893Y27060D01*
G01X31832Y27063D01*
G01X31773Y27074D01*
G01X31715Y27092D01*
G01X31660Y27117D01*
G01X31609Y27148D01*
G01X31561Y27185D01*
G01X31518Y27228D01*
G01X31481Y27276D01*
G01X31450Y27327D01*
G01X31425Y27382D01*
G01X31407Y27440D01*
G01X31396Y27499D01*
G01X31393Y27560D01*
G37*
G36*
G01X31393Y25560D02*
G01X31396Y25620D01*
G01X31407Y25679D01*
G01X31425Y25737D01*
G01X31450Y25792D01*
G01X31481Y25843D01*
G01X31518Y25891D01*
G01X31561Y25934D01*
G01X31609Y25971D01*
G01X31660Y26002D01*
G01X31715Y26027D01*
G01X31773Y26045D01*
G01X31832Y26056D01*
G01X31893Y26059D01*
G01X33892Y26059D01*
G01X33953Y26056D01*
G01X34012Y26045D01*
G01X34070Y26027D01*
G01X34125Y26002D01*
G01X34176Y25971D01*
G01X34224Y25934D01*
G01X34267Y25891D01*
G01X34304Y25843D01*
G01X34335Y25792D01*
G01X34360Y25737D01*
G01X34378Y25679D01*
G01X34389Y25620D01*
G01X34392Y25560D01*
G01X34389Y25499D01*
G01X34378Y25440D01*
G01X34360Y25382D01*
G01X34335Y25327D01*
G01X34304Y25276D01*
G01X34267Y25228D01*
G01X34224Y25185D01*
G01X34176Y25148D01*
G01X34125Y25117D01*
G01X34070Y25092D01*
G01X34012Y25074D01*
G01X33953Y25063D01*
G01X33892Y25059D01*
G01X31893Y25059D01*
G01X31832Y25063D01*
G01X31773Y25074D01*
G01X31715Y25092D01*
G01X31660Y25117D01*
G01X31609Y25148D01*
G01X31561Y25185D01*
G01X31518Y25228D01*
G01X31481Y25276D01*
G01X31450Y25327D01*
G01X31425Y25382D01*
G01X31407Y25440D01*
G01X31396Y25499D01*
G01X31393Y25560D01*
G37*
G36*
G01X31393Y23560D02*
G01X31396Y23620D01*
G01X31407Y23679D01*
G01X31425Y23737D01*
G01X31450Y23792D01*
G01X31481Y23843D01*
G01X31518Y23891D01*
G01X31561Y23934D01*
G01X31609Y23971D01*
G01X31660Y24002D01*
G01X31715Y24027D01*
G01X31773Y24045D01*
G01X31832Y24056D01*
G01X31893Y24060D01*
G01X33892Y24060D01*
G01X33953Y24056D01*
G01X34012Y24045D01*
G01X34070Y24027D01*
G01X34125Y24002D01*
G01X34176Y23971D01*
G01X34224Y23934D01*
G01X34267Y23891D01*
G01X34304Y23843D01*
G01X34335Y23792D01*
G01X34360Y23737D01*
G01X34378Y23679D01*
G01X34389Y23620D01*
G01X34392Y23560D01*
G01X34389Y23499D01*
G01X34378Y23440D01*
G01X34360Y23382D01*
G01X34335Y23327D01*
G01X34304Y23276D01*
G01X34267Y23228D01*
G01X34224Y23185D01*
G01X34176Y23148D01*
G01X34125Y23117D01*
G01X34070Y23092D01*
G01X34012Y23074D01*
G01X33953Y23063D01*
G01X33892Y23060D01*
G01X31893Y23060D01*
G01X31832Y23063D01*
G01X31773Y23074D01*
G01X31715Y23092D01*
G01X31660Y23117D01*
G01X31609Y23148D01*
G01X31561Y23185D01*
G01X31518Y23228D01*
G01X31481Y23276D01*
G01X31450Y23327D01*
G01X31425Y23382D01*
G01X31407Y23440D01*
G01X31396Y23499D01*
G01X31393Y23560D01*
G37*
G36*
G01X31393Y21560D02*
G01X31396Y21620D01*
G01X31407Y21679D01*
G01X31425Y21737D01*
G01X31450Y21792D01*
G01X31481Y21844D01*
G01X31518Y21891D01*
G01X31561Y21934D01*
G01X31609Y21971D01*
G01X31660Y22002D01*
G01X31715Y22027D01*
G01X31773Y22045D01*
G01X31832Y22056D01*
G01X31893Y22059D01*
G01X33892Y22059D01*
G01X33953Y22056D01*
G01X34012Y22045D01*
G01X34070Y22027D01*
G01X34125Y22002D01*
G01X34176Y21971D01*
G01X34224Y21934D01*
G01X34267Y21891D01*
G01X34304Y21844D01*
G01X34335Y21792D01*
G01X34360Y21737D01*
G01X34378Y21679D01*
G01X34389Y21620D01*
G01X34392Y21560D01*
G01X34389Y21499D01*
G01X34378Y21440D01*
G01X34360Y21382D01*
G01X34335Y21327D01*
G01X34304Y21276D01*
G01X34267Y21228D01*
G01X34224Y21185D01*
G01X34176Y21148D01*
G01X34125Y21117D01*
G01X34070Y21092D01*
G01X34012Y21074D01*
G01X33953Y21063D01*
G01X33892Y21059D01*
G01X31893Y21059D01*
G01X31832Y21063D01*
G01X31773Y21074D01*
G01X31715Y21092D01*
G01X31660Y21117D01*
G01X31609Y21148D01*
G01X31561Y21185D01*
G01X31518Y21228D01*
G01X31481Y21276D01*
G01X31450Y21327D01*
G01X31425Y21382D01*
G01X31407Y21440D01*
G01X31396Y21499D01*
G01X31393Y21560D01*
G37*
G36*
G01X47393Y21560D02*
G01X47396Y21620D01*
G01X47407Y21679D01*
G01X47425Y21737D01*
G01X47450Y21792D01*
G01X47481Y21844D01*
G01X47518Y21891D01*
G01X47561Y21934D01*
G01X47608Y21971D01*
G01X47660Y22002D01*
G01X47715Y22027D01*
G01X47773Y22045D01*
G01X47832Y22056D01*
G01X47892Y22059D01*
G01X49892Y22059D01*
G01X49953Y22056D01*
G01X50012Y22045D01*
G01X50070Y22027D01*
G01X50125Y22002D01*
G01X50176Y21971D01*
G01X50224Y21934D01*
G01X50267Y21891D01*
G01X50304Y21844D01*
G01X50335Y21792D01*
G01X50360Y21737D01*
G01X50378Y21679D01*
G01X50389Y21620D01*
G01X50392Y21560D01*
G01X50389Y21499D01*
G01X50378Y21440D01*
G01X50360Y21382D01*
G01X50335Y21327D01*
G01X50304Y21276D01*
G01X50267Y21228D01*
G01X50224Y21185D01*
G01X50176Y21148D01*
G01X50125Y21117D01*
G01X50070Y21092D01*
G01X50012Y21074D01*
G01X49953Y21063D01*
G01X49892Y21059D01*
G01X47892Y21059D01*
G01X47832Y21063D01*
G01X47773Y21074D01*
G01X47715Y21092D01*
G01X47660Y21117D01*
G01X47608Y21148D01*
G01X47561Y21185D01*
G01X47518Y21228D01*
G01X47481Y21276D01*
G01X47450Y21327D01*
G01X47425Y21382D01*
G01X47407Y21440D01*
G01X47396Y21499D01*
G01X47393Y21560D01*
G37*
G36*
G01X47393Y23560D02*
G01X47396Y23620D01*
G01X47407Y23679D01*
G01X47425Y23737D01*
G01X47450Y23792D01*
G01X47481Y23843D01*
G01X47518Y23891D01*
G01X47561Y23934D01*
G01X47608Y23971D01*
G01X47660Y24002D01*
G01X47715Y24027D01*
G01X47773Y24045D01*
G01X47832Y24056D01*
G01X47892Y24060D01*
G01X49892Y24060D01*
G01X49953Y24056D01*
G01X50012Y24045D01*
G01X50070Y24027D01*
G01X50125Y24002D01*
G01X50176Y23971D01*
G01X50224Y23934D01*
G01X50267Y23891D01*
G01X50304Y23843D01*
G01X50335Y23792D01*
G01X50360Y23737D01*
G01X50378Y23679D01*
G01X50389Y23620D01*
G01X50392Y23560D01*
G01X50389Y23499D01*
G01X50378Y23440D01*
G01X50360Y23382D01*
G01X50335Y23327D01*
G01X50304Y23276D01*
G01X50267Y23228D01*
G01X50224Y23185D01*
G01X50176Y23148D01*
G01X50125Y23117D01*
G01X50070Y23092D01*
G01X50012Y23074D01*
G01X49953Y23063D01*
G01X49892Y23060D01*
G01X47892Y23060D01*
G01X47832Y23063D01*
G01X47773Y23074D01*
G01X47715Y23092D01*
G01X47660Y23117D01*
G01X47608Y23148D01*
G01X47561Y23185D01*
G01X47518Y23228D01*
G01X47481Y23276D01*
G01X47450Y23327D01*
G01X47425Y23382D01*
G01X47407Y23440D01*
G01X47396Y23499D01*
G01X47393Y23560D01*
G37*
G36*
G01X47393Y25560D02*
G01X47396Y25620D01*
G01X47407Y25679D01*
G01X47425Y25737D01*
G01X47450Y25792D01*
G01X47481Y25843D01*
G01X47518Y25891D01*
G01X47561Y25934D01*
G01X47608Y25971D01*
G01X47660Y26002D01*
G01X47715Y26027D01*
G01X47773Y26045D01*
G01X47832Y26056D01*
G01X47892Y26059D01*
G01X49892Y26059D01*
G01X49953Y26056D01*
G01X50012Y26045D01*
G01X50070Y26027D01*
G01X50125Y26002D01*
G01X50176Y25971D01*
G01X50224Y25934D01*
G01X50267Y25891D01*
G01X50304Y25843D01*
G01X50335Y25792D01*
G01X50360Y25737D01*
G01X50378Y25679D01*
G01X50389Y25620D01*
G01X50392Y25560D01*
G01X50389Y25499D01*
G01X50378Y25440D01*
G01X50360Y25382D01*
G01X50335Y25327D01*
G01X50304Y25276D01*
G01X50267Y25228D01*
G01X50224Y25185D01*
G01X50176Y25148D01*
G01X50125Y25117D01*
G01X50070Y25092D01*
G01X50012Y25074D01*
G01X49953Y25063D01*
G01X49892Y25059D01*
G01X47892Y25059D01*
G01X47832Y25063D01*
G01X47773Y25074D01*
G01X47715Y25092D01*
G01X47660Y25117D01*
G01X47608Y25148D01*
G01X47561Y25185D01*
G01X47518Y25228D01*
G01X47481Y25276D01*
G01X47450Y25327D01*
G01X47425Y25382D01*
G01X47407Y25440D01*
G01X47396Y25499D01*
G01X47393Y25560D01*
G37*
G36*
G01X47393Y27560D02*
G01X47396Y27620D01*
G01X47407Y27679D01*
G01X47425Y27737D01*
G01X47450Y27792D01*
G01X47481Y27843D01*
G01X47518Y27891D01*
G01X47561Y27934D01*
G01X47608Y27971D01*
G01X47660Y28002D01*
G01X47715Y28027D01*
G01X47773Y28045D01*
G01X47832Y28056D01*
G01X47892Y28060D01*
G01X49892Y28060D01*
G01X49953Y28056D01*
G01X50012Y28045D01*
G01X50070Y28027D01*
G01X50125Y28002D01*
G01X50176Y27971D01*
G01X50224Y27934D01*
G01X50267Y27891D01*
G01X50304Y27843D01*
G01X50335Y27792D01*
G01X50360Y27737D01*
G01X50378Y27679D01*
G01X50389Y27620D01*
G01X50392Y27560D01*
G01X50389Y27499D01*
G01X50378Y27440D01*
G01X50360Y27382D01*
G01X50335Y27327D01*
G01X50304Y27276D01*
G01X50267Y27228D01*
G01X50224Y27185D01*
G01X50176Y27148D01*
G01X50125Y27117D01*
G01X50070Y27092D01*
G01X50012Y27074D01*
G01X49953Y27063D01*
G01X49892Y27060D01*
G01X47892Y27060D01*
G01X47832Y27063D01*
G01X47773Y27074D01*
G01X47715Y27092D01*
G01X47660Y27117D01*
G01X47608Y27148D01*
G01X47561Y27185D01*
G01X47518Y27228D01*
G01X47481Y27276D01*
G01X47450Y27327D01*
G01X47425Y27382D01*
G01X47407Y27440D01*
G01X47396Y27499D01*
G01X47393Y27560D01*
G37*
G36*
G01X47393Y29560D02*
G01X47396Y29620D01*
G01X47407Y29679D01*
G01X47425Y29737D01*
G01X47450Y29792D01*
G01X47481Y29843D01*
G01X47518Y29891D01*
G01X47561Y29934D01*
G01X47608Y29971D01*
G01X47660Y30002D01*
G01X47715Y30027D01*
G01X47773Y30045D01*
G01X47832Y30056D01*
G01X47892Y30059D01*
G01X49892Y30059D01*
G01X49953Y30056D01*
G01X50012Y30045D01*
G01X50070Y30027D01*
G01X50125Y30002D01*
G01X50176Y29971D01*
G01X50224Y29934D01*
G01X50267Y29891D01*
G01X50304Y29843D01*
G01X50335Y29792D01*
G01X50360Y29737D01*
G01X50378Y29679D01*
G01X50389Y29620D01*
G01X50392Y29560D01*
G01X50389Y29499D01*
G01X50378Y29440D01*
G01X50360Y29382D01*
G01X50335Y29327D01*
G01X50304Y29276D01*
G01X50267Y29228D01*
G01X50224Y29185D01*
G01X50176Y29148D01*
G01X50125Y29117D01*
G01X50070Y29092D01*
G01X50012Y29074D01*
G01X49953Y29063D01*
G01X49892Y29059D01*
G01X47892Y29059D01*
G01X47832Y29063D01*
G01X47773Y29074D01*
G01X47715Y29092D01*
G01X47660Y29117D01*
G01X47608Y29148D01*
G01X47561Y29185D01*
G01X47518Y29228D01*
G01X47481Y29276D01*
G01X47450Y29327D01*
G01X47425Y29382D01*
G01X47407Y29440D01*
G01X47396Y29499D01*
G01X47393Y29560D01*
G37*
G36*
G01X47393Y31560D02*
G01X47396Y31620D01*
G01X47407Y31679D01*
G01X47425Y31737D01*
G01X47450Y31792D01*
G01X47481Y31843D01*
G01X47518Y31891D01*
G01X47561Y31934D01*
G01X47608Y31971D01*
G01X47660Y32002D01*
G01X47715Y32027D01*
G01X47773Y32045D01*
G01X47832Y32056D01*
G01X47892Y32059D01*
G01X49892Y32059D01*
G01X49953Y32056D01*
G01X50012Y32045D01*
G01X50070Y32027D01*
G01X50125Y32002D01*
G01X50176Y31971D01*
G01X50224Y31934D01*
G01X50267Y31891D01*
G01X50304Y31843D01*
G01X50335Y31792D01*
G01X50360Y31737D01*
G01X50378Y31679D01*
G01X50389Y31620D01*
G01X50392Y31560D01*
G01X50389Y31499D01*
G01X50378Y31440D01*
G01X50360Y31382D01*
G01X50335Y31327D01*
G01X50304Y31276D01*
G01X50267Y31228D01*
G01X50224Y31185D01*
G01X50176Y31148D01*
G01X50125Y31117D01*
G01X50070Y31092D01*
G01X50012Y31074D01*
G01X49953Y31063D01*
G01X49892Y31059D01*
G01X47892Y31059D01*
G01X47832Y31063D01*
G01X47773Y31074D01*
G01X47715Y31092D01*
G01X47660Y31117D01*
G01X47608Y31148D01*
G01X47561Y31185D01*
G01X47518Y31228D01*
G01X47481Y31276D01*
G01X47450Y31327D01*
G01X47425Y31382D01*
G01X47407Y31440D01*
G01X47396Y31499D01*
G01X47393Y31560D01*
G37*
G36*
G01X47393Y33560D02*
G01X47396Y33620D01*
G01X47407Y33679D01*
G01X47425Y33737D01*
G01X47450Y33792D01*
G01X47481Y33843D01*
G01X47518Y33891D01*
G01X47561Y33934D01*
G01X47608Y33971D01*
G01X47660Y34002D01*
G01X47715Y34027D01*
G01X47773Y34045D01*
G01X47832Y34056D01*
G01X47892Y34059D01*
G01X49892Y34059D01*
G01X49953Y34056D01*
G01X50012Y34045D01*
G01X50070Y34027D01*
G01X50125Y34002D01*
G01X50176Y33971D01*
G01X50224Y33934D01*
G01X50267Y33891D01*
G01X50304Y33843D01*
G01X50335Y33792D01*
G01X50360Y33737D01*
G01X50378Y33679D01*
G01X50389Y33620D01*
G01X50392Y33560D01*
G01X50389Y33499D01*
G01X50378Y33440D01*
G01X50360Y33382D01*
G01X50335Y33327D01*
G01X50304Y33276D01*
G01X50267Y33228D01*
G01X50224Y33185D01*
G01X50176Y33148D01*
G01X50125Y33117D01*
G01X50070Y33092D01*
G01X50012Y33074D01*
G01X49953Y33063D01*
G01X49892Y33059D01*
G01X47892Y33059D01*
G01X47832Y33063D01*
G01X47773Y33074D01*
G01X47715Y33092D01*
G01X47660Y33117D01*
G01X47608Y33148D01*
G01X47561Y33185D01*
G01X47518Y33228D01*
G01X47481Y33276D01*
G01X47450Y33327D01*
G01X47425Y33382D01*
G01X47407Y33440D01*
G01X47396Y33499D01*
G01X47393Y33560D01*
G37*
G36*
G01X47393Y35560D02*
G01X47396Y35620D01*
G01X47407Y35679D01*
G01X47425Y35737D01*
G01X47450Y35792D01*
G01X47481Y35843D01*
G01X47518Y35891D01*
G01X47561Y35934D01*
G01X47608Y35971D01*
G01X47660Y36002D01*
G01X47715Y36027D01*
G01X47773Y36045D01*
G01X47832Y36056D01*
G01X47892Y36059D01*
G01X49892Y36059D01*
G01X49953Y36056D01*
G01X50012Y36045D01*
G01X50070Y36027D01*
G01X50125Y36002D01*
G01X50176Y35971D01*
G01X50224Y35934D01*
G01X50267Y35891D01*
G01X50304Y35843D01*
G01X50335Y35792D01*
G01X50360Y35737D01*
G01X50378Y35679D01*
G01X50389Y35620D01*
G01X50392Y35560D01*
G01X50389Y35499D01*
G01X50378Y35440D01*
G01X50360Y35382D01*
G01X50335Y35327D01*
G01X50304Y35276D01*
G01X50267Y35228D01*
G01X50224Y35185D01*
G01X50176Y35148D01*
G01X50125Y35117D01*
G01X50070Y35092D01*
G01X50012Y35074D01*
G01X49953Y35063D01*
G01X49892Y35059D01*
G01X47892Y35059D01*
G01X47832Y35063D01*
G01X47773Y35074D01*
G01X47715Y35092D01*
G01X47660Y35117D01*
G01X47608Y35148D01*
G01X47561Y35185D01*
G01X47518Y35228D01*
G01X47481Y35276D01*
G01X47450Y35327D01*
G01X47425Y35382D01*
G01X47407Y35440D01*
G01X47396Y35499D01*
G01X47393Y35560D01*
G37*
G54D26*
G01X48088Y9779D03*
G01X51037Y9779D03*
G54D27*
G01X49563Y8179D03*
G54D28*
G01X49403Y6350D03*
G01X49403Y3810D03*
G01X49403Y1270D03*
G54D29*
G01X39116Y8890D03*
G01X38415Y8890D03*
G01X38354Y6604D03*
G01X39054Y6604D03*
M00*
M02*
