G04 Layer: BottomLayer*
G04 EasyEDA v6.2.35, 2019-08-15T18:41:42+02:00*
G04 d928556bf1d54400a7a5e192a75a7165,10119efe1344418d97fa33539d7a4e55,10*
G04 Gerber Generator version 0.2*
G04 Scale: 100 percent, Rotated: No, Reflected: No *
G04 Dimensions in millimeters *
G04 leading zeros omitted , absolute positions ,3 integer and 3 decimal *
%FSLAX33Y33*%
%MOMM*%
G90*
G71D02*

%ADD11C,0.299999*%
%ADD12C,0.450012*%
%ADD13C,0.609600*%
%ADD28R,4.064000X1.524000*%
%ADD30C,1.299997*%
%ADD31R,1.524000X1.524000*%
%ADD32C,1.524000*%
%ADD33R,2.032000X2.032000*%
%ADD34C,2.032000*%
%ADD35C,0.280010*%

%LPD*%
G36*
G01X51457Y36192D02*
G01X27614Y36192D01*
G01X27600Y36191D01*
G01X27585Y36188D01*
G01X27572Y36183D01*
G01X27559Y36176D01*
G01X27548Y36167D01*
G01X27537Y36157D01*
G01X27529Y36145D01*
G01X27522Y36133D01*
G01X27517Y36119D01*
G01X27513Y36105D01*
G01X27512Y36090D01*
G01X27516Y36064D01*
G01X27523Y36034D01*
G01X27528Y36003D01*
G01X27531Y35972D01*
G01X27532Y35941D01*
G01X27532Y33769D01*
G01X27533Y33753D01*
G01X27537Y33738D01*
G01X27543Y33723D01*
G01X27551Y33709D01*
G01X27562Y33697D01*
G01X29454Y31805D01*
G01X29467Y31794D01*
G01X29481Y31786D01*
G01X29497Y31779D01*
G01X29529Y31769D01*
G01X29561Y31756D01*
G01X29592Y31741D01*
G01X29622Y31725D01*
G01X29651Y31706D01*
G01X29679Y31686D01*
G01X29705Y31665D01*
G01X29730Y31641D01*
G01X29754Y31617D01*
G01X29776Y31591D01*
G01X29797Y31563D01*
G01X29815Y31534D01*
G01X29832Y31505D01*
G01X29847Y31474D01*
G01X29861Y31442D01*
G01X29872Y31410D01*
G01X29881Y31377D01*
G01X29888Y31344D01*
G01X29894Y31310D01*
G01X29897Y31276D01*
G01X29898Y31242D01*
G01X29897Y31207D01*
G01X29894Y31173D01*
G01X29888Y31139D01*
G01X29881Y31105D01*
G01X29872Y31072D01*
G01X29860Y31039D01*
G01X29847Y31008D01*
G01X29832Y30977D01*
G01X29814Y30947D01*
G01X29795Y30918D01*
G01X29775Y30891D01*
G01X29752Y30864D01*
G01X29728Y30840D01*
G01X29703Y30816D01*
G01X29676Y30795D01*
G01X29648Y30775D01*
G01X29635Y30764D01*
G01X29624Y30752D01*
G01X29615Y30738D01*
G01X29608Y30723D01*
G01X29604Y30707D01*
G01X29603Y30690D01*
G01X29604Y30676D01*
G01X29607Y30662D01*
G01X29612Y30648D01*
G01X29619Y30635D01*
G01X29628Y30624D01*
G01X29638Y30613D01*
G01X29650Y30605D01*
G01X29662Y30598D01*
G01X29676Y30593D01*
G01X29690Y30590D01*
G01X29705Y30589D01*
G01X37592Y30580D01*
G01X37623Y30579D01*
G01X37655Y30576D01*
G01X37686Y30571D01*
G01X37716Y30564D01*
G01X37747Y30554D01*
G01X37776Y30543D01*
G01X37805Y30530D01*
G01X37832Y30515D01*
G01X37859Y30499D01*
G01X37885Y30480D01*
G01X37909Y30461D01*
G01X37932Y30439D01*
G01X38969Y29402D01*
G01X38981Y29392D01*
G01X38994Y29384D01*
G01X39009Y29378D01*
G01X39024Y29374D01*
G01X39040Y29373D01*
G01X39055Y29374D01*
G01X39069Y29377D01*
G01X39083Y29382D01*
G01X39095Y29389D01*
G01X39107Y29398D01*
G01X39117Y29408D01*
G01X39126Y29419D01*
G01X39133Y29432D01*
G01X39138Y29446D01*
G01X39141Y29460D01*
G01X39142Y29474D01*
G01X39142Y30164D01*
G01X39141Y30181D01*
G01X39136Y30197D01*
G01X39130Y30213D01*
G01X39114Y30244D01*
G01X39101Y30276D01*
G01X39089Y30308D01*
G01X39079Y30342D01*
G01X39072Y30376D01*
G01X39066Y30410D01*
G01X39063Y30445D01*
G01X39062Y30479D01*
G01X39063Y30513D01*
G01X39066Y30547D01*
G01X39071Y30581D01*
G01X39078Y30614D01*
G01X39088Y30647D01*
G01X39099Y30679D01*
G01X39112Y30710D01*
G01X39126Y30740D01*
G01X39143Y30770D01*
G01X39162Y30798D01*
G01X39182Y30826D01*
G01X39203Y30852D01*
G01X39251Y30900D01*
G01X39277Y30921D01*
G01X39305Y30941D01*
G01X39333Y30960D01*
G01X39363Y30977D01*
G01X39393Y30991D01*
G01X39424Y31004D01*
G01X39456Y31015D01*
G01X39489Y31025D01*
G01X39522Y31032D01*
G01X39556Y31037D01*
G01X39590Y31040D01*
G01X39624Y31041D01*
G01X39657Y31040D01*
G01X39691Y31037D01*
G01X39725Y31032D01*
G01X39758Y31025D01*
G01X39791Y31015D01*
G01X39823Y31004D01*
G01X39854Y30991D01*
G01X39884Y30977D01*
G01X39914Y30960D01*
G01X39942Y30941D01*
G01X39970Y30921D01*
G01X39996Y30900D01*
G01X40044Y30852D01*
G01X40065Y30826D01*
G01X40085Y30798D01*
G01X40104Y30770D01*
G01X40121Y30740D01*
G01X40135Y30710D01*
G01X40148Y30679D01*
G01X40159Y30647D01*
G01X40169Y30614D01*
G01X40176Y30581D01*
G01X40181Y30547D01*
G01X40184Y30513D01*
G01X40185Y30480D01*
G01X40184Y30445D01*
G01X40181Y30410D01*
G01X40175Y30376D01*
G01X40168Y30342D01*
G01X40158Y30308D01*
G01X40146Y30276D01*
G01X40133Y30244D01*
G01X40117Y30213D01*
G01X40111Y30197D01*
G01X40106Y30181D01*
G01X40105Y30164D01*
G01X40105Y10782D01*
G01X40106Y10766D01*
G01X40110Y10751D01*
G01X40116Y10736D01*
G01X40124Y10722D01*
G01X40135Y10710D01*
G01X40809Y10036D01*
G01X40821Y10025D01*
G01X40835Y10017D01*
G01X40850Y10011D01*
G01X40865Y10007D01*
G01X40881Y10006D01*
G01X41808Y10006D01*
G01X41823Y10007D01*
G01X41837Y10010D01*
G01X41850Y10015D01*
G01X41863Y10022D01*
G01X41874Y10030D01*
G01X41885Y10041D01*
G01X41893Y10052D01*
G01X41900Y10065D01*
G01X41923Y10111D01*
G01X41949Y10157D01*
G01X41975Y10202D01*
G01X42004Y10246D01*
G01X42035Y10289D01*
G01X42067Y10330D01*
G01X42101Y10370D01*
G01X42137Y10408D01*
G01X42174Y10445D01*
G01X42212Y10480D01*
G01X42252Y10514D01*
G01X42294Y10546D01*
G01X42337Y10577D01*
G01X42380Y10605D01*
G01X42425Y10632D01*
G01X42472Y10657D01*
G01X42519Y10680D01*
G01X42567Y10701D01*
G01X42580Y10707D01*
G01X42592Y10716D01*
G01X42603Y10726D01*
G01X42612Y10738D01*
G01X42620Y10751D01*
G01X42625Y10765D01*
G01X42628Y10780D01*
G01X42629Y10794D01*
G01X42628Y10809D01*
G01X42625Y10824D01*
G01X42620Y10838D01*
G01X42612Y10851D01*
G01X42603Y10863D01*
G01X42592Y10873D01*
G01X42580Y10882D01*
G01X42567Y10888D01*
G01X42519Y10909D01*
G01X42472Y10932D01*
G01X42425Y10957D01*
G01X42380Y10984D01*
G01X42337Y11012D01*
G01X42294Y11043D01*
G01X42252Y11075D01*
G01X42212Y11109D01*
G01X42174Y11144D01*
G01X42137Y11181D01*
G01X42101Y11219D01*
G01X42067Y11259D01*
G01X42035Y11300D01*
G01X42004Y11343D01*
G01X41975Y11387D01*
G01X41949Y11432D01*
G01X41923Y11478D01*
G01X41900Y11524D01*
G01X41893Y11537D01*
G01X41885Y11548D01*
G01X41874Y11559D01*
G01X41863Y11567D01*
G01X41850Y11574D01*
G01X41837Y11579D01*
G01X41823Y11582D01*
G01X41808Y11583D01*
G01X40894Y11583D01*
G01X40862Y11584D01*
G01X40831Y11587D01*
G01X40800Y11592D01*
G01X40769Y11599D01*
G01X40739Y11609D01*
G01X40709Y11620D01*
G01X40681Y11633D01*
G01X40653Y11647D01*
G01X40626Y11664D01*
G01X40600Y11682D01*
G01X40576Y11702D01*
G01X40553Y11724D01*
G01X40531Y11747D01*
G01X40511Y11771D01*
G01X40493Y11797D01*
G01X40476Y11824D01*
G01X40462Y11852D01*
G01X40449Y11880D01*
G01X40438Y11910D01*
G01X40428Y11940D01*
G01X40421Y11971D01*
G01X40416Y12002D01*
G01X40413Y12033D01*
G01X40412Y12065D01*
G01X40412Y29464D01*
G01X40413Y29495D01*
G01X40416Y29526D01*
G01X40421Y29557D01*
G01X40428Y29588D01*
G01X40438Y29618D01*
G01X40449Y29648D01*
G01X40462Y29676D01*
G01X40476Y29704D01*
G01X40493Y29731D01*
G01X40511Y29757D01*
G01X40531Y29781D01*
G01X40553Y29804D01*
G01X41473Y30724D01*
G01X41484Y30737D01*
G01X41492Y30751D01*
G01X41499Y30767D01*
G01X41509Y30799D01*
G01X41522Y30831D01*
G01X41537Y30862D01*
G01X41553Y30892D01*
G01X41572Y30921D01*
G01X41592Y30949D01*
G01X41613Y30975D01*
G01X41637Y31000D01*
G01X41661Y31024D01*
G01X41687Y31046D01*
G01X41715Y31067D01*
G01X41744Y31085D01*
G01X41773Y31102D01*
G01X41804Y31117D01*
G01X41836Y31131D01*
G01X41868Y31142D01*
G01X41901Y31151D01*
G01X41934Y31158D01*
G01X41968Y31164D01*
G01X42002Y31167D01*
G01X42036Y31168D01*
G01X42070Y31167D01*
G01X42104Y31164D01*
G01X42138Y31159D01*
G01X42171Y31152D01*
G01X42204Y31142D01*
G01X42236Y31131D01*
G01X42267Y31118D01*
G01X42297Y31104D01*
G01X42327Y31087D01*
G01X42355Y31068D01*
G01X42383Y31048D01*
G01X42409Y31027D01*
G01X42457Y30979D01*
G01X42478Y30953D01*
G01X42498Y30925D01*
G01X42517Y30897D01*
G01X42534Y30867D01*
G01X42548Y30837D01*
G01X42561Y30806D01*
G01X42572Y30774D01*
G01X42582Y30741D01*
G01X42589Y30708D01*
G01X42594Y30674D01*
G01X42597Y30640D01*
G01X42598Y30607D01*
G01X42597Y30572D01*
G01X42594Y30538D01*
G01X42588Y30504D01*
G01X42581Y30471D01*
G01X42572Y30438D01*
G01X42561Y30406D01*
G01X42547Y30374D01*
G01X42532Y30343D01*
G01X42515Y30314D01*
G01X42497Y30285D01*
G01X42476Y30257D01*
G01X42454Y30231D01*
G01X42430Y30207D01*
G01X42405Y30183D01*
G01X42379Y30162D01*
G01X42351Y30142D01*
G01X42322Y30123D01*
G01X42292Y30107D01*
G01X42261Y30092D01*
G01X42229Y30079D01*
G01X42197Y30069D01*
G01X42181Y30062D01*
G01X42167Y30054D01*
G01X42154Y30043D01*
G01X41405Y29294D01*
G01X41394Y29282D01*
G01X41386Y29268D01*
G01X41380Y29253D01*
G01X41376Y29238D01*
G01X41375Y29222D01*
G01X41375Y12648D01*
G01X41376Y12633D01*
G01X41379Y12619D01*
G01X41384Y12605D01*
G01X41391Y12593D01*
G01X41400Y12581D01*
G01X41410Y12571D01*
G01X41422Y12562D01*
G01X41434Y12555D01*
G01X41448Y12550D01*
G01X41462Y12547D01*
G01X41477Y12546D01*
G01X41808Y12546D01*
G01X41823Y12547D01*
G01X41837Y12550D01*
G01X41850Y12555D01*
G01X41863Y12562D01*
G01X41874Y12570D01*
G01X41885Y12581D01*
G01X41893Y12592D01*
G01X41900Y12605D01*
G01X41923Y12651D01*
G01X41948Y12697D01*
G01X41975Y12742D01*
G01X42004Y12786D01*
G01X42034Y12828D01*
G01X42067Y12869D01*
G01X42101Y12909D01*
G01X42136Y12947D01*
G01X42173Y12984D01*
G01X42211Y13020D01*
G01X42251Y13053D01*
G01X42293Y13085D01*
G01X42335Y13116D01*
G01X42379Y13144D01*
G01X42391Y13153D01*
G01X42401Y13163D01*
G01X42410Y13175D01*
G01X42417Y13188D01*
G01X42423Y13201D01*
G01X42426Y13216D01*
G01X42427Y13230D01*
G01X42426Y13245D01*
G01X42423Y13259D01*
G01X42418Y13273D01*
G01X42411Y13285D01*
G01X42402Y13297D01*
G01X42392Y13307D01*
G01X42380Y13316D01*
G01X42367Y13323D01*
G01X42354Y13328D01*
G01X42340Y13331D01*
G01X42325Y13332D01*
G01X42037Y13332D01*
G01X42013Y13333D01*
G01X41989Y13336D01*
G01X41966Y13342D01*
G01X41944Y13349D01*
G01X41922Y13359D01*
G01X41901Y13370D01*
G01X41882Y13384D01*
G01X41864Y13399D01*
G01X41847Y13416D01*
G01X41832Y13434D01*
G01X41818Y13453D01*
G01X41807Y13474D01*
G01X41797Y13496D01*
G01X41790Y13518D01*
G01X41784Y13541D01*
G01X41781Y13565D01*
G01X41780Y13589D01*
G01X41780Y15621D01*
G01X41781Y15644D01*
G01X41784Y15668D01*
G01X41790Y15691D01*
G01X41797Y15713D01*
G01X41807Y15735D01*
G01X41818Y15756D01*
G01X41832Y15775D01*
G01X41847Y15793D01*
G01X41864Y15810D01*
G01X41882Y15825D01*
G01X41901Y15839D01*
G01X41922Y15850D01*
G01X41944Y15860D01*
G01X41966Y15867D01*
G01X41989Y15873D01*
G01X42013Y15876D01*
G01X42037Y15877D01*
G01X42469Y15877D01*
G01X42484Y15878D01*
G01X42498Y15881D01*
G01X42512Y15886D01*
G01X42524Y15893D01*
G01X42536Y15902D01*
G01X42546Y15912D01*
G01X42555Y15924D01*
G01X42562Y15936D01*
G01X42567Y15950D01*
G01X42570Y15964D01*
G01X42571Y15979D01*
G01X42571Y28448D01*
G01X42572Y28479D01*
G01X42575Y28510D01*
G01X42580Y28541D01*
G01X42587Y28572D01*
G01X42597Y28602D01*
G01X42608Y28632D01*
G01X42621Y28660D01*
G01X42635Y28688D01*
G01X42652Y28715D01*
G01X42670Y28741D01*
G01X42690Y28765D01*
G01X42712Y28788D01*
G01X45156Y31232D01*
G01X45167Y31245D01*
G01X45175Y31259D01*
G01X45182Y31275D01*
G01X45192Y31307D01*
G01X45205Y31339D01*
G01X45220Y31370D01*
G01X45236Y31400D01*
G01X45255Y31429D01*
G01X45275Y31457D01*
G01X45296Y31483D01*
G01X45320Y31508D01*
G01X45344Y31532D01*
G01X45370Y31554D01*
G01X45398Y31575D01*
G01X45427Y31593D01*
G01X45456Y31610D01*
G01X45487Y31625D01*
G01X45519Y31639D01*
G01X45551Y31650D01*
G01X45584Y31659D01*
G01X45617Y31666D01*
G01X45651Y31672D01*
G01X45685Y31675D01*
G01X45719Y31676D01*
G01X45753Y31675D01*
G01X45787Y31672D01*
G01X45821Y31667D01*
G01X45854Y31660D01*
G01X45887Y31650D01*
G01X45919Y31639D01*
G01X45950Y31626D01*
G01X45980Y31612D01*
G01X46010Y31595D01*
G01X46038Y31576D01*
G01X46066Y31556D01*
G01X46092Y31535D01*
G01X46140Y31487D01*
G01X46161Y31461D01*
G01X46181Y31433D01*
G01X46200Y31405D01*
G01X46217Y31375D01*
G01X46231Y31345D01*
G01X46244Y31314D01*
G01X46255Y31282D01*
G01X46265Y31249D01*
G01X46272Y31216D01*
G01X46277Y31182D01*
G01X46280Y31148D01*
G01X46281Y31115D01*
G01X46280Y31080D01*
G01X46277Y31046D01*
G01X46271Y31012D01*
G01X46264Y30979D01*
G01X46255Y30946D01*
G01X46244Y30914D01*
G01X46230Y30882D01*
G01X46215Y30851D01*
G01X46198Y30822D01*
G01X46180Y30793D01*
G01X46159Y30765D01*
G01X46137Y30739D01*
G01X46113Y30715D01*
G01X46088Y30691D01*
G01X46062Y30670D01*
G01X46034Y30650D01*
G01X46005Y30631D01*
G01X45975Y30615D01*
G01X45944Y30600D01*
G01X45912Y30587D01*
G01X45880Y30577D01*
G01X45864Y30570D01*
G01X45850Y30562D01*
G01X45837Y30551D01*
G01X43564Y28278D01*
G01X43553Y28266D01*
G01X43545Y28252D01*
G01X43539Y28237D01*
G01X43535Y28222D01*
G01X43534Y28206D01*
G01X43534Y15979D01*
G01X43535Y15964D01*
G01X43538Y15950D01*
G01X43543Y15936D01*
G01X43550Y15924D01*
G01X43559Y15912D01*
G01X43569Y15902D01*
G01X43581Y15893D01*
G01X43593Y15886D01*
G01X43607Y15881D01*
G01X43621Y15878D01*
G01X43636Y15877D01*
G01X44069Y15877D01*
G01X44092Y15876D01*
G01X44116Y15873D01*
G01X44139Y15867D01*
G01X44161Y15860D01*
G01X44183Y15850D01*
G01X44204Y15839D01*
G01X44223Y15825D01*
G01X44241Y15810D01*
G01X44258Y15793D01*
G01X44273Y15775D01*
G01X44287Y15756D01*
G01X44298Y15735D01*
G01X44308Y15713D01*
G01X44315Y15691D01*
G01X44321Y15668D01*
G01X44324Y15644D01*
G01X44325Y15621D01*
G01X44325Y13589D01*
G01X44324Y13565D01*
G01X44321Y13541D01*
G01X44315Y13518D01*
G01X44308Y13496D01*
G01X44298Y13474D01*
G01X44287Y13453D01*
G01X44273Y13434D01*
G01X44258Y13416D01*
G01X44241Y13399D01*
G01X44223Y13384D01*
G01X44204Y13370D01*
G01X44183Y13359D01*
G01X44161Y13349D01*
G01X44139Y13342D01*
G01X44116Y13336D01*
G01X44092Y13333D01*
G01X44069Y13332D01*
G01X43780Y13332D01*
G01X43765Y13331D01*
G01X43751Y13328D01*
G01X43738Y13323D01*
G01X43725Y13316D01*
G01X43713Y13307D01*
G01X43703Y13297D01*
G01X43694Y13285D01*
G01X43687Y13273D01*
G01X43682Y13259D01*
G01X43679Y13245D01*
G01X43678Y13230D01*
G01X43679Y13216D01*
G01X43682Y13201D01*
G01X43688Y13188D01*
G01X43695Y13175D01*
G01X43704Y13163D01*
G01X43714Y13153D01*
G01X43726Y13144D01*
G01X43769Y13116D01*
G01X43811Y13086D01*
G01X43852Y13055D01*
G01X43930Y12987D01*
G01X43966Y12950D01*
G01X44001Y12913D01*
G01X44035Y12873D01*
G01X44067Y12833D01*
G01X44097Y12791D01*
G01X44126Y12748D01*
G01X44153Y12704D01*
G01X44178Y12659D01*
G01X44201Y12613D01*
G01X44222Y12566D01*
G01X44241Y12518D01*
G01X44259Y12470D01*
G01X44274Y12421D01*
G01X44288Y12371D01*
G01X44299Y12321D01*
G01X44308Y12270D01*
G01X44316Y12219D01*
G01X44321Y12168D01*
G01X44324Y12116D01*
G01X44325Y12065D01*
G01X44324Y12013D01*
G01X44321Y11961D01*
G01X44316Y11910D01*
G01X44308Y11858D01*
G01X44299Y11808D01*
G01X44287Y11757D01*
G01X44274Y11707D01*
G01X44258Y11658D01*
G01X44241Y11609D01*
G01X44221Y11561D01*
G01X44200Y11514D01*
G01X44177Y11468D01*
G01X44151Y11423D01*
G01X44124Y11379D01*
G01X44096Y11336D01*
G01X44065Y11294D01*
G01X44033Y11253D01*
G01X43999Y11214D01*
G01X43964Y11176D01*
G01X43927Y11140D01*
G01X43889Y11105D01*
G01X43849Y11072D01*
G01X43808Y11041D01*
G01X43766Y11011D01*
G01X43722Y10983D01*
G01X43678Y10956D01*
G01X43632Y10932D01*
G01X43586Y10909D01*
G01X43538Y10888D01*
G01X43525Y10882D01*
G01X43513Y10873D01*
G01X43502Y10863D01*
G01X43493Y10851D01*
G01X43485Y10838D01*
G01X43480Y10824D01*
G01X43477Y10809D01*
G01X43476Y10795D01*
G01X43477Y10780D01*
G01X43480Y10765D01*
G01X43485Y10751D01*
G01X43493Y10738D01*
G01X43502Y10726D01*
G01X43513Y10716D01*
G01X43525Y10707D01*
G01X43538Y10701D01*
G01X43586Y10680D01*
G01X43632Y10657D01*
G01X43678Y10633D01*
G01X43722Y10606D01*
G01X43766Y10578D01*
G01X43808Y10548D01*
G01X43849Y10517D01*
G01X43889Y10484D01*
G01X43927Y10449D01*
G01X43964Y10413D01*
G01X43999Y10375D01*
G01X44033Y10336D01*
G01X44065Y10295D01*
G01X44096Y10253D01*
G01X44124Y10210D01*
G01X44151Y10166D01*
G01X44177Y10121D01*
G01X44200Y10075D01*
G01X44221Y10028D01*
G01X44241Y9980D01*
G01X44258Y9931D01*
G01X44274Y9882D01*
G01X44287Y9832D01*
G01X44299Y9781D01*
G01X44308Y9731D01*
G01X44316Y9679D01*
G01X44321Y9628D01*
G01X44324Y9576D01*
G01X44325Y9525D01*
G01X44324Y9473D01*
G01X44321Y9421D01*
G01X44316Y9370D01*
G01X44308Y9318D01*
G01X44299Y9268D01*
G01X44287Y9217D01*
G01X44274Y9167D01*
G01X44258Y9118D01*
G01X44241Y9069D01*
G01X44221Y9021D01*
G01X44200Y8974D01*
G01X44177Y8928D01*
G01X44151Y8883D01*
G01X44124Y8839D01*
G01X44096Y8796D01*
G01X44065Y8754D01*
G01X44033Y8713D01*
G01X43999Y8674D01*
G01X43964Y8636D01*
G01X43927Y8600D01*
G01X43889Y8565D01*
G01X43849Y8532D01*
G01X43808Y8501D01*
G01X43766Y8471D01*
G01X43722Y8443D01*
G01X43678Y8416D01*
G01X43632Y8392D01*
G01X43586Y8369D01*
G01X43538Y8348D01*
G01X43525Y8342D01*
G01X43513Y8333D01*
G01X43502Y8323D01*
G01X43493Y8311D01*
G01X43485Y8298D01*
G01X43480Y8284D01*
G01X43477Y8269D01*
G01X43476Y8255D01*
G01X43477Y8240D01*
G01X43480Y8225D01*
G01X43485Y8211D01*
G01X43493Y8198D01*
G01X43502Y8186D01*
G01X43513Y8176D01*
G01X43525Y8167D01*
G01X43538Y8161D01*
G01X43586Y8140D01*
G01X43632Y8117D01*
G01X43678Y8093D01*
G01X43722Y8066D01*
G01X43766Y8038D01*
G01X43808Y8008D01*
G01X43849Y7977D01*
G01X43889Y7944D01*
G01X43927Y7909D01*
G01X43964Y7873D01*
G01X43999Y7835D01*
G01X44033Y7796D01*
G01X44065Y7755D01*
G01X44096Y7713D01*
G01X44124Y7670D01*
G01X44151Y7626D01*
G01X44177Y7581D01*
G01X44200Y7535D01*
G01X44221Y7488D01*
G01X44241Y7440D01*
G01X44258Y7391D01*
G01X44274Y7342D01*
G01X44287Y7292D01*
G01X44299Y7241D01*
G01X44308Y7191D01*
G01X44316Y7139D01*
G01X44321Y7088D01*
G01X44324Y7036D01*
G01X44325Y6985D01*
G01X44324Y6933D01*
G01X44321Y6881D01*
G01X44316Y6830D01*
G01X44308Y6778D01*
G01X44299Y6728D01*
G01X44287Y6677D01*
G01X44274Y6627D01*
G01X44258Y6578D01*
G01X44241Y6529D01*
G01X44221Y6481D01*
G01X44200Y6434D01*
G01X44177Y6388D01*
G01X44151Y6343D01*
G01X44124Y6299D01*
G01X44096Y6256D01*
G01X44065Y6214D01*
G01X44033Y6173D01*
G01X43999Y6134D01*
G01X43964Y6096D01*
G01X43927Y6060D01*
G01X43889Y6025D01*
G01X43849Y5992D01*
G01X43808Y5961D01*
G01X43766Y5931D01*
G01X43722Y5903D01*
G01X43678Y5876D01*
G01X43632Y5852D01*
G01X43586Y5829D01*
G01X43538Y5808D01*
G01X43525Y5802D01*
G01X43513Y5793D01*
G01X43502Y5783D01*
G01X43493Y5771D01*
G01X43485Y5758D01*
G01X43480Y5744D01*
G01X43477Y5729D01*
G01X43476Y5715D01*
G01X43477Y5700D01*
G01X43480Y5685D01*
G01X43485Y5671D01*
G01X43493Y5658D01*
G01X43502Y5646D01*
G01X43513Y5636D01*
G01X43525Y5627D01*
G01X43538Y5621D01*
G01X43586Y5600D01*
G01X43633Y5577D01*
G01X43680Y5552D01*
G01X43725Y5525D01*
G01X43768Y5497D01*
G01X43811Y5466D01*
G01X43853Y5434D01*
G01X43893Y5400D01*
G01X43931Y5365D01*
G01X43968Y5328D01*
G01X44004Y5290D01*
G01X44038Y5250D01*
G01X44070Y5209D01*
G01X44101Y5166D01*
G01X44130Y5122D01*
G01X44156Y5077D01*
G01X44182Y5031D01*
G01X44205Y4985D01*
G01X44212Y4972D01*
G01X44220Y4961D01*
G01X44231Y4950D01*
G01X44242Y4942D01*
G01X44255Y4935D01*
G01X44268Y4930D01*
G01X44282Y4927D01*
G01X44297Y4926D01*
G01X44628Y4926D01*
G01X44643Y4927D01*
G01X44657Y4930D01*
G01X44671Y4935D01*
G01X44683Y4942D01*
G01X44695Y4951D01*
G01X44705Y4961D01*
G01X44714Y4973D01*
G01X44721Y4985D01*
G01X44726Y4999D01*
G01X44729Y5013D01*
G01X44730Y5028D01*
G01X44730Y25146D01*
G01X44731Y25177D01*
G01X44734Y25208D01*
G01X44739Y25239D01*
G01X44746Y25270D01*
G01X44756Y25300D01*
G01X44767Y25330D01*
G01X44780Y25358D01*
G01X44794Y25386D01*
G01X44811Y25413D01*
G01X44829Y25439D01*
G01X44849Y25463D01*
G01X44871Y25486D01*
G01X45918Y26533D01*
G01X45929Y26546D01*
G01X45937Y26560D01*
G01X45944Y26576D01*
G01X45954Y26608D01*
G01X45967Y26640D01*
G01X45982Y26671D01*
G01X45998Y26701D01*
G01X46017Y26730D01*
G01X46037Y26758D01*
G01X46058Y26784D01*
G01X46082Y26809D01*
G01X46106Y26833D01*
G01X46132Y26855D01*
G01X46160Y26876D01*
G01X46189Y26894D01*
G01X46218Y26911D01*
G01X46249Y26926D01*
G01X46281Y26940D01*
G01X46313Y26951D01*
G01X46346Y26960D01*
G01X46379Y26967D01*
G01X46413Y26973D01*
G01X46447Y26976D01*
G01X46481Y26977D01*
G01X46515Y26976D01*
G01X46549Y26973D01*
G01X46583Y26968D01*
G01X46616Y26961D01*
G01X46649Y26951D01*
G01X46681Y26940D01*
G01X46712Y26927D01*
G01X46742Y26913D01*
G01X46772Y26896D01*
G01X46800Y26877D01*
G01X46828Y26857D01*
G01X46854Y26836D01*
G01X46902Y26788D01*
G01X46923Y26762D01*
G01X46943Y26734D01*
G01X46962Y26706D01*
G01X46979Y26676D01*
G01X46993Y26646D01*
G01X47006Y26615D01*
G01X47017Y26583D01*
G01X47027Y26550D01*
G01X47034Y26517D01*
G01X47039Y26483D01*
G01X47042Y26449D01*
G01X47043Y26416D01*
G01X47042Y26381D01*
G01X47039Y26347D01*
G01X47033Y26313D01*
G01X47026Y26280D01*
G01X47017Y26247D01*
G01X47006Y26215D01*
G01X46992Y26183D01*
G01X46977Y26152D01*
G01X46960Y26123D01*
G01X46942Y26094D01*
G01X46921Y26066D01*
G01X46899Y26040D01*
G01X46875Y26016D01*
G01X46850Y25992D01*
G01X46824Y25971D01*
G01X46796Y25951D01*
G01X46767Y25932D01*
G01X46737Y25916D01*
G01X46706Y25901D01*
G01X46674Y25888D01*
G01X46642Y25878D01*
G01X46626Y25871D01*
G01X46612Y25863D01*
G01X46599Y25852D01*
G01X45723Y24976D01*
G01X45712Y24964D01*
G01X45704Y24950D01*
G01X45698Y24935D01*
G01X45694Y24920D01*
G01X45693Y24904D01*
G01X45693Y4445D01*
G01X45692Y4413D01*
G01X45689Y4382D01*
G01X45684Y4351D01*
G01X45677Y4320D01*
G01X45667Y4290D01*
G01X45656Y4260D01*
G01X45643Y4232D01*
G01X45629Y4204D01*
G01X45612Y4177D01*
G01X45594Y4151D01*
G01X45574Y4127D01*
G01X45552Y4104D01*
G01X45529Y4082D01*
G01X45505Y4062D01*
G01X45479Y4044D01*
G01X45452Y4027D01*
G01X45424Y4013D01*
G01X45396Y4000D01*
G01X45366Y3989D01*
G01X45336Y3979D01*
G01X45305Y3972D01*
G01X45274Y3967D01*
G01X45243Y3964D01*
G01X45212Y3963D01*
G01X44297Y3963D01*
G01X44282Y3962D01*
G01X44268Y3959D01*
G01X44255Y3954D01*
G01X44242Y3947D01*
G01X44231Y3939D01*
G01X44220Y3928D01*
G01X44212Y3917D01*
G01X44205Y3904D01*
G01X44182Y3858D01*
G01X44156Y3812D01*
G01X44130Y3767D01*
G01X44101Y3723D01*
G01X44070Y3680D01*
G01X44038Y3639D01*
G01X44004Y3599D01*
G01X43968Y3561D01*
G01X43931Y3524D01*
G01X43893Y3489D01*
G01X43853Y3455D01*
G01X43811Y3423D01*
G01X43768Y3392D01*
G01X43725Y3364D01*
G01X43680Y3337D01*
G01X43633Y3312D01*
G01X43586Y3289D01*
G01X43538Y3268D01*
G01X43525Y3262D01*
G01X43513Y3253D01*
G01X43502Y3243D01*
G01X43493Y3231D01*
G01X43485Y3218D01*
G01X43480Y3204D01*
G01X43477Y3189D01*
G01X43476Y3175D01*
G01X43477Y3160D01*
G01X43480Y3145D01*
G01X43485Y3131D01*
G01X43493Y3118D01*
G01X43502Y3106D01*
G01X43513Y3096D01*
G01X43525Y3087D01*
G01X43538Y3081D01*
G01X43586Y3060D01*
G01X43632Y3037D01*
G01X43678Y3013D01*
G01X43722Y2986D01*
G01X43766Y2958D01*
G01X43808Y2928D01*
G01X43849Y2897D01*
G01X43889Y2864D01*
G01X43927Y2829D01*
G01X43964Y2793D01*
G01X43999Y2755D01*
G01X44033Y2716D01*
G01X44065Y2675D01*
G01X44096Y2633D01*
G01X44124Y2590D01*
G01X44151Y2546D01*
G01X44177Y2501D01*
G01X44200Y2455D01*
G01X44221Y2408D01*
G01X44241Y2360D01*
G01X44258Y2311D01*
G01X44274Y2262D01*
G01X44287Y2212D01*
G01X44299Y2161D01*
G01X44308Y2111D01*
G01X44316Y2059D01*
G01X44321Y2008D01*
G01X44324Y1956D01*
G01X44325Y1905D01*
G01X44324Y1853D01*
G01X44321Y1802D01*
G01X44316Y1751D01*
G01X44309Y1700D01*
G01X44299Y1650D01*
G01X44288Y1600D01*
G01X44275Y1550D01*
G01X44260Y1502D01*
G01X44242Y1453D01*
G01X44223Y1406D01*
G01X44202Y1359D01*
G01X44179Y1313D01*
G01X44155Y1268D01*
G01X44128Y1224D01*
G01X44100Y1182D01*
G01X44070Y1140D01*
G01X44038Y1100D01*
G01X44005Y1061D01*
G01X43970Y1023D01*
G01X43934Y987D01*
G01X43896Y952D01*
G01X43857Y919D01*
G01X43817Y887D01*
G01X43775Y857D01*
G01X43733Y829D01*
G01X43689Y802D01*
G01X43644Y778D01*
G01X43598Y755D01*
G01X43551Y734D01*
G01X43504Y715D01*
G01X43455Y697D01*
G01X43407Y682D01*
G01X43357Y669D01*
G01X43307Y658D01*
G01X43257Y648D01*
G01X43206Y641D01*
G01X43155Y636D01*
G01X43104Y633D01*
G01X43053Y632D01*
G01X43001Y633D01*
G01X42950Y636D01*
G01X42899Y641D01*
G01X42848Y648D01*
G01X42798Y658D01*
G01X42748Y669D01*
G01X42698Y682D01*
G01X42650Y697D01*
G01X42601Y715D01*
G01X42554Y734D01*
G01X42507Y755D01*
G01X42461Y778D01*
G01X42416Y802D01*
G01X42372Y829D01*
G01X42330Y857D01*
G01X42288Y887D01*
G01X42248Y919D01*
G01X42209Y952D01*
G01X42171Y987D01*
G01X42135Y1023D01*
G01X42100Y1061D01*
G01X42067Y1100D01*
G01X42035Y1140D01*
G01X42005Y1182D01*
G01X41977Y1224D01*
G01X41950Y1268D01*
G01X41926Y1313D01*
G01X41903Y1359D01*
G01X41882Y1406D01*
G01X41863Y1453D01*
G01X41845Y1502D01*
G01X41830Y1550D01*
G01X41817Y1600D01*
G01X41806Y1650D01*
G01X41796Y1700D01*
G01X41789Y1751D01*
G01X41784Y1802D01*
G01X41781Y1853D01*
G01X41780Y1905D01*
G01X41781Y1956D01*
G01X41784Y2008D01*
G01X41789Y2059D01*
G01X41797Y2111D01*
G01X41806Y2161D01*
G01X41818Y2212D01*
G01X41831Y2262D01*
G01X41847Y2311D01*
G01X41864Y2360D01*
G01X41884Y2408D01*
G01X41905Y2455D01*
G01X41928Y2501D01*
G01X41954Y2546D01*
G01X41981Y2590D01*
G01X42009Y2633D01*
G01X42040Y2675D01*
G01X42072Y2716D01*
G01X42106Y2755D01*
G01X42141Y2793D01*
G01X42178Y2829D01*
G01X42216Y2864D01*
G01X42256Y2897D01*
G01X42297Y2928D01*
G01X42339Y2958D01*
G01X42383Y2986D01*
G01X42427Y3013D01*
G01X42473Y3037D01*
G01X42519Y3060D01*
G01X42567Y3081D01*
G01X42580Y3087D01*
G01X42592Y3096D01*
G01X42603Y3106D01*
G01X42612Y3118D01*
G01X42620Y3131D01*
G01X42625Y3145D01*
G01X42628Y3160D01*
G01X42629Y3174D01*
G01X42628Y3189D01*
G01X42625Y3204D01*
G01X42620Y3218D01*
G01X42612Y3231D01*
G01X42603Y3243D01*
G01X42592Y3253D01*
G01X42580Y3262D01*
G01X42567Y3268D01*
G01X42519Y3289D01*
G01X42473Y3312D01*
G01X42427Y3336D01*
G01X42383Y3363D01*
G01X42339Y3391D01*
G01X42297Y3421D01*
G01X42256Y3452D01*
G01X42216Y3485D01*
G01X42178Y3520D01*
G01X42141Y3556D01*
G01X42106Y3594D01*
G01X42072Y3633D01*
G01X42040Y3674D01*
G01X42009Y3716D01*
G01X41981Y3759D01*
G01X41954Y3803D01*
G01X41928Y3848D01*
G01X41905Y3894D01*
G01X41884Y3941D01*
G01X41864Y3989D01*
G01X41847Y4038D01*
G01X41831Y4087D01*
G01X41818Y4137D01*
G01X41806Y4188D01*
G01X41797Y4238D01*
G01X41789Y4290D01*
G01X41784Y4341D01*
G01X41781Y4393D01*
G01X41780Y4444D01*
G01X41781Y4496D01*
G01X41784Y4548D01*
G01X41789Y4599D01*
G01X41797Y4651D01*
G01X41806Y4701D01*
G01X41818Y4752D01*
G01X41831Y4802D01*
G01X41847Y4851D01*
G01X41864Y4900D01*
G01X41884Y4948D01*
G01X41905Y4995D01*
G01X41928Y5041D01*
G01X41954Y5086D01*
G01X41981Y5130D01*
G01X42009Y5173D01*
G01X42040Y5215D01*
G01X42072Y5256D01*
G01X42106Y5295D01*
G01X42141Y5333D01*
G01X42178Y5369D01*
G01X42216Y5404D01*
G01X42256Y5437D01*
G01X42297Y5468D01*
G01X42339Y5498D01*
G01X42383Y5526D01*
G01X42427Y5553D01*
G01X42473Y5577D01*
G01X42519Y5600D01*
G01X42567Y5621D01*
G01X42580Y5627D01*
G01X42592Y5636D01*
G01X42603Y5646D01*
G01X42612Y5658D01*
G01X42620Y5671D01*
G01X42625Y5685D01*
G01X42628Y5700D01*
G01X42629Y5714D01*
G01X42628Y5729D01*
G01X42625Y5744D01*
G01X42620Y5758D01*
G01X42612Y5771D01*
G01X42603Y5783D01*
G01X42592Y5793D01*
G01X42580Y5802D01*
G01X42567Y5808D01*
G01X42519Y5829D01*
G01X42473Y5852D01*
G01X42427Y5876D01*
G01X42383Y5903D01*
G01X42339Y5931D01*
G01X42297Y5961D01*
G01X42256Y5992D01*
G01X42216Y6025D01*
G01X42178Y6060D01*
G01X42141Y6096D01*
G01X42106Y6134D01*
G01X42072Y6173D01*
G01X42040Y6214D01*
G01X42009Y6256D01*
G01X41981Y6299D01*
G01X41954Y6343D01*
G01X41928Y6388D01*
G01X41905Y6434D01*
G01X41884Y6481D01*
G01X41864Y6529D01*
G01X41847Y6578D01*
G01X41831Y6627D01*
G01X41818Y6677D01*
G01X41806Y6728D01*
G01X41797Y6778D01*
G01X41789Y6830D01*
G01X41784Y6881D01*
G01X41781Y6933D01*
G01X41780Y6984D01*
G01X41781Y7036D01*
G01X41784Y7088D01*
G01X41789Y7139D01*
G01X41797Y7191D01*
G01X41806Y7241D01*
G01X41818Y7292D01*
G01X41831Y7342D01*
G01X41847Y7391D01*
G01X41864Y7440D01*
G01X41884Y7488D01*
G01X41905Y7535D01*
G01X41928Y7581D01*
G01X41954Y7626D01*
G01X41981Y7670D01*
G01X42009Y7713D01*
G01X42040Y7755D01*
G01X42072Y7796D01*
G01X42106Y7835D01*
G01X42141Y7873D01*
G01X42178Y7909D01*
G01X42216Y7944D01*
G01X42256Y7977D01*
G01X42297Y8008D01*
G01X42339Y8038D01*
G01X42383Y8066D01*
G01X42427Y8093D01*
G01X42473Y8117D01*
G01X42519Y8140D01*
G01X42567Y8161D01*
G01X42580Y8167D01*
G01X42592Y8176D01*
G01X42603Y8186D01*
G01X42612Y8198D01*
G01X42620Y8211D01*
G01X42625Y8225D01*
G01X42628Y8240D01*
G01X42629Y8254D01*
G01X42628Y8269D01*
G01X42625Y8284D01*
G01X42620Y8298D01*
G01X42612Y8311D01*
G01X42603Y8323D01*
G01X42592Y8333D01*
G01X42580Y8342D01*
G01X42567Y8348D01*
G01X42519Y8369D01*
G01X42472Y8392D01*
G01X42425Y8417D01*
G01X42380Y8444D01*
G01X42337Y8472D01*
G01X42294Y8503D01*
G01X42252Y8535D01*
G01X42212Y8569D01*
G01X42174Y8604D01*
G01X42137Y8641D01*
G01X42101Y8679D01*
G01X42067Y8719D01*
G01X42035Y8760D01*
G01X42004Y8803D01*
G01X41975Y8847D01*
G01X41949Y8892D01*
G01X41923Y8938D01*
G01X41900Y8984D01*
G01X41893Y8997D01*
G01X41885Y9008D01*
G01X41874Y9019D01*
G01X41863Y9027D01*
G01X41850Y9034D01*
G01X41837Y9039D01*
G01X41823Y9042D01*
G01X41808Y9043D01*
G01X40640Y9043D01*
G01X40608Y9044D01*
G01X40577Y9047D01*
G01X40546Y9052D01*
G01X40515Y9059D01*
G01X40485Y9069D01*
G01X40455Y9080D01*
G01X40427Y9093D01*
G01X40399Y9107D01*
G01X40372Y9124D01*
G01X40346Y9142D01*
G01X40322Y9162D01*
G01X40299Y9184D01*
G01X39283Y10200D01*
G01X39244Y10244D01*
G01X39234Y10255D01*
G01X39222Y10265D01*
G01X39209Y10272D01*
G01X39195Y10278D01*
G01X39180Y10281D01*
G01X39164Y10282D01*
G01X39150Y10281D01*
G01X39136Y10278D01*
G01X39122Y10273D01*
G01X39110Y10266D01*
G01X39098Y10258D01*
G01X39088Y10248D01*
G01X39079Y10236D01*
G01X39059Y10207D01*
G01X39038Y10180D01*
G01X39014Y10154D01*
G01X38989Y10129D01*
G01X38963Y10106D01*
G01X38935Y10085D01*
G01X38906Y10065D01*
G01X38876Y10048D01*
G01X38845Y10032D01*
G01X38813Y10018D01*
G01X38780Y10006D01*
G01X38746Y9997D01*
G01X38712Y9989D01*
G01X38677Y9984D01*
G01X38642Y9980D01*
G01X38608Y9979D01*
G01X38573Y9980D01*
G01X38538Y9983D01*
G01X38504Y9989D01*
G01X38470Y9996D01*
G01X38436Y10006D01*
G01X38404Y10018D01*
G01X38372Y10031D01*
G01X38341Y10047D01*
G01X38325Y10053D01*
G01X38309Y10058D01*
G01X38292Y10059D01*
G01X20828Y10059D01*
G01X20796Y10060D01*
G01X20765Y10063D01*
G01X20734Y10068D01*
G01X20703Y10075D01*
G01X20673Y10085D01*
G01X20643Y10096D01*
G01X20615Y10109D01*
G01X20587Y10123D01*
G01X20560Y10140D01*
G01X20534Y10158D01*
G01X20510Y10178D01*
G01X20487Y10200D01*
G01X17027Y13660D01*
G01X17014Y13671D01*
G01X17000Y13679D01*
G01X16984Y13686D01*
G01X16952Y13696D01*
G01X16920Y13709D01*
G01X16889Y13724D01*
G01X16859Y13740D01*
G01X16830Y13759D01*
G01X16802Y13779D01*
G01X16776Y13800D01*
G01X16751Y13824D01*
G01X16727Y13848D01*
G01X16705Y13874D01*
G01X16684Y13902D01*
G01X16666Y13931D01*
G01X16649Y13960D01*
G01X16634Y13991D01*
G01X16620Y14023D01*
G01X16609Y14055D01*
G01X16600Y14088D01*
G01X16593Y14121D01*
G01X16587Y14155D01*
G01X16584Y14189D01*
G01X16583Y14223D01*
G01X16584Y14260D01*
G01X16588Y14297D01*
G01X16594Y14333D01*
G01X16602Y14369D01*
G01X16613Y14404D01*
G01X16626Y14438D01*
G01X16632Y14458D01*
G01X16634Y14477D01*
G01X16633Y14492D01*
G01X16630Y14506D01*
G01X16625Y14520D01*
G01X16618Y14532D01*
G01X16609Y14544D01*
G01X16599Y14554D01*
G01X16587Y14563D01*
G01X16574Y14570D01*
G01X16561Y14575D01*
G01X16547Y14578D01*
G01X16532Y14579D01*
G01X15217Y14579D01*
G01X15202Y14578D01*
G01X15188Y14575D01*
G01X15175Y14570D01*
G01X15162Y14563D01*
G01X15150Y14554D01*
G01X15140Y14544D01*
G01X15131Y14532D01*
G01X15124Y14520D01*
G01X15119Y14506D01*
G01X15116Y14492D01*
G01X15115Y14477D01*
G01X15117Y14458D01*
G01X15123Y14438D01*
G01X15136Y14404D01*
G01X15147Y14369D01*
G01X15155Y14333D01*
G01X15161Y14297D01*
G01X15165Y14260D01*
G01X15166Y14223D01*
G01X15165Y14188D01*
G01X15161Y14153D01*
G01X15156Y14117D01*
G01X15148Y14083D01*
G01X15138Y14049D01*
G01X15126Y14015D01*
G01X15111Y13982D01*
G01X15095Y13951D01*
G01X15077Y13920D01*
G01X15057Y13891D01*
G01X15035Y13863D01*
G01X15025Y13848D01*
G01X15017Y13832D01*
G01X15013Y13815D01*
G01X15011Y13798D01*
G01X15011Y12065D01*
G01X15010Y12035D01*
G01X15007Y12007D01*
G01X15002Y11978D01*
G01X14995Y11950D01*
G01X14985Y11922D01*
G01X14974Y11896D01*
G01X14961Y11870D01*
G01X14947Y11845D01*
G01X14930Y11821D01*
G01X14912Y11798D01*
G01X14892Y11777D01*
G01X13540Y10425D01*
G01X13530Y10413D01*
G01X13522Y10400D01*
G01X13516Y10385D01*
G01X13512Y10370D01*
G01X13511Y10354D01*
G01X13512Y10339D01*
G01X13515Y10325D01*
G01X13520Y10311D01*
G01X13527Y10299D01*
G01X13535Y10287D01*
G01X13546Y10277D01*
G01X13557Y10268D01*
G01X13570Y10261D01*
G01X13584Y10256D01*
G01X13598Y10253D01*
G01X13612Y10252D01*
G01X14423Y10252D01*
G01X14446Y10251D01*
G01X14470Y10248D01*
G01X14493Y10242D01*
G01X14515Y10235D01*
G01X14537Y10225D01*
G01X14558Y10214D01*
G01X14577Y10200D01*
G01X14595Y10185D01*
G01X14612Y10168D01*
G01X14627Y10150D01*
G01X14641Y10131D01*
G01X14652Y10110D01*
G01X14662Y10088D01*
G01X14669Y10066D01*
G01X14675Y10043D01*
G01X14678Y10019D01*
G01X14679Y9995D01*
G01X14679Y8546D01*
G01X14678Y8522D01*
G01X14675Y8498D01*
G01X14669Y8475D01*
G01X14662Y8453D01*
G01X14652Y8431D01*
G01X14641Y8410D01*
G01X14627Y8391D01*
G01X14612Y8373D01*
G01X14595Y8356D01*
G01X14577Y8341D01*
G01X14558Y8327D01*
G01X14537Y8316D01*
G01X14515Y8306D01*
G01X14493Y8299D01*
G01X14470Y8293D01*
G01X14446Y8290D01*
G01X14423Y8289D01*
G01X14343Y8289D01*
G01X14329Y8288D01*
G01X14314Y8285D01*
G01X14301Y8280D01*
G01X14288Y8273D01*
G01X14276Y8264D01*
G01X14266Y8254D01*
G01X14258Y8242D01*
G01X14251Y8230D01*
G01X14246Y8216D01*
G01X14242Y8202D01*
G01X14241Y8187D01*
G01X14241Y7721D01*
G01X14242Y7707D01*
G01X14246Y7692D01*
G01X14251Y7679D01*
G01X14258Y7666D01*
G01X14266Y7655D01*
G01X14276Y7644D01*
G01X14288Y7636D01*
G01X14301Y7629D01*
G01X14314Y7624D01*
G01X14329Y7620D01*
G01X14343Y7619D01*
G01X14358Y7621D01*
G01X14372Y7624D01*
G01X14386Y7629D01*
G01X14399Y7637D01*
G01X14411Y7646D01*
G01X14421Y7656D01*
G01X14430Y7669D01*
G01X14437Y7682D01*
G01X14442Y7696D01*
G01X14450Y7726D01*
G01X14461Y7755D01*
G01X14475Y7784D01*
G01X14490Y7811D01*
G01X14508Y7837D01*
G01X14527Y7861D01*
G01X14548Y7884D01*
G01X14825Y8161D01*
G01X14846Y8181D01*
G01X14869Y8199D01*
G01X14893Y8215D01*
G01X14918Y8230D01*
G01X14944Y8243D01*
G01X14970Y8254D01*
G01X14998Y8264D01*
G01X15026Y8271D01*
G01X15055Y8276D01*
G01X15084Y8279D01*
G01X15113Y8280D01*
G01X15322Y8280D01*
G01X15339Y8282D01*
G01X15356Y8286D01*
G01X15372Y8294D01*
G01X15387Y8304D01*
G01X15415Y8326D01*
G01X15444Y8346D01*
G01X15475Y8364D01*
G01X15506Y8380D01*
G01X15539Y8395D01*
G01X15573Y8407D01*
G01X15607Y8417D01*
G01X15641Y8425D01*
G01X15677Y8430D01*
G01X15712Y8434D01*
G01X15748Y8435D01*
G01X15781Y8434D01*
G01X15815Y8431D01*
G01X15849Y8426D01*
G01X15882Y8419D01*
G01X15915Y8409D01*
G01X15947Y8398D01*
G01X15978Y8385D01*
G01X16008Y8371D01*
G01X16038Y8354D01*
G01X16066Y8335D01*
G01X16094Y8315D01*
G01X16120Y8294D01*
G01X16168Y8246D01*
G01X16189Y8220D01*
G01X16209Y8192D01*
G01X16228Y8164D01*
G01X16245Y8134D01*
G01X16259Y8104D01*
G01X16272Y8073D01*
G01X16283Y8041D01*
G01X16293Y8008D01*
G01X16300Y7975D01*
G01X16305Y7941D01*
G01X16308Y7907D01*
G01X16309Y7874D01*
G01X16308Y7840D01*
G01X16305Y7806D01*
G01X16300Y7772D01*
G01X16293Y7739D01*
G01X16283Y7706D01*
G01X16272Y7674D01*
G01X16259Y7643D01*
G01X16245Y7613D01*
G01X16228Y7583D01*
G01X16209Y7555D01*
G01X16189Y7527D01*
G01X16168Y7501D01*
G01X16120Y7453D01*
G01X16094Y7432D01*
G01X16066Y7412D01*
G01X16038Y7393D01*
G01X16008Y7376D01*
G01X15978Y7362D01*
G01X15947Y7349D01*
G01X15915Y7338D01*
G01X15882Y7328D01*
G01X15849Y7321D01*
G01X15815Y7316D01*
G01X15781Y7313D01*
G01X15748Y7312D01*
G01X15711Y7313D01*
G01X15674Y7317D01*
G01X15638Y7323D01*
G01X15602Y7331D01*
G01X15567Y7342D01*
G01X15533Y7355D01*
G01X15499Y7370D01*
G01X15467Y7387D01*
G01X15436Y7407D01*
G01X15406Y7428D01*
G01X15392Y7437D01*
G01X15376Y7444D01*
G01X15360Y7448D01*
G01X15344Y7449D01*
G01X15329Y7448D01*
G01X15315Y7445D01*
G01X15302Y7440D01*
G01X15289Y7433D01*
G01X15277Y7424D01*
G01X15267Y7414D01*
G01X15258Y7403D01*
G01X15251Y7390D01*
G01X15246Y7376D01*
G01X15243Y7362D01*
G01X15242Y7348D01*
G01X15242Y6563D01*
G01X15240Y6523D01*
G01X15234Y6483D01*
G01X15232Y6463D01*
G01X15232Y6278D01*
G01X15231Y6249D01*
G01X15228Y6219D01*
G01X15222Y6190D01*
G01X15215Y6161D01*
G01X15205Y6133D01*
G01X15193Y6106D01*
G01X15179Y6080D01*
G01X15163Y6055D01*
G01X15145Y6031D01*
G01X15126Y6008D01*
G01X15105Y5987D01*
G01X15082Y5968D01*
G01X15071Y5958D01*
G01X15062Y5946D01*
G01X15054Y5933D01*
G01X15049Y5918D01*
G01X15045Y5904D01*
G01X15044Y5888D01*
G01X15045Y5872D01*
G01X15049Y5856D01*
G01X15056Y5841D01*
G01X15065Y5827D01*
G01X15076Y5815D01*
G01X15086Y5805D01*
G01X15098Y5794D01*
G01X15112Y5785D01*
G01X15127Y5778D01*
G01X15143Y5774D01*
G01X15159Y5773D01*
G01X15175Y5774D01*
G01X15189Y5778D01*
G01X15204Y5783D01*
G01X15217Y5791D01*
G01X15229Y5800D01*
G01X15239Y5811D01*
G01X15258Y5834D01*
G01X15279Y5855D01*
G01X15302Y5874D01*
G01X15326Y5892D01*
G01X15351Y5908D01*
G01X15377Y5922D01*
G01X15404Y5934D01*
G01X15432Y5944D01*
G01X15461Y5951D01*
G01X15490Y5957D01*
G01X15520Y5960D01*
G01X15549Y5961D01*
G01X16119Y5961D01*
G01X16149Y5960D01*
G01X16178Y5957D01*
G01X16208Y5951D01*
G01X16236Y5944D01*
G01X16264Y5934D01*
G01X16291Y5922D01*
G01X16318Y5908D01*
G01X16343Y5892D01*
G01X16367Y5875D01*
G01X16389Y5855D01*
G01X16410Y5834D01*
G01X16429Y5812D01*
G01X16447Y5788D01*
G01X16463Y5763D01*
G01X16477Y5737D01*
G01X16488Y5710D01*
G01X16498Y5682D01*
G01X16506Y5653D01*
G01X16511Y5624D01*
G01X16515Y5594D01*
G01X16516Y5565D01*
G01X16515Y5535D01*
G01X16511Y5505D01*
G01X16506Y5476D01*
G01X16498Y5447D01*
G01X16488Y5419D01*
G01X16476Y5392D01*
G01X16462Y5365D01*
G01X16455Y5349D01*
G01X16450Y5332D01*
G01X16449Y5314D01*
G01X16450Y5297D01*
G01X16455Y5280D01*
G01X16462Y5263D01*
G01X16476Y5237D01*
G01X16488Y5210D01*
G01X16498Y5182D01*
G01X16506Y5153D01*
G01X16511Y5124D01*
G01X16515Y5094D01*
G01X16516Y5064D01*
G01X16515Y5034D01*
G01X16511Y5005D01*
G01X16506Y4976D01*
G01X16498Y4947D01*
G01X16488Y4919D01*
G01X16476Y4891D01*
G01X16462Y4865D01*
G01X16455Y4849D01*
G01X16450Y4832D01*
G01X16449Y4814D01*
G01X16450Y4796D01*
G01X16455Y4779D01*
G01X16462Y4763D01*
G01X16479Y4731D01*
G01X16493Y4697D01*
G01X16289Y4697D01*
G01X16271Y4696D01*
G01X16254Y4691D01*
G01X16217Y4680D01*
G01X16178Y4672D01*
G01X16164Y4669D01*
G01X16151Y4664D01*
G01X16138Y4657D01*
G01X16127Y4648D01*
G01X16116Y4638D01*
G01X16108Y4626D01*
G01X16101Y4614D01*
G01X16096Y4600D01*
G01X16093Y4586D01*
G01X16092Y4572D01*
G01X16093Y4557D01*
G01X16096Y4543D01*
G01X16101Y4529D01*
G01X16108Y4517D01*
G01X16117Y4505D01*
G01X16127Y4495D01*
G01X16138Y4486D01*
G01X16151Y4479D01*
G01X16165Y4474D01*
G01X16179Y4471D01*
G01X16193Y4470D01*
G01X17188Y4470D01*
G01X17204Y4471D01*
G01X17219Y4475D01*
G01X17234Y4481D01*
G01X17248Y4489D01*
G01X17260Y4500D01*
G01X17470Y4710D01*
G01X17481Y4722D01*
G01X17489Y4736D01*
G01X17495Y4751D01*
G01X17499Y4766D01*
G01X17500Y4782D01*
G01X17500Y7620D01*
G01X17501Y7649D01*
G01X17504Y7677D01*
G01X17509Y7706D01*
G01X17516Y7734D01*
G01X17526Y7762D01*
G01X17537Y7788D01*
G01X17550Y7814D01*
G01X17564Y7839D01*
G01X17581Y7863D01*
G01X17599Y7886D01*
G01X17619Y7907D01*
G01X17873Y8161D01*
G01X17894Y8181D01*
G01X17917Y8199D01*
G01X17941Y8216D01*
G01X17966Y8230D01*
G01X17992Y8243D01*
G01X18018Y8254D01*
G01X18046Y8264D01*
G01X18074Y8271D01*
G01X18103Y8276D01*
G01X18131Y8279D01*
G01X18161Y8280D01*
G01X28364Y8280D01*
G01X28380Y8281D01*
G01X28395Y8285D01*
G01X28410Y8291D01*
G01X28424Y8299D01*
G01X28436Y8310D01*
G01X29303Y9177D01*
G01X29324Y9197D01*
G01X29347Y9215D01*
G01X29371Y9232D01*
G01X29396Y9246D01*
G01X29422Y9259D01*
G01X29448Y9270D01*
G01X29476Y9280D01*
G01X29504Y9287D01*
G01X29533Y9292D01*
G01X29561Y9295D01*
G01X29591Y9296D01*
G01X36150Y9296D01*
G01X36167Y9298D01*
G01X36184Y9302D01*
G01X36200Y9310D01*
G01X36215Y9320D01*
G01X36243Y9342D01*
G01X36272Y9362D01*
G01X36303Y9380D01*
G01X36334Y9396D01*
G01X36367Y9411D01*
G01X36401Y9423D01*
G01X36435Y9433D01*
G01X36469Y9441D01*
G01X36505Y9446D01*
G01X36540Y9450D01*
G01X36576Y9451D01*
G01X36609Y9450D01*
G01X36643Y9447D01*
G01X36677Y9442D01*
G01X36710Y9435D01*
G01X36743Y9425D01*
G01X36775Y9414D01*
G01X36806Y9401D01*
G01X36836Y9387D01*
G01X36866Y9370D01*
G01X36894Y9351D01*
G01X36922Y9331D01*
G01X36948Y9310D01*
G01X36996Y9262D01*
G01X37017Y9236D01*
G01X37037Y9208D01*
G01X37056Y9180D01*
G01X37073Y9150D01*
G01X37087Y9120D01*
G01X37100Y9089D01*
G01X37111Y9057D01*
G01X37121Y9024D01*
G01X37128Y8991D01*
G01X37133Y8957D01*
G01X37136Y8923D01*
G01X37137Y8890D01*
G01X37136Y8856D01*
G01X37133Y8822D01*
G01X37128Y8788D01*
G01X37121Y8755D01*
G01X37111Y8722D01*
G01X37100Y8690D01*
G01X37087Y8659D01*
G01X37073Y8629D01*
G01X37056Y8599D01*
G01X37037Y8571D01*
G01X37017Y8543D01*
G01X36996Y8517D01*
G01X36948Y8469D01*
G01X36922Y8448D01*
G01X36894Y8428D01*
G01X36866Y8409D01*
G01X36836Y8392D01*
G01X36806Y8378D01*
G01X36775Y8365D01*
G01X36743Y8354D01*
G01X36710Y8344D01*
G01X36677Y8337D01*
G01X36643Y8332D01*
G01X36609Y8329D01*
G01X36576Y8328D01*
G01X36540Y8329D01*
G01X36505Y8333D01*
G01X36469Y8338D01*
G01X36435Y8346D01*
G01X36401Y8356D01*
G01X36367Y8368D01*
G01X36334Y8383D01*
G01X36303Y8399D01*
G01X36272Y8417D01*
G01X36243Y8437D01*
G01X36215Y8459D01*
G01X36200Y8469D01*
G01X36184Y8477D01*
G01X36167Y8481D01*
G01X36150Y8483D01*
G01X36111Y8483D01*
G01X36097Y8482D01*
G01X36083Y8479D01*
G01X36069Y8474D01*
G01X36056Y8467D01*
G01X36045Y8458D01*
G01X36035Y8448D01*
G01X36026Y8436D01*
G01X36019Y8424D01*
G01X36014Y8410D01*
G01X36011Y8396D01*
G01X36010Y8381D01*
G01X36011Y8366D01*
G01X36014Y8352D01*
G01X36020Y8337D01*
G01X36027Y8324D01*
G01X36037Y8312D01*
G01X36048Y8302D01*
G01X36065Y8287D01*
G01X36081Y8270D01*
G01X36095Y8252D01*
G01X36108Y8233D01*
G01X36118Y8213D01*
G01X36127Y8192D01*
G01X36135Y8170D01*
G01X36140Y8148D01*
G01X36143Y8125D01*
G01X36144Y8102D01*
G01X36144Y6883D01*
G01X36143Y6859D01*
G01X36139Y6836D01*
G01X36134Y6813D01*
G01X36126Y6790D01*
G01X36117Y6768D01*
G01X36105Y6748D01*
G01X36092Y6728D01*
G01X36076Y6710D01*
G01X36060Y6693D01*
G01X36041Y6678D01*
G01X36022Y6664D01*
G01X36001Y6653D01*
G01X35979Y6643D01*
G01X35965Y6637D01*
G01X35953Y6628D01*
G01X35941Y6618D01*
G01X35932Y6606D01*
G01X35924Y6593D01*
G01X35919Y6579D01*
G01X35915Y6564D01*
G01X35914Y6549D01*
G01X35914Y3683D01*
G01X35913Y3651D01*
G01X35910Y3620D01*
G01X35905Y3589D01*
G01X35898Y3558D01*
G01X35888Y3528D01*
G01X35877Y3498D01*
G01X35864Y3470D01*
G01X35850Y3442D01*
G01X35833Y3415D01*
G01X35815Y3389D01*
G01X35795Y3365D01*
G01X35773Y3342D01*
G01X35107Y2676D01*
G01X35096Y2663D01*
G01X35088Y2649D01*
G01X35081Y2633D01*
G01X35070Y2599D01*
G01X35056Y2565D01*
G01X35041Y2533D01*
G01X35023Y2501D01*
G01X35003Y2471D01*
G01X34995Y2458D01*
G01X34989Y2443D01*
G01X34986Y2428D01*
G01X34985Y2413D01*
G01X34986Y2398D01*
G01X34989Y2384D01*
G01X34994Y2370D01*
G01X35001Y2358D01*
G01X35009Y2346D01*
G01X35020Y2336D01*
G01X35031Y2327D01*
G01X35044Y2320D01*
G01X35057Y2315D01*
G01X35072Y2312D01*
G01X35086Y2311D01*
G01X36404Y2311D01*
G01X36421Y2313D01*
G01X36438Y2317D01*
G01X36454Y2325D01*
G01X36469Y2335D01*
G01X36497Y2357D01*
G01X36526Y2377D01*
G01X36557Y2395D01*
G01X36588Y2411D01*
G01X36621Y2426D01*
G01X36655Y2438D01*
G01X36689Y2448D01*
G01X36723Y2456D01*
G01X36759Y2461D01*
G01X36794Y2465D01*
G01X36830Y2466D01*
G01X36863Y2465D01*
G01X36897Y2462D01*
G01X36931Y2457D01*
G01X36964Y2450D01*
G01X36997Y2440D01*
G01X37029Y2429D01*
G01X37060Y2416D01*
G01X37090Y2402D01*
G01X37120Y2385D01*
G01X37148Y2366D01*
G01X37176Y2346D01*
G01X37202Y2325D01*
G01X37250Y2277D01*
G01X37271Y2251D01*
G01X37291Y2223D01*
G01X37310Y2195D01*
G01X37327Y2165D01*
G01X37341Y2135D01*
G01X37354Y2104D01*
G01X37365Y2072D01*
G01X37375Y2039D01*
G01X37382Y2006D01*
G01X37387Y1972D01*
G01X37390Y1938D01*
G01X37391Y1905D01*
G01X37390Y1871D01*
G01X37387Y1837D01*
G01X37382Y1803D01*
G01X37375Y1770D01*
G01X37365Y1737D01*
G01X37354Y1705D01*
G01X37341Y1674D01*
G01X37327Y1644D01*
G01X37310Y1614D01*
G01X37291Y1586D01*
G01X37271Y1558D01*
G01X37250Y1532D01*
G01X37202Y1484D01*
G01X37176Y1463D01*
G01X37148Y1443D01*
G01X37120Y1424D01*
G01X37090Y1407D01*
G01X37060Y1393D01*
G01X37029Y1380D01*
G01X36997Y1369D01*
G01X36964Y1359D01*
G01X36931Y1352D01*
G01X36897Y1347D01*
G01X36863Y1344D01*
G01X36830Y1343D01*
G01X36794Y1344D01*
G01X36759Y1348D01*
G01X36723Y1353D01*
G01X36689Y1361D01*
G01X36655Y1371D01*
G01X36621Y1383D01*
G01X36588Y1398D01*
G01X36557Y1414D01*
G01X36526Y1432D01*
G01X36497Y1452D01*
G01X36469Y1474D01*
G01X36454Y1484D01*
G01X36438Y1492D01*
G01X36421Y1496D01*
G01X36404Y1498D01*
G01X33909Y1498D01*
G01X33879Y1499D01*
G01X33851Y1502D01*
G01X33822Y1507D01*
G01X33794Y1514D01*
G01X33766Y1524D01*
G01X33740Y1535D01*
G01X33714Y1548D01*
G01X33689Y1562D01*
G01X33665Y1579D01*
G01X33642Y1597D01*
G01X33621Y1617D01*
G01X33205Y2033D01*
G01X33193Y2043D01*
G01X33180Y2051D01*
G01X33165Y2057D01*
G01X33149Y2061D01*
G01X33134Y2062D01*
G01X32582Y2062D01*
G01X32582Y2613D01*
G01X32581Y2629D01*
G01X32578Y2645D01*
G01X32571Y2660D01*
G01X32563Y2673D01*
G01X32553Y2685D01*
G01X32246Y2992D01*
G01X32234Y3003D01*
G01X32220Y3011D01*
G01X32205Y3017D01*
G01X32190Y3021D01*
G01X32174Y3022D01*
G01X29531Y3022D01*
G01X29516Y3021D01*
G01X29502Y3018D01*
G01X29488Y3013D01*
G01X29476Y3006D01*
G01X29464Y2997D01*
G01X29454Y2987D01*
G01X29445Y2975D01*
G01X29438Y2963D01*
G01X29433Y2949D01*
G01X29430Y2935D01*
G01X29429Y2920D01*
G01X29429Y1959D01*
G01X29428Y1936D01*
G01X29425Y1912D01*
G01X29419Y1889D01*
G01X29412Y1867D01*
G01X29402Y1845D01*
G01X29391Y1824D01*
G01X29377Y1805D01*
G01X29362Y1787D01*
G01X29345Y1770D01*
G01X29327Y1755D01*
G01X29308Y1741D01*
G01X29287Y1730D01*
G01X29265Y1720D01*
G01X29243Y1713D01*
G01X29220Y1707D01*
G01X29196Y1704D01*
G01X29172Y1703D01*
G01X28228Y1703D01*
G01X28212Y1702D01*
G01X28197Y1698D01*
G01X28182Y1692D01*
G01X28168Y1684D01*
G01X28156Y1673D01*
G01X27443Y960D01*
G01X27433Y948D01*
G01X27425Y935D01*
G01X27419Y920D01*
G01X27415Y905D01*
G01X27414Y889D01*
G01X27415Y874D01*
G01X27418Y860D01*
G01X27423Y846D01*
G01X27430Y834D01*
G01X27438Y822D01*
G01X27449Y812D01*
G01X27460Y803D01*
G01X27473Y796D01*
G01X27487Y791D01*
G01X27501Y788D01*
G01X27515Y787D01*
G01X29126Y787D01*
G01X29142Y788D01*
G01X29157Y792D01*
G01X29172Y798D01*
G01X29186Y806D01*
G01X29198Y817D01*
G01X29256Y875D01*
G01X29267Y888D01*
G01X29276Y904D01*
G01X29282Y920D01*
G01X29285Y938D01*
G01X29289Y972D01*
G01X29296Y1006D01*
G01X29304Y1040D01*
G01X29314Y1073D01*
G01X29327Y1105D01*
G01X29341Y1137D01*
G01X29357Y1168D01*
G01X29376Y1197D01*
G01X29396Y1226D01*
G01X29417Y1253D01*
G01X29441Y1278D01*
G01X29465Y1302D01*
G01X29492Y1325D01*
G01X29519Y1346D01*
G01X29548Y1365D01*
G01X29578Y1383D01*
G01X29609Y1398D01*
G01X29641Y1412D01*
G01X29674Y1423D01*
G01X29707Y1433D01*
G01X29741Y1440D01*
G01X29775Y1446D01*
G01X29810Y1449D01*
G01X29844Y1450D01*
G01X29878Y1449D01*
G01X29912Y1446D01*
G01X29946Y1441D01*
G01X29979Y1434D01*
G01X30012Y1424D01*
G01X30044Y1413D01*
G01X30075Y1400D01*
G01X30105Y1386D01*
G01X30135Y1369D01*
G01X30163Y1350D01*
G01X30191Y1330D01*
G01X30217Y1309D01*
G01X30265Y1261D01*
G01X30286Y1235D01*
G01X30306Y1207D01*
G01X30325Y1179D01*
G01X30342Y1149D01*
G01X30356Y1119D01*
G01X30369Y1088D01*
G01X30380Y1056D01*
G01X30390Y1023D01*
G01X30397Y990D01*
G01X30402Y956D01*
G01X30405Y922D01*
G01X30406Y889D01*
G01X30405Y854D01*
G01X30402Y819D01*
G01X30396Y785D01*
G01X30389Y751D01*
G01X30379Y718D01*
G01X30368Y685D01*
G01X30354Y653D01*
G01X30338Y622D01*
G01X30321Y592D01*
G01X30302Y563D01*
G01X30281Y535D01*
G01X30258Y509D01*
G01X30234Y484D01*
G01X30208Y461D01*
G01X30181Y439D01*
G01X30169Y429D01*
G01X30159Y417D01*
G01X30151Y403D01*
G01X30145Y389D01*
G01X30141Y373D01*
G01X30140Y358D01*
G01X30141Y343D01*
G01X30144Y329D01*
G01X30149Y315D01*
G01X30156Y303D01*
G01X30165Y291D01*
G01X30175Y281D01*
G01X30187Y272D01*
G01X30199Y265D01*
G01X30213Y260D01*
G01X30227Y257D01*
G01X30242Y256D01*
G01X31429Y256D01*
G01X31444Y257D01*
G01X31458Y260D01*
G01X31472Y265D01*
G01X31484Y272D01*
G01X31496Y281D01*
G01X31506Y291D01*
G01X31515Y303D01*
G01X31522Y315D01*
G01X31527Y329D01*
G01X31530Y343D01*
G01X31531Y358D01*
G01X31530Y372D01*
G01X31527Y386D01*
G01X31522Y400D01*
G01X31515Y412D01*
G01X31507Y424D01*
G01X31478Y459D01*
G01X31451Y495D01*
G01X31426Y533D01*
G01X31403Y571D01*
G01X31382Y611D01*
G01X31363Y652D01*
G01X31346Y694D01*
G01X31331Y736D01*
G01X31319Y779D01*
G01X31308Y823D01*
G01X31300Y867D01*
G01X31806Y867D01*
G01X31806Y358D01*
G01X31807Y343D01*
G01X31810Y329D01*
G01X31815Y315D01*
G01X31822Y303D01*
G01X31830Y291D01*
G01X31841Y281D01*
G01X31852Y272D01*
G01X31865Y265D01*
G01X31878Y260D01*
G01X31893Y257D01*
G01X31907Y256D01*
G01X32481Y256D01*
G01X32495Y257D01*
G01X32510Y260D01*
G01X32523Y265D01*
G01X32536Y272D01*
G01X32547Y281D01*
G01X32558Y291D01*
G01X32566Y303D01*
G01X32573Y315D01*
G01X32578Y329D01*
G01X32581Y343D01*
G01X32582Y358D01*
G01X32582Y867D01*
G01X33088Y867D01*
G01X33080Y823D01*
G01X33069Y779D01*
G01X33057Y736D01*
G01X33042Y694D01*
G01X33025Y652D01*
G01X33006Y611D01*
G01X32985Y571D01*
G01X32962Y533D01*
G01X32937Y495D01*
G01X32910Y459D01*
G01X32881Y424D01*
G01X32873Y412D01*
G01X32866Y400D01*
G01X32861Y386D01*
G01X32858Y372D01*
G01X32857Y358D01*
G01X32858Y343D01*
G01X32861Y329D01*
G01X32866Y315D01*
G01X32873Y303D01*
G01X32882Y291D01*
G01X32892Y281D01*
G01X32904Y272D01*
G01X32916Y265D01*
G01X32930Y260D01*
G01X32944Y257D01*
G01X32959Y256D01*
G01X38668Y256D01*
G01X38683Y257D01*
G01X38697Y260D01*
G01X38711Y265D01*
G01X38723Y272D01*
G01X38735Y281D01*
G01X38745Y291D01*
G01X38754Y303D01*
G01X38761Y315D01*
G01X38766Y329D01*
G01X38769Y343D01*
G01X38770Y358D01*
G01X38769Y372D01*
G01X38766Y386D01*
G01X38761Y400D01*
G01X38754Y412D01*
G01X38746Y424D01*
G01X38717Y459D01*
G01X38690Y495D01*
G01X38665Y533D01*
G01X38642Y571D01*
G01X38621Y611D01*
G01X38602Y652D01*
G01X38585Y694D01*
G01X38570Y736D01*
G01X38558Y779D01*
G01X38547Y823D01*
G01X38539Y867D01*
G01X39045Y867D01*
G01X39045Y358D01*
G01X39046Y343D01*
G01X39049Y329D01*
G01X39054Y315D01*
G01X39061Y303D01*
G01X39069Y291D01*
G01X39080Y281D01*
G01X39091Y272D01*
G01X39104Y265D01*
G01X39117Y260D01*
G01X39132Y257D01*
G01X39146Y256D01*
G01X39720Y256D01*
G01X39734Y257D01*
G01X39749Y260D01*
G01X39762Y265D01*
G01X39775Y272D01*
G01X39786Y281D01*
G01X39797Y291D01*
G01X39805Y303D01*
G01X39812Y315D01*
G01X39817Y329D01*
G01X39820Y343D01*
G01X39821Y358D01*
G01X39821Y867D01*
G01X40327Y867D01*
G01X40319Y823D01*
G01X40308Y779D01*
G01X40296Y736D01*
G01X40281Y694D01*
G01X40264Y652D01*
G01X40245Y611D01*
G01X40224Y571D01*
G01X40201Y533D01*
G01X40176Y495D01*
G01X40149Y459D01*
G01X40120Y424D01*
G01X40112Y412D01*
G01X40105Y400D01*
G01X40100Y386D01*
G01X40097Y372D01*
G01X40096Y358D01*
G01X40097Y343D01*
G01X40100Y329D01*
G01X40105Y315D01*
G01X40112Y303D01*
G01X40121Y291D01*
G01X40131Y281D01*
G01X40143Y272D01*
G01X40155Y265D01*
G01X40169Y260D01*
G01X40183Y257D01*
G01X40198Y256D01*
G01X47045Y256D01*
G01X47060Y257D01*
G01X47074Y260D01*
G01X47087Y265D01*
G01X47100Y272D01*
G01X47112Y281D01*
G01X47122Y291D01*
G01X47131Y303D01*
G01X47138Y315D01*
G01X47143Y329D01*
G01X47146Y343D01*
G01X47147Y358D01*
G01X47146Y372D01*
G01X47143Y386D01*
G01X47137Y400D01*
G01X47127Y426D01*
G01X47120Y453D01*
G01X47115Y480D01*
G01X47114Y507D01*
G01X47114Y2032D01*
G01X47115Y2055D01*
G01X47118Y2079D01*
G01X47124Y2102D01*
G01X47131Y2124D01*
G01X47141Y2146D01*
G01X47152Y2167D01*
G01X47166Y2186D01*
G01X47181Y2204D01*
G01X47198Y2221D01*
G01X47216Y2236D01*
G01X47235Y2250D01*
G01X47256Y2261D01*
G01X47278Y2271D01*
G01X47300Y2278D01*
G01X47323Y2284D01*
G01X47347Y2287D01*
G01X47371Y2288D01*
G01X51451Y2288D01*
G01X51457Y2287D01*
G01X51472Y2288D01*
G01X51486Y2291D01*
G01X51500Y2296D01*
G01X51512Y2303D01*
G01X51524Y2312D01*
G01X51534Y2322D01*
G01X51543Y2334D01*
G01X51550Y2347D01*
G01X51555Y2360D01*
G01X51558Y2374D01*
G01X51559Y2389D01*
G01X51559Y5230D01*
G01X51558Y5245D01*
G01X51555Y5259D01*
G01X51550Y5272D01*
G01X51543Y5285D01*
G01X51534Y5297D01*
G01X51524Y5307D01*
G01X51512Y5316D01*
G01X51500Y5323D01*
G01X51486Y5328D01*
G01X51472Y5331D01*
G01X51457Y5332D01*
G01X51451Y5331D01*
G01X47371Y5331D01*
G01X47347Y5332D01*
G01X47323Y5335D01*
G01X47300Y5341D01*
G01X47278Y5348D01*
G01X47256Y5358D01*
G01X47235Y5369D01*
G01X47216Y5383D01*
G01X47198Y5398D01*
G01X47181Y5415D01*
G01X47166Y5433D01*
G01X47152Y5452D01*
G01X47141Y5473D01*
G01X47131Y5495D01*
G01X47124Y5517D01*
G01X47118Y5540D01*
G01X47115Y5564D01*
G01X47114Y5588D01*
G01X47114Y7112D01*
G01X47115Y7135D01*
G01X47118Y7159D01*
G01X47124Y7182D01*
G01X47131Y7204D01*
G01X47141Y7226D01*
G01X47152Y7247D01*
G01X47166Y7266D01*
G01X47181Y7284D01*
G01X47198Y7301D01*
G01X47216Y7316D01*
G01X47235Y7330D01*
G01X47256Y7341D01*
G01X47278Y7351D01*
G01X47300Y7358D01*
G01X47323Y7364D01*
G01X47347Y7367D01*
G01X47371Y7368D01*
G01X51451Y7368D01*
G01X51457Y7367D01*
G01X51472Y7368D01*
G01X51486Y7371D01*
G01X51500Y7376D01*
G01X51512Y7383D01*
G01X51524Y7392D01*
G01X51534Y7402D01*
G01X51543Y7414D01*
G01X51550Y7427D01*
G01X51555Y7440D01*
G01X51558Y7454D01*
G01X51559Y7469D01*
G01X51559Y36090D01*
G01X51558Y36105D01*
G01X51555Y36119D01*
G01X51550Y36133D01*
G01X51543Y36145D01*
G01X51534Y36157D01*
G01X51524Y36167D01*
G01X51512Y36176D01*
G01X51500Y36183D01*
G01X51486Y36188D01*
G01X51472Y36191D01*
G01X51457Y36192D01*
G37*

%LPC*%
G36*
G01X50292Y14226D02*
G01X48768Y14226D01*
G01X48744Y14225D01*
G01X48720Y14222D01*
G01X48697Y14216D01*
G01X48675Y14209D01*
G01X48653Y14199D01*
G01X48632Y14188D01*
G01X48613Y14174D01*
G01X48595Y14159D01*
G01X48578Y14142D01*
G01X48563Y14124D01*
G01X48549Y14105D01*
G01X48538Y14084D01*
G01X48528Y14062D01*
G01X48521Y14040D01*
G01X48515Y14017D01*
G01X48512Y13993D01*
G01X48511Y13970D01*
G01X48511Y12446D01*
G01X48512Y12422D01*
G01X48515Y12398D01*
G01X48521Y12375D01*
G01X48528Y12353D01*
G01X48538Y12331D01*
G01X48549Y12310D01*
G01X48563Y12291D01*
G01X48578Y12273D01*
G01X48595Y12256D01*
G01X48613Y12241D01*
G01X48632Y12227D01*
G01X48653Y12216D01*
G01X48675Y12206D01*
G01X48697Y12199D01*
G01X48720Y12193D01*
G01X48744Y12190D01*
G01X48768Y12189D01*
G01X50292Y12189D01*
G01X50315Y12190D01*
G01X50339Y12193D01*
G01X50362Y12199D01*
G01X50384Y12206D01*
G01X50406Y12216D01*
G01X50427Y12227D01*
G01X50446Y12241D01*
G01X50464Y12256D01*
G01X50481Y12273D01*
G01X50496Y12291D01*
G01X50510Y12310D01*
G01X50521Y12331D01*
G01X50531Y12353D01*
G01X50538Y12375D01*
G01X50544Y12398D01*
G01X50547Y12422D01*
G01X50548Y12446D01*
G01X50548Y13970D01*
G01X50547Y13993D01*
G01X50544Y14017D01*
G01X50538Y14040D01*
G01X50531Y14062D01*
G01X50521Y14084D01*
G01X50510Y14105D01*
G01X50496Y14124D01*
G01X50481Y14142D01*
G01X50464Y14159D01*
G01X50446Y14174D01*
G01X50427Y14188D01*
G01X50406Y14199D01*
G01X50384Y14209D01*
G01X50362Y14216D01*
G01X50339Y14222D01*
G01X50315Y14225D01*
G01X50292Y14226D01*
G37*
G36*
G01X31806Y2062D02*
G01X31806Y2734D01*
G01X31766Y2714D01*
G01X31728Y2693D01*
G01X31691Y2669D01*
G01X31656Y2644D01*
G01X31621Y2617D01*
G01X31588Y2589D01*
G01X31556Y2559D01*
G01X31526Y2528D01*
G01X31497Y2495D01*
G01X31470Y2460D01*
G01X31445Y2425D01*
G01X31421Y2388D01*
G01X31399Y2350D01*
G01X31379Y2311D01*
G01X31361Y2272D01*
G01X31344Y2231D01*
G01X31330Y2190D01*
G01X31318Y2148D01*
G01X31308Y2105D01*
G01X31300Y2062D01*
G01X31806Y2062D01*
G37*
G36*
G01X39861Y2714D02*
G01X39821Y2734D01*
G01X39821Y2062D01*
G01X40327Y2062D01*
G01X40319Y2105D01*
G01X40309Y2148D01*
G01X40297Y2190D01*
G01X40283Y2231D01*
G01X40266Y2272D01*
G01X40248Y2311D01*
G01X40228Y2350D01*
G01X40206Y2388D01*
G01X40182Y2425D01*
G01X40157Y2460D01*
G01X40130Y2495D01*
G01X40101Y2528D01*
G01X40071Y2559D01*
G01X40039Y2589D01*
G01X40006Y2617D01*
G01X39971Y2644D01*
G01X39936Y2669D01*
G01X39899Y2693D01*
G01X39861Y2714D01*
G37*
G36*
G01X39045Y2062D02*
G01X39045Y2734D01*
G01X39005Y2714D01*
G01X38967Y2693D01*
G01X38930Y2669D01*
G01X38895Y2644D01*
G01X38860Y2617D01*
G01X38827Y2589D01*
G01X38795Y2559D01*
G01X38765Y2528D01*
G01X38736Y2495D01*
G01X38709Y2460D01*
G01X38684Y2425D01*
G01X38660Y2388D01*
G01X38638Y2350D01*
G01X38618Y2311D01*
G01X38600Y2272D01*
G01X38583Y2231D01*
G01X38569Y2190D01*
G01X38557Y2148D01*
G01X38547Y2105D01*
G01X38539Y2062D01*
G01X39045Y2062D01*
G37*
G36*
G01X39063Y3776D02*
G01X38633Y3776D01*
G01X38633Y3346D01*
G01X38672Y3366D01*
G01X38711Y3388D01*
G01X38748Y3411D01*
G01X38785Y3437D01*
G01X38820Y3464D01*
G01X38853Y3493D01*
G01X38885Y3524D01*
G01X38916Y3556D01*
G01X38945Y3590D01*
G01X38972Y3624D01*
G01X38998Y3661D01*
G01X39021Y3698D01*
G01X39043Y3737D01*
G01X39063Y3776D01*
G37*
G36*
G01X37856Y4553D02*
G01X37856Y4984D01*
G01X37816Y4964D01*
G01X37778Y4942D01*
G01X37740Y4918D01*
G01X37704Y4893D01*
G01X37669Y4865D01*
G01X37635Y4836D01*
G01X37603Y4806D01*
G01X37573Y4774D01*
G01X37544Y4740D01*
G01X37516Y4705D01*
G01X37491Y4669D01*
G01X37467Y4632D01*
G01X37445Y4593D01*
G01X37425Y4553D01*
G01X37856Y4553D01*
G37*
G36*
G01X38672Y4964D02*
G01X38633Y4984D01*
G01X38633Y4553D01*
G01X39063Y4553D01*
G01X39043Y4593D01*
G01X39021Y4632D01*
G01X38998Y4669D01*
G01X38972Y4705D01*
G01X38945Y4740D01*
G01X38916Y4774D01*
G01X38885Y4806D01*
G01X38853Y4836D01*
G01X38820Y4865D01*
G01X38785Y4893D01*
G01X38748Y4918D01*
G01X38711Y4942D01*
G01X38672Y4964D01*
G37*
G36*
G01X37856Y3776D02*
G01X37425Y3776D01*
G01X37445Y3737D01*
G01X37467Y3698D01*
G01X37491Y3661D01*
G01X37516Y3624D01*
G01X37544Y3590D01*
G01X37573Y3556D01*
G01X37603Y3524D01*
G01X37635Y3493D01*
G01X37669Y3464D01*
G01X37704Y3437D01*
G01X37740Y3411D01*
G01X37778Y3388D01*
G01X37816Y3366D01*
G01X37856Y3346D01*
G01X37856Y3776D01*
G37*

%LPD*%
G36*
G01X11354Y7086D02*
G01X9989Y7086D01*
G01X9973Y7085D01*
G01X9958Y7081D01*
G01X9943Y7075D01*
G01X9929Y7067D01*
G01X9917Y7056D01*
G01X3290Y429D01*
G01X3280Y417D01*
G01X3272Y404D01*
G01X3266Y389D01*
G01X3262Y374D01*
G01X3261Y358D01*
G01X3262Y343D01*
G01X3265Y329D01*
G01X3270Y315D01*
G01X3277Y303D01*
G01X3285Y291D01*
G01X3296Y281D01*
G01X3307Y272D01*
G01X3320Y265D01*
G01X3334Y260D01*
G01X3348Y257D01*
G01X3362Y256D01*
G01X17320Y256D01*
G01X17335Y257D01*
G01X17349Y260D01*
G01X17363Y265D01*
G01X17375Y272D01*
G01X17387Y281D01*
G01X17397Y291D01*
G01X17406Y303D01*
G01X17413Y315D01*
G01X17418Y329D01*
G01X17421Y343D01*
G01X17422Y358D01*
G01X17421Y374D01*
G01X17417Y389D01*
G01X17411Y404D01*
G01X17403Y417D01*
G01X17392Y429D01*
G01X16345Y1477D01*
G01X16333Y1487D01*
G01X16319Y1496D01*
G01X16304Y1502D01*
G01X16289Y1506D01*
G01X16273Y1507D01*
G01X16257Y1506D01*
G01X16242Y1502D01*
G01X16227Y1496D01*
G01X16214Y1488D01*
G01X16202Y1478D01*
G01X16192Y1466D01*
G01X16183Y1453D01*
G01X16177Y1439D01*
G01X16173Y1423D01*
G01X16166Y1390D01*
G01X16157Y1357D01*
G01X16146Y1325D01*
G01X16133Y1294D01*
G01X16118Y1263D01*
G01X16101Y1234D01*
G01X16083Y1205D01*
G01X16063Y1178D01*
G01X16041Y1152D01*
G01X16018Y1127D01*
G01X15993Y1104D01*
G01X15967Y1082D01*
G01X15940Y1062D01*
G01X15911Y1043D01*
G01X15882Y1027D01*
G01X15851Y1012D01*
G01X15820Y999D01*
G01X15788Y988D01*
G01X15755Y979D01*
G01X15722Y971D01*
G01X15688Y966D01*
G01X15654Y963D01*
G01X15621Y962D01*
G01X15586Y963D01*
G01X15551Y966D01*
G01X15517Y972D01*
G01X15483Y979D01*
G01X15450Y989D01*
G01X15417Y1000D01*
G01X15385Y1014D01*
G01X15354Y1029D01*
G01X15324Y1047D01*
G01X15296Y1066D01*
G01X15282Y1074D01*
G01X15268Y1080D01*
G01X15252Y1083D01*
G01X15237Y1085D01*
G01X15221Y1083D01*
G01X15206Y1080D01*
G01X15191Y1074D01*
G01X15177Y1065D01*
G01X15165Y1055D01*
G01X15155Y1043D01*
G01X15137Y1021D01*
G01X15118Y1000D01*
G01X15097Y980D01*
G01X15075Y962D01*
G01X15052Y946D01*
G01X15027Y931D01*
G01X15002Y918D01*
G01X14975Y907D01*
G01X14948Y898D01*
G01X14921Y891D01*
G01X14893Y886D01*
G01X14864Y883D01*
G01X14836Y882D01*
G01X14806Y883D01*
G01X14776Y886D01*
G01X14747Y892D01*
G01X14718Y900D01*
G01X14690Y910D01*
G01X14663Y921D01*
G01X14636Y935D01*
G01X14620Y943D01*
G01X14603Y948D01*
G01X14585Y949D01*
G01X14568Y948D01*
G01X14551Y943D01*
G01X14534Y935D01*
G01X14508Y921D01*
G01X14481Y910D01*
G01X14453Y900D01*
G01X14424Y892D01*
G01X14395Y886D01*
G01X14365Y883D01*
G01X14335Y882D01*
G01X14305Y883D01*
G01X14276Y886D01*
G01X14247Y892D01*
G01X14218Y900D01*
G01X14190Y910D01*
G01X14162Y921D01*
G01X14136Y935D01*
G01X14120Y943D01*
G01X14103Y948D01*
G01X14085Y949D01*
G01X14067Y948D01*
G01X14050Y943D01*
G01X14034Y935D01*
G01X14008Y921D01*
G01X13980Y910D01*
G01X13952Y900D01*
G01X13924Y892D01*
G01X13894Y886D01*
G01X13865Y883D01*
G01X13835Y882D01*
G01X13805Y883D01*
G01X13775Y886D01*
G01X13746Y892D01*
G01X13717Y900D01*
G01X13689Y910D01*
G01X13662Y921D01*
G01X13636Y935D01*
G01X13620Y943D01*
G01X13602Y948D01*
G01X13585Y949D01*
G01X13567Y948D01*
G01X13550Y943D01*
G01X13534Y935D01*
G01X13507Y921D01*
G01X13480Y910D01*
G01X13452Y900D01*
G01X13423Y892D01*
G01X13394Y886D01*
G01X13364Y883D01*
G01X13335Y882D01*
G01X13305Y883D01*
G01X13275Y886D01*
G01X13246Y892D01*
G01X13217Y900D01*
G01X13189Y910D01*
G01X13162Y921D01*
G01X13135Y935D01*
G01X13119Y943D01*
G01X13102Y948D01*
G01X13084Y949D01*
G01X13067Y948D01*
G01X13049Y943D01*
G01X13033Y935D01*
G01X13007Y921D01*
G01X12980Y910D01*
G01X12952Y900D01*
G01X12923Y892D01*
G01X12894Y886D01*
G01X12864Y883D01*
G01X12834Y882D01*
G01X12804Y883D01*
G01X12775Y886D01*
G01X12745Y892D01*
G01X12717Y900D01*
G01X12689Y910D01*
G01X12661Y921D01*
G01X12635Y935D01*
G01X12619Y943D01*
G01X12602Y948D01*
G01X12584Y949D01*
G01X12566Y948D01*
G01X12549Y943D01*
G01X12533Y935D01*
G01X12507Y921D01*
G01X12479Y910D01*
G01X12451Y900D01*
G01X12422Y892D01*
G01X12393Y886D01*
G01X12364Y883D01*
G01X12334Y882D01*
G01X12304Y883D01*
G01X12274Y886D01*
G01X12245Y892D01*
G01X12216Y900D01*
G01X12188Y910D01*
G01X12161Y921D01*
G01X12135Y935D01*
G01X12118Y943D01*
G01X12101Y948D01*
G01X12084Y949D01*
G01X12066Y948D01*
G01X12049Y943D01*
G01X12033Y935D01*
G01X12006Y921D01*
G01X11979Y910D01*
G01X11951Y900D01*
G01X11922Y892D01*
G01X11893Y886D01*
G01X11863Y883D01*
G01X11833Y882D01*
G01X11804Y883D01*
G01X11774Y886D01*
G01X11745Y892D01*
G01X11716Y899D01*
G01X11688Y909D01*
G01X11661Y921D01*
G01X11635Y935D01*
G01X11610Y951D01*
G01X11586Y968D01*
G01X11564Y988D01*
G01X11543Y1009D01*
G01X11523Y1031D01*
G01X11506Y1055D01*
G01X11490Y1080D01*
G01X11476Y1106D01*
G01X11464Y1133D01*
G01X11454Y1161D01*
G01X11447Y1190D01*
G01X11441Y1219D01*
G01X11438Y1249D01*
G01X11437Y1278D01*
G01X11437Y1848D01*
G01X11438Y1878D01*
G01X11441Y1908D01*
G01X11447Y1937D01*
G01X11455Y1966D01*
G01X11464Y1994D01*
G01X11476Y2021D01*
G01X11490Y2047D01*
G01X11506Y2072D01*
G01X11524Y2096D01*
G01X11543Y2119D01*
G01X11564Y2140D01*
G01X11587Y2159D01*
G01X11598Y2169D01*
G01X11607Y2181D01*
G01X11615Y2194D01*
G01X11621Y2208D01*
G01X11624Y2223D01*
G01X11625Y2238D01*
G01X11624Y2255D01*
G01X11620Y2271D01*
G01X11613Y2286D01*
G01X11604Y2300D01*
G01X11593Y2312D01*
G01X11583Y2322D01*
G01X11571Y2333D01*
G01X11557Y2342D01*
G01X11542Y2349D01*
G01X11526Y2353D01*
G01X11509Y2354D01*
G01X11494Y2353D01*
G01X11479Y2350D01*
G01X11465Y2344D01*
G01X11452Y2336D01*
G01X11440Y2327D01*
G01X11430Y2316D01*
G01X11411Y2293D01*
G01X11390Y2272D01*
G01X11367Y2253D01*
G01X11343Y2235D01*
G01X11318Y2219D01*
G01X11292Y2205D01*
G01X11265Y2193D01*
G01X11236Y2184D01*
G01X11208Y2176D01*
G01X11179Y2170D01*
G01X11149Y2167D01*
G01X11119Y2166D01*
G01X10549Y2166D01*
G01X10520Y2167D01*
G01X10490Y2170D01*
G01X10461Y2176D01*
G01X10432Y2183D01*
G01X10404Y2193D01*
G01X10377Y2205D01*
G01X10351Y2219D01*
G01X10326Y2235D01*
G01X10302Y2252D01*
G01X10280Y2272D01*
G01X10259Y2293D01*
G01X10239Y2315D01*
G01X10222Y2339D01*
G01X10206Y2364D01*
G01X10192Y2390D01*
G01X10180Y2417D01*
G01X10170Y2445D01*
G01X10163Y2474D01*
G01X10157Y2503D01*
G01X10154Y2533D01*
G01X10153Y2562D01*
G01X10154Y2592D01*
G01X10157Y2622D01*
G01X10163Y2651D01*
G01X10171Y2680D01*
G01X10181Y2708D01*
G01X10192Y2735D01*
G01X10206Y2762D01*
G01X10214Y2778D01*
G01X10219Y2795D01*
G01X10220Y2813D01*
G01X10219Y2830D01*
G01X10214Y2847D01*
G01X10206Y2864D01*
G01X10192Y2890D01*
G01X10181Y2917D01*
G01X10171Y2945D01*
G01X10163Y2974D01*
G01X10157Y3003D01*
G01X10154Y3033D01*
G01X10153Y3063D01*
G01X10154Y3093D01*
G01X10157Y3122D01*
G01X10163Y3151D01*
G01X10171Y3180D01*
G01X10181Y3208D01*
G01X10192Y3236D01*
G01X10206Y3262D01*
G01X10214Y3278D01*
G01X10219Y3295D01*
G01X10220Y3313D01*
G01X10219Y3331D01*
G01X10214Y3348D01*
G01X10206Y3364D01*
G01X10192Y3390D01*
G01X10181Y3418D01*
G01X10171Y3446D01*
G01X10163Y3474D01*
G01X10157Y3504D01*
G01X10154Y3533D01*
G01X10153Y3563D01*
G01X10154Y3593D01*
G01X10157Y3623D01*
G01X10163Y3652D01*
G01X10171Y3681D01*
G01X10181Y3709D01*
G01X10192Y3736D01*
G01X10206Y3762D01*
G01X10214Y3778D01*
G01X10219Y3796D01*
G01X10220Y3813D01*
G01X10219Y3831D01*
G01X10214Y3848D01*
G01X10206Y3864D01*
G01X10192Y3891D01*
G01X10181Y3918D01*
G01X10171Y3946D01*
G01X10163Y3975D01*
G01X10157Y4004D01*
G01X10154Y4034D01*
G01X10153Y4064D01*
G01X10154Y4093D01*
G01X10157Y4123D01*
G01X10163Y4152D01*
G01X10171Y4181D01*
G01X10181Y4209D01*
G01X10192Y4236D01*
G01X10206Y4263D01*
G01X10214Y4279D01*
G01X10219Y4296D01*
G01X10220Y4314D01*
G01X10219Y4331D01*
G01X10214Y4349D01*
G01X10206Y4365D01*
G01X10192Y4391D01*
G01X10181Y4418D01*
G01X10171Y4446D01*
G01X10163Y4475D01*
G01X10157Y4504D01*
G01X10154Y4534D01*
G01X10153Y4564D01*
G01X10154Y4594D01*
G01X10157Y4623D01*
G01X10163Y4653D01*
G01X10171Y4681D01*
G01X10181Y4709D01*
G01X10192Y4737D01*
G01X10206Y4763D01*
G01X10214Y4779D01*
G01X10219Y4796D01*
G01X10220Y4814D01*
G01X10219Y4832D01*
G01X10214Y4849D01*
G01X10206Y4865D01*
G01X10192Y4891D01*
G01X10181Y4919D01*
G01X10171Y4947D01*
G01X10163Y4976D01*
G01X10157Y5005D01*
G01X10154Y5034D01*
G01X10153Y5064D01*
G01X10154Y5094D01*
G01X10157Y5124D01*
G01X10163Y5153D01*
G01X10171Y5182D01*
G01X10181Y5210D01*
G01X10192Y5237D01*
G01X10206Y5263D01*
G01X10214Y5280D01*
G01X10219Y5297D01*
G01X10220Y5314D01*
G01X10219Y5332D01*
G01X10214Y5349D01*
G01X10206Y5365D01*
G01X10192Y5392D01*
G01X10181Y5419D01*
G01X10171Y5447D01*
G01X10163Y5476D01*
G01X10157Y5505D01*
G01X10154Y5535D01*
G01X10153Y5565D01*
G01X10154Y5594D01*
G01X10157Y5624D01*
G01X10163Y5653D01*
G01X10170Y5682D01*
G01X10180Y5710D01*
G01X10192Y5737D01*
G01X10206Y5763D01*
G01X10222Y5788D01*
G01X10239Y5812D01*
G01X10259Y5834D01*
G01X10280Y5855D01*
G01X10302Y5875D01*
G01X10326Y5892D01*
G01X10351Y5908D01*
G01X10377Y5922D01*
G01X10404Y5934D01*
G01X10432Y5944D01*
G01X10461Y5951D01*
G01X10490Y5957D01*
G01X10520Y5960D01*
G01X10549Y5961D01*
G01X11119Y5961D01*
G01X11149Y5960D01*
G01X11179Y5957D01*
G01X11208Y5951D01*
G01X11236Y5943D01*
G01X11265Y5934D01*
G01X11292Y5922D01*
G01X11318Y5908D01*
G01X11343Y5892D01*
G01X11367Y5874D01*
G01X11390Y5855D01*
G01X11411Y5834D01*
G01X11430Y5811D01*
G01X11440Y5800D01*
G01X11452Y5791D01*
G01X11465Y5783D01*
G01X11479Y5777D01*
G01X11494Y5774D01*
G01X11509Y5773D01*
G01X11526Y5774D01*
G01X11542Y5778D01*
G01X11557Y5785D01*
G01X11571Y5794D01*
G01X11583Y5805D01*
G01X11593Y5815D01*
G01X11604Y5827D01*
G01X11613Y5841D01*
G01X11620Y5856D01*
G01X11624Y5872D01*
G01X11625Y5888D01*
G01X11624Y5904D01*
G01X11620Y5918D01*
G01X11615Y5933D01*
G01X11607Y5946D01*
G01X11598Y5958D01*
G01X11587Y5968D01*
G01X11564Y5987D01*
G01X11543Y6008D01*
G01X11524Y6031D01*
G01X11506Y6055D01*
G01X11490Y6080D01*
G01X11476Y6106D01*
G01X11464Y6133D01*
G01X11454Y6161D01*
G01X11447Y6190D01*
G01X11441Y6219D01*
G01X11438Y6249D01*
G01X11437Y6278D01*
G01X11437Y6848D01*
G01X11438Y6885D01*
G01X11444Y6921D01*
G01X11452Y6957D01*
G01X11456Y6984D01*
G01X11455Y6999D01*
G01X11452Y7013D01*
G01X11447Y7027D01*
G01X11440Y7039D01*
G01X11431Y7051D01*
G01X11421Y7061D01*
G01X11409Y7070D01*
G01X11396Y7077D01*
G01X11383Y7082D01*
G01X11369Y7085D01*
G01X11354Y7086D01*
G37*

%LPD*%
G36*
G01X14220Y21108D02*
G01X5829Y21108D01*
G01X5813Y21107D01*
G01X5798Y21103D01*
G01X5783Y21097D01*
G01X5769Y21089D01*
G01X5757Y21078D01*
G01X4627Y19948D01*
G01X4616Y19935D01*
G01X4608Y19921D01*
G01X4601Y19905D01*
G01X4590Y19872D01*
G01X4577Y19839D01*
G01X4562Y19807D01*
G01X4545Y19776D01*
G01X4526Y19747D01*
G01X4505Y19718D01*
G01X4482Y19691D01*
G01X4458Y19666D01*
G01X4432Y19642D01*
G01X4405Y19620D01*
G01X4376Y19599D01*
G01X4346Y19580D01*
G01X4315Y19564D01*
G01X4283Y19549D01*
G01X4250Y19536D01*
G01X4217Y19525D01*
G01X4182Y19517D01*
G01X4148Y19511D01*
G01X4113Y19506D01*
G01X4095Y19503D01*
G01X4079Y19497D01*
G01X4063Y19488D01*
G01X4050Y19477D01*
G01X1198Y16625D01*
G01X1187Y16613D01*
G01X1179Y16599D01*
G01X1173Y16584D01*
G01X1169Y16569D01*
G01X1168Y16553D01*
G01X1168Y1143D01*
G01X1169Y1128D01*
G01X1172Y1114D01*
G01X1177Y1100D01*
G01X1184Y1088D01*
G01X1193Y1076D01*
G01X1203Y1066D01*
G01X1215Y1057D01*
G01X1227Y1050D01*
G01X1241Y1045D01*
G01X1255Y1042D01*
G01X1270Y1041D01*
G01X1635Y1041D01*
G01X1649Y1042D01*
G01X1663Y1045D01*
G01X1677Y1050D01*
G01X1690Y1057D01*
G01X1701Y1066D01*
G01X1712Y1076D01*
G01X1720Y1088D01*
G01X1727Y1100D01*
G01X1732Y1114D01*
G01X1735Y1128D01*
G01X1736Y1143D01*
G01X1735Y1162D01*
G01X1729Y1198D01*
G01X1725Y1233D01*
G01X1724Y1269D01*
G01X1725Y1304D01*
G01X1728Y1339D01*
G01X1734Y1373D01*
G01X1741Y1407D01*
G01X1751Y1441D01*
G01X1763Y1473D01*
G01X1776Y1505D01*
G01X1792Y1536D01*
G01X1798Y1552D01*
G01X1803Y1568D01*
G01X1804Y1585D01*
G01X1804Y5461D01*
G01X1805Y5492D01*
G01X1808Y5523D01*
G01X1813Y5554D01*
G01X1820Y5585D01*
G01X1830Y5615D01*
G01X1841Y5645D01*
G01X1854Y5673D01*
G01X1868Y5701D01*
G01X1885Y5728D01*
G01X1903Y5754D01*
G01X1923Y5778D01*
G01X1945Y5801D01*
G01X11416Y15272D01*
G01X11427Y15284D01*
G01X11435Y15298D01*
G01X11441Y15313D01*
G01X11445Y15328D01*
G01X11446Y15344D01*
G01X11445Y15359D01*
G01X11442Y15373D01*
G01X11437Y15387D01*
G01X11430Y15399D01*
G01X11421Y15411D01*
G01X11410Y15421D01*
G01X11398Y15430D01*
G01X11386Y15437D01*
G01X11372Y15442D01*
G01X11357Y15445D01*
G01X11323Y15450D01*
G01X11288Y15458D01*
G01X11255Y15468D01*
G01X11222Y15480D01*
G01X11189Y15494D01*
G01X11158Y15510D01*
G01X11128Y15528D01*
G01X11099Y15548D01*
G01X11071Y15570D01*
G01X11045Y15593D01*
G01X11020Y15618D01*
G01X10996Y15644D01*
G01X10975Y15672D01*
G01X10955Y15701D01*
G01X10937Y15732D01*
G01X10921Y15763D01*
G01X10907Y15795D01*
G01X10896Y15828D01*
G01X10886Y15862D01*
G01X10878Y15897D01*
G01X10873Y15931D01*
G01X10869Y15966D01*
G01X10868Y16001D01*
G01X10869Y16037D01*
G01X10873Y16072D01*
G01X10878Y16108D01*
G01X10886Y16142D01*
G01X10896Y16176D01*
G01X10908Y16210D01*
G01X10923Y16243D01*
G01X10939Y16274D01*
G01X10957Y16305D01*
G01X10977Y16334D01*
G01X10999Y16362D01*
G01X11009Y16377D01*
G01X11017Y16393D01*
G01X11021Y16410D01*
G01X11023Y16427D01*
G01X11023Y19269D01*
G01X11022Y19285D01*
G01X11018Y19301D01*
G01X11012Y19316D01*
G01X11003Y19330D01*
G01X10992Y19342D01*
G01X10980Y19352D01*
G01X10951Y19374D01*
G01X10924Y19397D01*
G01X10898Y19422D01*
G01X10874Y19449D01*
G01X10852Y19477D01*
G01X10831Y19506D01*
G01X10813Y19537D01*
G01X10796Y19569D01*
G01X10782Y19602D01*
G01X10770Y19635D01*
G01X10759Y19670D01*
G01X10751Y19705D01*
G01X10746Y19740D01*
G01X10742Y19776D01*
G01X10741Y19811D01*
G01X10742Y19845D01*
G01X10745Y19879D01*
G01X10750Y19913D01*
G01X10757Y19946D01*
G01X10767Y19979D01*
G01X10778Y20011D01*
G01X10791Y20042D01*
G01X10805Y20072D01*
G01X10822Y20102D01*
G01X10841Y20130D01*
G01X10861Y20158D01*
G01X10882Y20184D01*
G01X10930Y20232D01*
G01X10956Y20253D01*
G01X10984Y20273D01*
G01X11012Y20292D01*
G01X11042Y20309D01*
G01X11072Y20323D01*
G01X11103Y20336D01*
G01X11135Y20347D01*
G01X11168Y20357D01*
G01X11201Y20364D01*
G01X11235Y20369D01*
G01X11269Y20372D01*
G01X11303Y20373D01*
G01X11336Y20372D01*
G01X11370Y20369D01*
G01X11404Y20364D01*
G01X11437Y20357D01*
G01X11470Y20347D01*
G01X11502Y20336D01*
G01X11533Y20323D01*
G01X11563Y20309D01*
G01X11593Y20292D01*
G01X11621Y20273D01*
G01X11649Y20253D01*
G01X11675Y20232D01*
G01X11723Y20184D01*
G01X11744Y20158D01*
G01X11764Y20130D01*
G01X11783Y20102D01*
G01X11800Y20072D01*
G01X11814Y20042D01*
G01X11827Y20011D01*
G01X11838Y19979D01*
G01X11848Y19946D01*
G01X11855Y19913D01*
G01X11860Y19879D01*
G01X11863Y19845D01*
G01X11864Y19812D01*
G01X11862Y19771D01*
G01X11858Y19730D01*
G01X11851Y19690D01*
G01X11840Y19651D01*
G01X11837Y19636D01*
G01X11836Y19622D01*
G01X11836Y16427D01*
G01X11838Y16410D01*
G01X11842Y16393D01*
G01X11850Y16377D01*
G01X11860Y16362D01*
G01X11882Y16333D01*
G01X11903Y16303D01*
G01X11922Y16271D01*
G01X11938Y16239D01*
G01X11953Y16205D01*
G01X11965Y16170D01*
G01X11975Y16135D01*
G01X11982Y16099D01*
G01X11987Y16063D01*
G01X11990Y16026D01*
G01X11992Y16011D01*
G01X11996Y15996D01*
G01X12003Y15982D01*
G01X12011Y15969D01*
G01X12022Y15957D01*
G01X12034Y15948D01*
G01X12047Y15940D01*
G01X12061Y15934D01*
G01X12076Y15930D01*
G01X12092Y15929D01*
G01X12112Y15931D01*
G01X12131Y15937D01*
G01X12161Y15949D01*
G01X12192Y15958D01*
G01X12223Y15965D01*
G01X12255Y15971D01*
G01X12286Y15974D01*
G01X12319Y15975D01*
G01X17919Y15975D01*
G01X17935Y15976D01*
G01X17950Y15980D01*
G01X17965Y15986D01*
G01X17979Y15994D01*
G01X17991Y16005D01*
G01X18232Y16246D01*
G01X18243Y16259D01*
G01X18251Y16273D01*
G01X18258Y16289D01*
G01X18268Y16321D01*
G01X18281Y16352D01*
G01X18295Y16383D01*
G01X18311Y16413D01*
G01X18329Y16441D01*
G01X18349Y16469D01*
G01X18370Y16495D01*
G01X18379Y16507D01*
G01X18386Y16519D01*
G01X18391Y16533D01*
G01X18394Y16547D01*
G01X18395Y16561D01*
G01X18394Y16576D01*
G01X18391Y16590D01*
G01X18386Y16604D01*
G01X18379Y16616D01*
G01X18370Y16628D01*
G01X18360Y16638D01*
G01X18348Y16647D01*
G01X18336Y16654D01*
G01X18322Y16659D01*
G01X18308Y16662D01*
G01X18293Y16663D01*
G01X17526Y16663D01*
G01X17494Y16664D01*
G01X17463Y16667D01*
G01X17432Y16672D01*
G01X17401Y16679D01*
G01X17371Y16689D01*
G01X17341Y16700D01*
G01X17313Y16713D01*
G01X17285Y16727D01*
G01X17258Y16744D01*
G01X17232Y16762D01*
G01X17208Y16782D01*
G01X17185Y16804D01*
G01X15144Y18845D01*
G01X15132Y18855D01*
G01X15118Y18864D01*
G01X15103Y18870D01*
G01X15088Y18874D01*
G01X15072Y18875D01*
G01X15059Y18874D01*
G01X15022Y18870D01*
G01X14986Y18869D01*
G01X14952Y18870D01*
G01X14918Y18873D01*
G01X14884Y18878D01*
G01X14851Y18885D01*
G01X14818Y18895D01*
G01X14786Y18906D01*
G01X14755Y18919D01*
G01X14725Y18933D01*
G01X14695Y18950D01*
G01X14667Y18969D01*
G01X14639Y18989D01*
G01X14613Y19010D01*
G01X14565Y19058D01*
G01X14544Y19084D01*
G01X14524Y19112D01*
G01X14505Y19140D01*
G01X14488Y19170D01*
G01X14474Y19200D01*
G01X14461Y19231D01*
G01X14450Y19263D01*
G01X14440Y19296D01*
G01X14433Y19329D01*
G01X14428Y19363D01*
G01X14425Y19397D01*
G01X14424Y19431D01*
G01X14425Y19464D01*
G01X14428Y19498D01*
G01X14433Y19532D01*
G01X14440Y19565D01*
G01X14450Y19598D01*
G01X14461Y19630D01*
G01X14474Y19661D01*
G01X14488Y19691D01*
G01X14505Y19721D01*
G01X14524Y19749D01*
G01X14544Y19777D01*
G01X14565Y19803D01*
G01X14613Y19851D01*
G01X14639Y19872D01*
G01X14667Y19892D01*
G01X14695Y19911D01*
G01X14725Y19928D01*
G01X14755Y19942D01*
G01X14786Y19955D01*
G01X14818Y19966D01*
G01X14851Y19976D01*
G01X14884Y19983D01*
G01X14918Y19988D01*
G01X14952Y19991D01*
G01X14986Y19992D01*
G01X15020Y19991D01*
G01X15055Y19988D01*
G01X15089Y19982D01*
G01X15123Y19975D01*
G01X15148Y19972D01*
G01X15163Y19973D01*
G01X15177Y19976D01*
G01X15190Y19981D01*
G01X15203Y19988D01*
G01X15215Y19996D01*
G01X15225Y20007D01*
G01X15234Y20018D01*
G01X15241Y20031D01*
G01X15246Y20045D01*
G01X15249Y20059D01*
G01X15250Y20073D01*
G01X15249Y20089D01*
G01X15245Y20105D01*
G01X15239Y20119D01*
G01X15230Y20133D01*
G01X15220Y20145D01*
G01X15105Y20260D01*
G01X15093Y20270D01*
G01X15079Y20279D01*
G01X15065Y20285D01*
G01X15049Y20288D01*
G01X15033Y20290D01*
G01X15007Y20286D01*
G01X14970Y20277D01*
G01X14933Y20271D01*
G01X14896Y20267D01*
G01X14859Y20266D01*
G01X14825Y20267D01*
G01X14791Y20270D01*
G01X14757Y20275D01*
G01X14724Y20282D01*
G01X14691Y20292D01*
G01X14659Y20303D01*
G01X14628Y20316D01*
G01X14598Y20330D01*
G01X14568Y20347D01*
G01X14540Y20366D01*
G01X14512Y20386D01*
G01X14486Y20407D01*
G01X14438Y20455D01*
G01X14417Y20481D01*
G01X14397Y20509D01*
G01X14378Y20537D01*
G01X14361Y20567D01*
G01X14347Y20597D01*
G01X14334Y20628D01*
G01X14323Y20660D01*
G01X14313Y20693D01*
G01X14306Y20726D01*
G01X14301Y20760D01*
G01X14298Y20794D01*
G01X14297Y20828D01*
G01X14298Y20866D01*
G01X14302Y20904D01*
G01X14309Y20942D01*
G01X14318Y20979D01*
G01X14322Y21006D01*
G01X14321Y21021D01*
G01X14318Y21035D01*
G01X14313Y21049D01*
G01X14306Y21061D01*
G01X14297Y21073D01*
G01X14287Y21083D01*
G01X14275Y21092D01*
G01X14262Y21099D01*
G01X14249Y21104D01*
G01X14235Y21107D01*
G01X14220Y21108D01*
G37*

%LPD*%
G36*
G01X9158Y11594D02*
G01X9143Y11595D01*
G01X9127Y11594D01*
G01X9112Y11590D01*
G01X9097Y11584D01*
G01X9084Y11576D01*
G01X9072Y11566D01*
G01X2797Y5291D01*
G01X2786Y5279D01*
G01X2778Y5265D01*
G01X2772Y5250D01*
G01X2768Y5235D01*
G01X2767Y5219D01*
G01X2767Y1585D01*
G01X2768Y1568D01*
G01X2773Y1552D01*
G01X2779Y1536D01*
G01X2796Y1502D01*
G01X2811Y1467D01*
G01X2823Y1431D01*
G01X2833Y1394D01*
G01X2840Y1357D01*
G01X2843Y1343D01*
G01X2848Y1330D01*
G01X2855Y1317D01*
G01X2864Y1306D01*
G01X2874Y1296D01*
G01X2886Y1287D01*
G01X2898Y1280D01*
G01X2912Y1275D01*
G01X2926Y1272D01*
G01X2940Y1271D01*
G01X2956Y1273D01*
G01X2972Y1276D01*
G01X2986Y1282D01*
G01X3000Y1291D01*
G01X3012Y1301D01*
G01X9325Y7614D01*
G01X9335Y7626D01*
G01X9343Y7639D01*
G01X9349Y7654D01*
G01X9353Y7670D01*
G01X9354Y7685D01*
G01X9353Y7702D01*
G01X9349Y7719D01*
G01X9342Y7734D01*
G01X9333Y7748D01*
G01X9315Y7773D01*
G01X9299Y7798D01*
G01X9285Y7825D01*
G01X9273Y7853D01*
G01X9263Y7881D01*
G01X9255Y7911D01*
G01X9249Y7940D01*
G01X9246Y7970D01*
G01X9245Y8001D01*
G01X9245Y11494D01*
G01X9244Y11508D01*
G01X9241Y11522D01*
G01X9236Y11536D01*
G01X9229Y11549D01*
G01X9220Y11560D01*
G01X9210Y11570D01*
G01X9198Y11579D01*
G01X9186Y11586D01*
G01X9172Y11591D01*
G01X9158Y11594D01*
G37*

%LPD*%
G36*
G01X31502Y8483D02*
G01X29801Y8483D01*
G01X29785Y8482D01*
G01X29770Y8478D01*
G01X29755Y8472D01*
G01X29741Y8464D01*
G01X29729Y8453D01*
G01X28862Y7586D01*
G01X28841Y7566D01*
G01X28818Y7548D01*
G01X28794Y7531D01*
G01X28769Y7517D01*
G01X28743Y7504D01*
G01X28717Y7493D01*
G01X28689Y7483D01*
G01X28661Y7476D01*
G01X28632Y7471D01*
G01X28604Y7468D01*
G01X28575Y7467D01*
G01X18415Y7467D01*
G01X18400Y7466D01*
G01X18386Y7463D01*
G01X18372Y7458D01*
G01X18360Y7451D01*
G01X18348Y7442D01*
G01X18338Y7432D01*
G01X18329Y7420D01*
G01X18322Y7408D01*
G01X18317Y7394D01*
G01X18314Y7380D01*
G01X18313Y7365D01*
G01X18313Y7000D01*
G01X18314Y6986D01*
G01X18317Y6972D01*
G01X18322Y6958D01*
G01X18329Y6945D01*
G01X18338Y6934D01*
G01X18348Y6923D01*
G01X18360Y6915D01*
G01X18372Y6908D01*
G01X18386Y6903D01*
G01X18400Y6900D01*
G01X18415Y6899D01*
G01X18434Y6900D01*
G01X18470Y6906D01*
G01X18505Y6910D01*
G01X18541Y6911D01*
G01X18577Y6910D01*
G01X18612Y6906D01*
G01X18647Y6901D01*
G01X18682Y6893D01*
G01X18715Y6883D01*
G01X18749Y6871D01*
G01X18781Y6857D01*
G01X18813Y6841D01*
G01X18843Y6823D01*
G01X18872Y6803D01*
G01X18900Y6781D01*
G01X18927Y6758D01*
G01X18938Y6748D01*
G01X18951Y6741D01*
G01X18964Y6735D01*
G01X18994Y6724D01*
G01X19022Y6711D01*
G01X19050Y6695D01*
G01X19076Y6678D01*
G01X19101Y6658D01*
G01X19124Y6637D01*
G01X19643Y6117D01*
G01X19656Y6107D01*
G01X19669Y6098D01*
G01X19684Y6092D01*
G01X19699Y6089D01*
G01X19715Y6087D01*
G01X20330Y6087D01*
G01X20353Y6086D01*
G01X20377Y6083D01*
G01X20400Y6078D01*
G01X20422Y6070D01*
G01X20444Y6060D01*
G01X20465Y6049D01*
G01X20484Y6036D01*
G01X20503Y6020D01*
G01X20519Y6004D01*
G01X20535Y5985D01*
G01X20548Y5966D01*
G01X20559Y5945D01*
G01X20569Y5924D01*
G01X20577Y5901D01*
G01X20582Y5878D01*
G01X20585Y5855D01*
G01X20586Y5831D01*
G01X20586Y5131D01*
G01X20585Y5107D01*
G01X20582Y5084D01*
G01X20577Y5061D01*
G01X20569Y5038D01*
G01X20559Y5016D01*
G01X20548Y4996D01*
G01X20535Y4976D01*
G01X20519Y4958D01*
G01X20503Y4941D01*
G01X20484Y4926D01*
G01X20465Y4913D01*
G01X20444Y4901D01*
G01X20422Y4892D01*
G01X20400Y4884D01*
G01X20377Y4879D01*
G01X20353Y4875D01*
G01X20330Y4874D01*
G01X19080Y4874D01*
G01X19056Y4875D01*
G01X19033Y4879D01*
G01X19010Y4884D01*
G01X18987Y4892D01*
G01X18965Y4901D01*
G01X18945Y4913D01*
G01X18925Y4926D01*
G01X18907Y4941D01*
G01X18890Y4958D01*
G01X18875Y4976D01*
G01X18862Y4996D01*
G01X18850Y5016D01*
G01X18841Y5038D01*
G01X18833Y5061D01*
G01X18828Y5084D01*
G01X18824Y5107D01*
G01X18823Y5131D01*
G01X18823Y5712D01*
G01X18822Y5726D01*
G01X18819Y5740D01*
G01X18814Y5754D01*
G01X18807Y5766D01*
G01X18798Y5778D01*
G01X18788Y5788D01*
G01X18777Y5797D01*
G01X18764Y5804D01*
G01X18750Y5809D01*
G01X18736Y5812D01*
G01X18722Y5813D01*
G01X18694Y5809D01*
G01X18657Y5800D01*
G01X18619Y5793D01*
G01X18580Y5789D01*
G01X18542Y5788D01*
G01X18505Y5789D01*
G01X18470Y5793D01*
G01X18434Y5799D01*
G01X18415Y5800D01*
G01X18400Y5799D01*
G01X18386Y5796D01*
G01X18372Y5791D01*
G01X18360Y5784D01*
G01X18348Y5776D01*
G01X18338Y5765D01*
G01X18329Y5754D01*
G01X18322Y5741D01*
G01X18317Y5727D01*
G01X18314Y5713D01*
G01X18313Y5699D01*
G01X18313Y4572D01*
G01X18312Y4542D01*
G01X18309Y4514D01*
G01X18304Y4485D01*
G01X18297Y4457D01*
G01X18287Y4429D01*
G01X18276Y4403D01*
G01X18263Y4377D01*
G01X18249Y4352D01*
G01X18232Y4328D01*
G01X18214Y4305D01*
G01X18194Y4284D01*
G01X18172Y4262D01*
G01X18162Y4250D01*
G01X18154Y4237D01*
G01X18148Y4222D01*
G01X18144Y4207D01*
G01X18143Y4191D01*
G01X18144Y4176D01*
G01X18147Y4162D01*
G01X18152Y4148D01*
G01X18159Y4136D01*
G01X18167Y4124D01*
G01X18178Y4114D01*
G01X18189Y4105D01*
G01X18202Y4098D01*
G01X18216Y4093D01*
G01X18230Y4090D01*
G01X18244Y4089D01*
G01X21221Y4089D01*
G01X21236Y4090D01*
G01X21250Y4093D01*
G01X21263Y4098D01*
G01X21276Y4105D01*
G01X21288Y4114D01*
G01X21298Y4124D01*
G01X21307Y4136D01*
G01X21313Y4148D01*
G01X21319Y4162D01*
G01X21322Y4176D01*
G01X21323Y4191D01*
G01X21323Y4881D01*
G01X21324Y4905D01*
G01X21327Y4928D01*
G01X21332Y4951D01*
G01X21340Y4974D01*
G01X21350Y4995D01*
G01X21361Y5016D01*
G01X21374Y5035D01*
G01X21390Y5054D01*
G01X21406Y5070D01*
G01X21425Y5086D01*
G01X21444Y5099D01*
G01X21465Y5111D01*
G01X21487Y5120D01*
G01X21509Y5128D01*
G01X21532Y5133D01*
G01X21556Y5136D01*
G01X21579Y5137D01*
G01X22829Y5137D01*
G01X22855Y5136D01*
G01X22880Y5132D01*
G01X22905Y5126D01*
G01X22929Y5117D01*
G01X22952Y5106D01*
G01X22974Y5093D01*
G01X22995Y5077D01*
G01X23009Y5067D01*
G01X23025Y5059D01*
G01X23042Y5055D01*
G01X23060Y5053D01*
G01X24697Y5053D01*
G01X24712Y5054D01*
G01X24726Y5057D01*
G01X24739Y5062D01*
G01X24752Y5069D01*
G01X24764Y5078D01*
G01X24774Y5088D01*
G01X24783Y5099D01*
G01X24790Y5112D01*
G01X24795Y5125D01*
G01X24798Y5139D01*
G01X24799Y5154D01*
G01X24800Y5177D01*
G01X24804Y5201D01*
G01X24809Y5223D01*
G01X24817Y5246D01*
G01X24827Y5267D01*
G01X24838Y5288D01*
G01X24852Y5307D01*
G01X24867Y5325D01*
G01X24883Y5342D01*
G01X24902Y5357D01*
G01X24921Y5370D01*
G01X24942Y5381D01*
G01X24963Y5391D01*
G01X24986Y5398D01*
G01X25009Y5404D01*
G01X25032Y5407D01*
G01X25056Y5408D01*
G01X26505Y5408D01*
G01X26529Y5407D01*
G01X26553Y5404D01*
G01X26576Y5398D01*
G01X26598Y5391D01*
G01X26620Y5381D01*
G01X26641Y5370D01*
G01X26660Y5356D01*
G01X26678Y5341D01*
G01X26695Y5324D01*
G01X26710Y5306D01*
G01X26724Y5287D01*
G01X26735Y5266D01*
G01X26745Y5244D01*
G01X26752Y5222D01*
G01X26758Y5199D01*
G01X26761Y5175D01*
G01X26762Y5152D01*
G01X26762Y3991D01*
G01X26759Y3952D01*
G01X26758Y3937D01*
G01X26759Y3922D01*
G01X26762Y3908D01*
G01X26767Y3894D01*
G01X26774Y3882D01*
G01X26783Y3870D01*
G01X26793Y3860D01*
G01X26804Y3851D01*
G01X26817Y3844D01*
G01X26831Y3839D01*
G01X26845Y3836D01*
G01X26859Y3835D01*
G01X27369Y3835D01*
G01X27383Y3836D01*
G01X27397Y3839D01*
G01X27411Y3844D01*
G01X27424Y3851D01*
G01X27435Y3860D01*
G01X27445Y3870D01*
G01X27454Y3882D01*
G01X27461Y3894D01*
G01X27466Y3908D01*
G01X27469Y3922D01*
G01X27470Y3937D01*
G01X27469Y3952D01*
G01X27466Y3991D01*
G01X27466Y4830D01*
G01X27465Y4846D01*
G01X27461Y4861D01*
G01X27455Y4876D01*
G01X27447Y4890D01*
G01X27436Y4902D01*
G01X26419Y5919D01*
G01X26406Y5930D01*
G01X26393Y5938D01*
G01X26378Y5944D01*
G01X26363Y5948D01*
G01X26347Y5949D01*
G01X23101Y5949D01*
G01X23086Y5948D01*
G01X23072Y5945D01*
G01X23059Y5940D01*
G01X23046Y5933D01*
G01X23034Y5924D01*
G01X23024Y5914D01*
G01X23007Y5896D01*
G01X22989Y5880D01*
G01X22969Y5865D01*
G01X22947Y5853D01*
G01X22925Y5843D01*
G01X22902Y5835D01*
G01X22878Y5829D01*
G01X22854Y5825D01*
G01X22829Y5824D01*
G01X21579Y5824D01*
G01X21556Y5825D01*
G01X21532Y5829D01*
G01X21509Y5834D01*
G01X21487Y5842D01*
G01X21465Y5851D01*
G01X21444Y5863D01*
G01X21425Y5876D01*
G01X21406Y5891D01*
G01X21390Y5908D01*
G01X21374Y5926D01*
G01X21361Y5946D01*
G01X21350Y5966D01*
G01X21340Y5988D01*
G01X21332Y6011D01*
G01X21327Y6034D01*
G01X21324Y6057D01*
G01X21323Y6081D01*
G01X21323Y6781D01*
G01X21324Y6804D01*
G01X21327Y6828D01*
G01X21332Y6851D01*
G01X21340Y6873D01*
G01X21350Y6895D01*
G01X21361Y6916D01*
G01X21374Y6935D01*
G01X21390Y6954D01*
G01X21406Y6970D01*
G01X21425Y6986D01*
G01X21444Y6999D01*
G01X21465Y7010D01*
G01X21487Y7020D01*
G01X21509Y7028D01*
G01X21532Y7033D01*
G01X21556Y7036D01*
G01X21579Y7037D01*
G01X22829Y7037D01*
G01X22854Y7036D01*
G01X22878Y7033D01*
G01X22902Y7027D01*
G01X22925Y7019D01*
G01X22947Y7008D01*
G01X22969Y6996D01*
G01X22989Y6982D01*
G01X23007Y6966D01*
G01X23024Y6948D01*
G01X23034Y6937D01*
G01X23046Y6929D01*
G01X23059Y6922D01*
G01X23072Y6916D01*
G01X23086Y6913D01*
G01X23101Y6912D01*
G01X26588Y6912D01*
G01X26620Y6911D01*
G01X26651Y6908D01*
G01X26682Y6903D01*
G01X26713Y6896D01*
G01X26743Y6887D01*
G01X26772Y6876D01*
G01X26801Y6863D01*
G01X26829Y6848D01*
G01X26856Y6831D01*
G01X26881Y6813D01*
G01X26906Y6793D01*
G01X26929Y6771D01*
G01X28262Y5438D01*
G01X28274Y5427D01*
G01X28288Y5419D01*
G01X28303Y5413D01*
G01X28318Y5409D01*
G01X28334Y5408D01*
G01X29172Y5408D01*
G01X29196Y5407D01*
G01X29220Y5404D01*
G01X29243Y5398D01*
G01X29265Y5391D01*
G01X29287Y5381D01*
G01X29308Y5370D01*
G01X29327Y5356D01*
G01X29345Y5341D01*
G01X29362Y5324D01*
G01X29377Y5306D01*
G01X29391Y5287D01*
G01X29402Y5266D01*
G01X29412Y5244D01*
G01X29419Y5222D01*
G01X29425Y5199D01*
G01X29428Y5175D01*
G01X29429Y5152D01*
G01X29429Y3991D01*
G01X29426Y3952D01*
G01X29425Y3937D01*
G01X29426Y3922D01*
G01X29429Y3908D01*
G01X29434Y3894D01*
G01X29441Y3882D01*
G01X29450Y3870D01*
G01X29460Y3860D01*
G01X29471Y3851D01*
G01X29484Y3844D01*
G01X29498Y3839D01*
G01X29512Y3836D01*
G01X29526Y3835D01*
G01X32385Y3835D01*
G01X32414Y3834D01*
G01X32447Y3830D01*
G01X32480Y3824D01*
G01X32512Y3814D01*
G01X32544Y3802D01*
G01X32574Y3788D01*
G01X32589Y3782D01*
G01X32605Y3778D01*
G01X32622Y3776D01*
G01X33015Y3776D01*
G01X33015Y3415D01*
G01X33016Y3400D01*
G01X33020Y3384D01*
G01X33026Y3369D01*
G01X33034Y3356D01*
G01X33044Y3344D01*
G01X33829Y2559D01*
G01X33841Y2549D01*
G01X33855Y2540D01*
G01X33869Y2534D01*
G01X33885Y2530D01*
G01X33901Y2529D01*
G01X33915Y2530D01*
G01X33929Y2533D01*
G01X33943Y2538D01*
G01X33956Y2545D01*
G01X33967Y2554D01*
G01X33978Y2564D01*
G01X33986Y2576D01*
G01X33993Y2589D01*
G01X33998Y2602D01*
G01X34001Y2616D01*
G01X34002Y2631D01*
G01X33999Y2656D01*
G01X33992Y2690D01*
G01X33986Y2724D01*
G01X33983Y2759D01*
G01X33982Y2794D01*
G01X33983Y2828D01*
G01X33986Y2862D01*
G01X33992Y2896D01*
G01X33999Y2929D01*
G01X34008Y2962D01*
G01X34019Y2994D01*
G01X34033Y3026D01*
G01X34048Y3057D01*
G01X34065Y3086D01*
G01X34083Y3115D01*
G01X34104Y3143D01*
G01X34126Y3169D01*
G01X34150Y3193D01*
G01X34175Y3217D01*
G01X34201Y3238D01*
G01X34229Y3258D01*
G01X34258Y3277D01*
G01X34288Y3293D01*
G01X34319Y3308D01*
G01X34351Y3321D01*
G01X34383Y3331D01*
G01X34399Y3338D01*
G01X34413Y3346D01*
G01X34426Y3357D01*
G01X34921Y3852D01*
G01X34932Y3864D01*
G01X34940Y3878D01*
G01X34946Y3893D01*
G01X34950Y3908D01*
G01X34951Y3924D01*
G01X34951Y6549D01*
G01X34950Y6564D01*
G01X34946Y6579D01*
G01X34941Y6593D01*
G01X34933Y6606D01*
G01X34924Y6618D01*
G01X34912Y6628D01*
G01X34900Y6637D01*
G01X34886Y6643D01*
G01X34864Y6653D01*
G01X34843Y6664D01*
G01X34824Y6678D01*
G01X34805Y6693D01*
G01X34789Y6710D01*
G01X34773Y6728D01*
G01X34760Y6748D01*
G01X34748Y6768D01*
G01X34739Y6790D01*
G01X34731Y6813D01*
G01X34726Y6836D01*
G01X34722Y6859D01*
G01X34721Y6883D01*
G01X34721Y8102D01*
G01X34722Y8125D01*
G01X34725Y8148D01*
G01X34730Y8170D01*
G01X34738Y8192D01*
G01X34747Y8213D01*
G01X34757Y8233D01*
G01X34770Y8252D01*
G01X34784Y8270D01*
G01X34800Y8287D01*
G01X34817Y8302D01*
G01X34828Y8312D01*
G01X34838Y8324D01*
G01X34845Y8337D01*
G01X34851Y8352D01*
G01X34854Y8366D01*
G01X34855Y8381D01*
G01X34854Y8396D01*
G01X34851Y8410D01*
G01X34846Y8424D01*
G01X34839Y8436D01*
G01X34830Y8448D01*
G01X34820Y8458D01*
G01X34809Y8467D01*
G01X34796Y8474D01*
G01X34782Y8479D01*
G01X34768Y8482D01*
G01X34754Y8483D01*
G01X32860Y8483D01*
G01X32846Y8482D01*
G01X32832Y8479D01*
G01X32818Y8474D01*
G01X32805Y8467D01*
G01X32794Y8458D01*
G01X32783Y8448D01*
G01X32775Y8436D01*
G01X32768Y8424D01*
G01X32763Y8410D01*
G01X32760Y8396D01*
G01X32759Y8381D01*
G01X32760Y8366D01*
G01X32763Y8352D01*
G01X32769Y8337D01*
G01X32776Y8324D01*
G01X32786Y8312D01*
G01X32797Y8302D01*
G01X32814Y8287D01*
G01X32830Y8270D01*
G01X32844Y8252D01*
G01X32856Y8233D01*
G01X32867Y8213D01*
G01X32876Y8192D01*
G01X32883Y8170D01*
G01X32888Y8148D01*
G01X32891Y8125D01*
G01X32893Y8102D01*
G01X32893Y6883D01*
G01X32891Y6859D01*
G01X32888Y6836D01*
G01X32883Y6813D01*
G01X32875Y6790D01*
G01X32866Y6769D01*
G01X32854Y6748D01*
G01X32841Y6728D01*
G01X32826Y6710D01*
G01X32809Y6693D01*
G01X32791Y6678D01*
G01X32771Y6665D01*
G01X32750Y6653D01*
G01X32729Y6644D01*
G01X32706Y6636D01*
G01X32683Y6631D01*
G01X32660Y6627D01*
G01X32636Y6626D01*
G01X32114Y6626D01*
G01X32099Y6625D01*
G01X32083Y6621D01*
G01X32068Y6615D01*
G01X32055Y6607D01*
G01X32043Y6597D01*
G01X31424Y5978D01*
G01X31413Y5965D01*
G01X31405Y5951D01*
G01X31398Y5935D01*
G01X31388Y5903D01*
G01X31375Y5871D01*
G01X31360Y5840D01*
G01X31344Y5810D01*
G01X31325Y5781D01*
G01X31305Y5753D01*
G01X31284Y5727D01*
G01X31260Y5702D01*
G01X31236Y5678D01*
G01X31210Y5656D01*
G01X31182Y5635D01*
G01X31153Y5617D01*
G01X31124Y5600D01*
G01X31093Y5585D01*
G01X31061Y5571D01*
G01X31029Y5560D01*
G01X30996Y5551D01*
G01X30963Y5544D01*
G01X30929Y5538D01*
G01X30895Y5535D01*
G01X30861Y5534D01*
G01X30827Y5535D01*
G01X30793Y5538D01*
G01X30759Y5543D01*
G01X30726Y5550D01*
G01X30693Y5560D01*
G01X30661Y5571D01*
G01X30630Y5584D01*
G01X30600Y5598D01*
G01X30570Y5615D01*
G01X30542Y5634D01*
G01X30514Y5654D01*
G01X30488Y5675D01*
G01X30440Y5723D01*
G01X30419Y5749D01*
G01X30399Y5777D01*
G01X30380Y5805D01*
G01X30363Y5835D01*
G01X30349Y5865D01*
G01X30336Y5896D01*
G01X30325Y5928D01*
G01X30315Y5961D01*
G01X30308Y5994D01*
G01X30303Y6028D01*
G01X30300Y6062D01*
G01X30299Y6096D01*
G01X30300Y6130D01*
G01X30303Y6164D01*
G01X30309Y6198D01*
G01X30316Y6231D01*
G01X30325Y6264D01*
G01X30336Y6296D01*
G01X30350Y6328D01*
G01X30365Y6359D01*
G01X30382Y6388D01*
G01X30400Y6417D01*
G01X30421Y6445D01*
G01X30443Y6471D01*
G01X30467Y6495D01*
G01X30492Y6519D01*
G01X30518Y6540D01*
G01X30546Y6560D01*
G01X30575Y6579D01*
G01X30605Y6595D01*
G01X30636Y6610D01*
G01X30668Y6623D01*
G01X30700Y6633D01*
G01X30716Y6640D01*
G01X30730Y6648D01*
G01X30743Y6659D01*
G01X31440Y7356D01*
G01X31451Y7368D01*
G01X31459Y7382D01*
G01X31465Y7397D01*
G01X31469Y7412D01*
G01X31470Y7428D01*
G01X31470Y8102D01*
G01X31471Y8125D01*
G01X31474Y8148D01*
G01X31479Y8170D01*
G01X31486Y8192D01*
G01X31495Y8213D01*
G01X31506Y8233D01*
G01X31519Y8252D01*
G01X31533Y8270D01*
G01X31549Y8287D01*
G01X31566Y8302D01*
G01X31577Y8312D01*
G01X31586Y8324D01*
G01X31594Y8337D01*
G01X31600Y8352D01*
G01X31603Y8366D01*
G01X31604Y8381D01*
G01X31603Y8396D01*
G01X31600Y8410D01*
G01X31595Y8424D01*
G01X31588Y8436D01*
G01X31579Y8448D01*
G01X31569Y8458D01*
G01X31557Y8467D01*
G01X31545Y8474D01*
G01X31531Y8479D01*
G01X31517Y8482D01*
G01X31502Y8483D01*
G37*

%LPC*%
G36*
G01X34222Y3776D02*
G01X33792Y3776D01*
G01X33792Y3346D01*
G01X33831Y3366D01*
G01X33870Y3388D01*
G01X33907Y3411D01*
G01X33943Y3437D01*
G01X33978Y3464D01*
G01X34012Y3493D01*
G01X34044Y3524D01*
G01X34075Y3556D01*
G01X34104Y3590D01*
G01X34131Y3624D01*
G01X34156Y3661D01*
G01X34180Y3698D01*
G01X34202Y3737D01*
G01X34222Y3776D01*
G37*
G36*
G01X33831Y4964D02*
G01X33792Y4984D01*
G01X33792Y4553D01*
G01X34222Y4553D01*
G01X34202Y4593D01*
G01X34180Y4632D01*
G01X34156Y4669D01*
G01X34131Y4705D01*
G01X34104Y4740D01*
G01X34075Y4774D01*
G01X34044Y4806D01*
G01X34012Y4836D01*
G01X33978Y4865D01*
G01X33943Y4893D01*
G01X33907Y4918D01*
G01X33870Y4942D01*
G01X33831Y4964D01*
G37*
G36*
G01X33015Y4553D02*
G01X33015Y4984D01*
G01X32975Y4964D01*
G01X32936Y4942D01*
G01X32899Y4918D01*
G01X32863Y4893D01*
G01X32828Y4865D01*
G01X32794Y4836D01*
G01X32762Y4806D01*
G01X32731Y4774D01*
G01X32702Y4740D01*
G01X32675Y4705D01*
G01X32650Y4669D01*
G01X32626Y4632D01*
G01X32604Y4593D01*
G01X32584Y4553D01*
G01X33015Y4553D01*
G37*

%LPD*%
G36*
G01X15380Y4697D02*
G01X15258Y4697D01*
G01X15243Y4696D01*
G01X15229Y4693D01*
G01X15215Y4688D01*
G01X15203Y4681D01*
G01X15191Y4673D01*
G01X15181Y4662D01*
G01X15172Y4651D01*
G01X15165Y4638D01*
G01X15160Y4624D01*
G01X15157Y4610D01*
G01X15156Y4596D01*
G01X15156Y4532D01*
G01X15157Y4518D01*
G01X15160Y4503D01*
G01X15165Y4490D01*
G01X15172Y4477D01*
G01X15181Y4465D01*
G01X15191Y4455D01*
G01X15203Y4447D01*
G01X15215Y4440D01*
G01X15229Y4434D01*
G01X15243Y4431D01*
G01X15258Y4430D01*
G01X15380Y4430D01*
G01X15398Y4432D01*
G01X15415Y4436D01*
G01X15447Y4447D01*
G01X15481Y4454D01*
G01X15515Y4459D01*
G01X15549Y4460D01*
G01X15734Y4460D01*
G01X15754Y4462D01*
G01X15775Y4466D01*
G01X15789Y4469D01*
G01X15802Y4474D01*
G01X15815Y4481D01*
G01X15826Y4490D01*
G01X15837Y4500D01*
G01X15845Y4511D01*
G01X15852Y4524D01*
G01X15857Y4538D01*
G01X15860Y4552D01*
G01X15861Y4566D01*
G01X15860Y4581D01*
G01X15857Y4595D01*
G01X15852Y4608D01*
G01X15845Y4621D01*
G01X15836Y4633D01*
G01X15826Y4643D01*
G01X15815Y4652D01*
G01X15802Y4659D01*
G01X15788Y4664D01*
G01X15774Y4667D01*
G01X15760Y4668D01*
G01X15549Y4668D01*
G01X15515Y4669D01*
G01X15481Y4674D01*
G01X15447Y4681D01*
G01X15415Y4691D01*
G01X15398Y4696D01*
G01X15380Y4697D01*
G37*

%LPD*%
G36*
G01X374Y33461D02*
G01X358Y33462D01*
G01X343Y33461D01*
G01X329Y33458D01*
G01X315Y33453D01*
G01X303Y33446D01*
G01X291Y33437D01*
G01X281Y33427D01*
G01X272Y33416D01*
G01X265Y33403D01*
G01X260Y33389D01*
G01X257Y33375D01*
G01X256Y33361D01*
G01X256Y17072D01*
G01X257Y17057D01*
G01X260Y17043D01*
G01X265Y17030D01*
G01X272Y17017D01*
G01X281Y17005D01*
G01X291Y16995D01*
G01X303Y16986D01*
G01X315Y16979D01*
G01X329Y16974D01*
G01X343Y16971D01*
G01X358Y16970D01*
G01X373Y16971D01*
G01X388Y16975D01*
G01X403Y16981D01*
G01X416Y16989D01*
G01X428Y16999D01*
G01X438Y17010D01*
G01X474Y17051D01*
G01X3475Y20052D01*
G01X3486Y20065D01*
G01X3495Y20081D01*
G01X3501Y20097D01*
G01X3504Y20115D01*
G01X3509Y20150D01*
G01X3515Y20184D01*
G01X3523Y20219D01*
G01X3534Y20252D01*
G01X3547Y20285D01*
G01X3562Y20317D01*
G01X3578Y20348D01*
G01X3597Y20378D01*
G01X3618Y20407D01*
G01X3640Y20434D01*
G01X3664Y20460D01*
G01X3689Y20484D01*
G01X3716Y20507D01*
G01X3745Y20528D01*
G01X3774Y20547D01*
G01X3805Y20564D01*
G01X3837Y20579D01*
G01X3870Y20592D01*
G01X3903Y20603D01*
G01X3919Y20610D01*
G01X3933Y20618D01*
G01X3946Y20629D01*
G01X5247Y21930D01*
G01X5270Y21952D01*
G01X5294Y21972D01*
G01X5320Y21990D01*
G01X5347Y22007D01*
G01X5375Y22021D01*
G01X5403Y22034D01*
G01X5433Y22045D01*
G01X5463Y22055D01*
G01X5494Y22062D01*
G01X5525Y22067D01*
G01X5556Y22070D01*
G01X5588Y22071D01*
G01X32016Y22071D01*
G01X32032Y22072D01*
G01X32047Y22076D01*
G01X32062Y22082D01*
G01X32076Y22090D01*
G01X32088Y22101D01*
G01X35377Y25390D01*
G01X35388Y25403D01*
G01X35396Y25417D01*
G01X35403Y25433D01*
G01X35413Y25465D01*
G01X35426Y25497D01*
G01X35441Y25528D01*
G01X35457Y25558D01*
G01X35476Y25587D01*
G01X35496Y25615D01*
G01X35517Y25641D01*
G01X35541Y25666D01*
G01X35565Y25690D01*
G01X35591Y25712D01*
G01X35619Y25733D01*
G01X35648Y25751D01*
G01X35677Y25768D01*
G01X35708Y25783D01*
G01X35740Y25797D01*
G01X35772Y25808D01*
G01X35805Y25817D01*
G01X35838Y25824D01*
G01X35872Y25830D01*
G01X35906Y25833D01*
G01X35940Y25834D01*
G01X35977Y25833D01*
G01X36013Y25829D01*
G01X36049Y25823D01*
G01X36084Y25815D01*
G01X36119Y25805D01*
G01X36153Y25792D01*
G01X36186Y25777D01*
G01X36218Y25760D01*
G01X36249Y25741D01*
G01X36279Y25720D01*
G01X36307Y25698D01*
G01X36319Y25689D01*
G01X36331Y25682D01*
G01X36345Y25677D01*
G01X36359Y25674D01*
G01X36373Y25673D01*
G01X36388Y25674D01*
G01X36402Y25677D01*
G01X36416Y25682D01*
G01X36428Y25689D01*
G01X36440Y25698D01*
G01X36450Y25708D01*
G01X36459Y25720D01*
G01X36466Y25732D01*
G01X36471Y25746D01*
G01X36474Y25760D01*
G01X36475Y25775D01*
G01X36475Y26721D01*
G01X36474Y26736D01*
G01X36471Y26750D01*
G01X36466Y26764D01*
G01X36459Y26776D01*
G01X36450Y26788D01*
G01X36440Y26798D01*
G01X36428Y26807D01*
G01X36416Y26814D01*
G01X36402Y26819D01*
G01X36388Y26822D01*
G01X36373Y26823D01*
G01X31496Y26823D01*
G01X31464Y26824D01*
G01X31433Y26827D01*
G01X31402Y26832D01*
G01X31371Y26839D01*
G01X31341Y26849D01*
G01X31311Y26860D01*
G01X31283Y26873D01*
G01X31255Y26887D01*
G01X31228Y26904D01*
G01X31202Y26922D01*
G01X31178Y26942D01*
G01X31155Y26964D01*
G01X29675Y28444D01*
G01X29663Y28455D01*
G01X29649Y28463D01*
G01X29634Y28469D01*
G01X29619Y28473D01*
G01X29603Y28474D01*
G01X28689Y28474D01*
G01X28673Y28473D01*
G01X28658Y28469D01*
G01X28643Y28463D01*
G01X28629Y28455D01*
G01X28617Y28444D01*
G01X26608Y26435D01*
G01X26598Y26423D01*
G01X26590Y26410D01*
G01X26584Y26395D01*
G01X26580Y26380D01*
G01X26579Y26364D01*
G01X26580Y26349D01*
G01X26583Y26335D01*
G01X26588Y26321D01*
G01X26595Y26309D01*
G01X26604Y26297D01*
G01X26614Y26287D01*
G01X26625Y26278D01*
G01X26638Y26271D01*
G01X26652Y26266D01*
G01X26666Y26263D01*
G01X26680Y26262D01*
G01X26936Y26262D01*
G01X26952Y26263D01*
G01X26967Y26267D01*
G01X26982Y26273D01*
G01X26996Y26281D01*
G01X27008Y26292D01*
G01X28011Y27295D01*
G01X28022Y27308D01*
G01X28030Y27322D01*
G01X28037Y27338D01*
G01X28047Y27370D01*
G01X28060Y27402D01*
G01X28075Y27433D01*
G01X28091Y27463D01*
G01X28110Y27492D01*
G01X28130Y27520D01*
G01X28151Y27546D01*
G01X28175Y27571D01*
G01X28199Y27595D01*
G01X28225Y27617D01*
G01X28253Y27638D01*
G01X28282Y27656D01*
G01X28311Y27673D01*
G01X28342Y27688D01*
G01X28374Y27702D01*
G01X28406Y27713D01*
G01X28439Y27722D01*
G01X28472Y27729D01*
G01X28506Y27735D01*
G01X28540Y27738D01*
G01X28574Y27739D01*
G01X28608Y27738D01*
G01X28642Y27735D01*
G01X28676Y27730D01*
G01X28709Y27723D01*
G01X28742Y27713D01*
G01X28774Y27702D01*
G01X28805Y27689D01*
G01X28835Y27675D01*
G01X28865Y27658D01*
G01X28893Y27639D01*
G01X28921Y27619D01*
G01X28947Y27598D01*
G01X28995Y27550D01*
G01X29016Y27524D01*
G01X29036Y27496D01*
G01X29055Y27468D01*
G01X29072Y27438D01*
G01X29086Y27408D01*
G01X29099Y27377D01*
G01X29110Y27345D01*
G01X29120Y27312D01*
G01X29127Y27279D01*
G01X29132Y27245D01*
G01X29135Y27211D01*
G01X29136Y27178D01*
G01X29135Y27143D01*
G01X29132Y27109D01*
G01X29126Y27075D01*
G01X29119Y27042D01*
G01X29110Y27009D01*
G01X29099Y26977D01*
G01X29085Y26945D01*
G01X29070Y26914D01*
G01X29053Y26885D01*
G01X29035Y26856D01*
G01X29014Y26828D01*
G01X28992Y26802D01*
G01X28968Y26778D01*
G01X28943Y26754D01*
G01X28917Y26733D01*
G01X28889Y26713D01*
G01X28860Y26694D01*
G01X28830Y26678D01*
G01X28799Y26663D01*
G01X28767Y26650D01*
G01X28735Y26640D01*
G01X28719Y26633D01*
G01X28705Y26625D01*
G01X28692Y26614D01*
G01X27518Y25440D01*
G01X27495Y25418D01*
G01X27471Y25398D01*
G01X27445Y25380D01*
G01X27418Y25363D01*
G01X27390Y25349D01*
G01X27362Y25336D01*
G01X27332Y25325D01*
G01X27302Y25315D01*
G01X27271Y25308D01*
G01X27240Y25303D01*
G01X27209Y25300D01*
G01X27178Y25299D01*
G01X3810Y25299D01*
G01X3778Y25300D01*
G01X3747Y25303D01*
G01X3716Y25308D01*
G01X3685Y25315D01*
G01X3655Y25325D01*
G01X3625Y25336D01*
G01X3597Y25349D01*
G01X3569Y25363D01*
G01X3542Y25380D01*
G01X3516Y25398D01*
G01X3492Y25418D01*
G01X3469Y25440D01*
G01X3215Y25694D01*
G01X3193Y25717D01*
G01X3173Y25741D01*
G01X3155Y25767D01*
G01X3138Y25794D01*
G01X3124Y25822D01*
G01X3111Y25850D01*
G01X3100Y25880D01*
G01X3090Y25910D01*
G01X3083Y25941D01*
G01X3078Y25972D01*
G01X3075Y26003D01*
G01X3074Y26034D01*
G01X3074Y27370D01*
G01X3073Y27387D01*
G01X3068Y27403D01*
G01X3062Y27419D01*
G01X3046Y27450D01*
G01X3033Y27482D01*
G01X3021Y27514D01*
G01X3011Y27548D01*
G01X3004Y27582D01*
G01X2998Y27616D01*
G01X2995Y27651D01*
G01X2994Y27685D01*
G01X2995Y27719D01*
G01X2998Y27753D01*
G01X3003Y27787D01*
G01X3010Y27820D01*
G01X3020Y27853D01*
G01X3031Y27885D01*
G01X3044Y27916D01*
G01X3058Y27946D01*
G01X3075Y27976D01*
G01X3094Y28004D01*
G01X3114Y28032D01*
G01X3135Y28058D01*
G01X3183Y28106D01*
G01X3209Y28127D01*
G01X3237Y28147D01*
G01X3265Y28166D01*
G01X3295Y28183D01*
G01X3325Y28197D01*
G01X3356Y28210D01*
G01X3388Y28221D01*
G01X3421Y28231D01*
G01X3454Y28238D01*
G01X3488Y28243D01*
G01X3522Y28246D01*
G01X3556Y28247D01*
G01X3589Y28246D01*
G01X3623Y28243D01*
G01X3657Y28238D01*
G01X3690Y28231D01*
G01X3723Y28221D01*
G01X3755Y28210D01*
G01X3786Y28197D01*
G01X3816Y28183D01*
G01X3846Y28166D01*
G01X3874Y28147D01*
G01X3902Y28127D01*
G01X3928Y28106D01*
G01X3976Y28058D01*
G01X3997Y28032D01*
G01X4017Y28004D01*
G01X4036Y27976D01*
G01X4053Y27946D01*
G01X4067Y27916D01*
G01X4080Y27885D01*
G01X4091Y27853D01*
G01X4101Y27820D01*
G01X4108Y27787D01*
G01X4113Y27753D01*
G01X4116Y27719D01*
G01X4117Y27686D01*
G01X4116Y27651D01*
G01X4113Y27616D01*
G01X4107Y27582D01*
G01X4100Y27548D01*
G01X4090Y27514D01*
G01X4078Y27482D01*
G01X4065Y27450D01*
G01X4049Y27419D01*
G01X4043Y27403D01*
G01X4038Y27387D01*
G01X4037Y27370D01*
G01X4037Y26364D01*
G01X4038Y26349D01*
G01X4041Y26335D01*
G01X4046Y26321D01*
G01X4053Y26309D01*
G01X4062Y26297D01*
G01X4072Y26287D01*
G01X4084Y26278D01*
G01X4096Y26271D01*
G01X4110Y26266D01*
G01X4124Y26263D01*
G01X4139Y26262D01*
G01X14982Y26262D01*
G01X14997Y26263D01*
G01X15011Y26266D01*
G01X15024Y26271D01*
G01X15037Y26278D01*
G01X15049Y26287D01*
G01X15059Y26297D01*
G01X15068Y26309D01*
G01X15075Y26321D01*
G01X15080Y26335D01*
G01X15083Y26349D01*
G01X15084Y26364D01*
G01X15080Y26391D01*
G01X15071Y26428D01*
G01X15064Y26466D01*
G01X15060Y26504D01*
G01X15059Y26543D01*
G01X15060Y26576D01*
G01X15063Y26610D01*
G01X15068Y26644D01*
G01X15075Y26677D01*
G01X15085Y26710D01*
G01X15096Y26742D01*
G01X15109Y26773D01*
G01X15123Y26803D01*
G01X15140Y26833D01*
G01X15159Y26861D01*
G01X15179Y26889D01*
G01X15200Y26915D01*
G01X15248Y26963D01*
G01X15274Y26984D01*
G01X15302Y27004D01*
G01X15330Y27023D01*
G01X15360Y27040D01*
G01X15390Y27054D01*
G01X15421Y27067D01*
G01X15453Y27078D01*
G01X15486Y27088D01*
G01X15519Y27095D01*
G01X15553Y27100D01*
G01X15587Y27103D01*
G01X15621Y27104D01*
G01X15655Y27103D01*
G01X15690Y27100D01*
G01X15724Y27094D01*
G01X15758Y27087D01*
G01X15792Y27077D01*
G01X15824Y27065D01*
G01X15856Y27052D01*
G01X15887Y27036D01*
G01X15903Y27030D01*
G01X15919Y27025D01*
G01X15936Y27024D01*
G01X22968Y27024D01*
G01X22985Y27025D01*
G01X23000Y27029D01*
G01X23015Y27036D01*
G01X23029Y27044D01*
G01X23041Y27055D01*
G01X23052Y27068D01*
G01X23060Y27082D01*
G01X23068Y27068D01*
G01X23078Y27055D01*
G01X23091Y27044D01*
G01X23105Y27036D01*
G01X23120Y27029D01*
G01X23135Y27025D01*
G01X23152Y27024D01*
G01X23837Y27024D01*
G01X23854Y27025D01*
G01X23869Y27029D01*
G01X23884Y27036D01*
G01X23898Y27044D01*
G01X23911Y27055D01*
G01X23921Y27068D01*
G01X23929Y27082D01*
G01X23937Y27068D01*
G01X23948Y27055D01*
G01X23960Y27044D01*
G01X23974Y27036D01*
G01X23989Y27029D01*
G01X24004Y27025D01*
G01X24021Y27024D01*
G01X25793Y27024D01*
G01X25809Y27025D01*
G01X25824Y27029D01*
G01X25839Y27035D01*
G01X25853Y27043D01*
G01X25865Y27054D01*
G01X28107Y29296D01*
G01X28132Y29319D01*
G01X28159Y29341D01*
G01X28187Y29361D01*
G01X28217Y29378D01*
G01X28248Y29394D01*
G01X28279Y29407D01*
G01X28312Y29418D01*
G01X28345Y29426D01*
G01X28360Y29430D01*
G01X28374Y29437D01*
G01X28387Y29445D01*
G01X28398Y29456D01*
G01X28407Y29468D01*
G01X28415Y29481D01*
G01X28421Y29495D01*
G01X28424Y29510D01*
G01X28425Y29525D01*
G01X28424Y29540D01*
G01X28421Y29554D01*
G01X28416Y29568D01*
G01X28409Y29580D01*
G01X28401Y29592D01*
G01X28390Y29602D01*
G01X28379Y29611D01*
G01X28366Y29618D01*
G01X28353Y29623D01*
G01X28338Y29626D01*
G01X28324Y29627D01*
G01X24450Y29631D01*
G01X24435Y29630D01*
G01X24421Y29627D01*
G01X24407Y29622D01*
G01X24394Y29614D01*
G01X24382Y29605D01*
G01X24372Y29595D01*
G01X24363Y29583D01*
G01X24338Y29543D01*
G01X24310Y29505D01*
G01X24281Y29468D01*
G01X24251Y29432D01*
G01X24218Y29398D01*
G01X24185Y29365D01*
G01X24149Y29334D01*
G01X24113Y29305D01*
G01X24075Y29277D01*
G01X24035Y29251D01*
G01X23995Y29227D01*
G01X23953Y29205D01*
G01X23940Y29197D01*
G01X23927Y29186D01*
G01X23917Y29174D01*
G01X23908Y29160D01*
G01X23902Y29145D01*
G01X23899Y29129D01*
G01X23885Y29138D01*
G01X23870Y29144D01*
G01X23854Y29148D01*
G01X23837Y29150D01*
G01X23822Y29149D01*
G01X23806Y29145D01*
G01X23756Y29130D01*
G01X23704Y29118D01*
G01X23652Y29108D01*
G01X23600Y29101D01*
G01X23547Y29097D01*
G01X23495Y29096D01*
G01X23442Y29097D01*
G01X23389Y29101D01*
G01X23337Y29108D01*
G01X23285Y29118D01*
G01X23233Y29130D01*
G01X23183Y29145D01*
G01X23167Y29149D01*
G01X23152Y29150D01*
G01X23135Y29148D01*
G01X23119Y29144D01*
G01X23104Y29138D01*
G01X23090Y29129D01*
G01X23087Y29145D01*
G01X23081Y29160D01*
G01X23072Y29174D01*
G01X23062Y29186D01*
G01X23049Y29197D01*
G01X23036Y29205D01*
G01X22994Y29227D01*
G01X22953Y29252D01*
G01X22914Y29278D01*
G01X22876Y29305D01*
G01X22839Y29335D01*
G01X22804Y29366D01*
G01X22770Y29399D01*
G01X22737Y29433D01*
G01X22707Y29469D01*
G01X22678Y29506D01*
G01X22650Y29545D01*
G01X22625Y29584D01*
G01X22616Y29596D01*
G01X22606Y29607D01*
G01X22594Y29616D01*
G01X22581Y29623D01*
G01X22567Y29629D01*
G01X22553Y29632D01*
G01X22538Y29633D01*
G01X4428Y29633D01*
G01X4397Y29634D01*
G01X4366Y29637D01*
G01X4335Y29642D01*
G01X4304Y29649D01*
G01X4274Y29659D01*
G01X4244Y29670D01*
G01X4216Y29683D01*
G01X4188Y29697D01*
G01X4161Y29714D01*
G01X4135Y29732D01*
G01X4111Y29752D01*
G01X4088Y29774D01*
G01X429Y33433D01*
G01X417Y33443D01*
G01X404Y33451D01*
G01X389Y33457D01*
G01X374Y33461D01*
G37*

%LPC*%
G36*
G01X23050Y27670D02*
G01X22578Y27670D01*
G01X22599Y27629D01*
G01X22622Y27589D01*
G01X22646Y27551D01*
G01X22672Y27513D01*
G01X22700Y27477D01*
G01X22730Y27442D01*
G01X22761Y27408D01*
G01X22793Y27376D01*
G01X22827Y27345D01*
G01X22863Y27316D01*
G01X22899Y27288D01*
G01X22937Y27262D01*
G01X22976Y27238D01*
G01X23016Y27215D01*
G01X23029Y27207D01*
G01X23040Y27197D01*
G01X23050Y27186D01*
G01X23050Y27670D01*
G37*
G36*
G01X24411Y27670D02*
G01X23939Y27670D01*
G01X23939Y27186D01*
G01X23949Y27197D01*
G01X23960Y27207D01*
G01X23973Y27215D01*
G01X24013Y27238D01*
G01X24052Y27262D01*
G01X24090Y27288D01*
G01X24126Y27316D01*
G01X24162Y27345D01*
G01X24196Y27376D01*
G01X24228Y27408D01*
G01X24259Y27442D01*
G01X24289Y27477D01*
G01X24317Y27513D01*
G01X24343Y27551D01*
G01X24367Y27589D01*
G01X24390Y27629D01*
G01X24411Y27670D01*
G37*
G36*
G01X23050Y28559D02*
G01X23050Y29033D01*
G01X23036Y29024D01*
G01X22994Y29001D01*
G01X22953Y28977D01*
G01X22913Y28951D01*
G01X22875Y28923D01*
G01X22838Y28893D01*
G01X22803Y28862D01*
G01X22769Y28829D01*
G01X22736Y28794D01*
G01X22705Y28758D01*
G01X22676Y28721D01*
G01X22649Y28682D01*
G01X22623Y28642D01*
G01X22600Y28601D01*
G01X22578Y28559D01*
G01X23050Y28559D01*
G37*
G36*
G01X23953Y29024D02*
G01X23939Y29033D01*
G01X23939Y28559D01*
G01X24411Y28559D01*
G01X24389Y28601D01*
G01X24366Y28642D01*
G01X24340Y28682D01*
G01X24313Y28721D01*
G01X24284Y28758D01*
G01X24253Y28794D01*
G01X24220Y28829D01*
G01X24186Y28862D01*
G01X24151Y28893D01*
G01X24114Y28923D01*
G01X24076Y28951D01*
G01X24036Y28977D01*
G01X23995Y29001D01*
G01X23953Y29024D01*
G37*

%LPD*%
G36*
G01X36388Y24871D02*
G01X36373Y24872D01*
G01X36359Y24871D01*
G01X36345Y24868D01*
G01X36331Y24863D01*
G01X36319Y24856D01*
G01X36307Y24847D01*
G01X36281Y24826D01*
G01X36253Y24806D01*
G01X36225Y24788D01*
G01X36195Y24772D01*
G01X36164Y24758D01*
G01X36133Y24745D01*
G01X36101Y24735D01*
G01X36085Y24728D01*
G01X36071Y24720D01*
G01X36058Y24709D01*
G01X32598Y21249D01*
G01X32575Y21227D01*
G01X32551Y21207D01*
G01X32525Y21189D01*
G01X32498Y21172D01*
G01X32470Y21158D01*
G01X32442Y21145D01*
G01X32412Y21134D01*
G01X32382Y21124D01*
G01X32351Y21117D01*
G01X32320Y21112D01*
G01X32289Y21109D01*
G01X32258Y21108D01*
G01X15652Y21108D01*
G01X15638Y21107D01*
G01X15624Y21104D01*
G01X15610Y21099D01*
G01X15597Y21092D01*
G01X15586Y21083D01*
G01X15575Y21073D01*
G01X15567Y21061D01*
G01X15560Y21049D01*
G01X15555Y21035D01*
G01X15552Y21021D01*
G01X15551Y21006D01*
G01X15552Y20990D01*
G01X15556Y20975D01*
G01X15562Y20960D01*
G01X15570Y20947D01*
G01X15580Y20935D01*
G01X16098Y20417D01*
G01X16111Y20406D01*
G01X16124Y20398D01*
G01X16139Y20392D01*
G01X16154Y20388D01*
G01X16170Y20387D01*
G01X16186Y20388D01*
G01X16202Y20392D01*
G01X16217Y20398D01*
G01X16230Y20406D01*
G01X16243Y20417D01*
G01X16253Y20429D01*
G01X16261Y20443D01*
G01X16278Y20473D01*
G01X16296Y20503D01*
G01X16316Y20531D01*
G01X16337Y20558D01*
G01X16361Y20583D01*
G01X16386Y20607D01*
G01X16412Y20630D01*
G01X16439Y20651D01*
G01X16468Y20670D01*
G01X16498Y20687D01*
G01X16529Y20703D01*
G01X16561Y20716D01*
G01X16593Y20727D01*
G01X16627Y20737D01*
G01X16660Y20744D01*
G01X16695Y20750D01*
G01X16729Y20753D01*
G01X16764Y20754D01*
G01X16798Y20753D01*
G01X16833Y20750D01*
G01X16867Y20744D01*
G01X16901Y20737D01*
G01X16935Y20727D01*
G01X16967Y20715D01*
G01X16999Y20702D01*
G01X17030Y20686D01*
G01X17046Y20680D01*
G01X17062Y20675D01*
G01X17079Y20674D01*
G01X22733Y20674D01*
G01X22764Y20673D01*
G01X22795Y20670D01*
G01X22826Y20665D01*
G01X22857Y20658D01*
G01X22887Y20648D01*
G01X22917Y20637D01*
G01X22945Y20624D01*
G01X22973Y20610D01*
G01X23000Y20593D01*
G01X23026Y20575D01*
G01X23050Y20555D01*
G01X23073Y20533D01*
G01X26585Y17021D01*
G01X26597Y17010D01*
G01X26611Y17002D01*
G01X26626Y16996D01*
G01X26641Y16992D01*
G01X26657Y16991D01*
G01X32690Y16991D01*
G01X32705Y16992D01*
G01X32719Y16995D01*
G01X32733Y17000D01*
G01X32745Y17007D01*
G01X32757Y17016D01*
G01X32767Y17026D01*
G01X32776Y17038D01*
G01X32783Y17050D01*
G01X32788Y17064D01*
G01X32791Y17078D01*
G01X32792Y17093D01*
G01X32792Y17966D01*
G01X32791Y17981D01*
G01X32788Y17995D01*
G01X32782Y18009D01*
G01X32775Y18022D01*
G01X32766Y18034D01*
G01X32755Y18044D01*
G01X32743Y18053D01*
G01X32700Y18081D01*
G01X32658Y18111D01*
G01X32617Y18144D01*
G01X32579Y18178D01*
G01X32542Y18214D01*
G01X32507Y18252D01*
G01X32473Y18292D01*
G01X32463Y18303D01*
G01X32451Y18313D01*
G01X32438Y18321D01*
G01X32424Y18326D01*
G01X32409Y18330D01*
G01X32394Y18331D01*
G01X32379Y18330D01*
G01X32365Y18327D01*
G01X32351Y18322D01*
G01X32339Y18315D01*
G01X32327Y18306D01*
G01X32317Y18296D01*
G01X32308Y18284D01*
G01X32301Y18271D01*
G01X32296Y18258D01*
G01X32293Y18244D01*
G01X32292Y18229D01*
G01X32292Y18161D01*
G01X32291Y18137D01*
G01X32288Y18113D01*
G01X32282Y18090D01*
G01X32275Y18068D01*
G01X32265Y18046D01*
G01X32254Y18025D01*
G01X32240Y18006D01*
G01X32225Y17988D01*
G01X32208Y17971D01*
G01X32190Y17956D01*
G01X32171Y17942D01*
G01X32150Y17931D01*
G01X32128Y17921D01*
G01X32106Y17914D01*
G01X32083Y17908D01*
G01X32059Y17905D01*
G01X32036Y17904D01*
G01X31718Y17904D01*
G01X31718Y18478D01*
G01X32207Y18478D01*
G01X32222Y18479D01*
G01X32236Y18482D01*
G01X32249Y18487D01*
G01X32262Y18494D01*
G01X32274Y18503D01*
G01X32284Y18513D01*
G01X32293Y18525D01*
G01X32300Y18537D01*
G01X32305Y18551D01*
G01X32308Y18565D01*
G01X32309Y18580D01*
G01X32308Y18595D01*
G01X32304Y18611D01*
G01X32289Y18661D01*
G01X32277Y18713D01*
G01X32267Y18765D01*
G01X32260Y18817D01*
G01X32256Y18870D01*
G01X32255Y18922D01*
G01X32256Y18975D01*
G01X32260Y19028D01*
G01X32267Y19080D01*
G01X32277Y19132D01*
G01X32289Y19184D01*
G01X32304Y19234D01*
G01X32308Y19250D01*
G01X32309Y19265D01*
G01X32308Y19280D01*
G01X32305Y19294D01*
G01X32300Y19308D01*
G01X32293Y19320D01*
G01X32284Y19332D01*
G01X32274Y19342D01*
G01X32262Y19351D01*
G01X32249Y19358D01*
G01X32236Y19363D01*
G01X32222Y19366D01*
G01X32207Y19367D01*
G01X31718Y19367D01*
G01X31718Y19941D01*
G01X32036Y19941D01*
G01X32059Y19940D01*
G01X32083Y19937D01*
G01X32106Y19931D01*
G01X32128Y19924D01*
G01X32150Y19914D01*
G01X32171Y19903D01*
G01X32190Y19889D01*
G01X32208Y19874D01*
G01X32225Y19857D01*
G01X32240Y19839D01*
G01X32254Y19820D01*
G01X32265Y19799D01*
G01X32275Y19777D01*
G01X32282Y19755D01*
G01X32288Y19732D01*
G01X32291Y19708D01*
G01X32292Y19685D01*
G01X32292Y19616D01*
G01X32293Y19601D01*
G01X32296Y19587D01*
G01X32301Y19574D01*
G01X32308Y19561D01*
G01X32317Y19549D01*
G01X32327Y19539D01*
G01X32339Y19530D01*
G01X32351Y19523D01*
G01X32365Y19518D01*
G01X32379Y19515D01*
G01X32394Y19514D01*
G01X32409Y19515D01*
G01X32424Y19519D01*
G01X32438Y19524D01*
G01X32451Y19532D01*
G01X32463Y19542D01*
G01X32473Y19553D01*
G01X32503Y19588D01*
G01X32534Y19622D01*
G01X32566Y19655D01*
G01X32600Y19686D01*
G01X32635Y19716D01*
G01X32671Y19744D01*
G01X32709Y19770D01*
G01X32748Y19795D01*
G01X32788Y19818D01*
G01X32829Y19839D01*
G01X32871Y19858D01*
G01X32913Y19875D01*
G01X32957Y19891D01*
G01X33001Y19904D01*
G01X33045Y19915D01*
G01X33090Y19924D01*
G01X33136Y19932D01*
G01X33182Y19937D01*
G01X33228Y19940D01*
G01X33274Y19941D01*
G01X33320Y19940D01*
G01X33367Y19937D01*
G01X33414Y19931D01*
G01X33460Y19924D01*
G01X33506Y19914D01*
G01X33551Y19903D01*
G01X33596Y19889D01*
G01X33640Y19873D01*
G01X33683Y19855D01*
G01X33725Y19835D01*
G01X33767Y19814D01*
G01X33807Y19790D01*
G01X33847Y19764D01*
G01X33885Y19737D01*
G01X33922Y19708D01*
G01X33957Y19678D01*
G01X33991Y19645D01*
G01X34023Y19612D01*
G01X34054Y19577D01*
G01X34084Y19540D01*
G01X34111Y19502D01*
G01X34137Y19463D01*
G01X34161Y19423D01*
G01X34183Y19381D01*
G01X34191Y19368D01*
G01X34201Y19356D01*
G01X34214Y19345D01*
G01X34227Y19337D01*
G01X34242Y19331D01*
G01X34258Y19327D01*
G01X34273Y19326D01*
G01X34289Y19327D01*
G01X34305Y19331D01*
G01X34320Y19337D01*
G01X34333Y19345D01*
G01X34346Y19356D01*
G01X34356Y19368D01*
G01X34364Y19381D01*
G01X34386Y19423D01*
G01X34411Y19464D01*
G01X34437Y19503D01*
G01X34464Y19541D01*
G01X34494Y19578D01*
G01X34525Y19613D01*
G01X34558Y19647D01*
G01X34592Y19680D01*
G01X34628Y19710D01*
G01X34665Y19739D01*
G01X34704Y19767D01*
G01X34743Y19792D01*
G01X34755Y19801D01*
G01X34766Y19811D01*
G01X34775Y19823D01*
G01X34782Y19836D01*
G01X34788Y19850D01*
G01X34791Y19864D01*
G01X34792Y19879D01*
G01X34792Y22065D01*
G01X34793Y22097D01*
G01X34796Y22128D01*
G01X34801Y22159D01*
G01X34808Y22190D01*
G01X34818Y22220D01*
G01X34829Y22250D01*
G01X34842Y22278D01*
G01X34856Y22306D01*
G01X34873Y22333D01*
G01X34891Y22359D01*
G01X34911Y22383D01*
G01X34933Y22406D01*
G01X36445Y23918D01*
G01X36456Y23930D01*
G01X36464Y23944D01*
G01X36470Y23959D01*
G01X36474Y23974D01*
G01X36475Y23990D01*
G01X36475Y24770D01*
G01X36474Y24785D01*
G01X36471Y24799D01*
G01X36466Y24813D01*
G01X36459Y24825D01*
G01X36450Y24837D01*
G01X36440Y24847D01*
G01X36428Y24856D01*
G01X36416Y24863D01*
G01X36402Y24868D01*
G01X36388Y24871D01*
G37*

%LPC*%
G36*
G01X30829Y18478D02*
G01X30255Y18478D01*
G01X30255Y18161D01*
G01X30256Y18137D01*
G01X30259Y18113D01*
G01X30265Y18090D01*
G01X30272Y18068D01*
G01X30282Y18046D01*
G01X30293Y18025D01*
G01X30307Y18006D01*
G01X30322Y17988D01*
G01X30339Y17971D01*
G01X30357Y17956D01*
G01X30376Y17942D01*
G01X30397Y17931D01*
G01X30419Y17921D01*
G01X30441Y17914D01*
G01X30464Y17908D01*
G01X30488Y17905D01*
G01X30512Y17904D01*
G01X30829Y17904D01*
G01X30829Y18478D01*
G37*
G36*
G01X30829Y19941D02*
G01X30512Y19941D01*
G01X30488Y19940D01*
G01X30464Y19937D01*
G01X30441Y19931D01*
G01X30419Y19924D01*
G01X30397Y19914D01*
G01X30376Y19903D01*
G01X30357Y19889D01*
G01X30339Y19874D01*
G01X30322Y19857D01*
G01X30307Y19839D01*
G01X30293Y19820D01*
G01X30282Y19799D01*
G01X30272Y19777D01*
G01X30265Y19755D01*
G01X30259Y19732D01*
G01X30256Y19708D01*
G01X30255Y19685D01*
G01X30255Y19367D01*
G01X30829Y19367D01*
G01X30829Y19941D01*
G37*

%LPD*%
G54D11*
G01X13335Y6563D02*
G01X13335Y7747D01*
G01X13081Y8001D01*
G01X9652Y8001D01*
G01X9652Y11557D01*
G01X13081Y14986D01*
G01X24765Y14986D01*
G01X24765Y17018D01*
G01X22606Y19177D01*
G01X16764Y19177D01*
G01X15113Y20828D01*
G01X14859Y20828D01*
G54D12*
G01X18796Y16129D02*
G01X18161Y15494D01*
G01X12319Y15494D01*
G01X2286Y5461D01*
G01X2286Y1270D01*
G01X23495Y30115D02*
G01X4428Y30115D01*
G01X508Y34036D01*
G01X46482Y26416D02*
G01X45212Y25146D01*
G01X45212Y4445D01*
G01X43053Y4445D01*
G01X45720Y31115D02*
G01X43053Y28448D01*
G01X43053Y14605D01*
G01X42037Y30607D02*
G01X40894Y29464D01*
G01X40894Y12065D01*
G01X43053Y12065D01*
G01X39624Y30480D02*
G01X39624Y10541D01*
G01X40640Y9525D01*
G01X43053Y9525D01*
G01X28575Y27178D02*
G01X27178Y25781D01*
G01X3810Y25781D01*
G01X3556Y26035D01*
G01X3556Y27686D01*
G01X35941Y25273D02*
G01X32258Y21590D01*
G01X5588Y21590D01*
G01X4064Y20066D01*
G01X29337Y31242D02*
G01X27051Y33528D01*
G01X27051Y35941D01*
G01X26924Y35814D01*
G01X21336Y35814D01*
G01X21209Y35687D01*
G01X21209Y34163D01*
G01X23495Y30114D02*
G01X37592Y30099D01*
G01X38735Y28956D01*
G01X38735Y13716D01*
G01X29464Y13716D01*
G01X27686Y15494D01*
G01X17145Y14224D02*
G01X20828Y10541D01*
G01X38608Y10541D01*
G01X23622Y16891D02*
G01X23368Y17145D01*
G01X17526Y17145D01*
G01X15240Y19431D01*
G01X14986Y19431D01*
G01X33274Y18923D02*
G01X33274Y16510D01*
G01X26416Y16510D01*
G01X22733Y20193D01*
G01X16764Y20193D01*
G01X35273Y18923D02*
G01X35273Y22065D01*
G01X36957Y23749D01*
G01X36957Y27305D01*
G01X31496Y27305D01*
G01X29845Y28956D01*
G01X28448Y28956D01*
G01X26035Y26543D01*
G01X15621Y26543D01*
G01X35433Y7493D02*
G01X35433Y3683D01*
G01X34544Y2794D01*
G01X32258Y7493D02*
G01X30861Y6096D01*
G01X22204Y4531D02*
G01X22245Y4572D01*
G01X25781Y4572D01*
G01X22184Y2981D02*
G01X22626Y2540D01*
G01X25781Y2540D01*
G01X22204Y6431D02*
G01X26588Y6431D01*
G01X28448Y4572D01*
G54D11*
G01X15834Y3063D02*
G01X15834Y2562D01*
G01X15834Y2562D02*
G01X17762Y635D01*
G01X18542Y635D01*
G01X15834Y3563D02*
G01X15953Y3683D01*
G01X24574Y3683D01*
G01X24828Y3429D01*
G01X32385Y3429D01*
G01X33909Y1905D01*
G01X36830Y1905D01*
G01X15834Y4064D02*
G01X17399Y4064D01*
G01X17653Y4318D01*
G01X17907Y4572D01*
G01X17907Y7620D01*
G01X18161Y7874D01*
G01X28575Y7874D01*
G01X29591Y8890D01*
G01X36576Y8890D01*
G01X19705Y5481D02*
G01X18836Y6350D01*
G01X18542Y6350D01*
G01X19685Y2032D02*
G01X19304Y2413D01*
G01X17653Y2413D01*
G01X13335Y11557D02*
G01X10541Y11557D01*
G01X29845Y889D02*
G01X29337Y381D01*
G01X19685Y381D01*
G01X19685Y1143D01*
G01X19558Y1270D01*
G01X18288Y1270D01*
G01X18161Y1397D01*
G01X18161Y1778D01*
G01X15621Y1524D02*
G01X15581Y1563D01*
G01X14836Y1563D01*
G01X22184Y1082D02*
G01X20218Y3048D01*
G01X17018Y3048D01*
G01X15748Y7874D02*
G01X15113Y7874D01*
G01X14836Y7597D01*
G01X14836Y6563D01*
G01X22184Y1082D02*
G01X26990Y1082D01*
G01X28448Y2540D01*
G01X13843Y9271D02*
G01X13835Y9263D01*
G01X13835Y6563D01*
G01X12834Y6563D02*
G01X12834Y7358D01*
G01X12700Y7493D01*
G01X9779Y7493D01*
G01X2921Y635D01*
G01X762Y635D01*
G01X762Y16764D01*
G01X4064Y20066D01*
G01X14605Y31623D02*
G01X21003Y31623D01*
G01X23495Y34114D01*
G01X11811Y9271D02*
G01X14605Y12065D01*
G01X14605Y14224D01*
G01X11430Y16002D02*
G01X11430Y19685D01*
G01X11303Y19812D01*
G01X13589Y30988D02*
G01X13589Y30988D01*
G01X17018Y30988D01*
G01X15834Y4564D02*
G01X16756Y4564D01*
G01X16764Y4571D01*
G01X16764Y8636D01*
G01X6604Y5842D02*
G01X8636Y7874D01*
G01X8636Y9779D01*
G01X6350Y10795D02*
G01X6350Y12192D01*
G01X6604Y12446D01*
G01X6656Y13449D02*
G01X4699Y15406D01*
G01X4699Y19304D01*
G01X16764Y8636D02*
G01X15494Y9906D01*
G01X15494Y14224D01*
G01X15367Y16256D02*
G01X13208Y18415D01*
G01X13208Y20574D01*
G01X5969Y20574D01*
G01X4699Y19304D01*
G54D35*
G01X14836Y6848D02*
G01X14836Y6278D01*
G01X14335Y6848D02*
G01X14335Y6278D01*
G01X13835Y6848D02*
G01X13835Y6278D01*
G01X13335Y6848D02*
G01X13335Y6278D01*
G01X12834Y6848D02*
G01X12834Y6278D01*
G01X12334Y6848D02*
G01X12334Y6278D01*
G01X11833Y6848D02*
G01X11833Y6278D01*
G01X11119Y5565D02*
G01X10549Y5565D01*
G01X11119Y5064D02*
G01X10549Y5064D01*
G01X11119Y4564D02*
G01X10549Y4564D01*
G01X11119Y4064D02*
G01X10549Y4064D01*
G01X11119Y3563D02*
G01X10549Y3563D01*
G01X11119Y3063D02*
G01X10549Y3063D01*
G01X11119Y2562D02*
G01X10549Y2562D01*
G01X11833Y1848D02*
G01X11833Y1278D01*
G01X12334Y1848D02*
G01X12334Y1278D01*
G01X12834Y1848D02*
G01X12834Y1278D01*
G01X13335Y1848D02*
G01X13335Y1278D01*
G01X13835Y1848D02*
G01X13835Y1278D01*
G01X14335Y1848D02*
G01X14335Y1278D01*
G01X14836Y1848D02*
G01X14836Y1278D01*
G01X16119Y2562D02*
G01X15549Y2562D01*
G01X16119Y3063D02*
G01X15549Y3063D01*
G01X16119Y3563D02*
G01X15549Y3563D01*
G01X16119Y4064D02*
G01X15549Y4064D01*
G01X16119Y4564D02*
G01X15549Y4564D01*
G01X16119Y5064D02*
G01X15549Y5064D01*
G01X16119Y5565D02*
G01X15549Y5565D01*
G36*
G01X34978Y6883D02*
G01X35887Y6883D01*
G01X35887Y8102D01*
G01X34978Y8102D01*
G01X34978Y6883D01*
G37*
G36*
G01X31727Y6883D02*
G01X32636Y6883D01*
G01X32636Y8102D01*
G01X31727Y8102D01*
G01X31727Y6883D01*
G37*
G36*
G01X14423Y9995D02*
G01X13262Y9995D01*
G01X13262Y8546D01*
G01X14423Y8546D01*
G01X14423Y9995D01*
G37*
G36*
G01X12391Y9995D02*
G01X11230Y9995D01*
G01X11230Y8546D01*
G01X12391Y8546D01*
G01X12391Y9995D01*
G37*
G36*
G01X25056Y5152D02*
G01X25056Y3991D01*
G01X26505Y3991D01*
G01X26505Y5152D01*
G01X25056Y5152D01*
G37*
G36*
G01X25056Y3120D02*
G01X25056Y1959D01*
G01X26505Y1959D01*
G01X26505Y3120D01*
G01X25056Y3120D01*
G37*
G36*
G01X29172Y1959D02*
G01X29172Y3120D01*
G01X27723Y3120D01*
G01X27723Y1959D01*
G01X29172Y1959D01*
G37*
G36*
G01X29172Y3991D02*
G01X29172Y5152D01*
G01X27723Y5152D01*
G01X27723Y3991D01*
G01X29172Y3991D01*
G37*
G36*
G01X20330Y5131D02*
G01X20330Y5831D01*
G01X19080Y5831D01*
G01X19080Y5131D01*
G01X20330Y5131D01*
G37*
G36*
G01X22829Y4181D02*
G01X22829Y4881D01*
G01X21579Y4881D01*
G01X21579Y4181D01*
G01X22829Y4181D01*
G37*
G36*
G01X22829Y6081D02*
G01X22829Y6781D01*
G01X21579Y6781D01*
G01X21579Y6081D01*
G01X22829Y6081D01*
G37*
G36*
G01X20309Y1681D02*
G01X20309Y2382D01*
G01X19060Y2382D01*
G01X19060Y1681D01*
G01X20309Y1681D01*
G37*
G36*
G01X22809Y732D02*
G01X22809Y1432D01*
G01X21559Y1432D01*
G01X21559Y732D01*
G01X22809Y732D01*
G37*
G36*
G01X22809Y2631D02*
G01X22809Y3331D01*
G01X21559Y3331D01*
G01X21559Y2631D01*
G01X22809Y2631D01*
G37*
G36*
G01X14899Y5628D02*
G01X11770Y5628D01*
G01X11770Y2499D01*
G01X14899Y2499D01*
G01X14899Y5628D01*
G37*
G54D28*
G01X49403Y6350D03*
G01X49403Y1270D03*
G54D30*
G01X33403Y4165D03*
G01X38244Y4165D03*
G54D31*
G01X23495Y34114D03*
G54D32*
G01X23495Y32114D03*
G01X23495Y30115D03*
G01X23495Y28115D03*
G54D31*
G01X49530Y13208D03*
G54D33*
G01X43053Y14605D03*
G54D34*
G01X43053Y12065D03*
G01X43053Y9525D03*
G01X43053Y6985D03*
G01X43053Y4445D03*
G01X43053Y1905D03*
G54D31*
G01X31274Y18923D03*
G54D32*
G01X33274Y18923D03*
G01X35273Y18923D03*
G01X37273Y18923D03*
G54D13*
G01X18796Y16129D03*
G01X2286Y1270D03*
G01X508Y34036D03*
G01X46482Y26416D03*
G01X45720Y31115D03*
G01X42037Y30607D03*
G01X39624Y30480D03*
G01X28575Y27178D03*
G01X3556Y27686D03*
G01X35941Y25273D03*
G01X4064Y20066D03*
G01X29337Y31242D03*
G01X21209Y34163D03*
G01X27686Y15494D03*
G01X17145Y14224D03*
G01X38608Y10541D03*
G01X23622Y16891D03*
G01X14986Y19431D03*
G01X16764Y20193D03*
G01X15621Y26543D03*
G01X46863Y11684D03*
G01X34544Y2794D03*
G01X30861Y6096D03*
G01X18542Y635D03*
G01X36830Y1905D03*
G01X36576Y8890D03*
G01X18542Y6350D03*
G01X17653Y2413D03*
G01X13335Y11557D03*
G01X10541Y11557D03*
G01X29845Y889D03*
G01X18161Y1778D03*
G01X15621Y1524D03*
G01X17018Y3048D03*
G01X15748Y7874D03*
G01X14859Y20828D03*
G01X14605Y31623D03*
G01X14605Y14224D03*
G01X11430Y16002D03*
G01X11303Y19812D03*
G01X13589Y30988D03*
G01X17018Y30988D03*
G01X6604Y5842D03*
G01X16764Y8636D03*
G01X8636Y9779D03*
G01X6350Y10795D03*
G01X6604Y12446D03*
G01X6656Y13449D03*
G01X4699Y19304D03*
G01X15494Y14224D03*
G01X15367Y16256D03*
G54D30*
G01X39433Y1915D02*
G01X39433Y1015D01*
G01X32194Y1915D02*
G01X32194Y1015D01*
M00*
M02*
