G04 Layer: BottomSilkLayer*
G04 EasyEDA v6.2.35, 2019-08-15T18:41:42+02:00*
G04 d928556bf1d54400a7a5e192a75a7165,10119efe1344418d97fa33539d7a4e55,10*
G04 Gerber Generator version 0.2*
G04 Scale: 100 percent, Rotated: No, Reflected: No *
G04 Dimensions in millimeters *
G04 leading zeros omitted , absolute positions ,3 integer and 3 decimal *
%FSLAX33Y33*%
%MOMM*%
G90*
G71D02*

%ADD10C,0.254000*%
%ADD11C,0.299999*%
%ADD39C,0.199898*%
%ADD44C,0.152400*%
%ADD45C,0.200000*%
%ADD46C,0.203200*%

%LPD*%

%LPD*%
G36*
G01X50807Y17533D02*
G01X35806Y17533D01*
G01X35806Y2532D01*
G01X50807Y2532D01*
G01X50807Y17533D01*
G37*

%LPC*%
G36*
G01X47828Y15004D02*
G01X47797Y15008D01*
G01X47766Y15003D01*
G01X47736Y14990D01*
G01X47704Y14969D01*
G01X47670Y14941D01*
G01X47633Y14906D01*
G01X47591Y14865D01*
G01X47523Y14786D01*
G01X47484Y14715D01*
G01X47474Y14654D01*
G01X47494Y14602D01*
G01X47507Y14585D01*
G01X47525Y14561D01*
G01X47550Y14530D01*
G01X47578Y14493D01*
G01X47612Y14452D01*
G01X47649Y14405D01*
G01X47690Y14354D01*
G01X47733Y14300D01*
G01X47778Y14243D01*
G01X47825Y14184D01*
G01X47873Y14124D01*
G01X47923Y14063D01*
G01X47995Y13972D01*
G01X48030Y13926D01*
G01X48065Y13879D01*
G01X48133Y13785D01*
G01X48199Y13689D01*
G01X48231Y13641D01*
G01X48324Y13494D01*
G01X48353Y13444D01*
G01X48383Y13393D01*
G01X48412Y13343D01*
G01X48440Y13293D01*
G01X48496Y13191D01*
G01X48523Y13139D01*
G01X48575Y13035D01*
G01X48600Y12983D01*
G01X48649Y12877D01*
G01X48673Y12824D01*
G01X48696Y12771D01*
G01X48719Y12717D01*
G01X48762Y12610D01*
G01X48784Y12555D01*
G01X48804Y12501D01*
G01X48844Y12391D01*
G01X48881Y12280D01*
G01X48899Y12225D01*
G01X48934Y12113D01*
G01X48966Y12001D01*
G01X48981Y11945D01*
G01X49010Y11832D01*
G01X49024Y11775D01*
G01X49050Y11661D01*
G01X49062Y11604D01*
G01X49074Y11546D01*
G01X49085Y11489D01*
G01X49096Y11431D01*
G01X49106Y11374D01*
G01X49133Y11200D01*
G01X49149Y11084D01*
G01X49156Y11026D01*
G01X49168Y10909D01*
G01X49173Y10850D01*
G01X49183Y10734D01*
G01X49187Y10675D01*
G01X49190Y10617D01*
G01X49193Y10558D01*
G01X49197Y10440D01*
G01X49199Y10324D01*
G01X49199Y10206D01*
G01X49198Y10147D01*
G01X49195Y10030D01*
G01X49192Y9972D01*
G01X49189Y9913D01*
G01X49186Y9855D01*
G01X49182Y9796D01*
G01X49177Y9738D01*
G01X49173Y9680D01*
G01X49167Y9622D01*
G01X49161Y9563D01*
G01X49155Y9505D01*
G01X49147Y9447D01*
G01X49132Y9331D01*
G01X49124Y9274D01*
G01X49114Y9216D01*
G01X49105Y9158D01*
G01X49095Y9101D01*
G01X49084Y9043D01*
G01X49073Y8987D01*
G01X49061Y8929D01*
G01X49049Y8872D01*
G01X49036Y8815D01*
G01X49023Y8759D01*
G01X49009Y8703D01*
G01X48980Y8590D01*
G01X48965Y8534D01*
G01X48933Y8422D01*
G01X48916Y8367D01*
G01X48898Y8311D01*
G01X48880Y8257D01*
G01X48862Y8202D01*
G01X48843Y8147D01*
G01X48804Y8038D01*
G01X48762Y7930D01*
G01X48719Y7824D01*
G01X48696Y7770D01*
G01X48673Y7718D01*
G01X48650Y7665D01*
G01X48625Y7613D01*
G01X48601Y7561D01*
G01X48576Y7509D01*
G01X48524Y7407D01*
G01X48470Y7305D01*
G01X48414Y7205D01*
G01X48385Y7155D01*
G01X48357Y7106D01*
G01X48297Y7008D01*
G01X48235Y6912D01*
G01X48203Y6864D01*
G01X48170Y6817D01*
G01X48138Y6770D01*
G01X48104Y6723D01*
G01X48071Y6677D01*
G01X48036Y6631D01*
G01X47966Y6541D01*
G01X47930Y6496D01*
G01X47857Y6408D01*
G01X47781Y6322D01*
G01X47727Y6262D01*
G01X47681Y6211D01*
G01X47643Y6171D01*
G01X47614Y6141D01*
G01X47595Y6123D01*
G01X47586Y6118D01*
G01X47588Y6126D01*
G01X47603Y6147D01*
G01X47633Y6191D01*
G01X47659Y6236D01*
G01X47682Y6281D01*
G01X47701Y6326D01*
G01X47717Y6372D01*
G01X47731Y6418D01*
G01X47740Y6464D01*
G01X47747Y6510D01*
G01X47750Y6557D01*
G01X47752Y6603D01*
G01X47749Y6649D01*
G01X47744Y6695D01*
G01X47737Y6740D01*
G01X47727Y6785D01*
G01X47714Y6830D01*
G01X47699Y6875D01*
G01X47682Y6918D01*
G01X47662Y6961D01*
G01X47640Y7004D01*
G01X47616Y7045D01*
G01X47590Y7086D01*
G01X47562Y7125D01*
G01X47532Y7164D01*
G01X47500Y7201D01*
G01X47467Y7237D01*
G01X47431Y7273D01*
G01X47395Y7307D01*
G01X47356Y7339D01*
G01X47317Y7370D01*
G01X47276Y7399D01*
G01X47233Y7426D01*
G01X47190Y7452D01*
G01X47145Y7476D01*
G01X47100Y7498D01*
G01X47054Y7518D01*
G01X47006Y7537D01*
G01X46958Y7553D01*
G01X46909Y7567D01*
G01X46859Y7579D01*
G01X46809Y7588D01*
G01X46759Y7595D01*
G01X46708Y7600D01*
G01X46657Y7602D01*
G01X46605Y7601D01*
G01X46554Y7598D01*
G01X46502Y7592D01*
G01X46450Y7582D01*
G01X46399Y7571D01*
G01X46347Y7555D01*
G01X46296Y7538D01*
G01X46245Y7516D01*
G01X46194Y7492D01*
G01X46149Y7467D01*
G01X46107Y7441D01*
G01X46066Y7413D01*
G01X46028Y7383D01*
G01X45993Y7352D01*
G01X45960Y7319D01*
G01X45929Y7286D01*
G01X45900Y7251D01*
G01X45874Y7214D01*
G01X45850Y7177D01*
G01X45828Y7139D01*
G01X45808Y7100D01*
G01X45790Y7060D01*
G01X45775Y7019D01*
G01X45761Y6977D01*
G01X45750Y6935D01*
G01X45740Y6893D01*
G01X45733Y6850D01*
G01X45727Y6806D01*
G01X45724Y6763D01*
G01X45722Y6718D01*
G01X45722Y6674D01*
G01X45724Y6629D01*
G01X45727Y6585D01*
G01X45733Y6541D01*
G01X45740Y6497D01*
G01X45748Y6453D01*
G01X45759Y6409D01*
G01X45771Y6365D01*
G01X45785Y6323D01*
G01X45800Y6280D01*
G01X45817Y6238D01*
G01X45835Y6197D01*
G01X45855Y6156D01*
G01X45875Y6116D01*
G01X45898Y6077D01*
G01X45922Y6040D01*
G01X45947Y6003D01*
G01X45974Y5966D01*
G01X46001Y5932D01*
G01X46030Y5898D01*
G01X46061Y5866D01*
G01X46092Y5835D01*
G01X46125Y5806D01*
G01X46159Y5779D01*
G01X46193Y5753D01*
G01X46230Y5728D01*
G01X46267Y5705D01*
G01X46304Y5685D01*
G01X46343Y5666D01*
G01X46383Y5648D01*
G01X46424Y5634D01*
G01X46465Y5621D01*
G01X46508Y5610D01*
G01X46551Y5602D01*
G01X46595Y5596D01*
G01X46639Y5593D01*
G01X46685Y5592D01*
G01X46731Y5594D01*
G01X46778Y5598D01*
G01X46825Y5605D01*
G01X46874Y5615D01*
G01X46922Y5628D01*
G01X46971Y5643D01*
G01X47031Y5664D01*
G01X47082Y5680D01*
G01X47124Y5692D01*
G01X47156Y5698D01*
G01X47178Y5700D01*
G01X47190Y5697D01*
G01X47192Y5688D01*
G01X47184Y5673D01*
G01X47165Y5652D01*
G01X47136Y5625D01*
G01X47096Y5592D01*
G01X47044Y5551D01*
G01X46981Y5505D01*
G01X46908Y5450D01*
G01X46822Y5388D01*
G01X46724Y5319D01*
G01X46673Y5283D01*
G01X46621Y5247D01*
G01X46569Y5212D01*
G01X46518Y5178D01*
G01X46465Y5144D01*
G01X46413Y5110D01*
G01X46360Y5077D01*
G01X46308Y5045D01*
G01X46255Y5013D01*
G01X46202Y4982D01*
G01X46148Y4951D01*
G01X46042Y4892D01*
G01X45934Y4834D01*
G01X45880Y4806D01*
G01X45772Y4752D01*
G01X45663Y4700D01*
G01X45609Y4675D01*
G01X45499Y4626D01*
G01X45444Y4602D01*
G01X45389Y4580D01*
G01X45334Y4557D01*
G01X45279Y4535D01*
G01X45167Y4493D01*
G01X45112Y4472D01*
G01X44944Y4415D01*
G01X44888Y4397D01*
G01X44833Y4379D01*
G01X44776Y4362D01*
G01X44720Y4346D01*
G01X44607Y4314D01*
G01X44551Y4300D01*
G01X44494Y4285D01*
G01X44438Y4272D01*
G01X44381Y4259D01*
G01X44325Y4246D01*
G01X44268Y4234D01*
G01X44154Y4211D01*
G01X44040Y4191D01*
G01X43926Y4173D01*
G01X43812Y4157D01*
G01X43698Y4143D01*
G01X43641Y4137D01*
G01X43583Y4132D01*
G01X43526Y4126D01*
G01X43412Y4118D01*
G01X43354Y4115D01*
G01X43297Y4112D01*
G01X43183Y4108D01*
G01X43126Y4107D01*
G01X43011Y4106D01*
G01X42954Y4106D01*
G01X42897Y4107D01*
G01X42840Y4109D01*
G01X42782Y4111D01*
G01X42725Y4113D01*
G01X42668Y4116D01*
G01X42554Y4124D01*
G01X42497Y4129D01*
G01X42383Y4140D01*
G01X42327Y4147D01*
G01X42213Y4161D01*
G01X42156Y4169D01*
G01X42099Y4178D01*
G01X42043Y4187D01*
G01X41986Y4197D01*
G01X41930Y4207D01*
G01X41873Y4217D01*
G01X41705Y4253D01*
G01X41649Y4266D01*
G01X41537Y4293D01*
G01X41425Y4323D01*
G01X41370Y4338D01*
G01X41314Y4355D01*
G01X41259Y4371D01*
G01X41203Y4389D01*
G01X41149Y4406D01*
G01X41093Y4425D01*
G01X41038Y4443D01*
G01X40983Y4463D01*
G01X40929Y4483D01*
G01X40874Y4503D01*
G01X40820Y4524D01*
G01X40711Y4568D01*
G01X40603Y4614D01*
G01X40550Y4638D01*
G01X40442Y4686D01*
G01X40283Y4764D01*
G01X40177Y4818D01*
G01X40125Y4846D01*
G01X40072Y4875D01*
G01X40020Y4904D01*
G01X39916Y4964D01*
G01X39865Y4995D01*
G01X39813Y5026D01*
G01X39711Y5090D01*
G01X39609Y5156D01*
G01X39558Y5190D01*
G01X39408Y5295D01*
G01X39358Y5331D01*
G01X39260Y5405D01*
G01X39113Y5519D01*
G01X39065Y5559D01*
G01X38660Y5891D01*
G01X38464Y5691D01*
G01X38268Y5490D01*
G01X38541Y5255D01*
G01X38583Y5219D01*
G01X38625Y5184D01*
G01X38666Y5149D01*
G01X38709Y5114D01*
G01X38793Y5046D01*
G01X38877Y4980D01*
G01X38920Y4947D01*
G01X38962Y4915D01*
G01X39047Y4852D01*
G01X39133Y4790D01*
G01X39218Y4731D01*
G01X39261Y4701D01*
G01X39304Y4672D01*
G01X39476Y4560D01*
G01X39563Y4506D01*
G01X39606Y4481D01*
G01X39649Y4455D01*
G01X39693Y4429D01*
G01X39779Y4379D01*
G01X39823Y4355D01*
G01X39866Y4331D01*
G01X39954Y4284D01*
G01X39997Y4261D01*
G01X40085Y4216D01*
G01X40128Y4195D01*
G01X40173Y4173D01*
G01X40216Y4152D01*
G01X40392Y4072D01*
G01X40436Y4053D01*
G01X40524Y4016D01*
G01X40612Y3980D01*
G01X40700Y3946D01*
G01X40833Y3897D01*
G01X40921Y3866D01*
G01X41010Y3837D01*
G01X41054Y3823D01*
G01X41099Y3809D01*
G01X41187Y3783D01*
G01X41276Y3757D01*
G01X41320Y3745D01*
G01X41409Y3722D01*
G01X41453Y3711D01*
G01X41498Y3700D01*
G01X41586Y3680D01*
G01X41631Y3670D01*
G01X41763Y3643D01*
G01X41807Y3635D01*
G01X41852Y3627D01*
G01X41940Y3612D01*
G01X41985Y3605D01*
G01X42029Y3598D01*
G01X42117Y3586D01*
G01X42206Y3575D01*
G01X42250Y3570D01*
G01X42338Y3561D01*
G01X42427Y3552D01*
G01X42515Y3546D01*
G01X42603Y3541D01*
G01X42647Y3538D01*
G01X42691Y3537D01*
G01X42778Y3534D01*
G01X42822Y3533D01*
G01X42910Y3532D01*
G01X42953Y3532D01*
G01X43085Y3533D01*
G01X43128Y3535D01*
G01X43172Y3536D01*
G01X43215Y3538D01*
G01X43259Y3540D01*
G01X43302Y3542D01*
G01X43346Y3545D01*
G01X43475Y3554D01*
G01X43605Y3567D01*
G01X43648Y3572D01*
G01X43691Y3576D01*
G01X43734Y3582D01*
G01X43819Y3593D01*
G01X43862Y3599D01*
G01X43947Y3612D01*
G01X44032Y3627D01*
G01X44075Y3634D01*
G01X44159Y3650D01*
G01X44286Y3676D01*
G01X44328Y3685D01*
G01X44370Y3695D01*
G01X44411Y3704D01*
G01X44454Y3715D01*
G01X44537Y3735D01*
G01X44579Y3746D01*
G01X44661Y3768D01*
G01X44744Y3792D01*
G01X44826Y3816D01*
G01X44990Y3868D01*
G01X45030Y3882D01*
G01X45071Y3896D01*
G01X45111Y3910D01*
G01X45152Y3924D01*
G01X45312Y3984D01*
G01X45392Y4016D01*
G01X45471Y4048D01*
G01X45510Y4065D01*
G01X45550Y4082D01*
G01X45628Y4116D01*
G01X45784Y4188D01*
G01X45899Y4244D01*
G01X45976Y4283D01*
G01X46014Y4303D01*
G01X46051Y4323D01*
G01X46089Y4343D01*
G01X46165Y4384D01*
G01X46202Y4404D01*
G01X46239Y4425D01*
G01X46276Y4447D01*
G01X46313Y4468D01*
G01X46387Y4512D01*
G01X46497Y4579D01*
G01X46569Y4624D01*
G01X46641Y4671D01*
G01X46677Y4694D01*
G01X46712Y4718D01*
G01X46748Y4743D01*
G01X46818Y4791D01*
G01X46923Y4866D01*
G01X46957Y4891D01*
G01X46992Y4916D01*
G01X47162Y5046D01*
G01X47195Y5073D01*
G01X47229Y5100D01*
G01X47295Y5154D01*
G01X47328Y5182D01*
G01X47360Y5209D01*
G01X47458Y5293D01*
G01X47522Y5350D01*
G01X47648Y5466D01*
G01X47710Y5525D01*
G01X47801Y5614D01*
G01X47831Y5645D01*
G01X47862Y5675D01*
G01X47891Y5706D01*
G01X47951Y5768D01*
G01X48009Y5830D01*
G01X48038Y5862D01*
G01X48095Y5925D01*
G01X48123Y5957D01*
G01X48152Y5989D01*
G01X48180Y6021D01*
G01X48208Y6054D01*
G01X48235Y6086D01*
G01X48263Y6119D01*
G01X48344Y6218D01*
G01X48423Y6319D01*
G01X48475Y6387D01*
G01X48500Y6421D01*
G01X48526Y6455D01*
G01X48551Y6490D01*
G01X48601Y6559D01*
G01X48626Y6594D01*
G01X48698Y6699D01*
G01X48722Y6735D01*
G01X48769Y6806D01*
G01X48838Y6914D01*
G01X48882Y6986D01*
G01X48926Y7059D01*
G01X48947Y7096D01*
G01X48969Y7133D01*
G01X49032Y7244D01*
G01X49052Y7282D01*
G01X49072Y7319D01*
G01X49092Y7357D01*
G01X49112Y7394D01*
G01X49131Y7433D01*
G01X49151Y7470D01*
G01X49169Y7508D01*
G01X49188Y7547D01*
G01X49207Y7585D01*
G01X49225Y7624D01*
G01X49243Y7662D01*
G01X49261Y7701D01*
G01X49296Y7778D01*
G01X49347Y7895D01*
G01X49363Y7935D01*
G01X49379Y7974D01*
G01X49411Y8053D01*
G01X49456Y8173D01*
G01X49470Y8213D01*
G01X49485Y8253D01*
G01X49512Y8333D01*
G01X49526Y8374D01*
G01X49539Y8414D01*
G01X49552Y8455D01*
G01X49565Y8495D01*
G01X49578Y8536D01*
G01X49602Y8618D01*
G01X49625Y8700D01*
G01X49647Y8782D01*
G01X49658Y8824D01*
G01X49668Y8865D01*
G01X49678Y8907D01*
G01X49697Y8990D01*
G01X49724Y9116D01*
G01X49732Y9158D01*
G01X49740Y9199D01*
G01X49756Y9284D01*
G01X49763Y9326D01*
G01X49770Y9369D01*
G01X49776Y9411D01*
G01X49783Y9453D01*
G01X49789Y9496D01*
G01X49795Y9538D01*
G01X49810Y9667D01*
G01X49815Y9709D01*
G01X49819Y9753D01*
G01X49823Y9795D01*
G01X49827Y9838D01*
G01X49830Y9882D01*
G01X49834Y9924D01*
G01X49836Y9967D01*
G01X49839Y10011D01*
G01X49843Y10098D01*
G01X49844Y10141D01*
G01X49846Y10184D01*
G01X49847Y10228D01*
G01X49848Y10271D01*
G01X49848Y10359D01*
G01X49847Y10446D01*
G01X49845Y10533D01*
G01X49837Y10709D01*
G01X49831Y10797D01*
G01X49827Y10841D01*
G01X49824Y10885D01*
G01X49819Y10929D01*
G01X49815Y10973D01*
G01X49805Y11062D01*
G01X49794Y11150D01*
G01X49788Y11194D01*
G01X49781Y11238D01*
G01X49774Y11283D01*
G01X49767Y11327D01*
G01X49760Y11372D01*
G01X49744Y11460D01*
G01X49735Y11505D01*
G01X49727Y11549D01*
G01X49717Y11594D01*
G01X49708Y11638D01*
G01X49698Y11683D01*
G01X49687Y11727D01*
G01X49677Y11772D01*
G01X49666Y11816D01*
G01X49655Y11861D01*
G01X49643Y11905D01*
G01X49631Y11950D01*
G01X49619Y11994D01*
G01X49606Y12039D01*
G01X49593Y12083D01*
G01X49580Y12128D01*
G01X49566Y12173D01*
G01X49552Y12217D01*
G01X49538Y12262D01*
G01X49522Y12306D01*
G01X49508Y12351D01*
G01X49492Y12395D01*
G01X49476Y12440D01*
G01X49459Y12485D01*
G01X49443Y12529D01*
G01X49409Y12618D01*
G01X49391Y12662D01*
G01X49373Y12707D01*
G01X49354Y12751D01*
G01X49335Y12796D01*
G01X49316Y12840D01*
G01X49296Y12885D01*
G01X49277Y12929D01*
G01X49256Y12974D01*
G01X49214Y13062D01*
G01X49193Y13107D01*
G01X49170Y13151D01*
G01X49149Y13195D01*
G01X49126Y13240D01*
G01X49102Y13284D01*
G01X49079Y13328D01*
G01X49031Y13417D01*
G01X48956Y13549D01*
G01X48904Y13637D01*
G01X48823Y13769D01*
G01X48767Y13857D01*
G01X48709Y13944D01*
G01X48680Y13988D01*
G01X48650Y14032D01*
G01X48620Y14075D01*
G01X48558Y14163D01*
G01X48527Y14206D01*
G01X48495Y14249D01*
G01X48463Y14293D01*
G01X48397Y14379D01*
G01X48363Y14423D01*
G01X48330Y14466D01*
G01X48242Y14577D01*
G01X48164Y14674D01*
G01X48096Y14757D01*
G01X48036Y14828D01*
G01X47985Y14885D01*
G01X47939Y14932D01*
G01X47898Y14966D01*
G01X47862Y14990D01*
G01X47828Y15004D01*
G37*
G36*
G01X46489Y12888D02*
G01X46424Y12888D01*
G01X46358Y12887D01*
G01X46291Y12885D01*
G01X46155Y12877D01*
G01X46086Y12871D01*
G01X45946Y12855D01*
G01X45874Y12845D01*
G01X45813Y12836D01*
G01X45754Y12827D01*
G01X45694Y12816D01*
G01X45634Y12806D01*
G01X45574Y12794D01*
G01X45514Y12783D01*
G01X45455Y12771D01*
G01X45337Y12744D01*
G01X45163Y12702D01*
G01X45105Y12686D01*
G01X44991Y12654D01*
G01X44877Y12619D01*
G01X44820Y12601D01*
G01X44764Y12583D01*
G01X44652Y12545D01*
G01X44597Y12525D01*
G01X44542Y12504D01*
G01X44487Y12484D01*
G01X44378Y12441D01*
G01X44324Y12419D01*
G01X44270Y12396D01*
G01X44163Y12349D01*
G01X44057Y12300D01*
G01X43953Y12250D01*
G01X43849Y12198D01*
G01X43798Y12171D01*
G01X43747Y12143D01*
G01X43697Y12116D01*
G01X43646Y12088D01*
G01X43546Y12030D01*
G01X43497Y12001D01*
G01X43448Y11971D01*
G01X43350Y11910D01*
G01X43254Y11848D01*
G01X43207Y11816D01*
G01X43112Y11751D01*
G01X43066Y11718D01*
G01X42974Y11650D01*
G01X42929Y11616D01*
G01X42883Y11581D01*
G01X42793Y11511D01*
G01X42749Y11475D01*
G01X42706Y11439D01*
G01X42662Y11402D01*
G01X42576Y11328D01*
G01X42450Y11214D01*
G01X42408Y11175D01*
G01X42367Y11136D01*
G01X42327Y11097D01*
G01X42286Y11057D01*
G01X42246Y11017D01*
G01X42207Y10976D01*
G01X42168Y10936D01*
G01X42129Y10895D01*
G01X42090Y10853D01*
G01X42052Y10811D01*
G01X42015Y10769D01*
G01X41940Y10684D01*
G01X41904Y10641D01*
G01X41868Y10597D01*
G01X41832Y10554D01*
G01X41762Y10465D01*
G01X41728Y10421D01*
G01X41660Y10330D01*
G01X41627Y10285D01*
G01X41561Y10193D01*
G01X41529Y10147D01*
G01X41498Y10100D01*
G01X41466Y10053D01*
G01X41435Y10006D01*
G01X41405Y9958D01*
G01X41375Y9911D01*
G01X41345Y9862D01*
G01X41316Y9814D01*
G01X41287Y9765D01*
G01X41231Y9668D01*
G01X41204Y9618D01*
G01X41177Y9569D01*
G01X41151Y9519D01*
G01X41099Y9418D01*
G01X41049Y9317D01*
G01X41001Y9215D01*
G01X40977Y9163D01*
G01X40954Y9111D01*
G01X40888Y8955D01*
G01X40847Y8849D01*
G01X40827Y8797D01*
G01X40807Y8743D01*
G01X40788Y8690D01*
G01X40770Y8636D01*
G01X40751Y8582D01*
G01X40733Y8528D01*
G01X40699Y8420D01*
G01X40667Y8310D01*
G01X40652Y8256D01*
G01X40637Y8200D01*
G01X40623Y8145D01*
G01X40610Y8089D01*
G01X40596Y8034D01*
G01X40584Y7978D01*
G01X40571Y7922D01*
G01X40560Y7866D01*
G01X40548Y7810D01*
G01X40537Y7754D01*
G01X40527Y7697D01*
G01X40518Y7640D01*
G01X40508Y7583D01*
G01X40500Y7527D01*
G01X40492Y7469D01*
G01X40484Y7412D01*
G01X40477Y7354D01*
G01X40470Y7297D01*
G01X40465Y7240D01*
G01X40459Y7182D01*
G01X40454Y7124D01*
G01X40450Y7066D01*
G01X40446Y7007D01*
G01X40442Y6949D01*
G01X40438Y6833D01*
G01X40436Y6774D01*
G01X40434Y6656D01*
G01X40434Y6597D01*
G01X40435Y6538D01*
G01X40436Y6480D01*
G01X40438Y6421D01*
G01X40440Y6361D01*
G01X40446Y6243D01*
G01X40450Y6183D01*
G01X40455Y6123D01*
G01X40465Y6005D01*
G01X40472Y5945D01*
G01X40478Y5885D01*
G01X40494Y5765D01*
G01X40503Y5705D01*
G01X40590Y5122D01*
G01X41027Y4944D01*
G01X41100Y4916D01*
G01X41173Y4891D01*
G01X41246Y4868D01*
G01X41318Y4848D01*
G01X41390Y4832D01*
G01X41460Y4817D01*
G01X41531Y4806D01*
G01X41600Y4797D01*
G01X41667Y4791D01*
G01X41733Y4787D01*
G01X41798Y4786D01*
G01X41860Y4788D01*
G01X41921Y4792D01*
G01X41980Y4799D01*
G01X42036Y4807D01*
G01X42090Y4818D01*
G01X42141Y4832D01*
G01X42190Y4848D01*
G01X42236Y4866D01*
G01X42278Y4886D01*
G01X42317Y4908D01*
G01X42353Y4933D01*
G01X42385Y4960D01*
G01X42414Y4988D01*
G01X42439Y5019D01*
G01X42460Y5052D01*
G01X42476Y5086D01*
G01X42488Y5123D01*
G01X42495Y5161D01*
G01X42498Y5201D01*
G01X42495Y5243D01*
G01X42488Y5287D01*
G01X42464Y5392D01*
G01X42443Y5490D01*
G01X42423Y5582D01*
G01X42405Y5667D01*
G01X42389Y5746D01*
G01X42374Y5820D01*
G01X42361Y5889D01*
G01X42350Y5954D01*
G01X42340Y6016D01*
G01X42331Y6075D01*
G01X42323Y6132D01*
G01X42316Y6186D01*
G01X42311Y6241D01*
G01X42306Y6294D01*
G01X42303Y6348D01*
G01X42300Y6403D01*
G01X42298Y6459D01*
G01X42296Y6517D01*
G01X42295Y6578D01*
G01X42294Y6641D01*
G01X42295Y6697D01*
G01X42296Y6754D01*
G01X42298Y6811D01*
G01X42300Y6867D01*
G01X42304Y6924D01*
G01X42309Y6980D01*
G01X42321Y7094D01*
G01X42337Y7206D01*
G01X42346Y7263D01*
G01X42357Y7319D01*
G01X42368Y7376D01*
G01X42379Y7432D01*
G01X42392Y7488D01*
G01X42420Y7600D01*
G01X42435Y7656D01*
G01X42451Y7712D01*
G01X42468Y7767D01*
G01X42486Y7823D01*
G01X42504Y7878D01*
G01X42523Y7933D01*
G01X42563Y8043D01*
G01X42585Y8098D01*
G01X42606Y8152D01*
G01X42629Y8206D01*
G01X42677Y8314D01*
G01X42702Y8368D01*
G01X42754Y8474D01*
G01X42781Y8527D01*
G01X42837Y8631D01*
G01X42895Y8735D01*
G01X42925Y8786D01*
G01X42956Y8837D01*
G01X42987Y8887D01*
G01X43019Y8938D01*
G01X43051Y8988D01*
G01X43085Y9037D01*
G01X43118Y9087D01*
G01X43187Y9184D01*
G01X43258Y9280D01*
G01X43294Y9327D01*
G01X43331Y9374D01*
G01X43368Y9420D01*
G01X43407Y9466D01*
G01X43445Y9511D01*
G01X43484Y9557D01*
G01X43523Y9601D01*
G01X43603Y9689D01*
G01X43684Y9774D01*
G01X43767Y9857D01*
G01X43809Y9898D01*
G01X43852Y9939D01*
G01X43895Y9979D01*
G01X43938Y10018D01*
G01X44026Y10094D01*
G01X44071Y10132D01*
G01X44115Y10169D01*
G01X44206Y10241D01*
G01X44251Y10276D01*
G01X44344Y10344D01*
G01X44391Y10377D01*
G01X44484Y10441D01*
G01X44532Y10472D01*
G01X44579Y10503D01*
G01X44675Y10561D01*
G01X44723Y10589D01*
G01X44772Y10617D01*
G01X44820Y10644D01*
G01X44869Y10670D01*
G01X44918Y10694D01*
G01X44967Y10719D01*
G01X45016Y10743D01*
G01X45066Y10766D01*
G01X45115Y10787D01*
G01X45165Y10809D01*
G01X45216Y10829D01*
G01X45265Y10848D01*
G01X45316Y10867D01*
G01X45365Y10885D01*
G01X45416Y10902D01*
G01X45466Y10918D01*
G01X45517Y10933D01*
G01X45617Y10961D01*
G01X45668Y10973D01*
G01X45718Y10985D01*
G01X45769Y10996D01*
G01X45820Y11005D01*
G01X45870Y11014D01*
G01X45921Y11022D01*
G01X45971Y11029D01*
G01X46022Y11035D01*
G01X46073Y11040D01*
G01X46123Y11043D01*
G01X46174Y11046D01*
G01X46224Y11049D01*
G01X46274Y11050D01*
G01X46325Y11049D01*
G01X46375Y11048D01*
G01X46425Y11045D01*
G01X46474Y11042D01*
G01X46524Y11038D01*
G01X46574Y11032D01*
G01X46634Y11024D01*
G01X46689Y11013D01*
G01X46739Y11000D01*
G01X46782Y10986D01*
G01X46821Y10970D01*
G01X46853Y10952D01*
G01X46881Y10933D01*
G01X46904Y10912D01*
G01X46921Y10891D01*
G01X46934Y10868D01*
G01X46941Y10844D01*
G01X46943Y10820D01*
G01X46941Y10795D01*
G01X46934Y10769D01*
G01X46923Y10743D01*
G01X46907Y10716D01*
G01X46886Y10689D01*
G01X46861Y10662D01*
G01X46832Y10635D01*
G01X46798Y10608D01*
G01X46761Y10581D01*
G01X46719Y10555D01*
G01X46674Y10529D01*
G01X46624Y10503D01*
G01X46571Y10479D01*
G01X46514Y10455D01*
G01X46454Y10432D01*
G01X46389Y10410D01*
G01X46321Y10390D01*
G01X46250Y10370D01*
G01X46176Y10352D01*
G01X46098Y10336D01*
G01X46042Y10324D01*
G01X45985Y10312D01*
G01X45873Y10284D01*
G01X45818Y10269D01*
G01X45763Y10253D01*
G01X45653Y10219D01*
G01X45600Y10200D01*
G01X45546Y10181D01*
G01X45493Y10162D01*
G01X45440Y10141D01*
G01X45336Y10097D01*
G01X45284Y10074D01*
G01X45233Y10050D01*
G01X45183Y10026D01*
G01X45132Y10000D01*
G01X45082Y9975D01*
G01X44984Y9921D01*
G01X44935Y9893D01*
G01X44887Y9864D01*
G01X44840Y9835D01*
G01X44792Y9805D01*
G01X44745Y9775D01*
G01X44699Y9743D01*
G01X44653Y9712D01*
G01X44563Y9646D01*
G01X44519Y9613D01*
G01X44474Y9579D01*
G01X44388Y9509D01*
G01X44304Y9437D01*
G01X44262Y9400D01*
G01X44181Y9324D01*
G01X44141Y9286D01*
G01X44063Y9208D01*
G01X44024Y9167D01*
G01X43987Y9127D01*
G01X43913Y9045D01*
G01X43841Y8961D01*
G01X43806Y8919D01*
G01X43738Y8833D01*
G01X43705Y8789D01*
G01X43640Y8701D01*
G01X43608Y8656D01*
G01X43577Y8611D01*
G01X43517Y8519D01*
G01X43488Y8473D01*
G01X43460Y8427D01*
G01X43432Y8380D01*
G01X43405Y8333D01*
G01X43378Y8285D01*
G01X43352Y8238D01*
G01X43302Y8142D01*
G01X43278Y8094D01*
G01X43232Y7996D01*
G01X43210Y7948D01*
G01X43189Y7898D01*
G01X43147Y7800D01*
G01X43109Y7700D01*
G01X43092Y7650D01*
G01X43074Y7600D01*
G01X43058Y7550D01*
G01X43042Y7499D01*
G01X43027Y7449D01*
G01X43012Y7398D01*
G01X42998Y7348D01*
G01X42985Y7297D01*
G01X42961Y7195D01*
G01X42950Y7144D01*
G01X42940Y7093D01*
G01X42922Y6991D01*
G01X42914Y6940D01*
G01X42907Y6889D01*
G01X42901Y6838D01*
G01X42895Y6786D01*
G01X42890Y6736D01*
G01X42886Y6685D01*
G01X42883Y6633D01*
G01X42880Y6583D01*
G01X42878Y6532D01*
G01X42877Y6430D01*
G01X42878Y6380D01*
G01X42880Y6329D01*
G01X42882Y6279D01*
G01X42885Y6229D01*
G01X42889Y6179D01*
G01X42894Y6129D01*
G01X42906Y6029D01*
G01X42913Y5980D01*
G01X42921Y5930D01*
G01X42931Y5881D01*
G01X42940Y5832D01*
G01X42951Y5784D01*
G01X42963Y5735D01*
G01X42975Y5687D01*
G01X42988Y5639D01*
G01X43002Y5591D01*
G01X43017Y5544D01*
G01X43033Y5497D01*
G01X43050Y5449D01*
G01X43068Y5403D01*
G01X43087Y5356D01*
G01X43106Y5310D01*
G01X43127Y5264D01*
G01X43148Y5219D01*
G01X43170Y5174D01*
G01X43194Y5129D01*
G01X43218Y5085D01*
G01X43243Y5041D01*
G01X43269Y4997D01*
G01X43296Y4954D01*
G01X43324Y4911D01*
G01X43353Y4869D01*
G01X43413Y4785D01*
G01X43445Y4744D01*
G01X43468Y4721D01*
G01X43496Y4702D01*
G01X43530Y4685D01*
G01X43569Y4673D01*
G01X43613Y4663D01*
G01X43661Y4657D01*
G01X43713Y4653D01*
G01X43768Y4653D01*
G01X43827Y4655D01*
G01X43889Y4659D01*
G01X43953Y4666D01*
G01X44020Y4676D01*
G01X44088Y4688D01*
G01X44157Y4702D01*
G01X44227Y4717D01*
G01X44298Y4735D01*
G01X44369Y4755D01*
G01X44440Y4776D01*
G01X44510Y4799D01*
G01X44580Y4823D01*
G01X44648Y4848D01*
G01X44715Y4875D01*
G01X44779Y4903D01*
G01X44841Y4932D01*
G01X44901Y4962D01*
G01X44956Y4992D01*
G01X45009Y5023D01*
G01X45058Y5054D01*
G01X45102Y5086D01*
G01X45141Y5118D01*
G01X45176Y5150D01*
G01X45205Y5183D01*
G01X45228Y5215D01*
G01X45246Y5247D01*
G01X45256Y5278D01*
G01X45260Y5309D01*
G01X45255Y5320D01*
G01X45242Y5346D01*
G01X45223Y5383D01*
G01X45197Y5433D01*
G01X45165Y5491D01*
G01X45128Y5557D01*
G01X45088Y5630D01*
G01X45045Y5706D01*
G01X45016Y5758D01*
G01X44990Y5811D01*
G01X44965Y5863D01*
G01X44941Y5915D01*
G01X44920Y5968D01*
G01X44900Y6020D01*
G01X44881Y6073D01*
G01X44865Y6126D01*
G01X44850Y6178D01*
G01X44837Y6231D01*
G01X44825Y6283D01*
G01X44815Y6336D01*
G01X44806Y6389D01*
G01X44799Y6441D01*
G01X44794Y6493D01*
G01X44790Y6545D01*
G01X44788Y6597D01*
G01X44787Y6649D01*
G01X44788Y6700D01*
G01X44790Y6751D01*
G01X44793Y6802D01*
G01X44798Y6853D01*
G01X44806Y6903D01*
G01X44814Y6954D01*
G01X44823Y7003D01*
G01X44834Y7053D01*
G01X44846Y7101D01*
G01X44860Y7150D01*
G01X44875Y7198D01*
G01X44892Y7246D01*
G01X44910Y7293D01*
G01X44929Y7340D01*
G01X44950Y7385D01*
G01X44972Y7431D01*
G01X44995Y7476D01*
G01X45019Y7520D01*
G01X45045Y7564D01*
G01X45101Y7650D01*
G01X45131Y7692D01*
G01X45162Y7733D01*
G01X45194Y7773D01*
G01X45227Y7813D01*
G01X45262Y7852D01*
G01X45297Y7890D01*
G01X45334Y7927D01*
G01X45373Y7964D01*
G01X45412Y7999D01*
G01X45452Y8035D01*
G01X45493Y8068D01*
G01X45536Y8101D01*
G01X45580Y8133D01*
G01X45670Y8195D01*
G01X45717Y8224D01*
G01X45765Y8251D01*
G01X45814Y8278D01*
G01X45864Y8304D01*
G01X45916Y8329D01*
G01X45967Y8353D01*
G01X46075Y8397D01*
G01X46130Y8417D01*
G01X46186Y8436D01*
G01X46243Y8454D01*
G01X46301Y8471D01*
G01X46359Y8486D01*
G01X46419Y8500D01*
G01X46479Y8513D01*
G01X46541Y8524D01*
G01X46603Y8534D01*
G01X46666Y8543D01*
G01X46734Y8552D01*
G01X46802Y8563D01*
G01X46869Y8575D01*
G01X46934Y8588D01*
G01X46998Y8602D01*
G01X47062Y8617D01*
G01X47124Y8634D01*
G01X47186Y8652D01*
G01X47246Y8671D01*
G01X47305Y8691D01*
G01X47363Y8712D01*
G01X47420Y8735D01*
G01X47476Y8758D01*
G01X47532Y8783D01*
G01X47585Y8809D01*
G01X47638Y8836D01*
G01X47690Y8864D01*
G01X47740Y8893D01*
G01X47790Y8923D01*
G01X47837Y8955D01*
G01X47885Y8987D01*
G01X47930Y9020D01*
G01X47975Y9055D01*
G01X48019Y9090D01*
G01X48061Y9126D01*
G01X48102Y9164D01*
G01X48142Y9202D01*
G01X48218Y9282D01*
G01X48254Y9323D01*
G01X48289Y9365D01*
G01X48322Y9409D01*
G01X48354Y9453D01*
G01X48385Y9498D01*
G01X48415Y9544D01*
G01X48471Y9638D01*
G01X48521Y9736D01*
G01X48544Y9786D01*
G01X48565Y9837D01*
G01X48586Y9889D01*
G01X48622Y9995D01*
G01X48638Y10050D01*
G01X48653Y10105D01*
G01X48666Y10161D01*
G01X48678Y10217D01*
G01X48688Y10275D01*
G01X48697Y10333D01*
G01X48705Y10392D01*
G01X48710Y10451D01*
G01X48715Y10512D01*
G01X48718Y10573D01*
G01X48719Y10634D01*
G01X48719Y10696D01*
G01X48718Y10761D01*
G01X48715Y10825D01*
G01X48711Y10888D01*
G01X48706Y10950D01*
G01X48699Y11011D01*
G01X48691Y11072D01*
G01X48683Y11132D01*
G01X48673Y11190D01*
G01X48661Y11248D01*
G01X48649Y11305D01*
G01X48635Y11361D01*
G01X48620Y11416D01*
G01X48604Y11470D01*
G01X48587Y11523D01*
G01X48569Y11576D01*
G01X48550Y11627D01*
G01X48529Y11677D01*
G01X48507Y11727D01*
G01X48485Y11775D01*
G01X48461Y11823D01*
G01X48436Y11869D01*
G01X48410Y11915D01*
G01X48382Y11960D01*
G01X48354Y12004D01*
G01X48325Y12047D01*
G01X48295Y12088D01*
G01X48263Y12129D01*
G01X48231Y12169D01*
G01X48197Y12208D01*
G01X48127Y12282D01*
G01X48090Y12318D01*
G01X48053Y12353D01*
G01X48014Y12386D01*
G01X47974Y12419D01*
G01X47933Y12451D01*
G01X47892Y12481D01*
G01X47850Y12511D01*
G01X47806Y12539D01*
G01X47761Y12566D01*
G01X47716Y12592D01*
G01X47669Y12618D01*
G01X47622Y12642D01*
G01X47574Y12665D01*
G01X47524Y12687D01*
G01X47474Y12708D01*
G01X47372Y12746D01*
G01X47319Y12764D01*
G01X47265Y12780D01*
G01X47210Y12795D01*
G01X47155Y12809D01*
G01X47098Y12822D01*
G01X47041Y12834D01*
G01X46983Y12845D01*
G01X46865Y12863D01*
G01X46804Y12870D01*
G01X46743Y12876D01*
G01X46681Y12881D01*
G01X46618Y12884D01*
G01X46554Y12887D01*
G01X46489Y12888D01*
G37*
G36*
G01X45560Y15310D02*
G01X45511Y15311D01*
G01X45459Y15309D01*
G01X45405Y15306D01*
G01X45347Y15300D01*
G01X45287Y15293D01*
G01X45223Y15284D01*
G01X45156Y15273D01*
G01X45085Y15259D01*
G01X45010Y15244D01*
G01X44931Y15227D01*
G01X44847Y15208D01*
G01X44759Y15187D01*
G01X44665Y15164D01*
G01X44567Y15139D01*
G01X44463Y15112D01*
G01X44350Y15082D01*
G01X44238Y15048D01*
G01X44125Y15014D01*
G01X44069Y14996D01*
G01X43957Y14958D01*
G01X43901Y14938D01*
G01X43844Y14918D01*
G01X43789Y14898D01*
G01X43733Y14876D01*
G01X43621Y14833D01*
G01X43566Y14810D01*
G01X43455Y14764D01*
G01X43400Y14740D01*
G01X43345Y14715D01*
G01X43289Y14690D01*
G01X43234Y14665D01*
G01X43125Y14613D01*
G01X43015Y14559D01*
G01X42961Y14532D01*
G01X42907Y14504D01*
G01X42852Y14475D01*
G01X42798Y14447D01*
G01X42744Y14418D01*
G01X42636Y14358D01*
G01X42530Y14297D01*
G01X42423Y14234D01*
G01X42370Y14202D01*
G01X42265Y14137D01*
G01X42108Y14036D01*
G01X42055Y14002D01*
G01X42003Y13967D01*
G01X41952Y13932D01*
G01X41900Y13896D01*
G01X41849Y13861D01*
G01X41798Y13825D01*
G01X41697Y13752D01*
G01X41646Y13714D01*
G01X41596Y13677D01*
G01X41546Y13639D01*
G01X41495Y13601D01*
G01X41446Y13563D01*
G01X41396Y13524D01*
G01X41298Y13446D01*
G01X41250Y13406D01*
G01X41201Y13366D01*
G01X41153Y13325D01*
G01X41104Y13285D01*
G01X41009Y13203D01*
G01X40962Y13162D01*
G01X40914Y13120D01*
G01X40868Y13078D01*
G01X40821Y13036D01*
G01X40728Y12950D01*
G01X40683Y12907D01*
G01X40637Y12864D01*
G01X40547Y12776D01*
G01X40502Y12733D01*
G01X40413Y12644D01*
G01X40369Y12598D01*
G01X40326Y12554D01*
G01X40282Y12508D01*
G01X40239Y12463D01*
G01X40154Y12371D01*
G01X40070Y12279D01*
G01X39906Y12091D01*
G01X39866Y12044D01*
G01X39826Y11996D01*
G01X39787Y11949D01*
G01X39747Y11901D01*
G01X39708Y11853D01*
G01X39670Y11804D01*
G01X39632Y11756D01*
G01X39556Y11659D01*
G01X39519Y11610D01*
G01X39446Y11511D01*
G01X39410Y11462D01*
G01X39375Y11413D01*
G01X39339Y11363D01*
G01X39270Y11263D01*
G01X39236Y11214D01*
G01X39202Y11163D01*
G01X39136Y11063D01*
G01X39103Y11012D01*
G01X39071Y10962D01*
G01X39008Y10860D01*
G01X38946Y10758D01*
G01X38886Y10656D01*
G01X38857Y10605D01*
G01X38800Y10502D01*
G01X38772Y10451D01*
G01X38744Y10399D01*
G01X38717Y10347D01*
G01X38690Y10296D01*
G01X38638Y10192D01*
G01X38588Y10088D01*
G01X38564Y10037D01*
G01X38540Y9985D01*
G01X38471Y9829D01*
G01X38449Y9776D01*
G01X38427Y9725D01*
G01X38406Y9672D01*
G01X38386Y9621D01*
G01X38365Y9568D01*
G01X38308Y9412D01*
G01X38272Y9308D01*
G01X38255Y9256D01*
G01X38239Y9204D01*
G01X38222Y9152D01*
G01X38177Y8996D01*
G01X38163Y8944D01*
G01X38137Y8840D01*
G01X38124Y8789D01*
G01X38101Y8685D01*
G01X38090Y8634D01*
G01X38080Y8582D01*
G01X38071Y8531D01*
G01X38061Y8480D01*
G01X38053Y8428D01*
G01X38045Y8377D01*
G01X38024Y8224D01*
G01X38014Y8122D01*
G01X38009Y8072D01*
G01X38005Y8021D01*
G01X37999Y7921D01*
G01X37997Y7870D01*
G01X37995Y7820D01*
G01X37994Y7770D01*
G01X37994Y7721D01*
G01X37997Y7675D01*
G01X38006Y7627D01*
G01X38019Y7575D01*
G01X38038Y7520D01*
G01X38061Y7464D01*
G01X38088Y7406D01*
G01X38120Y7346D01*
G01X38155Y7286D01*
G01X38193Y7225D01*
G01X38234Y7163D01*
G01X38277Y7102D01*
G01X38323Y7041D01*
G01X38371Y6981D01*
G01X38420Y6923D01*
G01X38470Y6866D01*
G01X38522Y6812D01*
G01X38573Y6760D01*
G01X38625Y6711D01*
G01X38677Y6665D01*
G01X38727Y6623D01*
G01X38778Y6585D01*
G01X38827Y6552D01*
G01X38874Y6523D01*
G01X38920Y6500D01*
G01X38963Y6483D01*
G01X39004Y6471D01*
G01X39042Y6466D01*
G01X39076Y6468D01*
G01X39138Y6478D01*
G01X39203Y6487D01*
G01X39270Y6495D01*
G01X39337Y6501D01*
G01X39403Y6507D01*
G01X39463Y6512D01*
G01X39518Y6515D01*
G01X39565Y6516D01*
G01X39610Y6517D01*
G01X39649Y6521D01*
G01X39681Y6529D01*
G01X39708Y6544D01*
G01X39730Y6567D01*
G01X39748Y6600D01*
G01X39763Y6647D01*
G01X39775Y6708D01*
G01X39787Y6785D01*
G01X39797Y6880D01*
G01X39808Y6996D01*
G01X39820Y7134D01*
G01X39825Y7195D01*
G01X39831Y7257D01*
G01X39837Y7318D01*
G01X39852Y7440D01*
G01X39868Y7561D01*
G01X39886Y7681D01*
G01X39896Y7741D01*
G01X39906Y7800D01*
G01X39917Y7860D01*
G01X39928Y7919D01*
G01X39940Y7979D01*
G01X39952Y8038D01*
G01X39978Y8154D01*
G01X39992Y8213D01*
G01X40020Y8329D01*
G01X40035Y8387D01*
G01X40083Y8558D01*
G01X40117Y8672D01*
G01X40153Y8784D01*
G01X40191Y8896D01*
G01X40231Y9006D01*
G01X40251Y9062D01*
G01X40272Y9117D01*
G01X40293Y9171D01*
G01X40337Y9279D01*
G01X40382Y9387D01*
G01X40478Y9599D01*
G01X40504Y9651D01*
G01X40529Y9703D01*
G01X40555Y9755D01*
G01X40582Y9806D01*
G01X40635Y9909D01*
G01X40663Y9959D01*
G01X40691Y10010D01*
G01X40719Y10060D01*
G01X40777Y10160D01*
G01X40867Y10307D01*
G01X40929Y10403D01*
G01X40961Y10452D01*
G01X40993Y10499D01*
G01X41025Y10547D01*
G01X41091Y10641D01*
G01X41124Y10687D01*
G01X41226Y10825D01*
G01X41296Y10915D01*
G01X41332Y10960D01*
G01X41368Y11004D01*
G01X41441Y11092D01*
G01X41478Y11135D01*
G01X41515Y11179D01*
G01X41591Y11264D01*
G01X41669Y11348D01*
G01X41708Y11389D01*
G01X41747Y11431D01*
G01X41787Y11471D01*
G01X41827Y11512D01*
G01X41868Y11552D01*
G01X41908Y11592D01*
G01X41950Y11631D01*
G01X42033Y11709D01*
G01X42075Y11748D01*
G01X42160Y11824D01*
G01X42204Y11861D01*
G01X42247Y11898D01*
G01X42335Y11971D01*
G01X42379Y12007D01*
G01X42424Y12043D01*
G01X42469Y12078D01*
G01X42515Y12113D01*
G01X42560Y12147D01*
G01X42652Y12215D01*
G01X42698Y12248D01*
G01X42792Y12314D01*
G01X42840Y12346D01*
G01X42887Y12378D01*
G01X42936Y12410D01*
G01X43032Y12472D01*
G01X43130Y12532D01*
G01X43180Y12562D01*
G01X43279Y12620D01*
G01X43329Y12648D01*
G01X43380Y12676D01*
G01X43430Y12704D01*
G01X43533Y12757D01*
G01X43584Y12784D01*
G01X43636Y12810D01*
G01X43741Y12861D01*
G01X43793Y12885D01*
G01X43952Y12957D01*
G01X44060Y13002D01*
G01X44168Y13046D01*
G01X44223Y13067D01*
G01X44277Y13088D01*
G01X44333Y13108D01*
G01X44388Y13129D01*
G01X44443Y13148D01*
G01X44555Y13186D01*
G01X44667Y13222D01*
G01X44781Y13256D01*
G01X44952Y13304D01*
G01X45010Y13319D01*
G01X45126Y13347D01*
G01X45185Y13361D01*
G01X45243Y13374D01*
G01X45302Y13387D01*
G01X45420Y13411D01*
G01X45479Y13422D01*
G01X45598Y13443D01*
G01X45658Y13453D01*
G01X45778Y13471D01*
G01X45899Y13487D01*
G01X46021Y13502D01*
G01X46082Y13508D01*
G01X46144Y13514D01*
G01X46205Y13519D01*
G01X46822Y13571D01*
G01X46822Y14142D01*
G01X46821Y14203D01*
G01X46820Y14260D01*
G01X46818Y14312D01*
G01X46815Y14360D01*
G01X46809Y14405D01*
G01X46802Y14447D01*
G01X46793Y14487D01*
G01X46781Y14524D01*
G01X46766Y14559D01*
G01X46748Y14594D01*
G01X46727Y14627D01*
G01X46701Y14661D01*
G01X46672Y14694D01*
G01X46638Y14728D01*
G01X46600Y14763D01*
G01X46557Y14799D01*
G01X46508Y14837D01*
G01X46454Y14878D01*
G01X46393Y14921D01*
G01X46327Y14967D01*
G01X46254Y15017D01*
G01X46174Y15071D01*
G01X46048Y15155D01*
G01X46010Y15179D01*
G01X45971Y15200D01*
G01X45933Y15220D01*
G01X45895Y15237D01*
G01X45857Y15253D01*
G01X45818Y15267D01*
G01X45778Y15279D01*
G01X45738Y15289D01*
G01X45696Y15297D01*
G01X45652Y15304D01*
G01X45607Y15308D01*
G01X45560Y15310D01*
G37*
G36*
G01X42842Y15961D02*
G01X42725Y15961D01*
G01X42666Y15960D01*
G01X42544Y15954D01*
G01X42482Y15951D01*
G01X42419Y15946D01*
G01X42356Y15940D01*
G01X42292Y15933D01*
G01X42227Y15926D01*
G01X42162Y15918D01*
G01X42097Y15909D01*
G01X42031Y15898D01*
G01X41966Y15887D01*
G01X41900Y15875D01*
G01X41834Y15862D01*
G01X41768Y15848D01*
G01X41702Y15832D01*
G01X41637Y15816D01*
G01X41577Y15801D01*
G01X41518Y15785D01*
G01X41459Y15767D01*
G01X41400Y15750D01*
G01X41342Y15732D01*
G01X41226Y15693D01*
G01X41168Y15673D01*
G01X41110Y15652D01*
G01X40997Y15608D01*
G01X40883Y15562D01*
G01X40827Y15538D01*
G01X40772Y15513D01*
G01X40716Y15488D01*
G01X40606Y15436D01*
G01X40552Y15409D01*
G01X40497Y15381D01*
G01X40443Y15353D01*
G01X40390Y15324D01*
G01X40336Y15295D01*
G01X40283Y15265D01*
G01X40231Y15234D01*
G01X40178Y15203D01*
G01X40075Y15139D01*
G01X40023Y15107D01*
G01X39972Y15074D01*
G01X39922Y15040D01*
G01X39871Y15006D01*
G01X39822Y14971D01*
G01X39723Y14900D01*
G01X39674Y14864D01*
G01X39578Y14790D01*
G01X39531Y14752D01*
G01X39483Y14714D01*
G01X39437Y14676D01*
G01X39390Y14637D01*
G01X39298Y14557D01*
G01X39208Y14475D01*
G01X39164Y14434D01*
G01X39077Y14350D01*
G01X39034Y14308D01*
G01X38992Y14265D01*
G01X38949Y14221D01*
G01X38826Y14089D01*
G01X38786Y14044D01*
G01X38746Y13998D01*
G01X38707Y13953D01*
G01X38668Y13907D01*
G01X38630Y13860D01*
G01X38592Y13814D01*
G01X38555Y13766D01*
G01X38518Y13719D01*
G01X38482Y13671D01*
G01X38445Y13623D01*
G01X38410Y13574D01*
G01X38375Y13526D01*
G01X38341Y13476D01*
G01X38307Y13427D01*
G01X38241Y13327D01*
G01X38209Y13277D01*
G01X38177Y13226D01*
G01X38146Y13175D01*
G01X38116Y13124D01*
G01X38086Y13072D01*
G01X38056Y13021D01*
G01X38027Y12969D01*
G01X37971Y12864D01*
G01X37945Y12811D01*
G01X37918Y12758D01*
G01X37866Y12652D01*
G01X37794Y12490D01*
G01X37771Y12436D01*
G01X37748Y12381D01*
G01X37727Y12327D01*
G01X37706Y12272D01*
G01X37685Y12216D01*
G01X37665Y12162D01*
G01X37646Y12106D01*
G01X37609Y11994D01*
G01X37592Y11939D01*
G01X37575Y11883D01*
G01X37559Y11827D01*
G01X37544Y11770D01*
G01X37530Y11714D01*
G01X37515Y11657D01*
G01X37502Y11601D01*
G01X37489Y11544D01*
G01X37477Y11487D01*
G01X37455Y11373D01*
G01X37446Y11316D01*
G01X37437Y11258D01*
G01X37428Y11201D01*
G01X37420Y11143D01*
G01X37413Y11086D01*
G01X37407Y11028D01*
G01X37401Y10971D01*
G01X37396Y10913D01*
G01X37392Y10855D01*
G01X37388Y10798D01*
G01X37382Y10624D01*
G01X37382Y10508D01*
G01X37383Y10450D01*
G01X37385Y10392D01*
G01X37389Y10312D01*
G01X37394Y10236D01*
G01X37402Y10164D01*
G01X37410Y10097D01*
G01X37420Y10033D01*
G01X37432Y9975D01*
G01X37445Y9920D01*
G01X37458Y9870D01*
G01X37474Y9825D01*
G01X37490Y9785D01*
G01X37507Y9750D01*
G01X37525Y9719D01*
G01X37544Y9693D01*
G01X37564Y9672D01*
G01X37585Y9656D01*
G01X37606Y9645D01*
G01X37628Y9640D01*
G01X37650Y9639D01*
G01X37673Y9644D01*
G01X37696Y9655D01*
G01X37720Y9670D01*
G01X37743Y9691D01*
G01X37767Y9718D01*
G01X37791Y9750D01*
G01X37815Y9788D01*
G01X37839Y9831D01*
G01X37863Y9881D01*
G01X37887Y9936D01*
G01X37937Y10059D01*
G01X37989Y10181D01*
G01X38042Y10302D01*
G01X38069Y10362D01*
G01X38151Y10541D01*
G01X38179Y10599D01*
G01X38236Y10716D01*
G01X38265Y10774D01*
G01X38352Y10945D01*
G01X38412Y11058D01*
G01X38474Y11170D01*
G01X38504Y11225D01*
G01X38599Y11390D01*
G01X38631Y11444D01*
G01X38696Y11551D01*
G01X38729Y11605D01*
G01X38762Y11658D01*
G01X38795Y11710D01*
G01X38829Y11763D01*
G01X38897Y11867D01*
G01X38932Y11918D01*
G01X38967Y11970D01*
G01X39002Y12020D01*
G01X39037Y12071D01*
G01X39073Y12121D01*
G01X39108Y12171D01*
G01X39145Y12221D01*
G01X39218Y12320D01*
G01X39292Y12417D01*
G01X39406Y12561D01*
G01X39483Y12655D01*
G01X39562Y12749D01*
G01X39601Y12795D01*
G01X39641Y12841D01*
G01X39681Y12886D01*
G01X39762Y12977D01*
G01X39803Y13022D01*
G01X39844Y13066D01*
G01X39928Y13154D01*
G01X39970Y13197D01*
G01X40013Y13241D01*
G01X40055Y13284D01*
G01X40142Y13369D01*
G01X40185Y13411D01*
G01X40273Y13495D01*
G01X40363Y13577D01*
G01X40453Y13658D01*
G01X40545Y13738D01*
G01X40591Y13777D01*
G01X40637Y13817D01*
G01X40731Y13895D01*
G01X40779Y13933D01*
G01X40826Y13972D01*
G01X40922Y14047D01*
G01X41069Y14158D01*
G01X41119Y14195D01*
G01X41218Y14267D01*
G01X41268Y14302D01*
G01X41319Y14337D01*
G01X41370Y14373D01*
G01X41473Y14442D01*
G01X41524Y14476D01*
G01X41629Y14544D01*
G01X41682Y14577D01*
G01X41735Y14611D01*
G01X41788Y14643D01*
G01X41896Y14708D01*
G01X42004Y14772D01*
G01X42059Y14804D01*
G01X42114Y14835D01*
G01X42170Y14866D01*
G01X42225Y14896D01*
G01X42282Y14927D01*
G01X42338Y14957D01*
G01X42395Y14987D01*
G01X42566Y15074D01*
G01X42682Y15132D01*
G01X42859Y15216D01*
G01X42918Y15243D01*
G01X43098Y15324D01*
G01X43281Y15402D01*
G01X43343Y15427D01*
G01X43405Y15453D01*
G01X43452Y15473D01*
G01X43495Y15492D01*
G01X43535Y15512D01*
G01X43571Y15532D01*
G01X43603Y15550D01*
G01X43631Y15570D01*
G01X43655Y15588D01*
G01X43677Y15606D01*
G01X43694Y15625D01*
G01X43708Y15642D01*
G01X43719Y15660D01*
G01X43727Y15677D01*
G01X43731Y15694D01*
G01X43732Y15710D01*
G01X43730Y15726D01*
G01X43726Y15742D01*
G01X43718Y15757D01*
G01X43707Y15772D01*
G01X43694Y15786D01*
G01X43678Y15800D01*
G01X43659Y15814D01*
G01X43638Y15826D01*
G01X43614Y15839D01*
G01X43588Y15851D01*
G01X43559Y15862D01*
G01X43528Y15873D01*
G01X43495Y15883D01*
G01X43460Y15893D01*
G01X43423Y15902D01*
G01X43384Y15911D01*
G01X43343Y15919D01*
G01X43255Y15933D01*
G01X43208Y15939D01*
G01X43160Y15944D01*
G01X43110Y15949D01*
G01X43060Y15953D01*
G01X43007Y15956D01*
G01X42953Y15958D01*
G01X42898Y15960D01*
G01X42842Y15961D01*
G37*

%LPD*%
G36*
G01X24300Y18210D02*
G01X24232Y18211D01*
G01X24026Y18209D01*
G01X23957Y18208D01*
G01X23888Y18206D01*
G01X23820Y18204D01*
G01X23751Y18202D01*
G01X23681Y18199D01*
G01X23613Y18196D01*
G01X23544Y18192D01*
G01X23407Y18184D01*
G01X23201Y18169D01*
G01X23132Y18163D01*
G01X22996Y18150D01*
G01X22929Y18143D01*
G01X22861Y18136D01*
G01X22793Y18128D01*
G01X22726Y18121D01*
G01X22659Y18113D01*
G01X22526Y18095D01*
G01X22328Y18068D01*
G01X22263Y18057D01*
G01X22133Y18037D01*
G01X22069Y18025D01*
G01X21942Y18003D01*
G01X21879Y17991D01*
G01X21755Y17967D01*
G01X21693Y17954D01*
G01X21632Y17942D01*
G01X21572Y17928D01*
G01X21512Y17915D01*
G01X21452Y17901D01*
G01X21393Y17888D01*
G01X21335Y17873D01*
G01X21277Y17859D01*
G01X21163Y17830D01*
G01X21053Y17799D01*
G01X20998Y17784D01*
G01X20944Y17768D01*
G01X20891Y17752D01*
G01X20787Y17720D01*
G01X20736Y17703D01*
G01X20686Y17687D01*
G01X20636Y17669D01*
G01X20540Y17635D01*
G01X20493Y17617D01*
G01X20447Y17600D01*
G01X20402Y17581D01*
G01X20358Y17564D01*
G01X20314Y17545D01*
G01X20272Y17527D01*
G01X20230Y17508D01*
G01X20189Y17489D01*
G01X20150Y17471D01*
G01X20111Y17451D01*
G01X20037Y17413D01*
G01X20001Y17393D01*
G01X19967Y17374D01*
G01X19933Y17354D01*
G01X19869Y17314D01*
G01X19839Y17294D01*
G01X19810Y17274D01*
G01X19782Y17253D01*
G01X19755Y17233D01*
G01X19705Y17191D01*
G01X19682Y17170D01*
G01X19660Y17150D01*
G01X19639Y17129D01*
G01X19619Y17107D01*
G01X19601Y17087D01*
G01X19584Y17065D01*
G01X19554Y17023D01*
G01X19541Y17001D01*
G01X19530Y16979D01*
G01X19519Y16958D01*
G01X19510Y16936D01*
G01X19503Y16914D01*
G01X19497Y16893D01*
G01X19492Y16871D01*
G01X19489Y16849D01*
G01X19487Y16827D01*
G01X19487Y16805D01*
G01X19488Y16783D01*
G01X19490Y16761D01*
G01X19495Y16739D01*
G01X19501Y16717D01*
G01X19508Y16694D01*
G01X19517Y16673D01*
G01X19528Y16650D01*
G01X19540Y16628D01*
G01X19553Y16606D01*
G01X19569Y16584D01*
G01X19586Y16562D01*
G01X19605Y16540D01*
G01X19875Y16235D01*
G01X20773Y16611D01*
G01X20835Y16637D01*
G01X20897Y16662D01*
G01X20960Y16687D01*
G01X21084Y16735D01*
G01X21147Y16758D01*
G01X21271Y16804D01*
G01X21333Y16825D01*
G01X21458Y16868D01*
G01X21521Y16888D01*
G01X21583Y16908D01*
G01X21708Y16947D01*
G01X21834Y16983D01*
G01X21959Y17018D01*
G01X22084Y17051D01*
G01X22146Y17066D01*
G01X22272Y17096D01*
G01X22397Y17123D01*
G01X22459Y17136D01*
G01X22522Y17149D01*
G01X22584Y17161D01*
G01X22709Y17184D01*
G01X22772Y17194D01*
G01X22834Y17204D01*
G01X22897Y17214D01*
G01X23022Y17232D01*
G01X23084Y17241D01*
G01X23270Y17262D01*
G01X23333Y17268D01*
G01X23457Y17280D01*
G01X23581Y17289D01*
G01X23705Y17296D01*
G01X23829Y17301D01*
G01X23891Y17302D01*
G01X23953Y17304D01*
G01X24015Y17305D01*
G01X24076Y17306D01*
G01X24199Y17305D01*
G01X24261Y17304D01*
G01X24322Y17302D01*
G01X24384Y17300D01*
G01X24444Y17297D01*
G01X24506Y17294D01*
G01X24567Y17291D01*
G01X24689Y17283D01*
G01X24750Y17278D01*
G01X24811Y17272D01*
G01X24871Y17266D01*
G01X24932Y17260D01*
G01X24993Y17253D01*
G01X25113Y17237D01*
G01X25174Y17229D01*
G01X25234Y17220D01*
G01X25354Y17201D01*
G01X25474Y17180D01*
G01X25534Y17168D01*
G01X25593Y17157D01*
G01X25712Y17131D01*
G01X25771Y17118D01*
G01X25889Y17090D01*
G01X26007Y17060D01*
G01X26066Y17044D01*
G01X26124Y17028D01*
G01X26183Y17011D01*
G01X26241Y16994D01*
G01X26299Y16976D01*
G01X26358Y16959D01*
G01X26416Y16940D01*
G01X26473Y16920D01*
G01X26531Y16901D01*
G01X26588Y16881D01*
G01X26703Y16839D01*
G01X26760Y16817D01*
G01X26817Y16796D01*
G01X26931Y16750D01*
G01X26987Y16726D01*
G01X27043Y16703D01*
G01X27100Y16678D01*
G01X27156Y16653D01*
G01X27212Y16627D01*
G01X27267Y16601D01*
G01X27323Y16575D01*
G01X27415Y16531D01*
G01X27504Y16490D01*
G01X27589Y16451D01*
G01X27670Y16416D01*
G01X27744Y16384D01*
G01X27813Y16356D01*
G01X27873Y16333D01*
G01X27926Y16313D01*
G01X27969Y16299D01*
G01X28002Y16290D01*
G01X28025Y16287D01*
G01X28036Y16290D01*
G01X28048Y16304D01*
G01X28069Y16329D01*
G01X28097Y16363D01*
G01X28133Y16405D01*
G01X28174Y16455D01*
G01X28219Y16509D01*
G01X28268Y16567D01*
G01X28318Y16627D01*
G01X28369Y16688D01*
G01X28415Y16748D01*
G01X28458Y16806D01*
G01X28495Y16859D01*
G01X28525Y16906D01*
G01X28548Y16946D01*
G01X28563Y16978D01*
G01X28568Y16999D01*
G01X28565Y17010D01*
G01X28558Y17023D01*
G01X28545Y17037D01*
G01X28527Y17054D01*
G01X28505Y17071D01*
G01X28479Y17089D01*
G01X28448Y17109D01*
G01X28413Y17130D01*
G01X28375Y17152D01*
G01X28333Y17175D01*
G01X28287Y17200D01*
G01X28238Y17225D01*
G01X28186Y17251D01*
G01X28131Y17277D01*
G01X28074Y17304D01*
G01X28013Y17332D01*
G01X27951Y17360D01*
G01X27886Y17389D01*
G01X27819Y17418D01*
G01X27751Y17447D01*
G01X27680Y17476D01*
G01X27609Y17506D01*
G01X27536Y17536D01*
G01X27461Y17565D01*
G01X27387Y17595D01*
G01X27235Y17653D01*
G01X27082Y17710D01*
G01X27006Y17738D01*
G01X26930Y17765D01*
G01X26853Y17792D01*
G01X26778Y17818D01*
G01X26704Y17842D01*
G01X26630Y17867D01*
G01X26558Y17890D01*
G01X26487Y17913D01*
G01X26417Y17933D01*
G01X26349Y17954D01*
G01X26283Y17973D01*
G01X26219Y17990D01*
G01X26157Y18006D01*
G01X26098Y18020D01*
G01X26042Y18034D01*
G01X25983Y18046D01*
G01X25863Y18070D01*
G01X25802Y18082D01*
G01X25741Y18092D01*
G01X25679Y18103D01*
G01X25617Y18112D01*
G01X25554Y18121D01*
G01X25491Y18131D01*
G01X25364Y18147D01*
G01X25235Y18161D01*
G01X25105Y18173D01*
G01X25039Y18179D01*
G01X24973Y18184D01*
G01X24907Y18188D01*
G01X24841Y18193D01*
G01X24707Y18200D01*
G01X24640Y18202D01*
G01X24572Y18205D01*
G01X24504Y18207D01*
G01X24436Y18208D01*
G01X24368Y18210D01*
G01X24300Y18210D01*
G37*

%LPD*%
G36*
G01X24279Y16594D02*
G01X24091Y16594D01*
G01X24028Y16593D01*
G01X23900Y16589D01*
G01X23837Y16586D01*
G01X23773Y16583D01*
G01X23708Y16580D01*
G01X23644Y16576D01*
G01X23580Y16571D01*
G01X23515Y16566D01*
G01X23451Y16560D01*
G01X23322Y16548D01*
G01X23257Y16541D01*
G01X23192Y16533D01*
G01X23063Y16517D01*
G01X22934Y16499D01*
G01X22806Y16479D01*
G01X22678Y16457D01*
G01X22614Y16445D01*
G01X22551Y16433D01*
G01X22487Y16420D01*
G01X22361Y16394D01*
G01X22236Y16365D01*
G01X22112Y16335D01*
G01X21990Y16303D01*
G01X21929Y16286D01*
G01X21869Y16269D01*
G01X21809Y16251D01*
G01X21750Y16234D01*
G01X21691Y16215D01*
G01X21632Y16197D01*
G01X21516Y16157D01*
G01X21459Y16138D01*
G01X21347Y16096D01*
G01X21292Y16075D01*
G01X21237Y16053D01*
G01X21183Y16030D01*
G01X21129Y16008D01*
G01X21076Y15985D01*
G01X21024Y15961D01*
G01X20918Y15913D01*
G01X20823Y15869D01*
G01X20739Y15829D01*
G01X20664Y15793D01*
G01X20600Y15759D01*
G01X20545Y15728D01*
G01X20498Y15698D01*
G01X20461Y15670D01*
G01X20432Y15642D01*
G01X20410Y15615D01*
G01X20397Y15588D01*
G01X20392Y15561D01*
G01X20393Y15532D01*
G01X20402Y15501D01*
G01X20417Y15469D01*
G01X20438Y15433D01*
G01X20465Y15394D01*
G01X20497Y15353D01*
G01X20535Y15307D01*
G01X20579Y15256D01*
G01X20792Y15004D01*
G01X21603Y15342D01*
G01X21662Y15365D01*
G01X21720Y15389D01*
G01X21778Y15412D01*
G01X21896Y15455D01*
G01X22014Y15497D01*
G01X22074Y15516D01*
G01X22133Y15536D01*
G01X22251Y15572D01*
G01X22311Y15590D01*
G01X22371Y15606D01*
G01X22430Y15623D01*
G01X22550Y15653D01*
G01X22670Y15681D01*
G01X22790Y15707D01*
G01X22850Y15719D01*
G01X22911Y15730D01*
G01X22971Y15741D01*
G01X23031Y15751D01*
G01X23092Y15761D01*
G01X23152Y15770D01*
G01X23213Y15778D01*
G01X23273Y15786D01*
G01X23333Y15793D01*
G01X23394Y15800D01*
G01X23454Y15806D01*
G01X23515Y15812D01*
G01X23575Y15816D01*
G01X23636Y15820D01*
G01X23696Y15824D01*
G01X23757Y15827D01*
G01X23817Y15829D01*
G01X23878Y15831D01*
G01X23998Y15833D01*
G01X24058Y15833D01*
G01X24119Y15832D01*
G01X24179Y15831D01*
G01X24240Y15830D01*
G01X24420Y15821D01*
G01X24480Y15817D01*
G01X24540Y15812D01*
G01X24660Y15800D01*
G01X24719Y15794D01*
G01X24779Y15787D01*
G01X24839Y15779D01*
G01X24898Y15771D01*
G01X24958Y15762D01*
G01X25076Y15742D01*
G01X25135Y15731D01*
G01X25195Y15720D01*
G01X25254Y15708D01*
G01X25312Y15695D01*
G01X25371Y15682D01*
G01X25488Y15654D01*
G01X25604Y15624D01*
G01X25663Y15607D01*
G01X25721Y15591D01*
G01X25778Y15573D01*
G01X25836Y15555D01*
G01X25893Y15537D01*
G01X25950Y15518D01*
G01X26008Y15498D01*
G01X26064Y15478D01*
G01X26121Y15457D01*
G01X26234Y15413D01*
G01X26291Y15390D01*
G01X26346Y15367D01*
G01X27080Y15057D01*
G01X27312Y15322D01*
G01X27333Y15349D01*
G01X27353Y15375D01*
G01X27369Y15402D01*
G01X27383Y15427D01*
G01X27394Y15453D01*
G01X27402Y15479D01*
G01X27408Y15505D01*
G01X27410Y15531D01*
G01X27410Y15556D01*
G01X27408Y15582D01*
G01X27402Y15607D01*
G01X27393Y15633D01*
G01X27383Y15658D01*
G01X27369Y15683D01*
G01X27352Y15708D01*
G01X27332Y15733D01*
G01X27310Y15758D01*
G01X27285Y15783D01*
G01X27257Y15808D01*
G01X27226Y15833D01*
G01X27192Y15858D01*
G01X27156Y15883D01*
G01X27116Y15908D01*
G01X27073Y15933D01*
G01X27028Y15958D01*
G01X26980Y15983D01*
G01X26929Y16008D01*
G01X26875Y16032D01*
G01X26818Y16057D01*
G01X26758Y16083D01*
G01X26695Y16108D01*
G01X26629Y16133D01*
G01X26560Y16158D01*
G01X26488Y16183D01*
G01X26413Y16208D01*
G01X26336Y16234D01*
G01X26254Y16259D01*
G01X26171Y16284D01*
G01X26084Y16310D01*
G01X25994Y16336D01*
G01X25901Y16362D01*
G01X25805Y16388D01*
G01X25706Y16413D01*
G01X25604Y16440D01*
G01X25552Y16453D01*
G01X25500Y16464D01*
G01X25447Y16476D01*
G01X25394Y16487D01*
G01X25285Y16507D01*
G01X25230Y16517D01*
G01X25174Y16525D01*
G01X25118Y16534D01*
G01X25061Y16542D01*
G01X25003Y16549D01*
G01X24945Y16555D01*
G01X24886Y16561D01*
G01X24828Y16567D01*
G01X24769Y16572D01*
G01X24709Y16577D01*
G01X24648Y16581D01*
G01X24588Y16584D01*
G01X24527Y16587D01*
G01X24465Y16590D01*
G01X24404Y16592D01*
G01X24342Y16593D01*
G01X24279Y16594D01*
G37*

%LPD*%
G36*
G01X24197Y15016D02*
G01X24128Y15017D01*
G01X23990Y15015D01*
G01X23921Y15013D01*
G01X23852Y15010D01*
G01X23782Y15007D01*
G01X23712Y15003D01*
G01X23642Y14998D01*
G01X23504Y14986D01*
G01X23297Y14962D01*
G01X23229Y14952D01*
G01X23161Y14943D01*
G01X23094Y14932D01*
G01X23028Y14921D01*
G01X22962Y14909D01*
G01X22897Y14897D01*
G01X22832Y14884D01*
G01X22768Y14871D01*
G01X22705Y14857D01*
G01X22643Y14843D01*
G01X22582Y14828D01*
G01X22522Y14812D01*
G01X22464Y14797D01*
G01X22406Y14780D01*
G01X22349Y14763D01*
G01X22294Y14746D01*
G01X22188Y14710D01*
G01X22137Y14691D01*
G01X22088Y14673D01*
G01X22040Y14653D01*
G01X21993Y14633D01*
G01X21949Y14614D01*
G01X21906Y14593D01*
G01X21865Y14572D01*
G01X21826Y14552D01*
G01X21789Y14530D01*
G01X21754Y14509D01*
G01X21721Y14487D01*
G01X21690Y14465D01*
G01X21661Y14443D01*
G01X21634Y14421D01*
G01X21609Y14398D01*
G01X21587Y14375D01*
G01X21568Y14352D01*
G01X21551Y14329D01*
G01X21536Y14306D01*
G01X21524Y14282D01*
G01X21514Y14259D01*
G01X21508Y14235D01*
G01X21504Y14211D01*
G01X21503Y14187D01*
G01X21504Y14164D01*
G01X21509Y14140D01*
G01X21517Y14116D01*
G01X21528Y14091D01*
G01X21541Y14068D01*
G01X21558Y14044D01*
G01X21730Y13822D01*
G01X22385Y14095D01*
G01X22441Y14118D01*
G01X22498Y14141D01*
G01X22555Y14163D01*
G01X22612Y14183D01*
G01X22670Y14203D01*
G01X22727Y14222D01*
G01X22784Y14240D01*
G01X22900Y14274D01*
G01X23016Y14304D01*
G01X23074Y14318D01*
G01X23132Y14331D01*
G01X23190Y14343D01*
G01X23249Y14354D01*
G01X23307Y14365D01*
G01X23366Y14374D01*
G01X23424Y14383D01*
G01X23483Y14391D01*
G01X23542Y14398D01*
G01X23601Y14404D01*
G01X23660Y14409D01*
G01X23719Y14413D01*
G01X23777Y14417D01*
G01X23836Y14420D01*
G01X23895Y14422D01*
G01X23954Y14423D01*
G01X24013Y14423D01*
G01X24072Y14422D01*
G01X24132Y14421D01*
G01X24190Y14419D01*
G01X24308Y14411D01*
G01X24367Y14406D01*
G01X24427Y14400D01*
G01X24486Y14394D01*
G01X24545Y14386D01*
G01X24603Y14377D01*
G01X24662Y14368D01*
G01X24721Y14358D01*
G01X24780Y14347D01*
G01X24838Y14335D01*
G01X24897Y14323D01*
G01X24956Y14309D01*
G01X25014Y14295D01*
G01X25072Y14279D01*
G01X25131Y14263D01*
G01X25247Y14229D01*
G01X25305Y14210D01*
G01X25421Y14170D01*
G01X25552Y14123D01*
G01X25667Y14082D01*
G01X25768Y14047D01*
G01X25857Y14018D01*
G01X25933Y13994D01*
G01X25999Y13976D01*
G01X26056Y13964D01*
G01X26105Y13957D01*
G01X26147Y13955D01*
G01X26183Y13959D01*
G01X26215Y13967D01*
G01X26243Y13981D01*
G01X26270Y13999D01*
G01X26295Y14022D01*
G01X26322Y14050D01*
G01X26349Y14082D01*
G01X26374Y14113D01*
G01X26396Y14143D01*
G01X26416Y14172D01*
G01X26431Y14201D01*
G01X26444Y14228D01*
G01X26453Y14254D01*
G01X26459Y14280D01*
G01X26461Y14305D01*
G01X26459Y14329D01*
G01X26454Y14353D01*
G01X26444Y14377D01*
G01X26431Y14400D01*
G01X26413Y14423D01*
G01X26391Y14445D01*
G01X26365Y14468D01*
G01X26334Y14491D01*
G01X26299Y14513D01*
G01X26259Y14536D01*
G01X26214Y14559D01*
G01X26165Y14582D01*
G01X26110Y14605D01*
G01X26050Y14628D01*
G01X25985Y14653D01*
G01X25915Y14677D01*
G01X25839Y14703D01*
G01X25758Y14728D01*
G01X25671Y14755D01*
G01X25578Y14782D01*
G01X25480Y14811D01*
G01X25375Y14840D01*
G01X25264Y14871D01*
G01X25148Y14902D01*
G01X25091Y14916D01*
G01X25033Y14930D01*
G01X24974Y14942D01*
G01X24914Y14953D01*
G01X24852Y14964D01*
G01X24790Y14973D01*
G01X24727Y14982D01*
G01X24663Y14990D01*
G01X24533Y15002D01*
G01X24467Y15006D01*
G01X24400Y15010D01*
G01X24333Y15013D01*
G01X24265Y15015D01*
G01X24197Y15016D01*
G37*

%LPD*%
G36*
G01X6178Y13688D02*
G01X6132Y13689D01*
G01X6086Y13684D01*
G01X6042Y13674D01*
G01X5997Y13659D01*
G01X5952Y13638D01*
G01X5907Y13613D01*
G01X5860Y13581D01*
G01X5811Y13544D01*
G01X5759Y13502D01*
G01X5704Y13454D01*
G01X5660Y13412D01*
G01X5621Y13370D01*
G01X5585Y13326D01*
G01X5553Y13282D01*
G01X5526Y13237D01*
G01X5503Y13193D01*
G01X5483Y13148D01*
G01X5468Y13103D01*
G01X5456Y13058D01*
G01X5448Y13013D01*
G01X5445Y12968D01*
G01X5445Y12924D01*
G01X5448Y12880D01*
G01X5456Y12837D01*
G01X5468Y12794D01*
G01X5482Y12753D01*
G01X5501Y12712D01*
G01X5523Y12673D01*
G01X5550Y12634D01*
G01X5579Y12597D01*
G01X5613Y12562D01*
G01X5649Y12528D01*
G01X5690Y12496D01*
G01X5734Y12466D01*
G01X5781Y12438D01*
G01X5832Y12411D01*
G01X5886Y12388D01*
G01X5944Y12366D01*
G01X5998Y12349D01*
G01X6052Y12336D01*
G01X6105Y12326D01*
G01X6157Y12320D01*
G01X6208Y12316D01*
G01X6258Y12316D01*
G01X6306Y12320D01*
G01X6353Y12325D01*
G01X6398Y12334D01*
G01X6442Y12346D01*
G01X6486Y12360D01*
G01X6527Y12376D01*
G01X6566Y12395D01*
G01X6605Y12417D01*
G01X6641Y12440D01*
G01X6676Y12465D01*
G01X6709Y12492D01*
G01X6740Y12521D01*
G01X6769Y12551D01*
G01X6796Y12583D01*
G01X6821Y12616D01*
G01X6844Y12651D01*
G01X6865Y12686D01*
G01X6884Y12723D01*
G01X6900Y12760D01*
G01X6914Y12799D01*
G01X6926Y12837D01*
G01X6935Y12877D01*
G01X6942Y12916D01*
G01X6946Y12957D01*
G01X6948Y12997D01*
G01X6947Y13037D01*
G01X6943Y13077D01*
G01X6937Y13117D01*
G01X6928Y13157D01*
G01X6915Y13196D01*
G01X6900Y13234D01*
G01X6882Y13272D01*
G01X6861Y13309D01*
G01X6837Y13345D01*
G01X6809Y13380D01*
G01X6778Y13414D01*
G01X6744Y13447D01*
G01X6707Y13478D01*
G01X6666Y13508D01*
G01X6622Y13536D01*
G01X6574Y13562D01*
G01X6523Y13586D01*
G01X6455Y13614D01*
G01X6392Y13638D01*
G01X6334Y13658D01*
G01X6279Y13673D01*
G01X6228Y13683D01*
G01X6178Y13688D01*
G37*

%LPC*%
G36*
G01X6316Y12873D02*
G01X6304Y12874D01*
G01X6279Y12844D01*
G01X6236Y12791D01*
G01X6181Y12725D01*
G01X6119Y12651D01*
G01X6076Y12599D01*
G01X6046Y12558D01*
G01X6030Y12527D01*
G01X6026Y12503D01*
G01X6037Y12488D01*
G01X6061Y12478D01*
G01X6099Y12473D01*
G01X6151Y12471D01*
G01X6228Y12487D01*
G01X6286Y12531D01*
G01X6323Y12601D01*
G01X6336Y12694D01*
G01X6333Y12778D01*
G01X6327Y12839D01*
G01X6316Y12873D01*
G37*
G36*
G01X5911Y13379D02*
G01X5898Y13379D01*
G01X5882Y13366D01*
G01X5860Y13341D01*
G01X5834Y13302D01*
G01X5802Y13253D01*
G01X5765Y13190D01*
G01X5737Y13138D01*
G01X5718Y13088D01*
G01X5705Y13038D01*
G01X5700Y12990D01*
G01X5703Y12943D01*
G01X5714Y12896D01*
G01X5732Y12850D01*
G01X5758Y12805D01*
G01X5787Y12760D01*
G01X5813Y12725D01*
G01X5834Y12702D01*
G01X5852Y12690D01*
G01X5867Y12690D01*
G01X5880Y12703D01*
G01X5890Y12729D01*
G01X5899Y12770D01*
G01X5906Y12826D01*
G01X5912Y12897D01*
G01X5918Y12984D01*
G01X5923Y13089D01*
G01X5926Y13172D01*
G01X5928Y13242D01*
G01X5928Y13297D01*
G01X5925Y13338D01*
G01X5920Y13365D01*
G01X5911Y13379D01*
G37*
G36*
G01X6628Y13205D02*
G01X6620Y13208D01*
G01X6610Y13195D01*
G01X6599Y13166D01*
G01X6583Y13082D01*
G01X6578Y12986D01*
G01X6583Y12890D01*
G01X6599Y12806D01*
G01X6610Y12777D01*
G01X6620Y12765D01*
G01X6628Y12767D01*
G01X6636Y12784D01*
G01X6643Y12816D01*
G01X6648Y12860D01*
G01X6651Y12917D01*
G01X6652Y12986D01*
G01X6651Y13055D01*
G01X6648Y13111D01*
G01X6643Y13156D01*
G01X6636Y13187D01*
G01X6628Y13205D01*
G37*

%LPD*%
G36*
G01X18794Y15264D02*
G01X18731Y15265D01*
G01X18667Y15264D01*
G01X18602Y15264D01*
G01X18535Y15263D01*
G01X18468Y15261D01*
G01X18330Y15257D01*
G01X18187Y15251D01*
G01X18115Y15248D01*
G01X18042Y15244D01*
G01X17967Y15239D01*
G01X17893Y15234D01*
G01X17741Y15224D01*
G01X17587Y15212D01*
G01X17431Y15198D01*
G01X17353Y15190D01*
G01X17274Y15183D01*
G01X17115Y15166D01*
G01X17035Y15158D01*
G01X16956Y15149D01*
G01X16875Y15139D01*
G01X16796Y15129D01*
G01X16715Y15120D01*
G01X16555Y15098D01*
G01X16475Y15088D01*
G01X16396Y15076D01*
G01X16316Y15065D01*
G01X16237Y15054D01*
G01X16158Y15041D01*
G01X16080Y15029D01*
G01X16002Y15016D01*
G01X15924Y15004D01*
G01X15847Y14991D01*
G01X15695Y14965D01*
G01X15619Y14951D01*
G01X15471Y14923D01*
G01X15398Y14909D01*
G01X15254Y14879D01*
G01X15184Y14865D01*
G01X15115Y14849D01*
G01X15046Y14834D01*
G01X14979Y14819D01*
G01X14912Y14803D01*
G01X14847Y14788D01*
G01X14721Y14756D01*
G01X14660Y14740D01*
G01X14600Y14723D01*
G01X14542Y14707D01*
G01X14485Y14690D01*
G01X14429Y14674D01*
G01X14375Y14657D01*
G01X14323Y14640D01*
G01X14272Y14623D01*
G01X14223Y14606D01*
G01X14176Y14589D01*
G01X14131Y14571D01*
G01X14087Y14554D01*
G01X14045Y14537D01*
G01X14006Y14519D01*
G01X13967Y14502D01*
G01X13932Y14484D01*
G01X13898Y14467D01*
G01X13866Y14449D01*
G01X13837Y14431D01*
G01X13810Y14413D01*
G01X13785Y14396D01*
G01X13763Y14378D01*
G01X13742Y14360D01*
G01X13725Y14342D01*
G01X13691Y14305D01*
G01X13659Y14266D01*
G01X13628Y14225D01*
G01X13598Y14183D01*
G01X13570Y14140D01*
G01X13543Y14096D01*
G01X13517Y14050D01*
G01X13493Y14004D01*
G01X13470Y13956D01*
G01X13448Y13907D01*
G01X13428Y13857D01*
G01X13409Y13807D01*
G01X13391Y13755D01*
G01X13375Y13703D01*
G01X13359Y13650D01*
G01X13346Y13596D01*
G01X13333Y13541D01*
G01X13321Y13486D01*
G01X13311Y13431D01*
G01X13301Y13375D01*
G01X13287Y13261D01*
G01X13281Y13203D01*
G01X13277Y13146D01*
G01X13271Y13030D01*
G01X13270Y12971D01*
G01X13270Y12913D01*
G01X13271Y12854D01*
G01X13277Y12738D01*
G01X13281Y12680D01*
G01X13293Y12564D01*
G01X13300Y12506D01*
G01X13309Y12449D01*
G01X13319Y12392D01*
G01X13329Y12336D01*
G01X13341Y12280D01*
G01X13367Y12170D01*
G01X13397Y12062D01*
G01X13431Y11958D01*
G01X13449Y11907D01*
G01X13489Y11807D01*
G01X13510Y11759D01*
G01X13532Y11712D01*
G01X13555Y11666D01*
G01X13578Y11622D01*
G01X13603Y11578D01*
G01X13629Y11536D01*
G01X13655Y11495D01*
G01X13681Y11455D01*
G01X13709Y11417D01*
G01X13738Y11380D01*
G01X13768Y11345D01*
G01X13798Y11311D01*
G01X13829Y11279D01*
G01X13861Y11249D01*
G01X13893Y11220D01*
G01X13927Y11193D01*
G01X13961Y11168D01*
G01X13995Y11146D01*
G01X14031Y11124D01*
G01X14067Y11105D01*
G01X14104Y11088D01*
G01X14141Y11073D01*
G01X14179Y11061D01*
G01X14218Y11050D01*
G01X14258Y11041D01*
G01X14298Y11035D01*
G01X14339Y11032D01*
G01X14380Y11031D01*
G01X14411Y11030D01*
G01X14439Y11027D01*
G01X14465Y11023D01*
G01X14488Y11017D01*
G01X14508Y11008D01*
G01X14526Y10998D01*
G01X14540Y10985D01*
G01X14552Y10970D01*
G01X14561Y10952D01*
G01X14567Y10931D01*
G01X14570Y10908D01*
G01X14570Y10881D01*
G01X14567Y10851D01*
G01X14561Y10818D01*
G01X14552Y10782D01*
G01X14539Y10743D01*
G01X14523Y10700D01*
G01X14504Y10652D01*
G01X14482Y10601D01*
G01X14456Y10547D01*
G01X14427Y10487D01*
G01X14394Y10424D01*
G01X14358Y10356D01*
G01X14318Y10284D01*
G01X14275Y10207D01*
G01X14228Y10125D01*
G01X14177Y10039D01*
G01X14122Y9947D01*
G01X14064Y9850D01*
G01X14003Y9748D01*
G01X13936Y9640D01*
G01X13867Y9527D01*
G01X13812Y9438D01*
G01X13758Y9351D01*
G01X13705Y9265D01*
G01X13654Y9181D01*
G01X13603Y9099D01*
G01X13554Y9019D01*
G01X13507Y8941D01*
G01X13462Y8866D01*
G01X13418Y8794D01*
G01X13376Y8725D01*
G01X13337Y8659D01*
G01X13299Y8596D01*
G01X13263Y8537D01*
G01X13231Y8482D01*
G01X13200Y8431D01*
G01X13173Y8384D01*
G01X13148Y8341D01*
G01X13126Y8303D01*
G01X13107Y8270D01*
G01X13091Y8242D01*
G01X13079Y8219D01*
G01X13070Y8202D01*
G01X13064Y8190D01*
G01X13063Y8184D01*
G01X13068Y8180D01*
G01X13085Y8176D01*
G01X13113Y8173D01*
G01X13150Y8170D01*
G01X13197Y8168D01*
G01X13253Y8166D01*
G01X13317Y8164D01*
G01X13388Y8163D01*
G01X13467Y8163D01*
G01X13552Y8162D01*
G01X13644Y8163D01*
G01X13741Y8163D01*
G01X13843Y8165D01*
G01X13949Y8166D01*
G01X14059Y8169D01*
G01X14172Y8171D01*
G01X15281Y8201D01*
G01X16767Y10619D01*
G01X17851Y10619D01*
G01X17851Y8149D01*
G01X19903Y8149D01*
G01X19903Y11880D01*
G01X19902Y11979D01*
G01X19902Y12174D01*
G01X19901Y12270D01*
G01X19901Y12366D01*
G01X19899Y12554D01*
G01X19899Y12647D01*
G01X19897Y12829D01*
G01X19896Y12918D01*
G01X19895Y13006D01*
G01X19894Y13093D01*
G01X19893Y13179D01*
G01X19892Y13263D01*
G01X19891Y13346D01*
G01X19889Y13508D01*
G01X19887Y13586D01*
G01X19886Y13664D01*
G01X19884Y13739D01*
G01X19883Y13814D01*
G01X19881Y13886D01*
G01X19880Y13957D01*
G01X19878Y14026D01*
G01X19877Y14093D01*
G01X19874Y14159D01*
G01X19873Y14222D01*
G01X19871Y14284D01*
G01X19869Y14344D01*
G01X19867Y14402D01*
G01X19865Y14458D01*
G01X19863Y14512D01*
G01X19861Y14563D01*
G01X19859Y14613D01*
G01X19857Y14660D01*
G01X19855Y14705D01*
G01X19853Y14748D01*
G01X19851Y14789D01*
G01X19849Y14827D01*
G01X19847Y14863D01*
G01X19844Y14896D01*
G01X19842Y14927D01*
G01X19839Y14956D01*
G01X19837Y14981D01*
G01X19835Y15004D01*
G01X19832Y15025D01*
G01X19830Y15043D01*
G01X19828Y15058D01*
G01X19825Y15071D01*
G01X19823Y15080D01*
G01X19820Y15087D01*
G01X19818Y15091D01*
G01X19802Y15104D01*
G01X19783Y15118D01*
G01X19762Y15130D01*
G01X19739Y15142D01*
G01X19714Y15153D01*
G01X19686Y15164D01*
G01X19656Y15174D01*
G01X19624Y15184D01*
G01X19590Y15192D01*
G01X19553Y15201D01*
G01X19515Y15209D01*
G01X19475Y15216D01*
G01X19433Y15223D01*
G01X19389Y15229D01*
G01X19343Y15235D01*
G01X19295Y15240D01*
G01X19246Y15245D01*
G01X19195Y15249D01*
G01X19142Y15253D01*
G01X19088Y15256D01*
G01X19032Y15258D01*
G01X18975Y15261D01*
G01X18916Y15262D01*
G01X18794Y15264D01*
G37*

%LPC*%
G36*
G01X17851Y13706D02*
G01X16672Y13706D01*
G01X16550Y13705D01*
G01X16439Y13704D01*
G01X16337Y13702D01*
G01X16244Y13699D01*
G01X16159Y13695D01*
G01X16082Y13690D01*
G01X16012Y13684D01*
G01X15949Y13677D01*
G01X15891Y13668D01*
G01X15838Y13658D01*
G01X15790Y13646D01*
G01X15745Y13633D01*
G01X15704Y13617D01*
G01X15666Y13600D01*
G01X15630Y13581D01*
G01X15595Y13560D01*
G01X15561Y13537D01*
G01X15527Y13511D01*
G01X15492Y13482D01*
G01X15451Y13446D01*
G01X15411Y13409D01*
G01X15374Y13372D01*
G01X15340Y13335D01*
G01X15308Y13298D01*
G01X15279Y13261D01*
G01X15252Y13224D01*
G01X15228Y13188D01*
G01X15206Y13151D01*
G01X15187Y13115D01*
G01X15169Y13078D01*
G01X15155Y13042D01*
G01X15142Y13006D01*
G01X15132Y12970D01*
G01X15125Y12934D01*
G01X15119Y12899D01*
G01X15116Y12864D01*
G01X15116Y12829D01*
G01X15117Y12794D01*
G01X15121Y12760D01*
G01X15126Y12727D01*
G01X15134Y12693D01*
G01X15144Y12660D01*
G01X15157Y12628D01*
G01X15171Y12596D01*
G01X15187Y12565D01*
G01X15206Y12534D01*
G01X15226Y12503D01*
G01X15249Y12473D01*
G01X15274Y12444D01*
G01X15300Y12416D01*
G01X15328Y12388D01*
G01X15359Y12360D01*
G01X15391Y12334D01*
G01X15426Y12307D01*
G01X15462Y12282D01*
G01X15500Y12258D01*
G01X15540Y12234D01*
G01X15581Y12211D01*
G01X15625Y12189D01*
G01X15670Y12168D01*
G01X15718Y12147D01*
G01X15766Y12128D01*
G01X15817Y12110D01*
G01X15869Y12092D01*
G01X15923Y12075D01*
G01X15978Y12059D01*
G01X16035Y12045D01*
G01X16094Y12031D01*
G01X16154Y12019D01*
G01X16216Y12008D01*
G01X16279Y11997D01*
G01X16344Y11988D01*
G01X16411Y11980D01*
G01X16479Y11973D01*
G01X16549Y11967D01*
G01X16619Y11963D01*
G01X16691Y11959D01*
G01X16765Y11957D01*
G01X17851Y11957D01*
G01X17851Y13706D01*
G37*

%LPD*%
G36*
G01X32444Y15147D02*
G01X30506Y15147D01*
G01X30506Y9693D01*
G01X27542Y9693D01*
G01X27542Y8149D01*
G01X32444Y8149D01*
G01X32444Y15147D01*
G37*

%LPD*%
G36*
G01X10069Y13480D02*
G01X9921Y13482D01*
G01X9770Y13480D01*
G01X9695Y13478D01*
G01X9619Y13475D01*
G01X9469Y13467D01*
G01X9393Y13462D01*
G01X9245Y13450D01*
G01X9172Y13443D01*
G01X9100Y13435D01*
G01X9029Y13426D01*
G01X8959Y13417D01*
G01X8823Y13397D01*
G01X8758Y13386D01*
G01X8694Y13374D01*
G01X8632Y13361D01*
G01X8573Y13348D01*
G01X8516Y13335D01*
G01X8460Y13320D01*
G01X8407Y13305D01*
G01X8358Y13289D01*
G01X8310Y13273D01*
G01X8266Y13256D01*
G01X8225Y13238D01*
G01X8178Y13218D01*
G01X8134Y13197D01*
G01X8091Y13178D01*
G01X8050Y13158D01*
G01X7972Y13119D01*
G01X7934Y13099D01*
G01X7898Y13080D01*
G01X7864Y13060D01*
G01X7831Y13040D01*
G01X7800Y13020D01*
G01X7769Y12999D01*
G01X7740Y12978D01*
G01X7712Y12956D01*
G01X7686Y12934D01*
G01X7660Y12910D01*
G01X7636Y12886D01*
G01X7612Y12861D01*
G01X7590Y12834D01*
G01X7569Y12807D01*
G01X7548Y12778D01*
G01X7529Y12748D01*
G01X7511Y12716D01*
G01X7494Y12683D01*
G01X7477Y12649D01*
G01X7462Y12613D01*
G01X7447Y12575D01*
G01X7433Y12535D01*
G01X7419Y12493D01*
G01X7407Y12449D01*
G01X7395Y12403D01*
G01X7384Y12355D01*
G01X7374Y12304D01*
G01X7364Y12251D01*
G01X7355Y12196D01*
G01X7346Y12138D01*
G01X7338Y12077D01*
G01X7330Y12014D01*
G01X7323Y11948D01*
G01X7317Y11879D01*
G01X7311Y11806D01*
G01X7305Y11731D01*
G01X7299Y11653D01*
G01X7294Y11571D01*
G01X7289Y11486D01*
G01X7285Y11397D01*
G01X7281Y11306D01*
G01X7277Y11210D01*
G01X7273Y11110D01*
G01X7269Y11007D01*
G01X7265Y10900D01*
G01X7262Y10789D01*
G01X7258Y10674D01*
G01X7255Y10554D01*
G01X7252Y10431D01*
G01X7248Y10303D01*
G01X7191Y8149D01*
G01X8147Y8149D01*
G01X8262Y8150D01*
G01X8364Y8152D01*
G01X8454Y8155D01*
G01X8532Y8160D01*
G01X8599Y8165D01*
G01X8656Y8173D01*
G01X8704Y8181D01*
G01X8743Y8193D01*
G01X8775Y8206D01*
G01X8799Y8221D01*
G01X8817Y8239D01*
G01X8830Y8260D01*
G01X8839Y8283D01*
G01X8843Y8310D01*
G01X8844Y8339D01*
G01X8845Y8379D01*
G01X8850Y8411D01*
G01X8860Y8436D01*
G01X8877Y8452D01*
G01X8902Y8460D01*
G01X8937Y8459D01*
G01X8983Y8449D01*
G01X9042Y8430D01*
G01X9117Y8403D01*
G01X9207Y8366D01*
G01X9315Y8319D01*
G01X9443Y8262D01*
G01X9565Y8210D01*
G01X9627Y8186D01*
G01X9688Y8164D01*
G01X9749Y8143D01*
G01X9809Y8123D01*
G01X9870Y8104D01*
G01X9931Y8087D01*
G01X10051Y8057D01*
G01X10111Y8044D01*
G01X10171Y8032D01*
G01X10230Y8021D01*
G01X10289Y8012D01*
G01X10347Y8004D01*
G01X10406Y7997D01*
G01X10464Y7992D01*
G01X10522Y7988D01*
G01X10579Y7985D01*
G01X10636Y7983D01*
G01X10748Y7983D01*
G01X10804Y7985D01*
G01X10859Y7988D01*
G01X10967Y7998D01*
G01X11020Y8005D01*
G01X11073Y8013D01*
G01X11125Y8022D01*
G01X11177Y8032D01*
G01X11227Y8043D01*
G01X11278Y8056D01*
G01X11376Y8084D01*
G01X11424Y8100D01*
G01X11471Y8117D01*
G01X11518Y8135D01*
G01X11564Y8154D01*
G01X11608Y8174D01*
G01X11653Y8195D01*
G01X11696Y8217D01*
G01X11738Y8240D01*
G01X11780Y8265D01*
G01X11821Y8290D01*
G01X11860Y8316D01*
G01X11899Y8343D01*
G01X11937Y8372D01*
G01X11974Y8401D01*
G01X12044Y8463D01*
G01X12078Y8495D01*
G01X12110Y8528D01*
G01X12142Y8562D01*
G01X12172Y8597D01*
G01X12202Y8633D01*
G01X12230Y8671D01*
G01X12257Y8708D01*
G01X12282Y8747D01*
G01X12307Y8787D01*
G01X12330Y8827D01*
G01X12353Y8869D01*
G01X12373Y8911D01*
G01X12393Y8954D01*
G01X12411Y8998D01*
G01X12428Y9043D01*
G01X12443Y9088D01*
G01X12457Y9135D01*
G01X12470Y9182D01*
G01X12481Y9230D01*
G01X12491Y9279D01*
G01X12499Y9328D01*
G01X12506Y9379D01*
G01X12512Y9431D01*
G01X12516Y9482D01*
G01X12518Y9535D01*
G01X12519Y9589D01*
G01X12518Y9639D01*
G01X12516Y9690D01*
G01X12513Y9739D01*
G01X12507Y9788D01*
G01X12501Y9836D01*
G01X12494Y9884D01*
G01X12485Y9931D01*
G01X12474Y9977D01*
G01X12462Y10022D01*
G01X12449Y10067D01*
G01X12434Y10111D01*
G01X12418Y10154D01*
G01X12400Y10197D01*
G01X12381Y10239D01*
G01X12361Y10280D01*
G01X12339Y10321D01*
G01X12315Y10361D01*
G01X12291Y10400D01*
G01X12264Y10439D01*
G01X12237Y10477D01*
G01X12208Y10514D01*
G01X12177Y10551D01*
G01X12145Y10586D01*
G01X12112Y10622D01*
G01X12077Y10656D01*
G01X12041Y10690D01*
G01X12003Y10723D01*
G01X11963Y10756D01*
G01X11923Y10788D01*
G01X11881Y10819D01*
G01X11837Y10849D01*
G01X11792Y10879D01*
G01X11746Y10909D01*
G01X11698Y10937D01*
G01X11598Y10993D01*
G01X11545Y11019D01*
G01X11491Y11045D01*
G01X11436Y11070D01*
G01X11379Y11095D01*
G01X11321Y11119D01*
G01X11261Y11142D01*
G01X11200Y11165D01*
G01X11137Y11187D01*
G01X11073Y11209D01*
G01X11007Y11230D01*
G01X10940Y11250D01*
G01X10871Y11269D01*
G01X10801Y11288D01*
G01X10729Y11307D01*
G01X10656Y11324D01*
G01X10582Y11341D01*
G01X10505Y11358D01*
G01X10428Y11374D01*
G01X10348Y11389D01*
G01X10268Y11403D01*
G01X10102Y11431D01*
G01X10016Y11443D01*
G01X9929Y11455D01*
G01X9060Y11572D01*
G01X9095Y11943D01*
G01X9102Y11995D01*
G01X9114Y12046D01*
G01X9130Y12093D01*
G01X9150Y12139D01*
G01X9173Y12181D01*
G01X9200Y12220D01*
G01X9230Y12258D01*
G01X9263Y12292D01*
G01X9299Y12323D01*
G01X9338Y12352D01*
G01X9379Y12377D01*
G01X9422Y12400D01*
G01X9467Y12421D01*
G01X9513Y12438D01*
G01X9561Y12452D01*
G01X9610Y12464D01*
G01X9660Y12472D01*
G01X9710Y12478D01*
G01X9762Y12481D01*
G01X9813Y12480D01*
G01X9864Y12477D01*
G01X9916Y12470D01*
G01X9966Y12461D01*
G01X10016Y12449D01*
G01X10065Y12433D01*
G01X10113Y12415D01*
G01X10160Y12393D01*
G01X10204Y12368D01*
G01X10247Y12340D01*
G01X10288Y12309D01*
G01X10327Y12275D01*
G01X10363Y12237D01*
G01X10396Y12197D01*
G01X10427Y12153D01*
G01X10454Y12106D01*
G01X10477Y12055D01*
G01X10494Y12022D01*
G01X10515Y11991D01*
G01X10542Y11962D01*
G01X10573Y11934D01*
G01X10608Y11908D01*
G01X10646Y11883D01*
G01X10689Y11859D01*
G01X10735Y11837D01*
G01X10783Y11817D01*
G01X10835Y11799D01*
G01X10889Y11782D01*
G01X10945Y11766D01*
G01X11063Y11740D01*
G01X11125Y11730D01*
G01X11187Y11721D01*
G01X11250Y11713D01*
G01X11313Y11708D01*
G01X11377Y11704D01*
G01X11441Y11702D01*
G01X11504Y11701D01*
G01X11567Y11702D01*
G01X11629Y11705D01*
G01X11689Y11709D01*
G01X11748Y11716D01*
G01X11805Y11723D01*
G01X11861Y11733D01*
G01X11914Y11744D01*
G01X11964Y11757D01*
G01X12012Y11771D01*
G01X12056Y11788D01*
G01X12097Y11805D01*
G01X12134Y11825D01*
G01X12167Y11847D01*
G01X12196Y11870D01*
G01X12219Y11895D01*
G01X12239Y11922D01*
G01X12253Y11951D01*
G01X12262Y11981D01*
G01X12265Y12013D01*
G01X12263Y12066D01*
G01X12259Y12118D01*
G01X12252Y12170D01*
G01X12242Y12222D01*
G01X12230Y12273D01*
G01X12214Y12325D01*
G01X12197Y12375D01*
G01X12177Y12425D01*
G01X12154Y12475D01*
G01X12129Y12524D01*
G01X12102Y12573D01*
G01X12072Y12620D01*
G01X12039Y12667D01*
G01X12005Y12714D01*
G01X11968Y12759D01*
G01X11929Y12804D01*
G01X11888Y12847D01*
G01X11845Y12890D01*
G01X11800Y12932D01*
G01X11753Y12972D01*
G01X11703Y13011D01*
G01X11652Y13050D01*
G01X11599Y13087D01*
G01X11544Y13123D01*
G01X11488Y13157D01*
G01X11430Y13190D01*
G01X11370Y13222D01*
G01X11308Y13252D01*
G01X11245Y13281D01*
G01X11181Y13308D01*
G01X11114Y13333D01*
G01X11046Y13357D01*
G01X11002Y13371D01*
G01X10955Y13384D01*
G01X10905Y13396D01*
G01X10852Y13408D01*
G01X10798Y13418D01*
G01X10740Y13428D01*
G01X10681Y13437D01*
G01X10619Y13445D01*
G01X10556Y13452D01*
G01X10490Y13458D01*
G01X10423Y13464D01*
G01X10355Y13469D01*
G01X10285Y13473D01*
G01X10214Y13476D01*
G01X10142Y13479D01*
G01X10069Y13480D01*
G37*

%LPC*%
G36*
G01X9351Y10499D02*
G01X9297Y10502D01*
G01X9251Y10500D01*
G01X9212Y10494D01*
G01X9179Y10482D01*
G01X9151Y10464D01*
G01X9128Y10442D01*
G01X9110Y10414D01*
G01X9097Y10380D01*
G01X9087Y10340D01*
G01X9079Y10295D01*
G01X9075Y10244D01*
G01X9073Y10186D01*
G01X9072Y10122D01*
G01X9074Y10069D01*
G01X9080Y10016D01*
G01X9090Y9964D01*
G01X9102Y9913D01*
G01X9119Y9863D01*
G01X9138Y9814D01*
G01X9161Y9766D01*
G01X9187Y9720D01*
G01X9216Y9675D01*
G01X9247Y9631D01*
G01X9281Y9590D01*
G01X9317Y9549D01*
G01X9355Y9510D01*
G01X9396Y9473D01*
G01X9439Y9438D01*
G01X9483Y9405D01*
G01X9530Y9374D01*
G01X9577Y9345D01*
G01X9626Y9318D01*
G01X9677Y9293D01*
G01X9728Y9271D01*
G01X9781Y9251D01*
G01X9834Y9234D01*
G01X9888Y9219D01*
G01X9943Y9207D01*
G01X9998Y9198D01*
G01X10053Y9191D01*
G01X10109Y9188D01*
G01X10164Y9187D01*
G01X10219Y9190D01*
G01X10274Y9195D01*
G01X10329Y9204D01*
G01X10383Y9217D01*
G01X10436Y9232D01*
G01X10489Y9252D01*
G01X10541Y9275D01*
G01X10591Y9301D01*
G01X10638Y9329D01*
G01X10678Y9359D01*
G01X10714Y9390D01*
G01X10745Y9422D01*
G01X10772Y9456D01*
G01X10793Y9490D01*
G01X10810Y9526D01*
G01X10822Y9562D01*
G01X10830Y9599D01*
G01X10834Y9637D01*
G01X10832Y9674D01*
G01X10827Y9712D01*
G01X10817Y9751D01*
G01X10803Y9790D01*
G01X10784Y9828D01*
G01X10762Y9867D01*
G01X10735Y9905D01*
G01X10705Y9943D01*
G01X10670Y9981D01*
G01X10631Y10018D01*
G01X10589Y10054D01*
G01X10543Y10089D01*
G01X10493Y10124D01*
G01X10440Y10157D01*
G01X10383Y10190D01*
G01X10322Y10221D01*
G01X10258Y10251D01*
G01X10190Y10279D01*
G01X10120Y10306D01*
G01X10046Y10332D01*
G01X9968Y10355D01*
G01X9850Y10388D01*
G01X9743Y10417D01*
G01X9646Y10442D01*
G01X9559Y10463D01*
G01X9481Y10480D01*
G01X9412Y10492D01*
G01X9351Y10499D01*
G37*

%LPD*%
G36*
G01X24062Y13505D02*
G01X23952Y13507D01*
G01X23842Y13505D01*
G01X23787Y13503D01*
G01X23733Y13500D01*
G01X23679Y13496D01*
G01X23625Y13491D01*
G01X23572Y13486D01*
G01X23518Y13479D01*
G01X23466Y13472D01*
G01X23413Y13465D01*
G01X23360Y13456D01*
G01X23309Y13446D01*
G01X23257Y13436D01*
G01X23155Y13414D01*
G01X23104Y13401D01*
G01X23054Y13388D01*
G01X23004Y13374D01*
G01X22954Y13359D01*
G01X22906Y13344D01*
G01X22857Y13328D01*
G01X22809Y13311D01*
G01X22760Y13293D01*
G01X22713Y13276D01*
G01X22666Y13256D01*
G01X22619Y13237D01*
G01X22573Y13217D01*
G01X22527Y13196D01*
G01X22437Y13152D01*
G01X22393Y13129D01*
G01X22305Y13082D01*
G01X22262Y13057D01*
G01X22136Y12979D01*
G01X22055Y12924D01*
G01X22015Y12896D01*
G01X21976Y12867D01*
G01X21898Y12807D01*
G01X21861Y12777D01*
G01X21824Y12745D01*
G01X21787Y12714D01*
G01X21751Y12682D01*
G01X21715Y12649D01*
G01X21681Y12616D01*
G01X21646Y12582D01*
G01X21613Y12548D01*
G01X21547Y12478D01*
G01X21516Y12442D01*
G01X21485Y12405D01*
G01X21454Y12369D01*
G01X21424Y12332D01*
G01X21395Y12294D01*
G01X21367Y12256D01*
G01X21339Y12217D01*
G01X21312Y12178D01*
G01X21260Y12100D01*
G01X21235Y12059D01*
G01X21211Y12019D01*
G01X21187Y11978D01*
G01X21164Y11936D01*
G01X21142Y11894D01*
G01X21121Y11852D01*
G01X21100Y11809D01*
G01X21080Y11767D01*
G01X21062Y11724D01*
G01X21043Y11680D01*
G01X21009Y11592D01*
G01X20993Y11547D01*
G01X20978Y11502D01*
G01X20964Y11457D01*
G01X20950Y11411D01*
G01X20926Y11319D01*
G01X20915Y11273D01*
G01X20905Y11226D01*
G01X20887Y11132D01*
G01X20879Y11084D01*
G01X20867Y10988D01*
G01X20862Y10940D01*
G01X20858Y10892D01*
G01X20855Y10843D01*
G01X20853Y10793D01*
G01X20852Y10745D01*
G01X20851Y10695D01*
G01X20852Y10646D01*
G01X20856Y10546D01*
G01X20864Y10446D01*
G01X20876Y10344D01*
G01X20883Y10294D01*
G01X20892Y10242D01*
G01X20901Y10192D01*
G01X20912Y10140D01*
G01X20923Y10089D01*
G01X20936Y10038D01*
G01X20949Y9986D01*
G01X20964Y9934D01*
G01X20979Y9883D01*
G01X21013Y9779D01*
G01X21032Y9727D01*
G01X21052Y9675D01*
G01X21073Y9623D01*
G01X21095Y9571D01*
G01X21119Y9518D01*
G01X21142Y9467D01*
G01X21165Y9420D01*
G01X21213Y9330D01*
G01X21238Y9287D01*
G01X21292Y9201D01*
G01X21350Y9119D01*
G01X21380Y9078D01*
G01X21411Y9039D01*
G01X21443Y9000D01*
G01X21509Y8924D01*
G01X21544Y8887D01*
G01X21579Y8851D01*
G01X21615Y8816D01*
G01X21651Y8782D01*
G01X21689Y8748D01*
G01X21727Y8715D01*
G01X21766Y8682D01*
G01X21806Y8650D01*
G01X21846Y8619D01*
G01X21887Y8589D01*
G01X21929Y8559D01*
G01X21971Y8531D01*
G01X22014Y8502D01*
G01X22057Y8475D01*
G01X22102Y8449D01*
G01X22146Y8423D01*
G01X22191Y8397D01*
G01X22283Y8349D01*
G01X22331Y8326D01*
G01X22378Y8303D01*
G01X22474Y8261D01*
G01X22523Y8241D01*
G01X22571Y8221D01*
G01X22621Y8203D01*
G01X22671Y8184D01*
G01X22721Y8167D01*
G01X22823Y8135D01*
G01X22927Y8105D01*
G01X22978Y8092D01*
G01X23031Y8079D01*
G01X23083Y8067D01*
G01X23136Y8055D01*
G01X23189Y8044D01*
G01X23243Y8035D01*
G01X23296Y8025D01*
G01X23404Y8009D01*
G01X23457Y8002D01*
G01X23512Y7995D01*
G01X23620Y7985D01*
G01X23675Y7981D01*
G01X23729Y7977D01*
G01X23784Y7975D01*
G01X23838Y7973D01*
G01X23948Y7971D01*
G01X24003Y7972D01*
G01X24057Y7973D01*
G01X24112Y7974D01*
G01X24167Y7977D01*
G01X24221Y7980D01*
G01X24275Y7984D01*
G01X24330Y7988D01*
G01X24438Y8000D01*
G01X24492Y8007D01*
G01X24546Y8015D01*
G01X24599Y8023D01*
G01X24653Y8033D01*
G01X24706Y8042D01*
G01X24759Y8053D01*
G01X24811Y8065D01*
G01X24864Y8076D01*
G01X24916Y8089D01*
G01X25020Y8117D01*
G01X25071Y8133D01*
G01X25122Y8148D01*
G01X25222Y8182D01*
G01X25272Y8200D01*
G01X25321Y8219D01*
G01X25371Y8239D01*
G01X25419Y8259D01*
G01X25467Y8280D01*
G01X25515Y8302D01*
G01X25562Y8325D01*
G01X25608Y8348D01*
G01X25655Y8372D01*
G01X25700Y8397D01*
G01X25745Y8423D01*
G01X25789Y8449D01*
G01X25833Y8476D01*
G01X25877Y8504D01*
G01X25919Y8532D01*
G01X25961Y8562D01*
G01X26002Y8592D01*
G01X26043Y8623D01*
G01X26083Y8655D01*
G01X26122Y8687D01*
G01X26161Y8720D01*
G01X26199Y8754D01*
G01X26273Y8824D01*
G01X26308Y8861D01*
G01X26343Y8897D01*
G01X26377Y8935D01*
G01X26410Y8973D01*
G01X26474Y9053D01*
G01X26505Y9094D01*
G01X26534Y9135D01*
G01X26563Y9178D01*
G01X26591Y9220D01*
G01X26618Y9264D01*
G01X26644Y9309D01*
G01X26674Y9362D01*
G01X26702Y9415D01*
G01X26729Y9469D01*
G01X26755Y9523D01*
G01X26780Y9577D01*
G01X26804Y9631D01*
G01X26826Y9685D01*
G01X26847Y9739D01*
G01X26868Y9794D01*
G01X26886Y9849D01*
G01X26904Y9903D01*
G01X26921Y9958D01*
G01X26937Y10013D01*
G01X26951Y10068D01*
G01X26964Y10123D01*
G01X26988Y10233D01*
G01X26997Y10288D01*
G01X27006Y10342D01*
G01X27014Y10397D01*
G01X27021Y10452D01*
G01X27026Y10507D01*
G01X27030Y10562D01*
G01X27034Y10616D01*
G01X27036Y10671D01*
G01X27037Y10725D01*
G01X27037Y10779D01*
G01X27036Y10834D01*
G01X27034Y10887D01*
G01X27031Y10941D01*
G01X27027Y10995D01*
G01X27022Y11048D01*
G01X27008Y11154D01*
G01X27000Y11207D01*
G01X26990Y11259D01*
G01X26980Y11312D01*
G01X26968Y11363D01*
G01X26956Y11415D01*
G01X26943Y11466D01*
G01X26913Y11568D01*
G01X26897Y11618D01*
G01X26861Y11718D01*
G01X26841Y11766D01*
G01X26821Y11815D01*
G01X26800Y11863D01*
G01X26777Y11912D01*
G01X26754Y11959D01*
G01X26730Y12006D01*
G01X26705Y12052D01*
G01X26679Y12098D01*
G01X26652Y12144D01*
G01X26624Y12188D01*
G01X26595Y12233D01*
G01X26565Y12277D01*
G01X26503Y12363D01*
G01X26437Y12447D01*
G01X26403Y12487D01*
G01X26331Y12567D01*
G01X26294Y12606D01*
G01X26256Y12645D01*
G01X26218Y12682D01*
G01X26178Y12719D01*
G01X26138Y12755D01*
G01X26054Y12825D01*
G01X26011Y12860D01*
G01X25967Y12893D01*
G01X25923Y12925D01*
G01X25877Y12957D01*
G01X25831Y12988D01*
G01X25784Y13018D01*
G01X25735Y13046D01*
G01X25687Y13075D01*
G01X25637Y13102D01*
G01X25586Y13129D01*
G01X25535Y13155D01*
G01X25483Y13180D01*
G01X25377Y13226D01*
G01X25322Y13248D01*
G01X25267Y13269D01*
G01X25212Y13289D01*
G01X25153Y13309D01*
G01X25094Y13328D01*
G01X25036Y13346D01*
G01X24977Y13363D01*
G01X24919Y13379D01*
G01X24861Y13394D01*
G01X24803Y13408D01*
G01X24745Y13421D01*
G01X24687Y13433D01*
G01X24629Y13444D01*
G01X24515Y13464D01*
G01X24457Y13472D01*
G01X24400Y13479D01*
G01X24344Y13486D01*
G01X24287Y13491D01*
G01X24231Y13496D01*
G01X24174Y13500D01*
G01X24118Y13503D01*
G01X24062Y13505D01*
G37*

%LPC*%
G36*
G01X24099Y12224D02*
G01X24048Y12225D01*
G01X23996Y12224D01*
G01X23944Y12220D01*
G01X23890Y12214D01*
G01X23836Y12206D01*
G01X23737Y12190D01*
G01X23635Y12177D01*
G01X23542Y12168D01*
G01X23471Y12164D01*
G01X23429Y12162D01*
G01X23387Y12154D01*
G01X23347Y12143D01*
G01X23306Y12129D01*
G01X23267Y12109D01*
G01X23228Y12087D01*
G01X23190Y12060D01*
G01X23153Y12030D01*
G01X23116Y11997D01*
G01X23081Y11961D01*
G01X23046Y11922D01*
G01X23013Y11880D01*
G01X22981Y11835D01*
G01X22950Y11787D01*
G01X22920Y11737D01*
G01X22892Y11685D01*
G01X22865Y11630D01*
G01X22839Y11573D01*
G01X22815Y11514D01*
G01X22792Y11454D01*
G01X22772Y11392D01*
G01X22752Y11328D01*
G01X22735Y11263D01*
G01X22719Y11197D01*
G01X22705Y11129D01*
G01X22693Y11061D01*
G01X22683Y10992D01*
G01X22675Y10922D01*
G01X22665Y10780D01*
G01X22664Y10709D01*
G01X22665Y10638D01*
G01X22668Y10566D01*
G01X22674Y10495D01*
G01X22681Y10425D01*
G01X22692Y10354D01*
G01X22702Y10300D01*
G01X22714Y10246D01*
G01X22727Y10195D01*
G01X22743Y10144D01*
G01X22759Y10094D01*
G01X22778Y10047D01*
G01X22798Y10000D01*
G01X22819Y9955D01*
G01X22842Y9911D01*
G01X22867Y9868D01*
G01X22893Y9827D01*
G01X22919Y9788D01*
G01X22948Y9749D01*
G01X22977Y9712D01*
G01X23008Y9676D01*
G01X23040Y9642D01*
G01X23073Y9609D01*
G01X23106Y9577D01*
G01X23141Y9547D01*
G01X23177Y9518D01*
G01X23214Y9491D01*
G01X23251Y9465D01*
G01X23289Y9441D01*
G01X23328Y9417D01*
G01X23368Y9396D01*
G01X23408Y9376D01*
G01X23449Y9357D01*
G01X23533Y9323D01*
G01X23575Y9309D01*
G01X23618Y9296D01*
G01X23661Y9284D01*
G01X23704Y9275D01*
G01X23748Y9266D01*
G01X23792Y9259D01*
G01X23836Y9253D01*
G01X23880Y9249D01*
G01X23924Y9246D01*
G01X23968Y9245D01*
G01X24013Y9245D01*
G01X24057Y9247D01*
G01X24145Y9255D01*
G01X24188Y9262D01*
G01X24232Y9270D01*
G01X24275Y9280D01*
G01X24317Y9290D01*
G01X24360Y9303D01*
G01X24402Y9317D01*
G01X24443Y9333D01*
G01X24484Y9350D01*
G01X24524Y9369D01*
G01X24563Y9389D01*
G01X24602Y9411D01*
G01X24640Y9435D01*
G01X24678Y9460D01*
G01X24714Y9487D01*
G01X24749Y9515D01*
G01X24784Y9545D01*
G01X24818Y9577D01*
G01X24850Y9610D01*
G01X24882Y9645D01*
G01X24912Y9681D01*
G01X24941Y9720D01*
G01X24969Y9759D01*
G01X24996Y9801D01*
G01X25022Y9844D01*
G01X25045Y9888D01*
G01X25068Y9934D01*
G01X25090Y9983D01*
G01X25109Y10033D01*
G01X25127Y10084D01*
G01X25148Y10147D01*
G01X25166Y10211D01*
G01X25182Y10274D01*
G01X25196Y10338D01*
G01X25208Y10400D01*
G01X25219Y10463D01*
G01X25227Y10525D01*
G01X25233Y10586D01*
G01X25238Y10647D01*
G01X25241Y10708D01*
G01X25242Y10768D01*
G01X25242Y10827D01*
G01X25239Y10886D01*
G01X25235Y10944D01*
G01X25229Y11001D01*
G01X25222Y11057D01*
G01X25213Y11113D01*
G01X25202Y11168D01*
G01X25189Y11222D01*
G01X25175Y11275D01*
G01X25160Y11326D01*
G01X25143Y11378D01*
G01X25124Y11427D01*
G01X25104Y11476D01*
G01X25083Y11523D01*
G01X25060Y11570D01*
G01X25036Y11615D01*
G01X25010Y11659D01*
G01X24983Y11702D01*
G01X24955Y11743D01*
G01X24925Y11783D01*
G01X24895Y11821D01*
G01X24862Y11858D01*
G01X24829Y11894D01*
G01X24794Y11927D01*
G01X24758Y11960D01*
G01X24722Y11990D01*
G01X24684Y12019D01*
G01X24645Y12047D01*
G01X24604Y12072D01*
G01X24563Y12095D01*
G01X24521Y12117D01*
G01X24478Y12137D01*
G01X24434Y12155D01*
G01X24389Y12171D01*
G01X24342Y12185D01*
G01X24296Y12197D01*
G01X24248Y12207D01*
G01X24199Y12215D01*
G01X24149Y12220D01*
G01X24099Y12224D01*
G37*

%LPD*%
G36*
G01X26187Y7554D02*
G01X26141Y7564D01*
G01X26086Y7562D01*
G01X26019Y7548D01*
G01X25939Y7522D01*
G01X25844Y7485D01*
G01X25732Y7436D01*
G01X25679Y7412D01*
G01X25626Y7389D01*
G01X25572Y7367D01*
G01X25517Y7345D01*
G01X25405Y7305D01*
G01X25291Y7267D01*
G01X25233Y7250D01*
G01X25174Y7233D01*
G01X25116Y7218D01*
G01X25056Y7202D01*
G01X24996Y7188D01*
G01X24936Y7175D01*
G01X24875Y7162D01*
G01X24814Y7150D01*
G01X24752Y7139D01*
G01X24691Y7129D01*
G01X24628Y7119D01*
G01X24566Y7110D01*
G01X24503Y7102D01*
G01X24440Y7095D01*
G01X24314Y7083D01*
G01X24250Y7078D01*
G01X24186Y7074D01*
G01X24123Y7071D01*
G01X23995Y7067D01*
G01X23931Y7066D01*
G01X23866Y7066D01*
G01X23738Y7068D01*
G01X23674Y7070D01*
G01X23610Y7073D01*
G01X23546Y7077D01*
G01X23483Y7082D01*
G01X23355Y7094D01*
G01X23292Y7101D01*
G01X23229Y7109D01*
G01X23103Y7127D01*
G01X23041Y7137D01*
G01X22979Y7148D01*
G01X22917Y7160D01*
G01X22856Y7172D01*
G01X22795Y7186D01*
G01X22735Y7200D01*
G01X22675Y7215D01*
G01X22615Y7231D01*
G01X22497Y7265D01*
G01X22438Y7283D01*
G01X22381Y7302D01*
G01X22267Y7342D01*
G01X22211Y7364D01*
G01X22156Y7386D01*
G01X22102Y7409D01*
G01X22029Y7437D01*
G01X21959Y7457D01*
G01X21891Y7472D01*
G01X21826Y7479D01*
G01X21763Y7480D01*
G01X21704Y7475D01*
G01X21649Y7464D01*
G01X21598Y7446D01*
G01X21551Y7423D01*
G01X21509Y7394D01*
G01X21473Y7360D01*
G01X21443Y7320D01*
G01X21418Y7276D01*
G01X21400Y7226D01*
G01X21389Y7171D01*
G01X21385Y7112D01*
G01X21387Y7088D01*
G01X21391Y7065D01*
G01X21397Y7042D01*
G01X21407Y7019D01*
G01X21419Y6997D01*
G01X21433Y6975D01*
G01X21450Y6954D01*
G01X21491Y6913D01*
G01X21515Y6894D01*
G01X21541Y6874D01*
G01X21570Y6855D01*
G01X21600Y6837D01*
G01X21633Y6818D01*
G01X21668Y6801D01*
G01X21704Y6784D01*
G01X21743Y6767D01*
G01X21783Y6751D01*
G01X21825Y6736D01*
G01X21869Y6720D01*
G01X21915Y6706D01*
G01X21963Y6691D01*
G01X22012Y6678D01*
G01X22062Y6664D01*
G01X22114Y6652D01*
G01X22168Y6640D01*
G01X22223Y6628D01*
G01X22279Y6616D01*
G01X22337Y6606D01*
G01X22396Y6595D01*
G01X22456Y6586D01*
G01X22517Y6577D01*
G01X22580Y6568D01*
G01X22643Y6560D01*
G01X22707Y6552D01*
G01X22772Y6545D01*
G01X22839Y6538D01*
G01X22905Y6532D01*
G01X23041Y6522D01*
G01X23110Y6517D01*
G01X23181Y6513D01*
G01X23321Y6507D01*
G01X23393Y6504D01*
G01X23465Y6503D01*
G01X23536Y6502D01*
G01X23609Y6501D01*
G01X23754Y6501D01*
G01X23827Y6502D01*
G01X23973Y6506D01*
G01X24046Y6509D01*
G01X24119Y6513D01*
G01X24191Y6516D01*
G01X24264Y6521D01*
G01X24408Y6531D01*
G01X24552Y6545D01*
G01X24623Y6552D01*
G01X24693Y6560D01*
G01X24763Y6569D01*
G01X24832Y6578D01*
G01X24901Y6588D01*
G01X24969Y6598D01*
G01X25036Y6610D01*
G01X25102Y6621D01*
G01X25168Y6633D01*
G01X25232Y6646D01*
G01X25296Y6660D01*
G01X25359Y6674D01*
G01X25481Y6704D01*
G01X25540Y6720D01*
G01X25598Y6737D01*
G01X25655Y6754D01*
G01X25710Y6773D01*
G01X25764Y6791D01*
G01X25817Y6810D01*
G01X25868Y6830D01*
G01X25918Y6851D01*
G01X25966Y6872D01*
G01X26062Y6917D01*
G01X26147Y6958D01*
G01X26219Y6995D01*
G01X26281Y7030D01*
G01X26332Y7064D01*
G01X26372Y7096D01*
G01X26402Y7127D01*
G01X26422Y7159D01*
G01X26432Y7192D01*
G01X26433Y7226D01*
G01X26425Y7262D01*
G01X26407Y7302D01*
G01X26382Y7345D01*
G01X26349Y7392D01*
G01X26307Y7445D01*
G01X26259Y7503D01*
G01X26226Y7534D01*
G01X26187Y7554D01*
G37*

%LPD*%
G36*
G01X21558Y6083D02*
G01X20834Y6379D01*
G01X20585Y6140D01*
G01X20546Y6102D01*
G01X20513Y6066D01*
G01X20484Y6032D01*
G01X20459Y5999D01*
G01X20439Y5967D01*
G01X20425Y5938D01*
G01X20416Y5908D01*
G01X20412Y5879D01*
G01X20414Y5851D01*
G01X20421Y5823D01*
G01X20434Y5796D01*
G01X20454Y5768D01*
G01X20479Y5740D01*
G01X20510Y5712D01*
G01X20548Y5684D01*
G01X20592Y5655D01*
G01X20644Y5624D01*
G01X20702Y5593D01*
G01X20767Y5560D01*
G01X20839Y5526D01*
G01X20918Y5490D01*
G01X21005Y5452D01*
G01X21099Y5412D01*
G01X21201Y5371D01*
G01X21260Y5347D01*
G01X21378Y5301D01*
G01X21437Y5280D01*
G01X21497Y5258D01*
G01X21556Y5237D01*
G01X21676Y5197D01*
G01X21796Y5159D01*
G01X21857Y5141D01*
G01X21918Y5124D01*
G01X21978Y5107D01*
G01X22039Y5090D01*
G01X22101Y5074D01*
G01X22223Y5044D01*
G01X22284Y5030D01*
G01X22346Y5016D01*
G01X22407Y5003D01*
G01X22469Y4990D01*
G01X22593Y4966D01*
G01X22655Y4955D01*
G01X22779Y4935D01*
G01X22842Y4925D01*
G01X22904Y4916D01*
G01X23029Y4900D01*
G01X23092Y4893D01*
G01X23217Y4880D01*
G01X23280Y4874D01*
G01X23342Y4869D01*
G01X23468Y4861D01*
G01X23531Y4858D01*
G01X23593Y4854D01*
G01X23719Y4850D01*
G01X23782Y4849D01*
G01X23844Y4848D01*
G01X23969Y4848D01*
G01X24095Y4850D01*
G01X24157Y4852D01*
G01X24283Y4858D01*
G01X24345Y4862D01*
G01X24408Y4866D01*
G01X24470Y4870D01*
G01X24595Y4881D01*
G01X24657Y4887D01*
G01X24781Y4902D01*
G01X24905Y4918D01*
G01X24966Y4927D01*
G01X25028Y4937D01*
G01X25089Y4947D01*
G01X25151Y4958D01*
G01X25273Y4980D01*
G01X25334Y4993D01*
G01X25394Y5005D01*
G01X25455Y5019D01*
G01X25576Y5047D01*
G01X25696Y5077D01*
G01X25756Y5094D01*
G01X25875Y5127D01*
G01X25934Y5145D01*
G01X25994Y5163D01*
G01X26052Y5182D01*
G01X26111Y5201D01*
G01X26170Y5221D01*
G01X26228Y5242D01*
G01X26286Y5262D01*
G01X26344Y5284D01*
G01X26401Y5306D01*
G01X26459Y5328D01*
G01X26516Y5352D01*
G01X26573Y5375D01*
G01X26696Y5427D01*
G01X26809Y5475D01*
G01X26912Y5519D01*
G01X27005Y5560D01*
G01X27090Y5597D01*
G01X27164Y5632D01*
G01X27231Y5664D01*
G01X27289Y5694D01*
G01X27339Y5722D01*
G01X27382Y5748D01*
G01X27417Y5773D01*
G01X27445Y5797D01*
G01X27467Y5821D01*
G01X27482Y5844D01*
G01X27491Y5867D01*
G01X27494Y5891D01*
G01X27492Y5915D01*
G01X27485Y5940D01*
G01X27474Y5966D01*
G01X27458Y5994D01*
G01X27438Y6024D01*
G01X27414Y6056D01*
G01X27387Y6090D01*
G01X27357Y6128D01*
G01X27319Y6175D01*
G01X27283Y6218D01*
G01X27251Y6256D01*
G01X27219Y6288D01*
G01X27189Y6315D01*
G01X27158Y6337D01*
G01X27126Y6354D01*
G01X27093Y6366D01*
G01X27056Y6373D01*
G01X27016Y6374D01*
G01X26972Y6370D01*
G01X26923Y6361D01*
G01X26868Y6346D01*
G01X26806Y6327D01*
G01X26736Y6302D01*
G01X26657Y6271D01*
G01X26569Y6236D01*
G01X26471Y6194D01*
G01X26362Y6148D01*
G01X26241Y6096D01*
G01X26123Y6046D01*
G01X26064Y6023D01*
G01X26006Y6000D01*
G01X25946Y5978D01*
G01X25887Y5956D01*
G01X25827Y5935D01*
G01X25768Y5915D01*
G01X25648Y5877D01*
G01X25587Y5858D01*
G01X25467Y5824D01*
G01X25406Y5807D01*
G01X25345Y5792D01*
G01X25285Y5777D01*
G01X25223Y5763D01*
G01X25162Y5749D01*
G01X25101Y5736D01*
G01X25040Y5724D01*
G01X24978Y5712D01*
G01X24917Y5701D01*
G01X24793Y5681D01*
G01X24731Y5672D01*
G01X24670Y5664D01*
G01X24608Y5656D01*
G01X24546Y5649D01*
G01X24483Y5642D01*
G01X24359Y5632D01*
G01X24296Y5627D01*
G01X24171Y5620D01*
G01X24046Y5616D01*
G01X23984Y5615D01*
G01X23921Y5614D01*
G01X23858Y5614D01*
G01X23796Y5615D01*
G01X23670Y5619D01*
G01X23607Y5622D01*
G01X23545Y5625D01*
G01X23482Y5629D01*
G01X23356Y5639D01*
G01X23294Y5645D01*
G01X23231Y5653D01*
G01X23168Y5660D01*
G01X23105Y5668D01*
G01X23043Y5676D01*
G01X22918Y5696D01*
G01X22855Y5706D01*
G01X22730Y5730D01*
G01X22667Y5742D01*
G01X22606Y5756D01*
G01X22543Y5770D01*
G01X22419Y5800D01*
G01X22295Y5832D01*
G01X22233Y5850D01*
G01X22171Y5867D01*
G01X22109Y5886D01*
G01X22047Y5906D01*
G01X21986Y5925D01*
G01X21924Y5946D01*
G01X21863Y5967D01*
G01X21802Y5989D01*
G01X21740Y6012D01*
G01X21618Y6058D01*
G01X21558Y6083D01*
G37*

%LPD*%
G36*
G01X28288Y4911D02*
G01X27989Y5265D01*
G01X27395Y4964D01*
G01X27341Y4937D01*
G01X27286Y4910D01*
G01X27176Y4858D01*
G01X27122Y4833D01*
G01X27066Y4808D01*
G01X27011Y4783D01*
G01X26955Y4759D01*
G01X26787Y4690D01*
G01X26730Y4669D01*
G01X26674Y4647D01*
G01X26560Y4605D01*
G01X26502Y4585D01*
G01X26445Y4565D01*
G01X26388Y4546D01*
G01X26330Y4527D01*
G01X26214Y4491D01*
G01X26097Y4456D01*
G01X26039Y4440D01*
G01X25921Y4408D01*
G01X25803Y4378D01*
G01X25744Y4364D01*
G01X25684Y4351D01*
G01X25625Y4337D01*
G01X25565Y4325D01*
G01X25506Y4312D01*
G01X25446Y4300D01*
G01X25326Y4278D01*
G01X25265Y4267D01*
G01X25205Y4258D01*
G01X25145Y4248D01*
G01X25085Y4239D01*
G01X25024Y4230D01*
G01X24964Y4222D01*
G01X24903Y4214D01*
G01X24842Y4207D01*
G01X24781Y4201D01*
G01X24720Y4194D01*
G01X24598Y4183D01*
G01X24537Y4178D01*
G01X24476Y4174D01*
G01X24414Y4170D01*
G01X24354Y4166D01*
G01X24292Y4163D01*
G01X24231Y4161D01*
G01X24170Y4158D01*
G01X24108Y4157D01*
G01X23985Y4155D01*
G01X23862Y4155D01*
G01X23739Y4157D01*
G01X23677Y4158D01*
G01X23554Y4164D01*
G01X23432Y4170D01*
G01X23309Y4178D01*
G01X23247Y4183D01*
G01X23124Y4195D01*
G01X23001Y4208D01*
G01X22940Y4215D01*
G01X22879Y4223D01*
G01X22817Y4231D01*
G01X22695Y4249D01*
G01X22512Y4279D01*
G01X22451Y4290D01*
G01X22390Y4302D01*
G01X22330Y4313D01*
G01X22208Y4339D01*
G01X22148Y4352D01*
G01X22087Y4366D01*
G01X21966Y4395D01*
G01X21906Y4410D01*
G01X21787Y4442D01*
G01X21667Y4476D01*
G01X21548Y4512D01*
G01X21488Y4530D01*
G01X21370Y4568D01*
G01X21252Y4609D01*
G01X21194Y4630D01*
G01X21135Y4651D01*
G01X21019Y4695D01*
G01X20903Y4741D01*
G01X20845Y4765D01*
G01X20730Y4814D01*
G01X20632Y4856D01*
G01X20543Y4895D01*
G01X20459Y4931D01*
G01X20381Y4963D01*
G01X20309Y4993D01*
G01X20243Y5019D01*
G01X20182Y5041D01*
G01X20126Y5060D01*
G01X20074Y5075D01*
G01X20026Y5087D01*
G01X19982Y5095D01*
G01X19941Y5100D01*
G01X19902Y5101D01*
G01X19867Y5098D01*
G01X19834Y5091D01*
G01X19802Y5081D01*
G01X19772Y5066D01*
G01X19743Y5047D01*
G01X19715Y5025D01*
G01X19688Y4998D01*
G01X19661Y4967D01*
G01X19633Y4932D01*
G01X19604Y4893D01*
G01X19575Y4849D01*
G01X19544Y4802D01*
G01X19511Y4749D01*
G01X19476Y4693D01*
G01X19439Y4631D01*
G01X19426Y4609D01*
G01X19418Y4585D01*
G01X19414Y4561D01*
G01X19413Y4537D01*
G01X19416Y4512D01*
G01X19423Y4487D01*
G01X19434Y4462D01*
G01X19449Y4436D01*
G01X19468Y4410D01*
G01X19491Y4384D01*
G01X19519Y4357D01*
G01X19550Y4329D01*
G01X19586Y4301D01*
G01X19627Y4272D01*
G01X19671Y4242D01*
G01X19720Y4212D01*
G01X19773Y4182D01*
G01X19830Y4150D01*
G01X19892Y4118D01*
G01X19959Y4085D01*
G01X20030Y4051D01*
G01X20106Y4017D01*
G01X20186Y3982D01*
G01X20271Y3946D01*
G01X20361Y3909D01*
G01X20455Y3870D01*
G01X20554Y3832D01*
G01X20658Y3792D01*
G01X20773Y3749D01*
G01X20831Y3728D01*
G01X20888Y3708D01*
G01X20946Y3688D01*
G01X21004Y3669D01*
G01X21063Y3649D01*
G01X21121Y3631D01*
G01X21180Y3612D01*
G01X21238Y3595D01*
G01X21296Y3577D01*
G01X21414Y3543D01*
G01X21532Y3511D01*
G01X21651Y3481D01*
G01X21710Y3467D01*
G01X21770Y3452D01*
G01X21829Y3438D01*
G01X21949Y3412D01*
G01X22069Y3387D01*
G01X22188Y3364D01*
G01X22248Y3353D01*
G01X22309Y3343D01*
G01X22369Y3332D01*
G01X22490Y3313D01*
G01X22611Y3296D01*
G01X22733Y3280D01*
G01X22793Y3273D01*
G01X22915Y3259D01*
G01X22976Y3253D01*
G01X23036Y3248D01*
G01X23097Y3243D01*
G01X23159Y3237D01*
G01X23342Y3225D01*
G01X23464Y3219D01*
G01X23586Y3215D01*
G01X23648Y3213D01*
G01X23770Y3211D01*
G01X23954Y3211D01*
G01X24015Y3212D01*
G01X24077Y3213D01*
G01X24199Y3217D01*
G01X24322Y3222D01*
G01X24383Y3225D01*
G01X24444Y3229D01*
G01X24506Y3233D01*
G01X24567Y3237D01*
G01X24689Y3247D01*
G01X24751Y3253D01*
G01X24873Y3265D01*
G01X24934Y3273D01*
G01X25056Y3287D01*
G01X25178Y3304D01*
G01X25239Y3313D01*
G01X25299Y3322D01*
G01X25360Y3331D01*
G01X25421Y3342D01*
G01X25482Y3352D01*
G01X25543Y3363D01*
G01X25603Y3374D01*
G01X25664Y3386D01*
G01X25724Y3398D01*
G01X25845Y3423D01*
G01X25905Y3437D01*
G01X25965Y3450D01*
G01X26085Y3479D01*
G01X26205Y3509D01*
G01X26265Y3525D01*
G01X26384Y3558D01*
G01X26444Y3574D01*
G01X26503Y3592D01*
G01X26562Y3609D01*
G01X26622Y3628D01*
G01X26681Y3646D01*
G01X26857Y3704D01*
G01X26975Y3744D01*
G01X27092Y3787D01*
G01X27150Y3808D01*
G01X27208Y3831D01*
G01X27266Y3853D01*
G01X27324Y3876D01*
G01X27381Y3899D01*
G01X27496Y3947D01*
G01X27611Y3997D01*
G01X27718Y4044D01*
G01X27818Y4088D01*
G01X27910Y4130D01*
G01X27994Y4168D01*
G01X28072Y4204D01*
G01X28143Y4238D01*
G01X28207Y4270D01*
G01X28264Y4301D01*
G01X28314Y4329D01*
G01X28359Y4357D01*
G01X28398Y4384D01*
G01X28430Y4409D01*
G01X28457Y4435D01*
G01X28478Y4460D01*
G01X28494Y4485D01*
G01X28504Y4510D01*
G01X28510Y4535D01*
G01X28510Y4561D01*
G01X28506Y4588D01*
G01X28498Y4617D01*
G01X28485Y4646D01*
G01X28468Y4677D01*
G01X28447Y4710D01*
G01X28422Y4745D01*
G01X28394Y4783D01*
G01X28362Y4822D01*
G01X28327Y4865D01*
G01X28288Y4911D01*
G37*

%LPD*%
G54D10*
G01X33629Y7493D02*
G01X34213Y7086D01*
G01X34213Y7086D02*
G01X34213Y7899D01*
G01X34213Y7899D02*
G01X33629Y7493D01*
G01X32461Y6705D02*
G01X35153Y6705D01*
G01X35153Y8280D02*
G01X32461Y8280D01*
G01X33553Y6985D02*
G01X33553Y8001D01*
G54D39*
G01X12272Y8236D02*
G01X10952Y8236D01*
G01X10952Y10306D01*
G01X12272Y10306D01*
G01X13404Y8236D02*
G01X14724Y8236D01*
G01X14724Y10306D01*
G01X13404Y10306D01*
G01X26815Y3001D02*
G01X26815Y1681D01*
G01X24745Y1681D01*
G01X24745Y3001D01*
G01X26815Y4133D02*
G01X26815Y5453D01*
G01X24745Y5453D01*
G01X24745Y4133D01*
G01X27413Y4110D02*
G01X27413Y5430D01*
G01X29483Y5430D01*
G01X29483Y4110D01*
G01X27413Y2978D02*
G01X27413Y1658D01*
G01X29483Y1658D01*
G01X29483Y2978D01*
G54D10*
G01X20305Y4681D02*
G01X20305Y4021D01*
G01X20305Y4681D01*
G01X20305Y4021D01*
G01X21120Y4021D01*
G01X21120Y6941D02*
G01X20305Y6941D01*
G01X20305Y6281D01*
G54D45*
G01X21854Y5781D02*
G01X21854Y5181D01*
G54D10*
G01X20284Y1231D02*
G01X20284Y572D01*
G01X20284Y1231D01*
G01X20284Y572D01*
G01X21099Y572D01*
G01X21099Y3491D02*
G01X20284Y3491D01*
G01X20284Y2832D01*
G54D45*
G01X21834Y2331D02*
G01X21834Y1732D01*
G01X15984Y2064D02*
G01X15984Y1414D01*
G01X15334Y1414D01*
G01X11335Y1414D02*
G01X10685Y1414D01*
G01X10685Y2064D01*
G01X10685Y6063D02*
G01X10685Y6713D01*
G01X11335Y6713D01*
G01X15984Y6063D02*
G01X15984Y6713D01*
G01X15334Y6713D01*
G54D46*
G01X50137Y34788D02*
G01X50137Y31925D01*
G01X50137Y31925D02*
G01X48501Y31925D01*
G01X45965Y33834D02*
G01X45965Y31925D01*
G01X45965Y33425D02*
G01X46237Y33697D01*
G01X46510Y33834D01*
G01X46919Y33834D01*
G01X47192Y33697D01*
G01X47465Y33425D01*
G01X47601Y33015D01*
G01X47601Y32743D01*
G01X47465Y32334D01*
G01X47192Y32061D01*
G01X46919Y31925D01*
G01X46510Y31925D01*
G01X46237Y32061D01*
G01X45965Y32334D01*
G01X45065Y33834D02*
G01X45065Y32470D01*
G01X44928Y32061D01*
G01X44656Y31925D01*
G01X44247Y31925D01*
G01X43974Y32061D01*
G01X43565Y32470D01*
G01X43565Y33834D02*
G01X43565Y31925D01*
G01X42665Y33834D02*
G01X42665Y31925D01*
G01X42665Y33015D02*
G01X42528Y33425D01*
G01X42256Y33697D01*
G01X41983Y33834D01*
G01X41574Y33834D01*
G01X39037Y33834D02*
G01X39037Y31925D01*
G01X39037Y33425D02*
G01X39310Y33697D01*
G01X39583Y33834D01*
G01X39992Y33834D01*
G01X40265Y33697D01*
G01X40537Y33425D01*
G01X40674Y33015D01*
G01X40674Y32743D01*
G01X40537Y32334D01*
G01X40265Y32061D01*
G01X39992Y31925D01*
G01X39583Y31925D01*
G01X39310Y32061D01*
G01X39037Y32334D01*
G01X35083Y34788D02*
G01X35083Y31925D01*
G01X36038Y34788D02*
G01X34128Y34788D01*
G01X31592Y33834D02*
G01X31592Y31925D01*
G01X31592Y33425D02*
G01X31865Y33697D01*
G01X32138Y33834D01*
G01X32547Y33834D01*
G01X32819Y33697D01*
G01X33092Y33425D01*
G01X33228Y33015D01*
G01X33228Y32743D01*
G01X33092Y32334D01*
G01X32819Y32061D01*
G01X32547Y31925D01*
G01X32138Y31925D01*
G01X31865Y32061D01*
G01X31592Y32334D01*
G01X30692Y34788D02*
G01X30692Y31925D01*
G01X29792Y34788D02*
G01X29792Y31925D01*
G01X28428Y33834D02*
G01X29792Y32470D01*
G01X29247Y33015D02*
G01X28292Y31925D01*
G01X27392Y34788D02*
G01X27256Y34652D01*
G01X27119Y34788D01*
G01X27256Y34925D01*
G01X27392Y34788D01*
G01X27256Y33834D02*
G01X27256Y31925D01*
G01X26219Y33015D02*
G01X24583Y33015D01*
G01X24583Y33288D01*
G01X24719Y33561D01*
G01X24856Y33697D01*
G01X25128Y33834D01*
G01X25538Y33834D01*
G01X25810Y33697D01*
G01X26083Y33425D01*
G01X26219Y33015D01*
G01X26219Y32743D01*
G01X26083Y32334D01*
G01X25810Y32061D01*
G01X25538Y31925D01*
G01X25128Y31925D01*
G01X24856Y32061D01*
G01X24583Y32334D01*
G01X21583Y34788D02*
G01X20901Y31925D01*
G01X20219Y34788D02*
G01X20901Y31925D01*
G01X20219Y34788D02*
G01X19538Y31925D01*
G01X18856Y34788D02*
G01X19538Y31925D01*
G01X16319Y33834D02*
G01X16319Y31925D01*
G01X16319Y33425D02*
G01X16592Y33697D01*
G01X16865Y33834D01*
G01X17274Y33834D01*
G01X17547Y33697D01*
G01X17819Y33425D01*
G01X17956Y33015D01*
G01X17956Y32743D01*
G01X17819Y32334D01*
G01X17547Y32061D01*
G01X17274Y31925D01*
G01X16865Y31925D01*
G01X16592Y32061D01*
G01X16319Y32334D01*
G01X15419Y34788D02*
G01X15419Y31925D01*
G01X14519Y34788D02*
G01X14519Y31925D01*
G01X13156Y33834D02*
G01X14519Y32470D01*
G01X13974Y33015D02*
G01X13019Y31925D01*
G01X12119Y34788D02*
G01X11983Y34652D01*
G01X11847Y34788D01*
G01X11983Y34925D01*
G01X12119Y34788D01*
G01X11983Y33834D02*
G01X11983Y31925D01*
G01X10947Y33015D02*
G01X9310Y33015D01*
G01X9310Y33288D01*
G01X9447Y33561D01*
G01X9583Y33697D01*
G01X9856Y33834D01*
G01X10265Y33834D01*
G01X10538Y33697D01*
G01X10810Y33425D01*
G01X10947Y33015D01*
G01X10947Y32743D01*
G01X10810Y32334D01*
G01X10538Y32061D01*
G01X10265Y31925D01*
G01X9856Y31925D01*
G01X9583Y32061D01*
G01X9310Y32334D01*
G01X6310Y34788D02*
G01X5219Y31925D01*
G01X4128Y34788D02*
G01X5219Y31925D01*
G01X2956Y34788D02*
G01X1456Y34788D01*
G01X2274Y33697D01*
G01X1865Y33697D01*
G01X1592Y33561D01*
G01X1456Y33425D01*
G01X1319Y33015D01*
G01X1319Y32743D01*
G01X1456Y32334D01*
G01X1728Y32061D01*
G01X2138Y31925D01*
G01X2547Y31925D01*
G01X2956Y32061D01*
G01X3092Y32197D01*
G01X3228Y32470D01*
G01X48411Y27767D02*
G01X48503Y27950D01*
G01X48688Y28135D01*
G01X48871Y28227D01*
G01X49242Y28227D01*
G01X49427Y28135D01*
G01X49610Y27950D01*
G01X49704Y27767D01*
G01X49796Y27487D01*
G01X49796Y27028D01*
G01X49704Y26751D01*
G01X49610Y26565D01*
G01X49427Y26380D01*
G01X49242Y26289D01*
G01X48871Y26289D01*
G01X48688Y26380D01*
G01X48503Y26565D01*
G01X48411Y26751D01*
G01X47802Y27581D02*
G01X47802Y26289D01*
G01X47802Y27028D02*
G01X47708Y27305D01*
G01X47522Y27487D01*
G01X47339Y27581D01*
G01X47063Y27581D01*
G01X46453Y27028D02*
G01X45343Y27028D01*
G01X45343Y27211D01*
G01X45437Y27396D01*
G01X45528Y27487D01*
G01X45714Y27581D01*
G01X45991Y27581D01*
G01X46176Y27487D01*
G01X46359Y27305D01*
G01X46453Y27028D01*
G01X46453Y26842D01*
G01X46359Y26565D01*
G01X46176Y26380D01*
G01X45991Y26289D01*
G01X45714Y26289D01*
G01X45528Y26380D01*
G01X45343Y26565D01*
G01X43626Y27581D02*
G01X43626Y26289D01*
G01X43626Y27305D02*
G01X43811Y27487D01*
G01X43994Y27581D01*
G01X44271Y27581D01*
G01X44457Y27487D01*
G01X44642Y27305D01*
G01X44733Y27028D01*
G01X44733Y26842D01*
G01X44642Y26565D01*
G01X44457Y26380D01*
G01X44271Y26289D01*
G01X43994Y26289D01*
G01X43811Y26380D01*
G01X43626Y26565D01*
G01X42739Y28227D02*
G01X42739Y26657D01*
G01X42645Y26380D01*
G01X42463Y26289D01*
G01X42277Y26289D01*
G01X43016Y27581D02*
G01X42369Y27581D01*
G01X41668Y27028D02*
G01X40560Y27028D01*
G01X40560Y27211D01*
G01X40652Y27396D01*
G01X40743Y27487D01*
G01X40928Y27581D01*
G01X41205Y27581D01*
G01X41391Y27487D01*
G01X41576Y27305D01*
G01X41668Y27028D01*
G01X41668Y26842D01*
G01X41576Y26565D01*
G01X41391Y26380D01*
G01X41205Y26289D01*
G01X40928Y26289D01*
G01X40743Y26380D01*
G01X40560Y26565D01*
G01X38841Y28227D02*
G01X38841Y26289D01*
G01X38841Y27305D02*
G01X39026Y27487D01*
G01X39211Y27581D01*
G01X39488Y27581D01*
G01X39674Y27487D01*
G01X39857Y27305D01*
G01X39951Y27028D01*
G01X39951Y26842D01*
G01X39857Y26565D01*
G01X39674Y26380D01*
G01X39488Y26289D01*
G01X39211Y26289D01*
G01X39026Y26380D01*
G01X38841Y26565D01*
G01X36809Y28227D02*
G01X36809Y26289D01*
G01X36809Y27305D02*
G01X36626Y27487D01*
G01X36440Y27581D01*
G01X36163Y27581D01*
G01X35978Y27487D01*
G01X35793Y27305D01*
G01X35701Y27028D01*
G01X35701Y26842D01*
G01X35793Y26565D01*
G01X35978Y26380D01*
G01X36163Y26289D01*
G01X36440Y26289D01*
G01X36626Y26380D01*
G01X36809Y26565D01*
G01X35000Y27581D02*
G01X34444Y26289D01*
G01X33890Y27581D02*
G01X34444Y26289D01*
G01X34629Y25918D01*
G01X34815Y25735D01*
G01X35000Y25641D01*
G01X35092Y25641D01*
G01X31858Y28227D02*
G01X31858Y26289D01*
G01X31858Y26289D02*
G01X30751Y26289D01*
G01X30141Y27028D02*
G01X29031Y27028D01*
G01X29031Y27211D01*
G01X29125Y27396D01*
G01X29217Y27487D01*
G01X29402Y27581D01*
G01X29679Y27581D01*
G01X29864Y27487D01*
G01X30047Y27305D01*
G01X30141Y27028D01*
G01X30141Y26842D01*
G01X30047Y26565D01*
G01X29864Y26380D01*
G01X29679Y26289D01*
G01X29402Y26289D01*
G01X29217Y26380D01*
G01X29031Y26565D01*
G01X27962Y27581D02*
G01X28145Y27487D01*
G01X28330Y27305D01*
G01X28421Y27028D01*
G01X28421Y26842D01*
G01X28330Y26565D01*
G01X28145Y26380D01*
G01X27962Y26289D01*
G01X27685Y26289D01*
G01X27499Y26380D01*
G01X27314Y26565D01*
G01X27223Y26842D01*
G01X27223Y27028D01*
G01X27314Y27305D01*
G01X27499Y27487D01*
G01X27685Y27581D01*
G01X27962Y27581D01*
G01X25191Y28227D02*
G01X25191Y26289D01*
G01X23898Y28227D02*
G01X23898Y26289D01*
G01X25191Y27305D02*
G01X23898Y27305D01*
G01X22178Y27581D02*
G01X22178Y26289D01*
G01X22178Y27305D02*
G01X22364Y27487D01*
G01X22549Y27581D01*
G01X22826Y27581D01*
G01X23011Y27487D01*
G01X23194Y27305D01*
G01X23288Y27028D01*
G01X23288Y26842D01*
G01X23194Y26565D01*
G01X23011Y26380D01*
G01X22826Y26289D01*
G01X22549Y26289D01*
G01X22364Y26380D01*
G01X22178Y26565D01*
G01X21569Y28227D02*
G01X21477Y28135D01*
G01X21386Y28227D01*
G01X21477Y28321D01*
G01X21569Y28227D01*
G01X21477Y27581D02*
G01X21477Y26289D01*
G01X19760Y27581D02*
G01X20776Y26289D01*
G01X20776Y27581D02*
G01X19760Y27581D01*
G01X20776Y26289D02*
G01X19760Y26289D01*
G01X19150Y27028D02*
G01X18041Y27028D01*
G01X18041Y27211D01*
G01X18134Y27396D01*
G01X18226Y27487D01*
G01X18411Y27581D01*
G01X18688Y27581D01*
G01X18871Y27487D01*
G01X19057Y27305D01*
G01X19150Y27028D01*
G01X19150Y26842D01*
G01X19057Y26565D01*
G01X18871Y26380D01*
G01X18688Y26289D01*
G01X18411Y26289D01*
G01X18226Y26380D01*
G01X18041Y26565D01*
G01X49498Y23251D02*
G01X49498Y21313D01*
G01X49498Y22235D02*
G01X49222Y22512D01*
G01X49036Y22606D01*
G01X48759Y22606D01*
G01X48574Y22512D01*
G01X48482Y22235D01*
G01X48482Y21313D01*
G01X47596Y23251D02*
G01X47596Y21681D01*
G01X47505Y21404D01*
G01X47319Y21313D01*
G01X47134Y21313D01*
G01X47873Y22606D02*
G01X47225Y22606D01*
G01X46247Y23251D02*
G01X46247Y21681D01*
G01X46156Y21404D01*
G01X45970Y21313D01*
G01X45785Y21313D01*
G01X46524Y22606D02*
G01X45879Y22606D01*
G01X45175Y22606D02*
G01X45175Y20665D01*
G01X45175Y22329D02*
G01X44990Y22512D01*
G01X44807Y22606D01*
G01X44530Y22606D01*
G01X44345Y22512D01*
G01X44159Y22329D01*
G01X44068Y22052D01*
G01X44068Y21866D01*
G01X44159Y21590D01*
G01X44345Y21404D01*
G01X44530Y21313D01*
G01X44807Y21313D01*
G01X44990Y21404D01*
G01X45175Y21590D01*
G01X42442Y22329D02*
G01X42534Y22512D01*
G01X42811Y22606D01*
G01X43087Y22606D01*
G01X43364Y22512D01*
G01X43458Y22329D01*
G01X43364Y22143D01*
G01X43181Y22052D01*
G01X42719Y21958D01*
G01X42534Y21866D01*
G01X42442Y21681D01*
G01X42442Y21590D01*
G01X42534Y21404D01*
G01X42811Y21313D01*
G01X43087Y21313D01*
G01X43364Y21404D01*
G01X43458Y21590D01*
G01X41739Y22420D02*
G01X41833Y22329D01*
G01X41739Y22235D01*
G01X41647Y22329D01*
G01X41739Y22420D01*
G01X41739Y21775D02*
G01X41833Y21681D01*
G01X41739Y21590D01*
G01X41647Y21681D01*
G01X41739Y21775D01*
G01X39377Y23622D02*
G01X41038Y20665D01*
G01X37103Y23622D02*
G01X38767Y20665D01*
G01X35386Y22606D02*
G01X35386Y21127D01*
G01X35478Y20850D01*
G01X35569Y20759D01*
G01X35754Y20665D01*
G01X36031Y20665D01*
G01X36217Y20759D01*
G01X35386Y22329D02*
G01X35569Y22512D01*
G01X35754Y22606D01*
G01X36031Y22606D01*
G01X36217Y22512D01*
G01X36402Y22329D01*
G01X36494Y22052D01*
G01X36494Y21866D01*
G01X36402Y21590D01*
G01X36217Y21404D01*
G01X36031Y21313D01*
G01X35754Y21313D01*
G01X35569Y21404D01*
G01X35386Y21590D01*
G01X34777Y23251D02*
G01X34683Y23159D01*
G01X34591Y23251D01*
G01X34683Y23345D01*
G01X34777Y23251D01*
G01X34683Y22606D02*
G01X34683Y21313D01*
G01X33705Y23251D02*
G01X33705Y21681D01*
G01X33611Y21404D01*
G01X33428Y21313D01*
G01X33242Y21313D01*
G01X33982Y22606D02*
G01X33334Y22606D01*
G01X32633Y23251D02*
G01X32633Y21313D01*
G01X32633Y22235D02*
G01X32356Y22512D01*
G01X32171Y22606D01*
G01X31894Y22606D01*
G01X31708Y22512D01*
G01X31617Y22235D01*
G01X31617Y21313D01*
G01X31007Y22606D02*
G01X31007Y21681D01*
G01X30916Y21404D01*
G01X30730Y21313D01*
G01X30454Y21313D01*
G01X30268Y21404D01*
G01X29991Y21681D01*
G01X29991Y22606D02*
G01X29991Y21313D01*
G01X29382Y23251D02*
G01X29382Y21313D01*
G01X29382Y22329D02*
G01X29196Y22512D01*
G01X29013Y22606D01*
G01X28734Y22606D01*
G01X28551Y22512D01*
G01X28366Y22329D01*
G01X28274Y22052D01*
G01X28274Y21866D01*
G01X28366Y21590D01*
G01X28551Y21404D01*
G01X28734Y21313D01*
G01X29013Y21313D01*
G01X29196Y21404D01*
G01X29382Y21590D01*
G01X27571Y21775D02*
G01X27665Y21681D01*
G01X27571Y21590D01*
G01X27479Y21681D01*
G01X27571Y21775D01*
G01X25762Y22329D02*
G01X25945Y22512D01*
G01X26130Y22606D01*
G01X26407Y22606D01*
G01X26593Y22512D01*
G01X26778Y22329D01*
G01X26870Y22052D01*
G01X26870Y21866D01*
G01X26778Y21590D01*
G01X26593Y21404D01*
G01X26407Y21313D01*
G01X26130Y21313D01*
G01X25945Y21404D01*
G01X25762Y21590D01*
G01X24690Y22606D02*
G01X24873Y22512D01*
G01X25059Y22329D01*
G01X25153Y22052D01*
G01X25153Y21866D01*
G01X25059Y21590D01*
G01X24873Y21404D01*
G01X24690Y21313D01*
G01X24413Y21313D01*
G01X24228Y21404D01*
G01X24043Y21590D01*
G01X23951Y21866D01*
G01X23951Y22052D01*
G01X24043Y22329D01*
G01X24228Y22512D01*
G01X24413Y22606D01*
G01X24690Y22606D01*
G01X23342Y22606D02*
G01X23342Y21313D01*
G01X23342Y22235D02*
G01X23065Y22512D01*
G01X22879Y22606D01*
G01X22602Y22606D01*
G01X22417Y22512D01*
G01X22326Y22235D01*
G01X22326Y21313D01*
G01X22326Y22235D02*
G01X22049Y22512D01*
G01X21863Y22606D01*
G01X21586Y22606D01*
G01X21401Y22512D01*
G01X21310Y22235D01*
G01X21310Y21313D01*
G01X19036Y23622D02*
G01X20700Y20665D01*
G01X18427Y23251D02*
G01X18427Y21313D01*
G01X18427Y23251D02*
G01X17596Y23251D01*
G01X17319Y23159D01*
G01X17228Y23068D01*
G01X17134Y22882D01*
G01X17134Y22606D01*
G01X17228Y22420D01*
G01X17319Y22329D01*
G01X17596Y22235D01*
G01X18427Y22235D01*
G01X16062Y22606D02*
G01X16247Y22512D01*
G01X16433Y22329D01*
G01X16524Y22052D01*
G01X16524Y21866D01*
G01X16433Y21590D01*
G01X16247Y21404D01*
G01X16062Y21313D01*
G01X15785Y21313D01*
G01X15602Y21404D01*
G01X15417Y21590D01*
G01X15323Y21866D01*
G01X15323Y22052D01*
G01X15417Y22329D01*
G01X15602Y22512D01*
G01X15785Y22606D01*
G01X16062Y22606D01*
G01X14713Y23251D02*
G01X14622Y23159D01*
G01X14530Y23251D01*
G01X14622Y23345D01*
G01X14713Y23251D01*
G01X14622Y22606D02*
G01X14622Y21313D01*
G01X12905Y22329D02*
G01X12996Y22512D01*
G01X13273Y22606D01*
G01X13550Y22606D01*
G01X13827Y22512D01*
G01X13921Y22329D01*
G01X13827Y22143D01*
G01X13644Y22052D01*
G01X13182Y21958D01*
G01X12996Y21866D01*
G01X12905Y21681D01*
G01X12905Y21590D01*
G01X12996Y21404D01*
G01X13273Y21313D01*
G01X13550Y21313D01*
G01X13827Y21404D01*
G01X13921Y21590D01*
G01X11279Y22329D02*
G01X11370Y22512D01*
G01X11647Y22606D01*
G01X11924Y22606D01*
G01X12201Y22512D01*
G01X12295Y22329D01*
G01X12201Y22143D01*
G01X12018Y22052D01*
G01X11556Y21958D01*
G01X11370Y21866D01*
G01X11279Y21681D01*
G01X11279Y21590D01*
G01X11370Y21404D01*
G01X11647Y21313D01*
G01X11924Y21313D01*
G01X12201Y21404D01*
G01X12295Y21590D01*
G01X10207Y22606D02*
G01X10393Y22512D01*
G01X10575Y22329D01*
G01X10669Y22052D01*
G01X10669Y21866D01*
G01X10575Y21590D01*
G01X10393Y21404D01*
G01X10207Y21313D01*
G01X9930Y21313D01*
G01X9745Y21404D01*
G01X9559Y21590D01*
G01X9468Y21866D01*
G01X9468Y22052D01*
G01X9559Y22329D01*
G01X9745Y22512D01*
G01X9930Y22606D01*
G01X10207Y22606D01*
G01X8858Y22606D02*
G01X8858Y21313D01*
G01X8858Y22235D02*
G01X8582Y22512D01*
G01X8396Y22606D01*
G01X8119Y22606D01*
G01X7934Y22512D01*
G01X7842Y22235D01*
G01X7842Y21313D01*
G01X6308Y23251D02*
G01X7233Y21958D01*
G01X5849Y21958D01*
G01X6308Y23251D02*
G01X6308Y21313D01*
G01X4777Y23251D02*
G01X5054Y23159D01*
G01X5145Y22974D01*
G01X5145Y22791D01*
G01X5054Y22606D01*
G01X4868Y22512D01*
G01X4500Y22420D01*
G01X4223Y22329D01*
G01X4038Y22143D01*
G01X3944Y21958D01*
G01X3944Y21681D01*
G01X4038Y21496D01*
G01X4129Y21404D01*
G01X4406Y21313D01*
G01X4777Y21313D01*
G01X5054Y21404D01*
G01X5145Y21496D01*
G01X5239Y21681D01*
G01X5239Y21958D01*
G01X5145Y22143D01*
G01X4960Y22329D01*
G01X4683Y22420D01*
G01X4314Y22512D01*
G01X4129Y22606D01*
G01X4038Y22791D01*
G01X4038Y22974D01*
G01X4129Y23159D01*
G01X4406Y23251D01*
G01X4777Y23251D01*
G54D44*
G01X34798Y6388D02*
G01X34798Y5298D01*
G01X34798Y6388D02*
G01X34434Y6388D01*
G01X34277Y6337D01*
G01X34175Y6233D01*
G01X34122Y6129D01*
G01X34071Y5974D01*
G01X34071Y5715D01*
G01X34122Y5557D01*
G01X34175Y5453D01*
G01X34277Y5349D01*
G01X34434Y5298D01*
G01X34798Y5298D01*
G01X33624Y6388D02*
G01X33053Y6388D01*
G01X33362Y5974D01*
G01X33207Y5974D01*
G01X33103Y5920D01*
G01X33053Y5869D01*
G01X32999Y5715D01*
G01X32999Y5610D01*
G01X33053Y5453D01*
G01X33157Y5349D01*
G01X33312Y5298D01*
G01X33467Y5298D01*
G01X33624Y5349D01*
G01X33675Y5402D01*
G01X33728Y5506D01*
G01X13081Y11651D02*
G01X13081Y10559D01*
G01X13081Y11651D02*
G01X12613Y11651D01*
G01X12458Y11600D01*
G01X12405Y11547D01*
G01X12354Y11442D01*
G01X12354Y11338D01*
G01X12405Y11234D01*
G01X12458Y11183D01*
G01X12613Y11130D01*
G01X13081Y11130D01*
G01X12718Y11130D02*
G01X12354Y10559D01*
G01X11387Y11496D02*
G01X11440Y11600D01*
G01X11595Y11651D01*
G01X11699Y11651D01*
G01X11854Y11600D01*
G01X11958Y11442D01*
G01X12011Y11183D01*
G01X12011Y10924D01*
G01X11958Y10716D01*
G01X11854Y10612D01*
G01X11699Y10559D01*
G01X11646Y10559D01*
G01X11491Y10612D01*
G01X11387Y10716D01*
G01X11336Y10871D01*
G01X11336Y10924D01*
G01X11387Y11079D01*
G01X11491Y11183D01*
G01X11646Y11234D01*
G01X11699Y11234D01*
G01X11854Y11183D01*
G01X11958Y11079D01*
G01X12011Y10924D01*
G01X26670Y6897D02*
G01X26670Y5805D01*
G01X26670Y6897D02*
G01X26202Y6897D01*
G01X26047Y6846D01*
G01X25994Y6793D01*
G01X25943Y6689D01*
G01X25943Y6584D01*
G01X25994Y6480D01*
G01X26047Y6430D01*
G01X26202Y6376D01*
G01X26670Y6376D01*
G01X26306Y6376D02*
G01X25943Y5805D01*
G01X24975Y6897D02*
G01X25496Y6897D01*
G01X25547Y6430D01*
G01X25496Y6480D01*
G01X25339Y6534D01*
G01X25184Y6534D01*
G01X25029Y6480D01*
G01X24925Y6376D01*
G01X24871Y6221D01*
G01X24871Y6117D01*
G01X24925Y5962D01*
G01X25029Y5858D01*
G01X25184Y5805D01*
G01X25339Y5805D01*
G01X25496Y5858D01*
G01X25547Y5909D01*
G01X25600Y6013D01*
G01X29357Y6858D02*
G01X29357Y5765D01*
G01X29357Y6858D02*
G01X28889Y6858D01*
G01X28735Y6807D01*
G01X28681Y6753D01*
G01X28630Y6649D01*
G01X28630Y6545D01*
G01X28681Y6441D01*
G01X28735Y6390D01*
G01X28889Y6337D01*
G01X29357Y6337D01*
G01X28994Y6337D02*
G01X28630Y5765D01*
G01X28234Y6598D02*
G01X28234Y6649D01*
G01X28183Y6753D01*
G01X28130Y6807D01*
G01X28026Y6858D01*
G01X27820Y6858D01*
G01X27716Y6807D01*
G01X27663Y6753D01*
G01X27612Y6649D01*
G01X27612Y6545D01*
G01X27663Y6441D01*
G01X27767Y6286D01*
G01X28288Y5765D01*
G01X27559Y5765D01*
G01X17630Y5168D02*
G01X17683Y5273D01*
G01X17787Y5377D01*
G01X17891Y5430D01*
G01X18046Y5481D01*
G01X18305Y5481D01*
G01X18463Y5430D01*
G01X18567Y5377D01*
G01X18671Y5273D01*
G01X18722Y5168D01*
G01X18722Y4960D01*
G01X18671Y4859D01*
G01X18567Y4754D01*
G01X18463Y4701D01*
G01X18305Y4650D01*
G01X18046Y4650D01*
G01X17891Y4701D01*
G01X17787Y4754D01*
G01X17683Y4859D01*
G01X17630Y4960D01*
G01X17630Y5168D01*
G01X18514Y5013D02*
G01X18826Y4701D01*
G01X17891Y4254D02*
G01X17838Y4254D01*
G01X17734Y4203D01*
G01X17683Y4150D01*
G01X17630Y4046D01*
G01X17630Y3840D01*
G01X17683Y3736D01*
G01X17734Y3683D01*
G01X17838Y3632D01*
G01X17942Y3632D01*
G01X18046Y3683D01*
G01X18201Y3787D01*
G01X18722Y4307D01*
G01X18722Y3578D01*
G01X17609Y1719D02*
G01X17663Y1823D01*
G01X17767Y1927D01*
G01X17871Y1981D01*
G01X18026Y2032D01*
G01X18285Y2032D01*
G01X18442Y1981D01*
G01X18547Y1927D01*
G01X18651Y1823D01*
G01X18702Y1719D01*
G01X18702Y1511D01*
G01X18651Y1409D01*
G01X18547Y1305D01*
G01X18442Y1252D01*
G01X18285Y1201D01*
G01X18026Y1201D01*
G01X17871Y1252D01*
G01X17767Y1305D01*
G01X17663Y1409D01*
G01X17609Y1511D01*
G01X17609Y1719D01*
G01X18493Y1564D02*
G01X18806Y1252D01*
G01X17818Y858D02*
G01X17767Y754D01*
G01X17609Y596D01*
G01X18702Y596D01*
G01X13716Y8194D02*
G01X13716Y7414D01*
G01X13665Y7259D01*
G01X13561Y7155D01*
G01X13403Y7101D01*
G01X13299Y7101D01*
G01X13144Y7155D01*
G01X13040Y7259D01*
G01X12989Y7414D01*
G01X12989Y8194D01*
G01X12542Y8194D02*
G01X11971Y8194D01*
G01X12280Y7777D01*
G01X12125Y7777D01*
G01X12021Y7726D01*
G01X11971Y7673D01*
G01X11917Y7518D01*
G01X11917Y7414D01*
G01X11971Y7259D01*
G01X12075Y7155D01*
G01X12230Y7101D01*
G01X12385Y7101D01*
G01X12542Y7155D01*
G01X12593Y7205D01*
G01X12646Y7310D01*
G54D11*
G75*
G01X16335Y6515D02*
G02X16335Y6513I150J-1D01*
G01*
M00*
M02*
