G04 Layer: BottomSolderMaskLayer*
G04 EasyEDA v6.2.35, 2019-08-15T18:41:42+02:00*
G04 d928556bf1d54400a7a5e192a75a7165,10119efe1344418d97fa33539d7a4e55,10*
G04 Gerber Generator version 0.2*
G04 Scale: 100 percent, Rotated: No, Reflected: No *
G04 Dimensions in millimeters *
G04 leading zeros omitted , absolute positions ,3 integer and 3 decimal *
%FSLAX33Y33*%
%MOMM*%
G90*
G71D02*

%ADD47C,1.503197*%
%ADD58C,1.727200*%
%ADD66C,2.235200*%
%ADD68C,0.483210*%

%LPD*%
G54D68*
G01X14836Y6848D02*
G01X14836Y6278D01*
G01X14335Y6848D02*
G01X14335Y6278D01*
G01X13835Y6848D02*
G01X13835Y6278D01*
G01X13335Y6848D02*
G01X13335Y6278D01*
G01X12834Y6848D02*
G01X12834Y6278D01*
G01X12334Y6848D02*
G01X12334Y6278D01*
G01X11833Y6848D02*
G01X11833Y6278D01*
G01X11119Y5565D02*
G01X10549Y5565D01*
G01X11119Y5064D02*
G01X10549Y5064D01*
G01X11119Y4564D02*
G01X10549Y4564D01*
G01X11119Y4064D02*
G01X10549Y4064D01*
G01X11119Y3563D02*
G01X10549Y3563D01*
G01X11119Y3063D02*
G01X10549Y3063D01*
G01X11119Y2562D02*
G01X10549Y2562D01*
G01X11833Y1848D02*
G01X11833Y1278D01*
G01X12334Y1848D02*
G01X12334Y1278D01*
G01X12834Y1848D02*
G01X12834Y1278D01*
G01X13335Y1848D02*
G01X13335Y1278D01*
G01X13835Y1848D02*
G01X13835Y1278D01*
G01X14335Y1848D02*
G01X14335Y1278D01*
G01X14836Y1848D02*
G01X14836Y1278D01*
G01X16119Y2562D02*
G01X15549Y2562D01*
G01X16119Y3063D02*
G01X15549Y3063D01*
G01X16119Y3563D02*
G01X15549Y3563D01*
G01X16119Y4064D02*
G01X15549Y4064D01*
G01X16119Y4564D02*
G01X15549Y4564D01*
G01X16119Y5064D02*
G01X15549Y5064D01*
G01X16119Y5565D02*
G01X15549Y5565D01*
G54D47*
G01X39433Y1915D02*
G01X39433Y1015D01*
G01X32194Y1915D02*
G01X32194Y1015D01*
G36*
G01X34876Y6781D02*
G01X34876Y8204D01*
G01X35989Y8204D01*
G01X35989Y6781D01*
G01X34876Y6781D01*
G37*
G36*
G01X31625Y6781D02*
G01X31625Y8204D01*
G01X32738Y8204D01*
G01X32738Y6781D01*
G01X31625Y6781D01*
G37*
G36*
G01X13162Y8445D02*
G01X13162Y10096D01*
G01X14523Y10096D01*
G01X14523Y8445D01*
G01X13162Y8445D01*
G37*
G36*
G01X11130Y8445D02*
G01X11130Y10096D01*
G01X12491Y10096D01*
G01X12491Y8445D01*
G01X11130Y8445D01*
G37*
G36*
G01X24955Y3891D02*
G01X24955Y5252D01*
G01X26606Y5252D01*
G01X26606Y3891D01*
G01X24955Y3891D01*
G37*
G36*
G01X24955Y1859D02*
G01X24955Y3220D01*
G01X26606Y3220D01*
G01X26606Y1859D01*
G01X24955Y1859D01*
G37*
G36*
G01X27622Y1859D02*
G01X27622Y3220D01*
G01X29273Y3220D01*
G01X29273Y1859D01*
G01X27622Y1859D01*
G37*
G36*
G01X27622Y3891D02*
G01X27622Y5252D01*
G01X29273Y5252D01*
G01X29273Y3891D01*
G01X27622Y3891D01*
G37*
G36*
G01X18978Y5029D02*
G01X18978Y5933D01*
G01X20431Y5933D01*
G01X20431Y5029D01*
G01X18978Y5029D01*
G37*
G36*
G01X21478Y4079D02*
G01X21478Y4983D01*
G01X22931Y4983D01*
G01X22931Y4079D01*
G01X21478Y4079D01*
G37*
G36*
G01X21478Y5979D02*
G01X21478Y6883D01*
G01X22931Y6883D01*
G01X22931Y5979D01*
G01X21478Y5979D01*
G37*
G36*
G01X18958Y1579D02*
G01X18958Y2484D01*
G01X20411Y2484D01*
G01X20411Y1579D01*
G01X18958Y1579D01*
G37*
G36*
G01X21457Y629D02*
G01X21457Y1534D01*
G01X22910Y1534D01*
G01X22910Y629D01*
G01X21457Y629D01*
G37*
G36*
G01X21457Y2529D02*
G01X21457Y3434D01*
G01X22910Y3434D01*
G01X22910Y2529D01*
G01X21457Y2529D01*
G37*
G36*
G01X11668Y2397D02*
G01X11668Y5730D01*
G01X15001Y5730D01*
G01X15001Y2397D01*
G01X11668Y2397D01*
G37*
G01X33403Y4165D03*
G01X38244Y4165D03*
G36*
G01X22631Y33251D02*
G01X22631Y34978D01*
G01X24358Y34978D01*
G01X24358Y33251D01*
G01X22631Y33251D01*
G37*
G54D58*
G01X23495Y32114D03*
G01X23495Y30115D03*
G01X23495Y28115D03*
G36*
G01X48666Y12344D02*
G01X48666Y14071D01*
G01X50393Y14071D01*
G01X50393Y12344D01*
G01X48666Y12344D01*
G37*
G36*
G01X47269Y5486D02*
G01X47269Y7213D01*
G01X51536Y7213D01*
G01X51536Y5486D01*
G01X47269Y5486D01*
G37*
G36*
G01X47269Y406D02*
G01X47269Y2133D01*
G01X51536Y2133D01*
G01X51536Y406D01*
G01X47269Y406D01*
G37*
G36*
G01X41935Y13487D02*
G01X41935Y15722D01*
G01X44170Y15722D01*
G01X44170Y13487D01*
G01X41935Y13487D01*
G37*
G54D66*
G01X43053Y12065D03*
G01X43053Y9525D03*
G01X43053Y6985D03*
G01X43053Y4445D03*
G01X43053Y1905D03*
G36*
G01X30411Y18059D02*
G01X30411Y19786D01*
G01X32138Y19786D01*
G01X32138Y18059D01*
G01X30411Y18059D01*
G37*
G54D58*
G01X33274Y18923D03*
G01X35273Y18923D03*
G01X37273Y18923D03*
M00*
M02*
