G04 Layer: BottomPasteMaskLayer*
G04 EasyEDA v6.2.35, 2019-08-15T18:41:42+02:00*
G04 d928556bf1d54400a7a5e192a75a7165,10119efe1344418d97fa33539d7a4e55,10*
G04 Gerber Generator version 0.2*
G04 Scale: 100 percent, Rotated: No, Reflected: No *
G04 Dimensions in millimeters *
G04 leading zeros omitted , absolute positions ,3 integer and 3 decimal *
%FSLAX33Y33*%
%MOMM*%
G90*
G71D02*

%ADD28R,4.064000X1.524000*%
%ADD35C,0.280010*%

%LPD*%
G54D35*
G01X14836Y6848D02*
G01X14836Y6278D01*
G01X14335Y6848D02*
G01X14335Y6278D01*
G01X13835Y6848D02*
G01X13835Y6278D01*
G01X13335Y6848D02*
G01X13335Y6278D01*
G01X12834Y6848D02*
G01X12834Y6278D01*
G01X12334Y6848D02*
G01X12334Y6278D01*
G01X11833Y6848D02*
G01X11833Y6278D01*
G01X11119Y5565D02*
G01X10549Y5565D01*
G01X11119Y5064D02*
G01X10549Y5064D01*
G01X11119Y4564D02*
G01X10549Y4564D01*
G01X11119Y4064D02*
G01X10549Y4064D01*
G01X11119Y3563D02*
G01X10549Y3563D01*
G01X11119Y3063D02*
G01X10549Y3063D01*
G01X11119Y2562D02*
G01X10549Y2562D01*
G01X11833Y1848D02*
G01X11833Y1278D01*
G01X12334Y1848D02*
G01X12334Y1278D01*
G01X12834Y1848D02*
G01X12834Y1278D01*
G01X13335Y1848D02*
G01X13335Y1278D01*
G01X13835Y1848D02*
G01X13835Y1278D01*
G01X14335Y1848D02*
G01X14335Y1278D01*
G01X14836Y1848D02*
G01X14836Y1278D01*
G01X16119Y2562D02*
G01X15549Y2562D01*
G01X16119Y3063D02*
G01X15549Y3063D01*
G01X16119Y3563D02*
G01X15549Y3563D01*
G01X16119Y4064D02*
G01X15549Y4064D01*
G01X16119Y4564D02*
G01X15549Y4564D01*
G01X16119Y5064D02*
G01X15549Y5064D01*
G01X16119Y5565D02*
G01X15549Y5565D01*
G36*
G01X34978Y6883D02*
G01X35887Y6883D01*
G01X35887Y8102D01*
G01X34978Y8102D01*
G01X34978Y6883D01*
G37*
G36*
G01X31727Y6883D02*
G01X32636Y6883D01*
G01X32636Y8102D01*
G01X31727Y8102D01*
G01X31727Y6883D01*
G37*
G36*
G01X14423Y9995D02*
G01X13262Y9995D01*
G01X13262Y8546D01*
G01X14423Y8546D01*
G01X14423Y9995D01*
G37*
G36*
G01X12391Y9995D02*
G01X11230Y9995D01*
G01X11230Y8546D01*
G01X12391Y8546D01*
G01X12391Y9995D01*
G37*
G36*
G01X25056Y5152D02*
G01X25056Y3991D01*
G01X26505Y3991D01*
G01X26505Y5152D01*
G01X25056Y5152D01*
G37*
G36*
G01X25056Y3120D02*
G01X25056Y1959D01*
G01X26505Y1959D01*
G01X26505Y3120D01*
G01X25056Y3120D01*
G37*
G36*
G01X29172Y1959D02*
G01X29172Y3120D01*
G01X27723Y3120D01*
G01X27723Y1959D01*
G01X29172Y1959D01*
G37*
G36*
G01X29172Y3991D02*
G01X29172Y5152D01*
G01X27723Y5152D01*
G01X27723Y3991D01*
G01X29172Y3991D01*
G37*
G36*
G01X20330Y5131D02*
G01X20330Y5831D01*
G01X19080Y5831D01*
G01X19080Y5131D01*
G01X20330Y5131D01*
G37*
G36*
G01X22829Y4181D02*
G01X22829Y4881D01*
G01X21579Y4881D01*
G01X21579Y4181D01*
G01X22829Y4181D01*
G37*
G36*
G01X22829Y6081D02*
G01X22829Y6781D01*
G01X21579Y6781D01*
G01X21579Y6081D01*
G01X22829Y6081D01*
G37*
G36*
G01X20309Y1681D02*
G01X20309Y2382D01*
G01X19060Y2382D01*
G01X19060Y1681D01*
G01X20309Y1681D01*
G37*
G36*
G01X22809Y732D02*
G01X22809Y1432D01*
G01X21559Y1432D01*
G01X21559Y732D01*
G01X22809Y732D01*
G37*
G36*
G01X22809Y2631D02*
G01X22809Y3331D01*
G01X21559Y3331D01*
G01X21559Y2631D01*
G01X22809Y2631D01*
G37*
G36*
G01X14899Y5628D02*
G01X11770Y5628D01*
G01X11770Y2499D01*
G01X14899Y2499D01*
G01X14899Y5628D01*
G37*
G54D28*
G01X49403Y6350D03*
G01X49403Y1270D03*
M00*
M02*
