G04 Layer: TopSilkLayer*
G04 EasyEDA v6.2.35, 2019-08-15T18:41:42+02:00*
G04 d928556bf1d54400a7a5e192a75a7165,10119efe1344418d97fa33539d7a4e55,10*
G04 Gerber Generator version 0.2*
G04 Scale: 100 percent, Rotated: No, Reflected: No *
G04 Dimensions in millimeters *
G04 leading zeros omitted , absolute positions ,3 integer and 3 decimal *
%FSLAX33Y33*%
%MOMM*%
G90*
G71D02*

%ADD10C,0.254000*%
%ADD39C,0.199898*%
%ADD40C,0.127000*%
%ADD41C,0.100076*%
%ADD42C,0.101600*%
%ADD43C,0.100000*%
%ADD44C,0.152400*%

%LPD*%
G54D10*
G01X24486Y3408D02*
G01X30885Y3408D01*
G01X24486Y3408D02*
G01X24486Y7208D01*
G01X30885Y7208D02*
G01X24486Y7208D01*
G01X30885Y7208D02*
G01X30885Y3408D01*
G54D39*
G01X32719Y8527D02*
G01X31399Y8527D01*
G01X31399Y6457D01*
G01X32719Y6457D01*
G01X33851Y8527D02*
G01X35171Y8527D01*
G01X35171Y6457D01*
G01X33851Y6457D01*
G54D10*
G01X20699Y16101D02*
G01X20699Y14551D01*
G01X22731Y14551D01*
G01X22731Y16101D01*
G01X20674Y16888D02*
G01X20674Y18361D01*
G01X21080Y18768D01*
G01X22350Y18768D01*
G01X22731Y18387D01*
G01X22731Y16863D01*
G01X21215Y16327D02*
G01X22216Y16327D01*
G01X22216Y16327D01*
G01X21715Y16827D01*
G01X21715Y16827D01*
G01X21215Y16327D01*
G01X20915Y18526D02*
G01X22515Y18526D01*
G01X39813Y5145D02*
G01X39813Y-594D01*
G01X39813Y5155D02*
G01X31814Y5155D01*
G01X31814Y5155D02*
G01X31814Y-584D01*
G01X39813Y-604D02*
G01X31814Y-604D01*
G01X39203Y105D02*
G01X32434Y105D01*
G01X39793Y-604D02*
G01X39793Y-484D01*
G01X39203Y105D01*
G01X31843Y-584D02*
G01X31843Y-484D01*
G01X32434Y105D01*
G01X1515Y42853D02*
G01X19516Y42854D01*
G01X1515Y42854D02*
G01X1515Y36213D01*
G01X1515Y36554D02*
G01X19516Y36553D01*
G01X19515Y42854D02*
G01X19516Y36213D01*
G01X1515Y18014D02*
G01X1515Y17353D01*
G01X1515Y17353D02*
G01X3515Y17353D01*
G01X19516Y18014D02*
G01X19516Y17353D01*
G01X17515Y17353D02*
G01X19516Y17353D01*
G54D39*
G01X20654Y8527D02*
G01X19334Y8527D01*
G01X19334Y6457D01*
G01X20654Y6457D01*
G01X21786Y8527D02*
G01X23106Y8527D01*
G01X23106Y6457D01*
G01X21786Y6457D01*
G01X3856Y12681D02*
G01X5176Y12681D01*
G01X5176Y14751D01*
G01X3856Y14751D01*
G01X2724Y12681D02*
G01X1404Y12681D01*
G01X1404Y14751D01*
G01X2724Y14751D01*
G54D10*
G01X24694Y35364D02*
G01X24694Y26864D01*
G01X22294Y26864D01*
G01X22294Y35364D01*
G01X24694Y35364D01*
G01X10905Y3580D02*
G01X8906Y3580D01*
G01X8406Y4080D01*
G01X8406Y6079D01*
G01X8906Y6579D01*
G01X10905Y6579D01*
G01X11405Y6079D01*
G01X11405Y4080D01*
G01X10905Y3580D01*
G01X12505Y2480D02*
G01X7306Y2480D01*
G01X7306Y7679D01*
G01X12505Y7679D01*
G01X12505Y2480D01*
G01X8906Y13049D02*
G01X10905Y13049D01*
G01X11405Y12549D01*
G01X11405Y10549D01*
G01X10905Y10049D01*
G01X8906Y10049D01*
G01X8406Y10549D01*
G01X8406Y12549D01*
G01X8906Y13049D01*
G01X7306Y14149D02*
G01X12505Y14149D01*
G01X12505Y8949D01*
G01X7306Y8949D01*
G01X7306Y14149D01*
G54D39*
G01X32719Y11067D02*
G01X31399Y11067D01*
G01X31399Y8997D01*
G01X32719Y8997D01*
G01X33851Y11067D02*
G01X35171Y11067D01*
G01X35171Y8997D01*
G01X33851Y8997D01*
G01X21763Y3918D02*
G01X23083Y3918D01*
G01X23083Y5988D01*
G01X21763Y5988D01*
G01X20631Y3918D02*
G01X19311Y3918D01*
G01X19311Y5988D01*
G01X20631Y5988D01*
G01X16782Y5507D02*
G01X16782Y6827D01*
G01X14712Y6827D01*
G01X14712Y5507D01*
G01X16782Y4375D02*
G01X16782Y3055D01*
G01X14712Y3055D01*
G01X14712Y4375D01*
G01X3856Y2267D02*
G01X5176Y2267D01*
G01X5176Y4337D01*
G01X3856Y4337D01*
G01X2724Y2267D02*
G01X1404Y2267D01*
G01X1404Y4337D01*
G01X2724Y4337D01*
G01X14713Y11002D02*
G01X14713Y9682D01*
G01X16783Y9682D01*
G01X16783Y11002D01*
G01X14713Y12134D02*
G01X14713Y13454D01*
G01X16783Y13454D01*
G01X16783Y12134D01*
G01X3856Y9252D02*
G01X5176Y9252D01*
G01X5176Y11322D01*
G01X3856Y11322D01*
G01X2724Y9252D02*
G01X1404Y9252D01*
G01X1404Y11322D01*
G01X2724Y11322D01*
G54D10*
G01X24486Y13441D02*
G01X30885Y13441D01*
G01X24486Y13441D02*
G01X24486Y17241D01*
G01X30885Y17241D02*
G01X24486Y17241D01*
G01X30885Y17241D02*
G01X30885Y13441D01*
G54D39*
G01X21763Y9125D02*
G01X23083Y9125D01*
G01X23083Y11195D01*
G01X21763Y11195D01*
G01X20631Y9125D02*
G01X19311Y9125D01*
G01X19311Y11195D01*
G01X20631Y11195D01*
G01X21763Y1378D02*
G01X23083Y1378D01*
G01X23083Y3448D01*
G01X21763Y3448D01*
G01X20631Y1378D02*
G01X19311Y1378D01*
G01X19311Y3448D01*
G01X20631Y3448D01*
G01X3856Y5823D02*
G01X5176Y5823D01*
G01X5176Y7893D01*
G01X3856Y7893D01*
G01X2724Y5823D02*
G01X1404Y5823D01*
G01X1404Y7893D01*
G01X2724Y7893D01*
G01X23668Y20428D02*
G01X24988Y20428D01*
G01X24988Y22498D01*
G01X23668Y22498D01*
G01X22536Y20428D02*
G01X21216Y20428D01*
G01X21216Y22498D01*
G01X22536Y22498D01*
G54D10*
G01X27369Y25020D02*
G01X25820Y25020D01*
G01X25820Y22988D01*
G01X27369Y22988D01*
G01X28157Y25045D02*
G01X29630Y25045D01*
G01X30036Y24639D01*
G01X30036Y23369D01*
G01X29655Y22988D01*
G01X28131Y22988D01*
G01X27595Y24504D02*
G01X27595Y23503D01*
G01X27595Y23503D01*
G01X28096Y24004D01*
G01X28096Y24004D01*
G01X27595Y24504D01*
G01X29795Y24804D02*
G01X29795Y23204D01*
G54D39*
G01X20654Y13734D02*
G01X19334Y13734D01*
G01X19334Y11664D01*
G01X20654Y11664D01*
G01X21786Y13734D02*
G01X23106Y13734D01*
G01X23106Y11664D01*
G01X21786Y11664D01*
G54D40*
G01X30353Y20560D02*
G01X51432Y20560D01*
G01X51432Y36559D01*
G01X30353Y36559D01*
G01X30353Y20560D01*
G01X35892Y33560D02*
G01X35892Y28560D01*
G01X40892Y28560D01*
G01X40892Y33560D01*
G01X35892Y33560D01*
G01X45892Y35560D02*
G01X43892Y35560D01*
G01X43892Y32560D01*
G01X45892Y32560D01*
G01X45892Y35560D01*
G54D41*
G01X48963Y10078D02*
G01X48062Y10078D01*
G01X48963Y9479D02*
G01X48062Y9479D01*
G01X50162Y10078D02*
G01X51062Y10078D01*
G01X50162Y9479D02*
G01X51062Y9479D01*
G01X47663Y11778D02*
G01X51462Y11778D01*
G01X51462Y7779D01*
G01X47663Y7779D01*
G01X47663Y11778D01*
G54D10*
G01X41783Y15875D02*
G01X44323Y15875D01*
G01X44323Y635D01*
G01X41783Y635D01*
G01X41783Y15875D01*
G01X30024Y20122D02*
G01X38524Y20122D01*
G01X38524Y17722D01*
G01X30024Y17722D01*
G01X30024Y20122D01*
G54D42*
G01X38165Y9289D02*
G01X39365Y9289D01*
G01X39365Y8490D01*
G01X38165Y8490D01*
G01X38165Y9289D01*
G54D43*
G01X38065Y9289D02*
G01X38065Y8490D01*
G54D42*
G01X39304Y6204D02*
G01X38104Y6204D01*
G01X38104Y7003D01*
G01X39304Y7003D01*
G01X39304Y6204D01*
G54D43*
G01X39404Y6204D02*
G01X39404Y7003D01*
G54D44*
G01X24257Y10909D02*
G01X24257Y9820D01*
G01X24257Y9820D02*
G01X24879Y9820D01*
G01X25222Y10909D02*
G01X25222Y9820D01*
G01X25222Y10909D02*
G01X25587Y10909D01*
G01X25742Y10858D01*
G01X25847Y10754D01*
G01X25897Y10650D01*
G01X25951Y10495D01*
G01X25951Y10234D01*
G01X25897Y10079D01*
G01X25847Y9975D01*
G01X25742Y9870D01*
G01X25587Y9820D01*
G01X25222Y9820D01*
G01X26294Y10701D02*
G01X26398Y10754D01*
G01X26553Y10909D01*
G01X26553Y9820D01*
G01X26896Y10701D02*
G01X27000Y10754D01*
G01X27155Y10909D01*
G01X27155Y9820D01*
G01X27498Y10701D02*
G01X27602Y10754D01*
G01X27759Y10909D01*
G01X27759Y9820D01*
G01X28829Y10909D02*
G01X28308Y9820D01*
G01X28102Y10909D02*
G01X28829Y10909D01*
G01X29588Y10909D02*
G01X29171Y9820D01*
G01X29588Y10909D02*
G01X30002Y9820D01*
G01X29326Y10183D02*
G01X29847Y10183D01*
G01X31125Y10650D02*
G01X31074Y10754D01*
G01X30970Y10858D01*
G01X30866Y10909D01*
G01X30657Y10909D01*
G01X30553Y10858D01*
G01X30449Y10754D01*
G01X30398Y10650D01*
G01X30345Y10495D01*
G01X30345Y10234D01*
G01X30398Y10079D01*
G01X30449Y9975D01*
G01X30553Y9870D01*
G01X30657Y9820D01*
G01X30866Y9820D01*
G01X30970Y9870D01*
G01X31074Y9975D01*
G01X31125Y10079D01*
G01X31125Y10234D01*
G01X30866Y10234D02*
G01X31125Y10234D01*
G01X36086Y7741D02*
G01X36032Y7846D01*
G01X35928Y7947D01*
G01X35826Y8001D01*
G01X35618Y8001D01*
G01X35514Y7947D01*
G01X35410Y7846D01*
G01X35357Y7741D01*
G01X35306Y7584D01*
G01X35306Y7325D01*
G01X35357Y7170D01*
G01X35410Y7066D01*
G01X35514Y6962D01*
G01X35618Y6908D01*
G01X35826Y6908D01*
G01X35928Y6962D01*
G01X36032Y7066D01*
G01X36086Y7170D01*
G01X36533Y8001D02*
G01X37104Y8001D01*
G01X36792Y7584D01*
G01X36947Y7584D01*
G01X37051Y7533D01*
G01X37104Y7480D01*
G01X37155Y7325D01*
G01X37155Y7221D01*
G01X37104Y7066D01*
G01X37000Y6962D01*
G01X36842Y6908D01*
G01X36688Y6908D01*
G01X36533Y6962D01*
G01X36479Y7012D01*
G01X36428Y7117D01*
G01X23040Y14794D02*
G01X24130Y14794D01*
G01X24130Y14794D02*
G01X24130Y15416D01*
G01X23040Y15759D02*
G01X24130Y15759D01*
G01X23040Y15759D02*
G01X23040Y16435D01*
G01X23558Y15759D02*
G01X23558Y16175D01*
G01X24130Y15759D02*
G01X24130Y16435D01*
G01X23040Y16777D02*
G01X24130Y16777D01*
G01X23040Y16777D02*
G01X23040Y17143D01*
G01X23091Y17298D01*
G01X23195Y17402D01*
G01X23299Y17453D01*
G01X23454Y17506D01*
G01X23713Y17506D01*
G01X23870Y17453D01*
G01X23975Y17402D01*
G01X24079Y17298D01*
G01X24130Y17143D01*
G01X24130Y16777D01*
G01X23040Y17953D02*
G01X23040Y18525D01*
G01X23454Y18213D01*
G01X23454Y18367D01*
G01X23507Y18472D01*
G01X23558Y18525D01*
G01X23713Y18576D01*
G01X23817Y18576D01*
G01X23975Y18525D01*
G01X24079Y18421D01*
G01X24130Y18263D01*
G01X24130Y18108D01*
G01X24079Y17953D01*
G01X24025Y17900D01*
G01X23921Y17849D01*
G01X39912Y2725D02*
G01X40692Y2725D01*
G01X40847Y2775D01*
G01X40951Y2880D01*
G01X41002Y3037D01*
G01X41002Y3141D01*
G01X40951Y3296D01*
G01X40847Y3400D01*
G01X40692Y3451D01*
G01X39912Y3451D01*
G01X40067Y4523D02*
G01X39963Y4419D01*
G01X39912Y4261D01*
G01X39912Y4056D01*
G01X39963Y3898D01*
G01X40067Y3794D01*
G01X40171Y3794D01*
G01X40275Y3847D01*
G01X40326Y3898D01*
G01X40379Y4002D01*
G01X40483Y4315D01*
G01X40534Y4419D01*
G01X40588Y4470D01*
G01X40692Y4523D01*
G01X40847Y4523D01*
G01X40951Y4419D01*
G01X41002Y4261D01*
G01X41002Y4056D01*
G01X40951Y3898D01*
G01X40847Y3794D01*
G01X39912Y4866D02*
G01X41002Y4866D01*
G01X39912Y4866D02*
G01X39912Y5333D01*
G01X39963Y5488D01*
G01X40016Y5542D01*
G01X40120Y5592D01*
G01X40222Y5592D01*
G01X40326Y5542D01*
G01X40379Y5488D01*
G01X40430Y5333D01*
G01X40430Y4866D02*
G01X40430Y5333D01*
G01X40483Y5488D01*
G01X40534Y5542D01*
G01X40638Y5592D01*
G01X40793Y5592D01*
G01X40897Y5542D01*
G01X40951Y5488D01*
G01X41002Y5333D01*
G01X41002Y4866D01*
G01X40120Y5935D02*
G01X40067Y6039D01*
G01X39912Y6194D01*
G01X41002Y6194D01*
G01X10414Y44198D02*
G01X10414Y43418D01*
G01X10464Y43263D01*
G01X10568Y43159D01*
G01X10726Y43108D01*
G01X10830Y43108D01*
G01X10985Y43159D01*
G01X11089Y43263D01*
G01X11140Y43418D01*
G01X11140Y44198D01*
G01X11536Y43939D02*
G01X11536Y43990D01*
G01X11587Y44094D01*
G01X11640Y44147D01*
G01X11744Y44198D01*
G01X11950Y44198D01*
G01X12054Y44147D01*
G01X12108Y44094D01*
G01X12158Y43990D01*
G01X12158Y43886D01*
G01X12108Y43781D01*
G01X12004Y43627D01*
G01X11483Y43108D01*
G01X12212Y43108D01*
G01X18433Y7741D02*
G01X18379Y7846D01*
G01X18275Y7947D01*
G01X18173Y8001D01*
G01X17965Y8001D01*
G01X17861Y7947D01*
G01X17757Y7846D01*
G01X17704Y7741D01*
G01X17653Y7584D01*
G01X17653Y7325D01*
G01X17704Y7170D01*
G01X17757Y7066D01*
G01X17861Y6962D01*
G01X17965Y6908D01*
G01X18173Y6908D01*
G01X18275Y6962D01*
G01X18379Y7066D01*
G01X18433Y7170D01*
G01X18775Y7792D02*
G01X18880Y7846D01*
G01X19035Y8001D01*
G01X19035Y6908D01*
G01X3047Y16096D02*
G01X3047Y15004D01*
G01X3047Y16096D02*
G01X3515Y16096D01*
G01X3670Y16042D01*
G01X3723Y15992D01*
G01X3774Y15887D01*
G01X3774Y15783D01*
G01X3723Y15679D01*
G01X3670Y15628D01*
G01X3515Y15575D01*
G01X3047Y15575D01*
G01X3410Y15575D02*
G01X3774Y15004D01*
G01X4637Y16096D02*
G01X4117Y15369D01*
G01X4896Y15369D01*
G01X4637Y16096D02*
G01X4637Y15004D01*
G01X27293Y32258D02*
G01X26514Y32258D01*
G01X26359Y32207D01*
G01X26254Y32103D01*
G01X26201Y31945D01*
G01X26201Y31841D01*
G01X26254Y31686D01*
G01X26359Y31582D01*
G01X26514Y31531D01*
G01X27293Y31531D01*
G01X27293Y30667D02*
G01X26564Y31188D01*
G01X26564Y30408D01*
G01X27293Y30667D02*
G01X26201Y30667D01*
G01X8001Y2158D02*
G01X8001Y1069D01*
G01X8001Y2158D02*
G01X8468Y2158D01*
G01X8623Y2108D01*
G01X8676Y2054D01*
G01X8727Y1950D01*
G01X8727Y1846D01*
G01X8676Y1742D01*
G01X8623Y1691D01*
G01X8468Y1640D01*
G01X8001Y1640D02*
G01X8468Y1640D01*
G01X8623Y1587D01*
G01X8676Y1536D01*
G01X8727Y1432D01*
G01X8727Y1274D01*
G01X8676Y1170D01*
G01X8623Y1119D01*
G01X8468Y1069D01*
G01X8001Y1069D01*
G01X9382Y2158D02*
G01X9278Y2108D01*
G01X9174Y2003D01*
G01X9123Y1899D01*
G01X9070Y1742D01*
G01X9070Y1483D01*
G01X9123Y1328D01*
G01X9174Y1224D01*
G01X9278Y1119D01*
G01X9382Y1069D01*
G01X9591Y1069D01*
G01X9695Y1119D01*
G01X9799Y1224D01*
G01X9850Y1328D01*
G01X9903Y1483D01*
G01X9903Y1742D01*
G01X9850Y1899D01*
G01X9799Y2003D01*
G01X9695Y2108D01*
G01X9591Y2158D01*
G01X9382Y2158D01*
G01X10556Y2158D02*
G01X10452Y2108D01*
G01X10350Y2003D01*
G01X10297Y1899D01*
G01X10246Y1742D01*
G01X10246Y1483D01*
G01X10297Y1328D01*
G01X10350Y1224D01*
G01X10452Y1119D01*
G01X10556Y1069D01*
G01X10764Y1069D01*
G01X10868Y1119D01*
G01X10972Y1224D01*
G01X11023Y1328D01*
G01X11076Y1483D01*
G01X11076Y1742D01*
G01X11023Y1899D01*
G01X10972Y2003D01*
G01X10868Y2108D01*
G01X10764Y2158D01*
G01X10556Y2158D01*
G01X11783Y2158D02*
G01X11783Y1069D01*
G01X11419Y2158D02*
G01X12146Y2158D01*
G01X9017Y15609D02*
G01X9017Y14519D01*
G01X9017Y15609D02*
G01X9692Y15609D01*
G01X9017Y15091D02*
G01X9433Y15091D01*
G01X9017Y14519D02*
G01X9692Y14519D01*
G01X10035Y15609D02*
G01X10035Y14519D01*
G01X10035Y15609D02*
G01X10761Y14519D01*
G01X10761Y15609D02*
G01X10761Y14519D01*
G01X36086Y10408D02*
G01X36032Y10513D01*
G01X35928Y10614D01*
G01X35826Y10668D01*
G01X35618Y10668D01*
G01X35514Y10614D01*
G01X35410Y10513D01*
G01X35357Y10408D01*
G01X35306Y10251D01*
G01X35306Y9992D01*
G01X35357Y9837D01*
G01X35410Y9733D01*
G01X35514Y9629D01*
G01X35618Y9575D01*
G01X35826Y9575D01*
G01X35928Y9629D01*
G01X36032Y9733D01*
G01X36086Y9837D01*
G01X37051Y10668D02*
G01X36533Y10668D01*
G01X36479Y10200D01*
G01X36533Y10251D01*
G01X36688Y10304D01*
G01X36842Y10304D01*
G01X37000Y10251D01*
G01X37104Y10147D01*
G01X37155Y9992D01*
G01X37155Y9888D01*
G01X37104Y9733D01*
G01X37000Y9629D01*
G01X36842Y9575D01*
G01X36688Y9575D01*
G01X36533Y9629D01*
G01X36479Y9679D01*
G01X36428Y9784D01*
G01X17924Y5074D02*
G01X17871Y5179D01*
G01X17767Y5280D01*
G01X17665Y5333D01*
G01X17457Y5333D01*
G01X17353Y5280D01*
G01X17248Y5179D01*
G01X17195Y5074D01*
G01X17144Y4917D01*
G01X17144Y4658D01*
G01X17195Y4503D01*
G01X17248Y4399D01*
G01X17353Y4295D01*
G01X17457Y4241D01*
G01X17665Y4241D01*
G01X17767Y4295D01*
G01X17871Y4399D01*
G01X17924Y4503D01*
G01X18993Y5333D02*
G01X18475Y4241D01*
G01X18267Y5333D02*
G01X18993Y5333D01*
G01X15639Y7869D02*
G01X15585Y7973D01*
G01X15481Y8074D01*
G01X15380Y8128D01*
G01X15171Y8128D01*
G01X15067Y8074D01*
G01X14963Y7973D01*
G01X14910Y7869D01*
G01X14859Y7711D01*
G01X14859Y7452D01*
G01X14910Y7297D01*
G01X14963Y7193D01*
G01X15067Y7089D01*
G01X15171Y7036D01*
G01X15380Y7036D01*
G01X15481Y7089D01*
G01X15585Y7193D01*
G01X15639Y7297D01*
G01X16241Y8128D02*
G01X16086Y8074D01*
G01X16033Y7973D01*
G01X16033Y7869D01*
G01X16086Y7765D01*
G01X16190Y7711D01*
G01X16396Y7660D01*
G01X16553Y7607D01*
G01X16657Y7503D01*
G01X16708Y7401D01*
G01X16708Y7244D01*
G01X16657Y7140D01*
G01X16604Y7089D01*
G01X16449Y7036D01*
G01X16241Y7036D01*
G01X16086Y7089D01*
G01X16033Y7140D01*
G01X15982Y7244D01*
G01X15982Y7401D01*
G01X16033Y7503D01*
G01X16137Y7607D01*
G01X16294Y7660D01*
G01X16500Y7711D01*
G01X16604Y7765D01*
G01X16657Y7869D01*
G01X16657Y7973D01*
G01X16604Y8074D01*
G01X16449Y8128D01*
G01X16241Y8128D01*
G01X2159Y5576D02*
G01X2159Y4484D01*
G01X2159Y5576D02*
G01X2626Y5576D01*
G01X2781Y5523D01*
G01X2834Y5472D01*
G01X2885Y5368D01*
G01X2885Y5264D01*
G01X2834Y5160D01*
G01X2781Y5109D01*
G01X2626Y5055D01*
G01X2159Y5055D01*
G01X2522Y5055D02*
G01X2885Y4484D01*
G01X3228Y5368D02*
G01X3332Y5421D01*
G01X3489Y5576D01*
G01X3489Y4484D01*
G01X4455Y5576D02*
G01X3937Y5576D01*
G01X3883Y5109D01*
G01X3937Y5160D01*
G01X4091Y5213D01*
G01X4246Y5213D01*
G01X4404Y5160D01*
G01X4508Y5055D01*
G01X4559Y4900D01*
G01X4559Y4796D01*
G01X4508Y4641D01*
G01X4404Y4537D01*
G01X4246Y4484D01*
G01X4091Y4484D01*
G01X3937Y4537D01*
G01X3883Y4588D01*
G01X3832Y4692D01*
G01X15344Y14066D02*
G01X15240Y14012D01*
G01X15138Y13908D01*
G01X15085Y13807D01*
G01X15085Y13598D01*
G01X15138Y13494D01*
G01X15240Y13390D01*
G01X15344Y13337D01*
G01X15502Y13286D01*
G01X15761Y13286D01*
G01X15916Y13337D01*
G01X16020Y13390D01*
G01X16124Y13494D01*
G01X16177Y13598D01*
G01X16177Y13807D01*
G01X16124Y13908D01*
G01X16020Y14012D01*
G01X15916Y14066D01*
G01X15448Y15084D02*
G01X15606Y15031D01*
G01X15710Y14927D01*
G01X15761Y14772D01*
G01X15761Y14721D01*
G01X15710Y14564D01*
G01X15606Y14460D01*
G01X15448Y14409D01*
G01X15398Y14409D01*
G01X15240Y14460D01*
G01X15138Y14564D01*
G01X15085Y14721D01*
G01X15085Y14772D01*
G01X15138Y14927D01*
G01X15240Y15031D01*
G01X15448Y15084D01*
G01X15710Y15084D01*
G01X15969Y15031D01*
G01X16124Y14927D01*
G01X16177Y14772D01*
G01X16177Y14668D01*
G01X16124Y14513D01*
G01X16020Y14460D01*
G01X2286Y12561D02*
G01X2286Y11469D01*
G01X2286Y12561D02*
G01X2753Y12561D01*
G01X2908Y12508D01*
G01X2961Y12457D01*
G01X3012Y12353D01*
G01X3012Y12249D01*
G01X2961Y12145D01*
G01X2908Y12094D01*
G01X2753Y12040D01*
G01X2286Y12040D01*
G01X2649Y12040D02*
G01X3012Y11469D01*
G01X3355Y12353D02*
G01X3459Y12406D01*
G01X3616Y12561D01*
G01X3616Y11469D01*
G01X4582Y12406D02*
G01X4531Y12508D01*
G01X4373Y12561D01*
G01X4269Y12561D01*
G01X4114Y12508D01*
G01X4010Y12353D01*
G01X3959Y12094D01*
G01X3959Y11835D01*
G01X4010Y11626D01*
G01X4114Y11522D01*
G01X4269Y11469D01*
G01X4323Y11469D01*
G01X4478Y11522D01*
G01X4582Y11626D01*
G01X4635Y11781D01*
G01X4635Y11835D01*
G01X4582Y11990D01*
G01X4478Y12094D01*
G01X4323Y12145D01*
G01X4269Y12145D01*
G01X4114Y12094D01*
G01X4010Y11990D01*
G01X3959Y11835D01*
G01X25526Y20955D02*
G01X25526Y19865D01*
G01X25526Y19865D02*
G01X26149Y19865D01*
G01X26492Y20955D02*
G01X26492Y19865D01*
G01X26492Y20955D02*
G01X26857Y20955D01*
G01X27012Y20904D01*
G01X27116Y20800D01*
G01X27167Y20696D01*
G01X27221Y20541D01*
G01X27221Y20279D01*
G01X27167Y20124D01*
G01X27116Y20020D01*
G01X27012Y19916D01*
G01X26857Y19865D01*
G01X26492Y19865D01*
G01X27563Y20746D02*
G01X27668Y20800D01*
G01X27822Y20955D01*
G01X27822Y19865D01*
G01X28582Y20955D02*
G01X28165Y19865D01*
G01X28582Y20955D02*
G01X28996Y19865D01*
G01X28320Y20228D02*
G01X28841Y20228D01*
G01X30119Y20696D02*
G01X30068Y20800D01*
G01X29964Y20904D01*
G01X29860Y20955D01*
G01X29651Y20955D01*
G01X29547Y20904D01*
G01X29443Y20800D01*
G01X29392Y20696D01*
G01X29339Y20541D01*
G01X29339Y20279D01*
G01X29392Y20124D01*
G01X29443Y20020D01*
G01X29547Y19916D01*
G01X29651Y19865D01*
G01X29860Y19865D01*
G01X29964Y19916D01*
G01X30068Y20020D01*
G01X30119Y20124D01*
G01X30119Y20279D01*
G01X29860Y20279D02*
G01X30119Y20279D01*
G01X18051Y10408D02*
G01X17998Y10513D01*
G01X17894Y10617D01*
G01X17792Y10668D01*
G01X17584Y10668D01*
G01X17480Y10617D01*
G01X17376Y10513D01*
G01X17322Y10408D01*
G01X17271Y10251D01*
G01X17271Y9992D01*
G01X17322Y9837D01*
G01X17376Y9733D01*
G01X17480Y9629D01*
G01X17584Y9575D01*
G01X17792Y9575D01*
G01X17894Y9629D01*
G01X17998Y9733D01*
G01X18051Y9837D01*
G01X19016Y10513D02*
G01X18966Y10617D01*
G01X18808Y10668D01*
G01X18707Y10668D01*
G01X18549Y10617D01*
G01X18445Y10459D01*
G01X18394Y10200D01*
G01X18394Y9941D01*
G01X18445Y9733D01*
G01X18549Y9629D01*
G01X18707Y9575D01*
G01X18757Y9575D01*
G01X18912Y9629D01*
G01X19016Y9733D01*
G01X19070Y9888D01*
G01X19070Y9941D01*
G01X19016Y10096D01*
G01X18912Y10200D01*
G01X18757Y10251D01*
G01X18707Y10251D01*
G01X18549Y10200D01*
G01X18445Y10096D01*
G01X18394Y9941D01*
G01X17924Y2661D02*
G01X17871Y2766D01*
G01X17767Y2870D01*
G01X17665Y2920D01*
G01X17457Y2920D01*
G01X17353Y2870D01*
G01X17249Y2766D01*
G01X17195Y2661D01*
G01X17145Y2504D01*
G01X17145Y2245D01*
G01X17195Y2090D01*
G01X17249Y1986D01*
G01X17353Y1882D01*
G01X17457Y1828D01*
G01X17665Y1828D01*
G01X17767Y1882D01*
G01X17871Y1986D01*
G01X17924Y2090D01*
G01X18318Y2661D02*
G01X18318Y2712D01*
G01X18371Y2816D01*
G01X18422Y2870D01*
G01X18526Y2920D01*
G01X18735Y2920D01*
G01X18839Y2870D01*
G01X18889Y2816D01*
G01X18943Y2712D01*
G01X18943Y2608D01*
G01X18889Y2504D01*
G01X18785Y2349D01*
G01X18267Y1828D01*
G01X18994Y1828D01*
G01X2938Y8884D02*
G01X2885Y8989D01*
G01X2781Y9093D01*
G01X2679Y9143D01*
G01X2471Y9143D01*
G01X2367Y9093D01*
G01X2263Y8989D01*
G01X2209Y8884D01*
G01X2159Y8727D01*
G01X2159Y8468D01*
G01X2209Y8313D01*
G01X2263Y8209D01*
G01X2367Y8105D01*
G01X2471Y8051D01*
G01X2679Y8051D01*
G01X2781Y8105D01*
G01X2885Y8209D01*
G01X2938Y8313D01*
G01X3281Y8935D02*
G01X3385Y8989D01*
G01X3540Y9143D01*
G01X3540Y8051D01*
G01X4196Y9143D02*
G01X4038Y9093D01*
G01X3937Y8935D01*
G01X3883Y8676D01*
G01X3883Y8521D01*
G01X3937Y8260D01*
G01X4038Y8105D01*
G01X4196Y8051D01*
G01X4300Y8051D01*
G01X4455Y8105D01*
G01X4559Y8260D01*
G01X4610Y8521D01*
G01X4610Y8676D01*
G01X4559Y8935D01*
G01X4455Y9093D01*
G01X4300Y9143D01*
G01X4196Y9143D01*
G01X21336Y23875D02*
G01X21336Y22783D01*
G01X21336Y23875D02*
G01X21803Y23875D01*
G01X21958Y23825D01*
G01X22011Y23771D01*
G01X22062Y23667D01*
G01X22062Y23563D01*
G01X22011Y23459D01*
G01X21958Y23408D01*
G01X21803Y23355D01*
G01X21336Y23355D01*
G01X21699Y23355D02*
G01X22062Y22783D01*
G01X22509Y23875D02*
G01X23080Y23875D01*
G01X22771Y23459D01*
G01X22926Y23459D01*
G01X23030Y23408D01*
G01X23080Y23355D01*
G01X23134Y23200D01*
G01X23134Y23096D01*
G01X23080Y22941D01*
G01X22976Y22837D01*
G01X22821Y22783D01*
G01X22666Y22783D01*
G01X22509Y22837D01*
G01X22458Y22887D01*
G01X22405Y22992D01*
G01X27050Y26416D02*
G01X27050Y25326D01*
G01X27050Y25326D02*
G01X27673Y25326D01*
G01X28016Y26416D02*
G01X28016Y25326D01*
G01X28016Y26416D02*
G01X28691Y26416D01*
G01X28016Y25897D02*
G01X28432Y25897D01*
G01X28016Y25326D02*
G01X28691Y25326D01*
G01X29034Y26416D02*
G01X29034Y25326D01*
G01X29034Y26416D02*
G01X29400Y26416D01*
G01X29555Y26365D01*
G01X29659Y26261D01*
G01X29710Y26156D01*
G01X29763Y26001D01*
G01X29763Y25742D01*
G01X29710Y25585D01*
G01X29659Y25481D01*
G01X29555Y25377D01*
G01X29400Y25326D01*
G01X29034Y25326D01*
G01X17653Y13207D02*
G01X17653Y12115D01*
G01X17653Y13207D02*
G01X18120Y13207D01*
G01X18275Y13157D01*
G01X18328Y13103D01*
G01X18379Y12999D01*
G01X18379Y12895D01*
G01X18328Y12791D01*
G01X18275Y12740D01*
G01X18120Y12687D01*
G01X17653Y12687D01*
G01X18016Y12687D02*
G01X18379Y12115D01*
G01X18722Y12999D02*
G01X18826Y13053D01*
G01X18983Y13207D01*
G01X18983Y12115D01*
G01X40892Y37696D02*
G01X40997Y37749D01*
G01X41152Y37904D01*
G01X41152Y36815D01*
G54D42*
G01X36892Y32888D02*
G01X36892Y31676D01*
G01X38139Y32598D02*
G01X38081Y32715D01*
G01X37966Y32829D01*
G01X37850Y32888D01*
G01X37621Y32888D01*
G01X37504Y32829D01*
G01X37390Y32715D01*
G01X37331Y32598D01*
G01X37273Y32425D01*
G01X37273Y32136D01*
G01X37331Y31963D01*
G01X37390Y31849D01*
G01X37504Y31732D01*
G01X37621Y31676D01*
G01X37850Y31676D01*
G01X37966Y31732D01*
G01X38081Y31849D01*
G01X38139Y31963D01*
G01X37893Y35887D02*
G01X37893Y34676D01*
G01X37893Y35887D02*
G01X38411Y35887D01*
G01X38586Y35829D01*
G01X38642Y35771D01*
G01X38700Y35656D01*
G01X38700Y35542D01*
G01X38642Y35425D01*
G01X38586Y35367D01*
G01X38411Y35311D01*
G01X37893Y35311D01*
G01X38297Y35311D02*
G01X38700Y34676D01*
G01X39081Y35887D02*
G01X39081Y34676D01*
G01X39081Y35887D02*
G01X39833Y35887D01*
G01X39081Y35311D02*
G01X39544Y35311D01*
G01X40214Y35887D02*
G01X40214Y34676D01*
G01X40214Y35887D02*
G01X40674Y34676D01*
G01X41136Y35887D02*
G01X40674Y34676D01*
G01X41136Y35887D02*
G01X41136Y34676D01*
G01X42269Y35484D02*
G01X42211Y35311D01*
G01X42094Y35194D01*
G01X41921Y35136D01*
G01X41865Y35136D01*
G01X41690Y35194D01*
G01X41576Y35311D01*
G01X41517Y35484D01*
G01X41517Y35542D01*
G01X41576Y35715D01*
G01X41690Y35829D01*
G01X41865Y35887D01*
G01X41921Y35887D01*
G01X42094Y35829D01*
G01X42211Y35715D01*
G01X42269Y35484D01*
G01X42269Y35194D01*
G01X42211Y34907D01*
G01X42094Y34732D01*
G01X41921Y34676D01*
G01X41807Y34676D01*
G01X41634Y34732D01*
G01X41576Y34849D01*
G01X43341Y35887D02*
G01X42764Y35887D01*
G01X42706Y35367D01*
G01X42764Y35425D01*
G01X42937Y35484D01*
G01X43110Y35484D01*
G01X43285Y35425D01*
G01X43399Y35311D01*
G01X43458Y35136D01*
G01X43458Y35021D01*
G01X43399Y34849D01*
G01X43285Y34732D01*
G01X43110Y34676D01*
G01X42937Y34676D01*
G01X42764Y34732D01*
G01X42706Y34790D01*
G01X42650Y34907D01*
G54D44*
G01X46532Y10154D02*
G01X46532Y10205D01*
G01X46586Y10309D01*
G01X46636Y10360D01*
G01X46741Y10414D01*
G01X46949Y10414D01*
G01X47053Y10360D01*
G01X47104Y10309D01*
G01X47157Y10205D01*
G01X47157Y10101D01*
G01X47104Y9997D01*
G01X47002Y9842D01*
G01X46482Y9321D01*
G01X47208Y9321D01*
G01X47117Y13716D02*
G01X47117Y12938D01*
G01X47167Y12781D01*
G01X47271Y12677D01*
G01X47429Y12626D01*
G01X47533Y12626D01*
G01X47688Y12677D01*
G01X47792Y12781D01*
G01X47843Y12938D01*
G01X47843Y13716D01*
G01X48186Y13510D02*
G01X48290Y13561D01*
G01X48447Y13716D01*
G01X48447Y12626D01*
G01X45801Y3281D02*
G01X46631Y3281D01*
G01X46786Y3228D01*
G01X46840Y3177D01*
G01X46890Y3073D01*
G01X46890Y2969D01*
G01X46840Y2865D01*
G01X46786Y2811D01*
G01X46631Y2761D01*
G01X46527Y2761D01*
G01X45592Y3883D02*
G01X47099Y3883D01*
G01X45592Y4091D02*
G01X47099Y4091D01*
G01X45956Y4351D02*
G01X45852Y4246D01*
G01X45801Y4091D01*
G01X45801Y3883D01*
G01X45852Y3726D01*
G01X45956Y3624D01*
G01X46060Y3624D01*
G01X46164Y3675D01*
G01X46215Y3726D01*
G01X46268Y3830D01*
G01X46372Y4142D01*
G01X46423Y4246D01*
G01X46474Y4297D01*
G01X46578Y4351D01*
G01X46735Y4351D01*
G01X46840Y4246D01*
G01X46890Y4091D01*
G01X46890Y3883D01*
G01X46840Y3726D01*
G01X46735Y3624D01*
G01X46006Y4693D02*
G01X45956Y4798D01*
G01X45801Y4953D01*
G01X46890Y4953D01*
G01X43053Y17218D02*
G01X43053Y16129D01*
G01X43053Y17218D02*
G01X43520Y17218D01*
G01X43675Y17167D01*
G01X43728Y17117D01*
G01X43779Y17012D01*
G01X43779Y16855D01*
G01X43728Y16751D01*
G01X43675Y16700D01*
G01X43520Y16647D01*
G01X43053Y16647D01*
G01X44122Y17012D02*
G01X44226Y17063D01*
G01X44383Y17218D01*
G01X44383Y16129D01*
G01X31496Y16041D02*
G01X31496Y14949D01*
G01X31889Y15782D02*
G01X31889Y15833D01*
G01X31943Y15937D01*
G01X31993Y15988D01*
G01X32097Y16041D01*
G01X32306Y16041D01*
G01X32410Y15988D01*
G01X32461Y15937D01*
G01X32514Y15833D01*
G01X32514Y15729D01*
G01X32461Y15625D01*
G01X32359Y15470D01*
G01X31838Y14949D01*
G01X32565Y14949D01*
G01X33688Y15782D02*
G01X33637Y15886D01*
G01X33533Y15988D01*
G01X33428Y16041D01*
G01X33220Y16041D01*
G01X33116Y15988D01*
G01X33012Y15886D01*
G01X32961Y15782D01*
G01X32908Y15625D01*
G01X32908Y15365D01*
G01X32961Y15210D01*
G01X33012Y15106D01*
G01X33116Y15002D01*
G01X33220Y14949D01*
G01X33428Y14949D01*
G01X33533Y15002D01*
G01X33637Y15106D01*
G01X33688Y15210D01*
G01X34030Y14586D02*
G01X34965Y14586D01*
G01X35308Y16041D02*
G01X35308Y14949D01*
G01X35308Y16041D02*
G01X35775Y16041D01*
G01X35933Y15988D01*
G01X35984Y15937D01*
G01X36037Y15833D01*
G01X36037Y15729D01*
G01X35984Y15625D01*
G01X35933Y15574D01*
G01X35775Y15520D01*
G01X35308Y15520D02*
G01X35775Y15520D01*
G01X35933Y15470D01*
G01X35984Y15416D01*
G01X36037Y15315D01*
G01X36037Y15157D01*
G01X35984Y15053D01*
G01X35933Y15002D01*
G01X35775Y14949D01*
G01X35308Y14949D01*
G01X36380Y16041D02*
G01X36380Y15261D01*
G01X36431Y15106D01*
G01X36535Y15002D01*
G01X36690Y14949D01*
G01X36794Y14949D01*
G01X36951Y15002D01*
G01X37056Y15106D01*
G01X37106Y15261D01*
G01X37106Y16041D01*
G01X38176Y15886D02*
G01X38074Y15988D01*
G01X37917Y16041D01*
G01X37708Y16041D01*
G01X37553Y15988D01*
G01X37449Y15886D01*
G01X37449Y15782D01*
G01X37503Y15678D01*
G01X37553Y15625D01*
G01X37658Y15574D01*
G01X37970Y15470D01*
G01X38074Y15416D01*
G01X38125Y15365D01*
G01X38176Y15261D01*
G01X38176Y15106D01*
G01X38074Y15002D01*
G01X37917Y14949D01*
G01X37708Y14949D01*
G01X37553Y15002D01*
G01X37449Y15106D01*
G01X38100Y10580D02*
G01X38100Y9488D01*
G01X38100Y10580D02*
G01X38463Y10580D01*
G01X38620Y10527D01*
G01X38722Y10425D01*
G01X38775Y10321D01*
G01X38826Y10163D01*
G01X38826Y9904D01*
G01X38775Y9749D01*
G01X38722Y9645D01*
G01X38620Y9541D01*
G01X38463Y9488D01*
G01X38100Y9488D01*
G01X39222Y10321D02*
G01X39222Y10372D01*
G01X39273Y10476D01*
G01X39326Y10527D01*
G01X39430Y10580D01*
G01X39636Y10580D01*
G01X39740Y10527D01*
G01X39794Y10476D01*
G01X39844Y10372D01*
G01X39844Y10268D01*
G01X39794Y10163D01*
G01X39690Y10008D01*
G01X39169Y9488D01*
G01X39898Y9488D01*
G01X38099Y8254D02*
G01X38099Y7162D01*
G01X38099Y8254D02*
G01X38463Y8254D01*
G01X38620Y8201D01*
G01X38722Y8100D01*
G01X38775Y7995D01*
G01X38826Y7838D01*
G01X38826Y7579D01*
G01X38775Y7424D01*
G01X38722Y7320D01*
G01X38620Y7216D01*
G01X38463Y7162D01*
G01X38099Y7162D01*
G01X39169Y8046D02*
G01X39273Y8100D01*
G01X39430Y8254D01*
G01X39430Y7162D01*
G01X25727Y35051D02*
G01X25153Y35051D01*
G01X25727Y35051D02*
G01X25727Y34807D01*
G01X25699Y34723D01*
G01X25672Y34698D01*
G01X25618Y34670D01*
G01X25562Y34670D01*
G01X25509Y34698D01*
G01X25481Y34723D01*
G01X25453Y34807D01*
G01X25453Y35051D01*
G01X25453Y34860D02*
G01X25153Y34670D01*
G01X25727Y34490D02*
G01X25153Y34109D01*
G01X25727Y34109D02*
G01X25153Y34490D01*
G01X25727Y33928D02*
G01X25153Y33928D01*
G01X25727Y33928D02*
G01X25727Y33738D01*
G01X25699Y33656D01*
G01X25646Y33601D01*
G01X25590Y33573D01*
G01X25509Y33547D01*
G01X25372Y33547D01*
G01X25291Y33573D01*
G01X25235Y33601D01*
G01X25181Y33656D01*
G01X25153Y33738D01*
G01X25153Y33928D01*
G01X25755Y32811D02*
G01X25183Y32811D01*
G01X25755Y33002D02*
G01X25755Y32618D01*
G01X25755Y32440D02*
G01X25183Y32057D01*
G01X25755Y32057D02*
G01X25183Y32440D01*
G01X25755Y31876D02*
G01X25183Y31876D01*
G01X25755Y31876D02*
G01X25755Y31686D01*
G01X25727Y31605D01*
G01X25673Y31549D01*
G01X25618Y31523D01*
G01X25536Y31495D01*
G01X25399Y31495D01*
G01X25318Y31523D01*
G01X25264Y31549D01*
G01X25209Y31605D01*
G01X25183Y31686D01*
G01X25183Y31876D01*
G01X25755Y30997D02*
G01X25755Y30695D01*
G01X25536Y30860D01*
G01X25536Y30779D01*
G01X25508Y30723D01*
G01X25483Y30695D01*
G01X25399Y30670D01*
G01X25346Y30670D01*
G01X25264Y30695D01*
G01X25209Y30751D01*
G01X25183Y30832D01*
G01X25183Y30914D01*
G01X25209Y30997D01*
G01X25237Y31023D01*
G01X25290Y31051D01*
G01X25318Y30462D02*
G01X25290Y30489D01*
G01X25264Y30462D01*
G01X25290Y30434D01*
G01X25318Y30462D01*
G01X25755Y30200D02*
G01X25755Y29900D01*
G01X25536Y30063D01*
G01X25536Y29981D01*
G01X25508Y29928D01*
G01X25483Y29900D01*
G01X25399Y29872D01*
G01X25346Y29872D01*
G01X25264Y29900D01*
G01X25209Y29954D01*
G01X25183Y30037D01*
G01X25183Y30119D01*
G01X25209Y30200D01*
G01X25237Y30228D01*
G01X25290Y30253D01*
G01X25755Y29692D02*
G01X25183Y29473D01*
G01X25755Y29255D02*
G01X25183Y29473D01*
G01X25618Y28592D02*
G01X25673Y28620D01*
G01X25727Y28673D01*
G01X25755Y28729D01*
G01X25755Y28838D01*
G01X25727Y28892D01*
G01X25673Y28945D01*
G01X25618Y28973D01*
G01X25536Y29001D01*
G01X25399Y29001D01*
G01X25318Y28973D01*
G01X25264Y28945D01*
G01X25209Y28892D01*
G01X25183Y28838D01*
G01X25183Y28729D01*
G01X25209Y28673D01*
G01X25264Y28620D01*
G01X25318Y28592D01*
G01X25399Y28592D01*
G01X25399Y28729D02*
G01X25399Y28592D01*
G01X25755Y28412D02*
G01X25183Y28412D01*
G01X25755Y28412D02*
G01X25183Y28031D01*
G01X25755Y28031D02*
G01X25183Y28031D01*
G01X25755Y27850D02*
G01X25183Y27850D01*
G01X25755Y27850D02*
G01X25755Y27660D01*
G01X25727Y27576D01*
G01X25673Y27523D01*
G01X25618Y27495D01*
G01X25536Y27467D01*
G01X25399Y27467D01*
G01X25318Y27495D01*
G01X25264Y27523D01*
G01X25209Y27576D01*
G01X25183Y27660D01*
G01X25183Y27850D01*
G01X30888Y17261D02*
G01X30860Y17317D01*
G01X30807Y17371D01*
G01X30751Y17398D01*
G01X30642Y17398D01*
G01X30589Y17371D01*
G01X30535Y17317D01*
G01X30507Y17261D01*
G01X30479Y17180D01*
G01X30479Y17043D01*
G01X30507Y16962D01*
G01X30535Y16908D01*
G01X30589Y16852D01*
G01X30642Y16827D01*
G01X30751Y16827D01*
G01X30807Y16852D01*
G01X30860Y16908D01*
G01X30888Y16962D01*
G01X30888Y17043D01*
G01X30751Y17043D02*
G01X30888Y17043D01*
G01X31069Y17398D02*
G01X31069Y16827D01*
G01X31069Y17398D02*
G01X31450Y16827D01*
G01X31450Y17398D02*
G01X31450Y16827D01*
G01X31630Y17398D02*
G01X31630Y16827D01*
G01X31630Y17398D02*
G01X31821Y17398D01*
G01X31904Y17371D01*
G01X31958Y17317D01*
G01X31986Y17261D01*
G01X32014Y17180D01*
G01X32014Y17043D01*
G01X31986Y16962D01*
G01X31958Y16908D01*
G01X31904Y16852D01*
G01X31821Y16827D01*
G01X31630Y16827D01*
G01X36756Y17398D02*
G01X37058Y17398D01*
G01X36893Y17180D01*
G01X36974Y17180D01*
G01X37030Y17152D01*
G01X37058Y17127D01*
G01X37083Y17043D01*
G01X37083Y16990D01*
G01X37058Y16908D01*
G01X37002Y16852D01*
G01X36921Y16827D01*
G01X36840Y16827D01*
G01X36756Y16852D01*
G01X36730Y16880D01*
G01X36702Y16934D01*
G01X37292Y16962D02*
G01X37264Y16934D01*
G01X37292Y16908D01*
G01X37320Y16934D01*
G01X37292Y16962D01*
G01X37553Y17398D02*
G01X37853Y17398D01*
G01X37691Y17180D01*
G01X37772Y17180D01*
G01X37825Y17152D01*
G01X37853Y17127D01*
G01X37881Y17043D01*
G01X37881Y16990D01*
G01X37853Y16908D01*
G01X37800Y16852D01*
G01X37716Y16827D01*
G01X37635Y16827D01*
G01X37553Y16852D01*
G01X37525Y16880D01*
G01X37500Y16934D01*
G01X38061Y17398D02*
G01X38280Y16827D01*
G01X38498Y17398D02*
G01X38280Y16827D01*
G01X32893Y17317D02*
G01X32839Y17371D01*
G01X32758Y17399D01*
G01X32649Y17399D01*
G01X32567Y17371D01*
G01X32512Y17317D01*
G01X32512Y17261D01*
G01X32539Y17208D01*
G01X32567Y17180D01*
G01X32621Y17152D01*
G01X32783Y17099D01*
G01X32839Y17071D01*
G01X32867Y17043D01*
G01X32893Y16990D01*
G01X32893Y16908D01*
G01X32839Y16852D01*
G01X32758Y16827D01*
G01X32649Y16827D01*
G01X32567Y16852D01*
G01X32512Y16908D01*
G01X33073Y17399D02*
G01X33073Y16827D01*
G01X33073Y17399D02*
G01X33263Y17399D01*
G01X33347Y17371D01*
G01X33401Y17317D01*
G01X33428Y17261D01*
G01X33456Y17180D01*
G01X33456Y17043D01*
G01X33428Y16962D01*
G01X33401Y16908D01*
G01X33347Y16852D01*
G01X33263Y16827D01*
G01X33073Y16827D01*
G01X33853Y17399D02*
G01X33634Y16827D01*
G01X33853Y17399D02*
G01X34071Y16827D01*
G01X33718Y17018D02*
G01X33990Y17018D01*
G01X35052Y17317D02*
G01X34998Y17371D01*
G01X34917Y17399D01*
G01X34808Y17399D01*
G01X34724Y17371D01*
G01X34671Y17317D01*
G01X34671Y17261D01*
G01X34698Y17208D01*
G01X34724Y17180D01*
G01X34780Y17152D01*
G01X34942Y17099D01*
G01X34998Y17071D01*
G01X35026Y17043D01*
G01X35052Y16990D01*
G01X35052Y16908D01*
G01X34998Y16852D01*
G01X34917Y16824D01*
G01X34808Y16824D01*
G01X34724Y16852D01*
G01X34671Y16908D01*
G01X35641Y17261D02*
G01X35615Y17317D01*
G01X35560Y17371D01*
G01X35506Y17399D01*
G01X35397Y17399D01*
G01X35341Y17371D01*
G01X35288Y17317D01*
G01X35260Y17261D01*
G01X35232Y17180D01*
G01X35232Y17043D01*
G01X35260Y16962D01*
G01X35288Y16908D01*
G01X35341Y16852D01*
G01X35397Y16824D01*
G01X35506Y16824D01*
G01X35560Y16852D01*
G01X35615Y16908D01*
G01X35641Y16962D01*
G01X35821Y17399D02*
G01X35821Y16824D01*
G01X35821Y16824D02*
G01X36149Y16824D01*
G54D41*
G75*
G01X49813Y9779D02*
G03X49797Y9692I-250J0D01*
G01*
G75*
G01X51063Y9779D02*
G03X51057Y9646I-1500J-1D01*
G01*
G75*
G01X51363Y9779D02*
G03X51356Y9619I-1800J3D01*
G01*
G75*
G01X48963Y10079D02*
G02X50163Y10079I600J0D01*
G01*
G75*
G01X50163Y9479D02*
G02X48963Y9479I-600J0D01*
G01*
G54D10*
G75*
G01X10790Y5080D02*
G03X10790Y5080I-884J0D01*
G01*
G75*
G01X10790Y11549D02*
G03X10790Y11549I-884J0D01*
G01*
M00*
M02*
