;Layer: Drill PTH
;EasyEDA v6.2.35, 2019-08-15T18:41:42+02:00
;d928556bf1d54400a7a5e192a75a7165,10119efe1344418d97fa33539d7a4e55,10
;Gerber Generator version 0.2
M48
METRIC,LZ,000.000
;Holesize 1 = 0.305 METRIC
T01C0.305
;Holesize 2 = 0.701 METRIC
T02C0.701
;Holesize 3 = 0.901 METRIC
T03C0.901
;Holesize 4 = 0.915 METRIC
T04C0.915
;Holesize 5 = 1.016 METRIC
T05C1.016
%
G05
G90
T01
X+018796Y+016129
X+002286Y+001270
X+000508Y+034036
X+046482Y+026416
X+045720Y+031115
X+042037Y+030607
X+039624Y+030480
X+028575Y+027178
X+003556Y+027686
X+035941Y+025273
X+004064Y+020066
X+029337Y+031242
X+021209Y+034163
X+027686Y+015494
X+017145Y+014224
X+038608Y+010541
X+023622Y+016891
X+014986Y+019431
X+016764Y+020193
X+015621Y+026543
X+046863Y+011684
X+034544Y+002794
X+030861Y+006096
X+018542Y+000635
X+036830Y+001905
X+036576Y+008890
X+018542Y+006350
X+017653Y+002413
X+013335Y+011557
X+010541Y+011557
X+029845Y+000889
X+018161Y+001778
X+015621Y+001524
X+017018Y+003048
X+015748Y+007874
X+014859Y+020828
X+014605Y+031623
X+014605Y+014224
X+011430Y+016002
X+011303Y+019812
X+013589Y+030988
X+017018Y+030988
X+006604Y+005842
X+016764Y+008636
X+008636Y+009779
X+006350Y+010795
X+006604Y+012446
X+006656Y+013449
X+004699Y+019304
X+015494Y+014224
X+015367Y+016256
T02
X+039433Y+001065G85X+039433Y+001865
X+032194Y+001065G85X+032194Y+001865
T03
X+033403Y+004165
X+038244Y+004165
T04
X+023495Y+034114
X+023495Y+032114
X+023495Y+030115
X+023495Y+028115
X+049530Y+013208
X+031274Y+018923
X+033274Y+018923
X+035273Y+018923
X+037273Y+018923
T05
X+043053Y+014605
X+043053Y+012065
X+043053Y+009525
X+043053Y+006985
X+043053Y+004445
X+043053Y+001905
M30
