G04 Layer: TopSolderMaskLayer*
G04 EasyEDA v6.2.35, 2019-08-15T18:41:42+02:00*
G04 d928556bf1d54400a7a5e192a75a7165,10119efe1344418d97fa33539d7a4e55,10*
G04 Gerber Generator version 0.2*
G04 Scale: 100 percent, Rotated: No, Reflected: No *
G04 Dimensions in millimeters *
G04 leading zeros omitted , absolute positions ,3 integer and 3 decimal *
%FSLAX33Y33*%
%MOMM*%
G90*
G71D02*

%ADD47C,1.503197*%
%ADD58C,1.727200*%
%ADD62R,1.253236X2.403094*%
%ADD66C,2.235200*%

%LPD*%
G54D47*
G01X39433Y1915D02*
G01X39433Y1015D01*
G01X32194Y1915D02*
G01X32194Y1015D01*
G36*
G01X25684Y7256D02*
G01X25684Y9761D01*
G01X29687Y9761D01*
G01X29687Y7256D01*
G01X25684Y7256D01*
G37*
G36*
G01X26984Y1056D02*
G01X26984Y3261D01*
G01X28387Y3261D01*
G01X28387Y1056D01*
G01X26984Y1056D01*
G37*
G36*
G01X29283Y1056D02*
G01X29283Y3261D01*
G01X30688Y3261D01*
G01X30688Y1056D01*
G01X29283Y1056D01*
G37*
G36*
G01X24683Y1056D02*
G01X24683Y3261D01*
G01X26088Y3261D01*
G01X26088Y1056D01*
G01X24683Y1056D01*
G37*
G36*
G01X33609Y6667D02*
G01X33609Y8318D01*
G01X34970Y8318D01*
G01X34970Y6667D01*
G01X33609Y6667D01*
G37*
G36*
G01X31577Y6667D02*
G01X31577Y8318D01*
G01X32938Y8318D01*
G01X32938Y6667D01*
G01X31577Y6667D01*
G37*
G36*
G01X20916Y14742D02*
G01X20916Y16245D01*
G01X22519Y16245D01*
G01X22519Y14742D01*
G01X20916Y14742D01*
G37*
G36*
G01X20916Y16842D02*
G01X20916Y18346D01*
G01X22519Y18346D01*
G01X22519Y16842D01*
G01X20916Y16842D01*
G37*
G36*
G01X36776Y3848D02*
G01X36776Y6050D01*
G01X37429Y6050D01*
G01X37429Y3848D01*
G01X36776Y3848D01*
G37*
G36*
G01X36126Y3848D02*
G01X36126Y6050D01*
G01X36779Y6050D01*
G01X36779Y3848D01*
G01X36126Y3848D01*
G37*
G36*
G01X35476Y3848D02*
G01X35476Y6050D01*
G01X36131Y6050D01*
G01X36131Y3848D01*
G01X35476Y3848D01*
G37*
G36*
G01X34825Y3848D02*
G01X34825Y6050D01*
G01X35481Y6050D01*
G01X35481Y3848D01*
G01X34825Y3848D01*
G37*
G36*
G01X34178Y3848D02*
G01X34178Y6050D01*
G01X34831Y6050D01*
G01X34831Y3848D01*
G01X34178Y3848D01*
G37*
G36*
G01X36507Y-63D02*
G01X36507Y1338D01*
G01X38310Y1338D01*
G01X38310Y-63D01*
G01X36507Y-63D01*
G37*
G36*
G01X33228Y-48D02*
G01X33228Y1356D01*
G01X35031Y1356D01*
G01X35031Y-48D01*
G01X33228Y-48D01*
G37*
G01X33403Y4165D03*
G01X38244Y4165D03*
G36*
G01X914Y34813D02*
G01X914Y35915D01*
G01X3116Y35915D01*
G01X3116Y34813D01*
G01X914Y34813D01*
G37*
G36*
G01X6913Y25262D02*
G01X6913Y30464D01*
G01X12118Y30464D01*
G01X12118Y25262D01*
G01X6913Y25262D01*
G37*
G36*
G01X914Y33543D02*
G01X914Y34645D01*
G01X3116Y34645D01*
G01X3116Y33543D01*
G01X914Y33543D01*
G37*
G36*
G01X914Y32273D02*
G01X914Y33375D01*
G01X3116Y33375D01*
G01X3116Y32273D01*
G01X914Y32273D01*
G37*
G36*
G01X914Y31003D02*
G01X914Y32105D01*
G01X3116Y32105D01*
G01X3116Y31003D01*
G01X914Y31003D01*
G37*
G36*
G01X914Y29733D02*
G01X914Y30835D01*
G01X3116Y30835D01*
G01X3116Y29733D01*
G01X914Y29733D01*
G37*
G36*
G01X914Y28463D02*
G01X914Y29565D01*
G01X3116Y29565D01*
G01X3116Y28463D01*
G01X914Y28463D01*
G37*
G36*
G01X914Y27193D02*
G01X914Y28295D01*
G01X3116Y28295D01*
G01X3116Y27193D01*
G01X914Y27193D01*
G37*
G36*
G01X914Y25923D02*
G01X914Y27025D01*
G01X3116Y27025D01*
G01X3116Y25923D01*
G01X914Y25923D01*
G37*
G36*
G01X914Y24653D02*
G01X914Y25755D01*
G01X3116Y25755D01*
G01X3116Y24653D01*
G01X914Y24653D01*
G37*
G36*
G01X914Y23383D02*
G01X914Y24485D01*
G01X3116Y24485D01*
G01X3116Y23383D01*
G01X914Y23383D01*
G37*
G36*
G01X914Y22113D02*
G01X914Y23215D01*
G01X3116Y23215D01*
G01X3116Y22113D01*
G01X914Y22113D01*
G37*
G36*
G01X914Y20843D02*
G01X914Y21945D01*
G01X3116Y21945D01*
G01X3116Y20843D01*
G01X914Y20843D01*
G37*
G36*
G01X914Y19573D02*
G01X914Y20675D01*
G01X3116Y20675D01*
G01X3116Y19573D01*
G01X914Y19573D01*
G37*
G36*
G01X914Y18303D02*
G01X914Y19405D01*
G01X3116Y19405D01*
G01X3116Y18303D01*
G01X914Y18303D01*
G37*
G36*
G01X17914Y34813D02*
G01X17914Y35915D01*
G01X20116Y35915D01*
G01X20116Y34813D01*
G01X17914Y34813D01*
G37*
G36*
G01X17914Y33543D02*
G01X17914Y34645D01*
G01X20116Y34645D01*
G01X20116Y33543D01*
G01X17914Y33543D01*
G37*
G36*
G01X17914Y32273D02*
G01X17914Y33375D01*
G01X20116Y33375D01*
G01X20116Y32273D01*
G01X17914Y32273D01*
G37*
G36*
G01X17914Y31003D02*
G01X17914Y32105D01*
G01X20116Y32105D01*
G01X20116Y31003D01*
G01X17914Y31003D01*
G37*
G36*
G01X17914Y29733D02*
G01X17914Y30835D01*
G01X20116Y30835D01*
G01X20116Y29733D01*
G01X17914Y29733D01*
G37*
G36*
G01X17914Y28463D02*
G01X17914Y29565D01*
G01X20116Y29565D01*
G01X20116Y28463D01*
G01X17914Y28463D01*
G37*
G36*
G01X17914Y27193D02*
G01X17914Y28295D01*
G01X20116Y28295D01*
G01X20116Y27193D01*
G01X17914Y27193D01*
G37*
G36*
G01X17914Y25923D02*
G01X17914Y27025D01*
G01X20116Y27025D01*
G01X20116Y25923D01*
G01X17914Y25923D01*
G37*
G36*
G01X17914Y24653D02*
G01X17914Y25755D01*
G01X20116Y25755D01*
G01X20116Y24653D01*
G01X17914Y24653D01*
G37*
G36*
G01X17914Y23383D02*
G01X17914Y24485D01*
G01X20116Y24485D01*
G01X20116Y23383D01*
G01X17914Y23383D01*
G37*
G36*
G01X17914Y22113D02*
G01X17914Y23215D01*
G01X20116Y23215D01*
G01X20116Y22113D01*
G01X17914Y22113D01*
G37*
G36*
G01X17914Y20843D02*
G01X17914Y21945D01*
G01X20116Y21945D01*
G01X20116Y20843D01*
G01X17914Y20843D01*
G37*
G36*
G01X17914Y19573D02*
G01X17914Y20675D01*
G01X20116Y20675D01*
G01X20116Y19573D01*
G01X17914Y19573D01*
G37*
G36*
G01X17914Y18303D02*
G01X17914Y19405D01*
G01X20116Y19405D01*
G01X20116Y18303D01*
G01X17914Y18303D01*
G37*
G36*
G01X4249Y16751D02*
G01X4249Y18956D01*
G01X5351Y18956D01*
G01X5351Y16751D01*
G01X4249Y16751D01*
G37*
G36*
G01X5519Y16751D02*
G01X5519Y18956D01*
G01X6621Y18956D01*
G01X6621Y16751D01*
G01X5519Y16751D01*
G37*
G36*
G01X6789Y16751D02*
G01X6789Y18956D01*
G01X7891Y18956D01*
G01X7891Y16751D01*
G01X6789Y16751D01*
G37*
G36*
G01X8059Y16751D02*
G01X8059Y18956D01*
G01X9161Y18956D01*
G01X9161Y16751D01*
G01X8059Y16751D01*
G37*
G36*
G01X9329Y16751D02*
G01X9329Y18956D01*
G01X10431Y18956D01*
G01X10431Y16751D01*
G01X9329Y16751D01*
G37*
G36*
G01X10599Y16751D02*
G01X10599Y18956D01*
G01X11701Y18956D01*
G01X11701Y16751D01*
G01X10599Y16751D01*
G37*
G36*
G01X11869Y16751D02*
G01X11869Y18956D01*
G01X12971Y18956D01*
G01X12971Y16751D01*
G01X11869Y16751D01*
G37*
G36*
G01X13139Y16751D02*
G01X13139Y18956D01*
G01X14241Y18956D01*
G01X14241Y16751D01*
G01X13139Y16751D01*
G37*
G36*
G01X14409Y16751D02*
G01X14409Y18956D01*
G01X15511Y18956D01*
G01X15511Y16751D01*
G01X14409Y16751D01*
G37*
G36*
G01X15679Y16751D02*
G01X15679Y18956D01*
G01X16781Y18956D01*
G01X16781Y16751D01*
G01X15679Y16751D01*
G37*
G36*
G01X21544Y6667D02*
G01X21544Y8318D01*
G01X22905Y8318D01*
G01X22905Y6667D01*
G01X21544Y6667D01*
G37*
G36*
G01X19512Y6667D02*
G01X19512Y8318D01*
G01X20873Y8318D01*
G01X20873Y6667D01*
G01X19512Y6667D01*
G37*
G36*
G01X1605Y12890D02*
G01X1605Y14541D01*
G01X2966Y14541D01*
G01X2966Y12890D01*
G01X1605Y12890D01*
G37*
G36*
G01X3637Y12890D02*
G01X3637Y14541D01*
G01X4998Y14541D01*
G01X4998Y12890D01*
G01X3637Y12890D01*
G37*
G36*
G01X22631Y33251D02*
G01X22631Y34978D01*
G01X24358Y34978D01*
G01X24358Y33251D01*
G01X22631Y33251D01*
G37*
G54D58*
G01X23495Y32114D03*
G01X23495Y30115D03*
G01X23495Y28115D03*
G36*
G01X12204Y2578D02*
G01X12204Y3782D01*
G01X14107Y3782D01*
G01X14107Y2578D01*
G01X12204Y2578D01*
G37*
G36*
G01X5704Y2578D02*
G01X5704Y3782D01*
G01X7607Y3782D01*
G01X7607Y2578D01*
G01X5704Y2578D01*
G37*
G36*
G01X12204Y6377D02*
G01X12204Y7581D01*
G01X14107Y7581D01*
G01X14107Y6377D01*
G01X12204Y6377D01*
G37*
G36*
G01X5704Y6377D02*
G01X5704Y7581D01*
G01X7607Y7581D01*
G01X7607Y6377D01*
G01X5704Y6377D01*
G37*
G36*
G01X5704Y12847D02*
G01X5704Y14051D01*
G01X7607Y14051D01*
G01X7607Y12847D01*
G01X5704Y12847D01*
G37*
G36*
G01X12204Y12847D02*
G01X12204Y14051D01*
G01X14107Y14051D01*
G01X14107Y12847D01*
G01X12204Y12847D01*
G37*
G36*
G01X5704Y9047D02*
G01X5704Y10251D01*
G01X7607Y10251D01*
G01X7607Y9047D01*
G01X5704Y9047D01*
G37*
G36*
G01X12204Y9047D02*
G01X12204Y10251D01*
G01X14107Y10251D01*
G01X14107Y9047D01*
G01X12204Y9047D01*
G37*
G36*
G01X33609Y9207D02*
G01X33609Y10858D01*
G01X34970Y10858D01*
G01X34970Y9207D01*
G01X33609Y9207D01*
G37*
G36*
G01X31577Y9207D02*
G01X31577Y10858D01*
G01X32938Y10858D01*
G01X32938Y9207D01*
G01X31577Y9207D01*
G37*
G36*
G01X19512Y4127D02*
G01X19512Y5778D01*
G01X20873Y5778D01*
G01X20873Y4127D01*
G01X19512Y4127D01*
G37*
G36*
G01X21544Y4127D02*
G01X21544Y5778D01*
G01X22905Y5778D01*
G01X22905Y4127D01*
G01X21544Y4127D01*
G37*
G36*
G01X14922Y3256D02*
G01X14922Y4617D01*
G01X16573Y4617D01*
G01X16573Y3256D01*
G01X14922Y3256D01*
G37*
G36*
G01X14922Y5288D02*
G01X14922Y6649D01*
G01X16573Y6649D01*
G01X16573Y5288D01*
G01X14922Y5288D01*
G37*
G36*
G01X1605Y2476D02*
G01X1605Y4127D01*
G01X2966Y4127D01*
G01X2966Y2476D01*
G01X1605Y2476D01*
G37*
G36*
G01X3637Y2476D02*
G01X3637Y4127D01*
G01X4998Y4127D01*
G01X4998Y2476D01*
G01X3637Y2476D01*
G37*
G36*
G01X14922Y11892D02*
G01X14922Y13253D01*
G01X16573Y13253D01*
G01X16573Y11892D01*
G01X14922Y11892D01*
G37*
G36*
G01X14922Y9860D02*
G01X14922Y11221D01*
G01X16573Y11221D01*
G01X16573Y9860D01*
G01X14922Y9860D01*
G37*
G36*
G01X1605Y9461D02*
G01X1605Y11112D01*
G01X2966Y11112D01*
G01X2966Y9461D01*
G01X1605Y9461D01*
G37*
G36*
G01X3637Y9461D02*
G01X3637Y11112D01*
G01X4998Y11112D01*
G01X4998Y9461D01*
G01X3637Y9461D01*
G37*
G36*
G01X25684Y17289D02*
G01X25684Y19794D01*
G01X29687Y19794D01*
G01X29687Y17289D01*
G01X25684Y17289D01*
G37*
G36*
G01X26984Y11089D02*
G01X26984Y13294D01*
G01X28387Y13294D01*
G01X28387Y11089D01*
G01X26984Y11089D01*
G37*
G36*
G01X29283Y11089D02*
G01X29283Y13294D01*
G01X30688Y13294D01*
G01X30688Y11089D01*
G01X29283Y11089D01*
G37*
G36*
G01X24683Y11089D02*
G01X24683Y13294D01*
G01X26088Y13294D01*
G01X26088Y11089D01*
G01X24683Y11089D01*
G37*
G36*
G01X19512Y9334D02*
G01X19512Y10985D01*
G01X20873Y10985D01*
G01X20873Y9334D01*
G01X19512Y9334D01*
G37*
G36*
G01X21544Y9334D02*
G01X21544Y10985D01*
G01X22905Y10985D01*
G01X22905Y9334D01*
G01X21544Y9334D01*
G37*
G36*
G01X19512Y1587D02*
G01X19512Y3238D01*
G01X20873Y3238D01*
G01X20873Y1587D01*
G01X19512Y1587D01*
G37*
G36*
G01X21544Y1587D02*
G01X21544Y3238D01*
G01X22905Y3238D01*
G01X22905Y1587D01*
G01X21544Y1587D01*
G37*
G36*
G01X1605Y6032D02*
G01X1605Y7683D01*
G01X2966Y7683D01*
G01X2966Y6032D01*
G01X1605Y6032D01*
G37*
G36*
G01X3637Y6032D02*
G01X3637Y7683D01*
G01X4998Y7683D01*
G01X4998Y6032D01*
G01X3637Y6032D01*
G37*
G36*
G01X21417Y20637D02*
G01X21417Y22288D01*
G01X22778Y22288D01*
G01X22778Y20637D01*
G01X21417Y20637D01*
G37*
G36*
G01X23449Y20637D02*
G01X23449Y22288D01*
G01X24810Y22288D01*
G01X24810Y20637D01*
G01X23449Y20637D01*
G37*
G36*
G01X26012Y23200D02*
G01X26012Y24803D01*
G01X27515Y24803D01*
G01X27515Y23200D01*
G01X26012Y23200D01*
G37*
G36*
G01X28112Y23200D02*
G01X28112Y24803D01*
G01X29616Y24803D01*
G01X29616Y23200D01*
G01X28112Y23200D01*
G37*
G36*
G01X21544Y11874D02*
G01X21544Y13525D01*
G01X22905Y13525D01*
G01X22905Y11874D01*
G01X21544Y11874D01*
G37*
G36*
G01X19512Y11874D02*
G01X19512Y13525D01*
G01X20873Y13525D01*
G01X20873Y11874D01*
G01X19512Y11874D01*
G37*
G36*
G01X31889Y34958D02*
G01X31821Y34963D01*
G01X31750Y34975D01*
G01X31678Y34996D01*
G01X31612Y35026D01*
G01X31551Y35064D01*
G01X31493Y35110D01*
G01X31442Y35161D01*
G01X31396Y35217D01*
G01X31361Y35280D01*
G01X31330Y35346D01*
G01X31308Y35415D01*
G01X31295Y35486D01*
G01X31290Y35560D01*
G01X31295Y35633D01*
G01X31308Y35704D01*
G01X31330Y35773D01*
G01X31361Y35839D01*
G01X31396Y35902D01*
G01X31442Y35958D01*
G01X31493Y36009D01*
G01X31551Y36055D01*
G01X31612Y36093D01*
G01X31678Y36123D01*
G01X31750Y36144D01*
G01X31821Y36156D01*
G01X31889Y36161D01*
G01X33896Y36161D01*
G01X33964Y36156D01*
G01X34036Y36144D01*
G01X34107Y36123D01*
G01X34173Y36093D01*
G01X34234Y36055D01*
G01X34292Y36009D01*
G01X34343Y35958D01*
G01X34389Y35902D01*
G01X34424Y35839D01*
G01X34455Y35773D01*
G01X34477Y35704D01*
G01X34490Y35633D01*
G01X34495Y35560D01*
G01X34490Y35486D01*
G01X34477Y35415D01*
G01X34455Y35346D01*
G01X34424Y35280D01*
G01X34389Y35217D01*
G01X34343Y35161D01*
G01X34292Y35110D01*
G01X34234Y35064D01*
G01X34173Y35026D01*
G01X34107Y34996D01*
G01X34036Y34975D01*
G01X33964Y34963D01*
G01X33896Y34958D01*
G01X31889Y34958D01*
G37*
G36*
G01X31889Y32959D02*
G01X31821Y32961D01*
G01X31750Y32976D01*
G01X31678Y32997D01*
G01X31612Y33027D01*
G01X31551Y33065D01*
G01X31493Y33108D01*
G01X31442Y33162D01*
G01X31396Y33218D01*
G01X31361Y33279D01*
G01X31330Y33347D01*
G01X31308Y33416D01*
G01X31295Y33487D01*
G01X31290Y33561D01*
G01X31295Y33632D01*
G01X31308Y33703D01*
G01X31330Y33774D01*
G01X31361Y33840D01*
G01X31396Y33901D01*
G01X31442Y33959D01*
G01X31493Y34010D01*
G01X31551Y34056D01*
G01X31612Y34091D01*
G01X31678Y34122D01*
G01X31750Y34145D01*
G01X31821Y34157D01*
G01X31889Y34160D01*
G01X33896Y34160D01*
G01X33964Y34157D01*
G01X34036Y34145D01*
G01X34107Y34122D01*
G01X34173Y34091D01*
G01X34234Y34056D01*
G01X34292Y34010D01*
G01X34343Y33959D01*
G01X34389Y33901D01*
G01X34424Y33840D01*
G01X34455Y33774D01*
G01X34477Y33703D01*
G01X34490Y33632D01*
G01X34495Y33561D01*
G01X34490Y33487D01*
G01X34477Y33416D01*
G01X34455Y33347D01*
G01X34424Y33279D01*
G01X34389Y33218D01*
G01X34343Y33162D01*
G01X34292Y33108D01*
G01X34234Y33065D01*
G01X34173Y33027D01*
G01X34107Y32997D01*
G01X34036Y32976D01*
G01X33964Y32961D01*
G01X33896Y32959D01*
G01X31889Y32959D01*
G37*
G36*
G01X31889Y30957D02*
G01X31821Y30962D01*
G01X31750Y30975D01*
G01X31678Y30998D01*
G01X31612Y31026D01*
G01X31551Y31064D01*
G01X31493Y31109D01*
G01X31442Y31160D01*
G01X31396Y31219D01*
G01X31361Y31280D01*
G01X31330Y31346D01*
G01X31308Y31417D01*
G01X31295Y31488D01*
G01X31290Y31559D01*
G01X31295Y31633D01*
G01X31308Y31704D01*
G01X31330Y31772D01*
G01X31361Y31838D01*
G01X31396Y31902D01*
G01X31442Y31958D01*
G01X31493Y32009D01*
G01X31551Y32054D01*
G01X31612Y32092D01*
G01X31678Y32123D01*
G01X31750Y32143D01*
G01X31821Y32156D01*
G01X31889Y32161D01*
G01X33896Y32161D01*
G01X33964Y32156D01*
G01X34036Y32143D01*
G01X34107Y32123D01*
G01X34173Y32092D01*
G01X34234Y32054D01*
G01X34292Y32009D01*
G01X34343Y31958D01*
G01X34389Y31902D01*
G01X34424Y31838D01*
G01X34455Y31772D01*
G01X34477Y31704D01*
G01X34490Y31633D01*
G01X34495Y31559D01*
G01X34490Y31488D01*
G01X34477Y31417D01*
G01X34455Y31346D01*
G01X34424Y31280D01*
G01X34389Y31219D01*
G01X34343Y31160D01*
G01X34292Y31109D01*
G01X34234Y31064D01*
G01X34173Y31026D01*
G01X34107Y30998D01*
G01X34036Y30975D01*
G01X33964Y30962D01*
G01X33896Y30957D01*
G01X31889Y30957D01*
G37*
G36*
G01X31889Y28958D02*
G01X31821Y28963D01*
G01X31750Y28976D01*
G01X31678Y28996D01*
G01X31612Y29027D01*
G01X31551Y29065D01*
G01X31493Y29110D01*
G01X31442Y29161D01*
G01X31396Y29217D01*
G01X31361Y29281D01*
G01X31330Y29347D01*
G01X31308Y29415D01*
G01X31295Y29486D01*
G01X31290Y29560D01*
G01X31295Y29631D01*
G01X31308Y29702D01*
G01X31330Y29773D01*
G01X31361Y29839D01*
G01X31396Y29900D01*
G01X31442Y29959D01*
G01X31493Y30010D01*
G01X31551Y30055D01*
G01X31612Y30093D01*
G01X31678Y30121D01*
G01X31750Y30144D01*
G01X31821Y30157D01*
G01X31889Y30162D01*
G01X33896Y30162D01*
G01X33964Y30157D01*
G01X34036Y30144D01*
G01X34107Y30121D01*
G01X34173Y30093D01*
G01X34234Y30055D01*
G01X34292Y30010D01*
G01X34343Y29959D01*
G01X34389Y29900D01*
G01X34424Y29839D01*
G01X34455Y29773D01*
G01X34477Y29702D01*
G01X34490Y29631D01*
G01X34495Y29560D01*
G01X34490Y29486D01*
G01X34477Y29415D01*
G01X34455Y29347D01*
G01X34424Y29281D01*
G01X34389Y29217D01*
G01X34343Y29161D01*
G01X34292Y29110D01*
G01X34234Y29065D01*
G01X34173Y29027D01*
G01X34107Y28996D01*
G01X34036Y28976D01*
G01X33964Y28963D01*
G01X33896Y28958D01*
G01X31889Y28958D01*
G37*
G36*
G01X31889Y26959D02*
G01X31821Y26962D01*
G01X31750Y26974D01*
G01X31678Y26997D01*
G01X31612Y27028D01*
G01X31551Y27063D01*
G01X31493Y27109D01*
G01X31442Y27160D01*
G01X31396Y27218D01*
G01X31361Y27279D01*
G01X31330Y27345D01*
G01X31308Y27416D01*
G01X31295Y27487D01*
G01X31290Y27559D01*
G01X31295Y27632D01*
G01X31308Y27703D01*
G01X31330Y27772D01*
G01X31361Y27840D01*
G01X31396Y27901D01*
G01X31442Y27957D01*
G01X31493Y28011D01*
G01X31551Y28054D01*
G01X31612Y28092D01*
G01X31678Y28122D01*
G01X31750Y28143D01*
G01X31821Y28158D01*
G01X31889Y28160D01*
G01X33896Y28160D01*
G01X33964Y28158D01*
G01X34036Y28143D01*
G01X34107Y28122D01*
G01X34173Y28092D01*
G01X34234Y28054D01*
G01X34292Y28011D01*
G01X34343Y27957D01*
G01X34389Y27901D01*
G01X34424Y27840D01*
G01X34455Y27772D01*
G01X34477Y27703D01*
G01X34490Y27632D01*
G01X34495Y27559D01*
G01X34490Y27487D01*
G01X34477Y27416D01*
G01X34455Y27345D01*
G01X34424Y27279D01*
G01X34389Y27218D01*
G01X34343Y27160D01*
G01X34292Y27109D01*
G01X34234Y27063D01*
G01X34173Y27028D01*
G01X34107Y26997D01*
G01X34036Y26974D01*
G01X33964Y26962D01*
G01X33896Y26959D01*
G01X31889Y26959D01*
G37*
G36*
G01X31889Y24958D02*
G01X31821Y24963D01*
G01X31750Y24975D01*
G01X31678Y24996D01*
G01X31612Y25026D01*
G01X31551Y25064D01*
G01X31493Y25110D01*
G01X31442Y25161D01*
G01X31396Y25217D01*
G01X31361Y25280D01*
G01X31330Y25346D01*
G01X31308Y25415D01*
G01X31295Y25486D01*
G01X31290Y25560D01*
G01X31295Y25633D01*
G01X31308Y25704D01*
G01X31330Y25773D01*
G01X31361Y25839D01*
G01X31396Y25902D01*
G01X31442Y25958D01*
G01X31493Y26009D01*
G01X31551Y26055D01*
G01X31612Y26093D01*
G01X31678Y26123D01*
G01X31750Y26144D01*
G01X31821Y26156D01*
G01X31889Y26162D01*
G01X33896Y26162D01*
G01X33964Y26156D01*
G01X34036Y26144D01*
G01X34107Y26123D01*
G01X34173Y26093D01*
G01X34234Y26055D01*
G01X34292Y26009D01*
G01X34343Y25958D01*
G01X34389Y25902D01*
G01X34424Y25839D01*
G01X34455Y25773D01*
G01X34477Y25704D01*
G01X34490Y25633D01*
G01X34495Y25560D01*
G01X34490Y25486D01*
G01X34477Y25415D01*
G01X34455Y25346D01*
G01X34424Y25280D01*
G01X34389Y25217D01*
G01X34343Y25161D01*
G01X34292Y25110D01*
G01X34234Y25064D01*
G01X34173Y25026D01*
G01X34107Y24996D01*
G01X34036Y24975D01*
G01X33964Y24963D01*
G01X33896Y24958D01*
G01X31889Y24958D01*
G37*
G36*
G01X31889Y22959D02*
G01X31821Y22961D01*
G01X31750Y22976D01*
G01X31678Y22997D01*
G01X31612Y23027D01*
G01X31551Y23065D01*
G01X31493Y23108D01*
G01X31442Y23162D01*
G01X31396Y23218D01*
G01X31361Y23279D01*
G01X31330Y23347D01*
G01X31308Y23416D01*
G01X31295Y23487D01*
G01X31290Y23561D01*
G01X31295Y23632D01*
G01X31308Y23703D01*
G01X31330Y23774D01*
G01X31361Y23840D01*
G01X31396Y23901D01*
G01X31442Y23959D01*
G01X31493Y24010D01*
G01X31551Y24056D01*
G01X31612Y24091D01*
G01X31678Y24122D01*
G01X31750Y24145D01*
G01X31821Y24157D01*
G01X31889Y24160D01*
G01X33896Y24160D01*
G01X33964Y24157D01*
G01X34036Y24145D01*
G01X34107Y24122D01*
G01X34173Y24091D01*
G01X34234Y24056D01*
G01X34292Y24010D01*
G01X34343Y23959D01*
G01X34389Y23901D01*
G01X34424Y23840D01*
G01X34455Y23774D01*
G01X34477Y23703D01*
G01X34490Y23632D01*
G01X34495Y23561D01*
G01X34490Y23487D01*
G01X34477Y23416D01*
G01X34455Y23347D01*
G01X34424Y23279D01*
G01X34389Y23218D01*
G01X34343Y23162D01*
G01X34292Y23108D01*
G01X34234Y23065D01*
G01X34173Y23027D01*
G01X34107Y22997D01*
G01X34036Y22976D01*
G01X33964Y22961D01*
G01X33896Y22959D01*
G01X31889Y22959D01*
G37*
G36*
G01X31889Y20957D02*
G01X31821Y20962D01*
G01X31750Y20975D01*
G01X31678Y20998D01*
G01X31612Y21026D01*
G01X31551Y21064D01*
G01X31493Y21109D01*
G01X31442Y21160D01*
G01X31396Y21219D01*
G01X31361Y21280D01*
G01X31330Y21346D01*
G01X31308Y21417D01*
G01X31295Y21488D01*
G01X31290Y21559D01*
G01X31295Y21633D01*
G01X31308Y21704D01*
G01X31330Y21772D01*
G01X31361Y21838D01*
G01X31396Y21902D01*
G01X31442Y21958D01*
G01X31493Y22009D01*
G01X31551Y22054D01*
G01X31612Y22092D01*
G01X31678Y22123D01*
G01X31750Y22143D01*
G01X31821Y22156D01*
G01X31889Y22161D01*
G01X33896Y22161D01*
G01X33964Y22156D01*
G01X34036Y22143D01*
G01X34107Y22123D01*
G01X34173Y22092D01*
G01X34234Y22054D01*
G01X34292Y22009D01*
G01X34343Y21958D01*
G01X34389Y21902D01*
G01X34424Y21838D01*
G01X34455Y21772D01*
G01X34477Y21704D01*
G01X34490Y21633D01*
G01X34495Y21559D01*
G01X34490Y21488D01*
G01X34477Y21417D01*
G01X34455Y21346D01*
G01X34424Y21280D01*
G01X34389Y21219D01*
G01X34343Y21160D01*
G01X34292Y21109D01*
G01X34234Y21064D01*
G01X34173Y21026D01*
G01X34107Y20998D01*
G01X34036Y20975D01*
G01X33964Y20962D01*
G01X33896Y20957D01*
G01X31889Y20957D01*
G37*
G36*
G01X47889Y20957D02*
G01X47820Y20962D01*
G01X47749Y20975D01*
G01X47680Y20998D01*
G01X47612Y21026D01*
G01X47551Y21064D01*
G01X47492Y21109D01*
G01X47442Y21160D01*
G01X47398Y21219D01*
G01X47360Y21280D01*
G01X47330Y21346D01*
G01X47307Y21417D01*
G01X47294Y21488D01*
G01X47292Y21559D01*
G01X47294Y21633D01*
G01X47307Y21704D01*
G01X47330Y21772D01*
G01X47360Y21838D01*
G01X47398Y21902D01*
G01X47442Y21958D01*
G01X47492Y22009D01*
G01X47551Y22054D01*
G01X47612Y22092D01*
G01X47680Y22123D01*
G01X47749Y22143D01*
G01X47820Y22156D01*
G01X47889Y22161D01*
G01X49895Y22161D01*
G01X49964Y22156D01*
G01X50038Y22143D01*
G01X50106Y22123D01*
G01X50172Y22092D01*
G01X50236Y22054D01*
G01X50292Y22009D01*
G01X50342Y21958D01*
G01X50388Y21902D01*
G01X50426Y21838D01*
G01X50454Y21772D01*
G01X50477Y21704D01*
G01X50490Y21633D01*
G01X50495Y21559D01*
G01X50490Y21488D01*
G01X50477Y21417D01*
G01X50454Y21346D01*
G01X50426Y21280D01*
G01X50388Y21219D01*
G01X50342Y21160D01*
G01X50292Y21109D01*
G01X50236Y21064D01*
G01X50172Y21026D01*
G01X50106Y20998D01*
G01X50038Y20975D01*
G01X49964Y20962D01*
G01X49895Y20957D01*
G01X47889Y20957D01*
G37*
G36*
G01X47889Y22959D02*
G01X47820Y22961D01*
G01X47749Y22976D01*
G01X47680Y22997D01*
G01X47612Y23027D01*
G01X47551Y23065D01*
G01X47492Y23108D01*
G01X47442Y23162D01*
G01X47398Y23218D01*
G01X47360Y23279D01*
G01X47330Y23347D01*
G01X47307Y23416D01*
G01X47294Y23487D01*
G01X47292Y23561D01*
G01X47294Y23632D01*
G01X47307Y23703D01*
G01X47330Y23774D01*
G01X47360Y23840D01*
G01X47398Y23901D01*
G01X47442Y23959D01*
G01X47492Y24010D01*
G01X47551Y24056D01*
G01X47612Y24091D01*
G01X47680Y24122D01*
G01X47749Y24145D01*
G01X47820Y24157D01*
G01X47889Y24160D01*
G01X49895Y24160D01*
G01X49964Y24157D01*
G01X50038Y24145D01*
G01X50106Y24122D01*
G01X50172Y24091D01*
G01X50236Y24056D01*
G01X50292Y24010D01*
G01X50342Y23959D01*
G01X50388Y23901D01*
G01X50426Y23840D01*
G01X50454Y23774D01*
G01X50477Y23703D01*
G01X50490Y23632D01*
G01X50495Y23561D01*
G01X50490Y23487D01*
G01X50477Y23416D01*
G01X50454Y23347D01*
G01X50426Y23279D01*
G01X50388Y23218D01*
G01X50342Y23162D01*
G01X50292Y23108D01*
G01X50236Y23065D01*
G01X50172Y23027D01*
G01X50106Y22997D01*
G01X50038Y22976D01*
G01X49964Y22961D01*
G01X49895Y22959D01*
G01X47889Y22959D01*
G37*
G36*
G01X47889Y24958D02*
G01X47820Y24963D01*
G01X47749Y24975D01*
G01X47680Y24996D01*
G01X47612Y25026D01*
G01X47551Y25064D01*
G01X47492Y25110D01*
G01X47442Y25161D01*
G01X47398Y25217D01*
G01X47360Y25280D01*
G01X47330Y25346D01*
G01X47307Y25415D01*
G01X47294Y25486D01*
G01X47292Y25560D01*
G01X47294Y25633D01*
G01X47307Y25704D01*
G01X47330Y25773D01*
G01X47360Y25839D01*
G01X47398Y25902D01*
G01X47442Y25958D01*
G01X47492Y26009D01*
G01X47551Y26055D01*
G01X47612Y26093D01*
G01X47680Y26123D01*
G01X47749Y26144D01*
G01X47820Y26156D01*
G01X47889Y26162D01*
G01X49895Y26162D01*
G01X49964Y26156D01*
G01X50038Y26144D01*
G01X50106Y26123D01*
G01X50172Y26093D01*
G01X50236Y26055D01*
G01X50292Y26009D01*
G01X50342Y25958D01*
G01X50388Y25902D01*
G01X50426Y25839D01*
G01X50454Y25773D01*
G01X50477Y25704D01*
G01X50490Y25633D01*
G01X50495Y25560D01*
G01X50490Y25486D01*
G01X50477Y25415D01*
G01X50454Y25346D01*
G01X50426Y25280D01*
G01X50388Y25217D01*
G01X50342Y25161D01*
G01X50292Y25110D01*
G01X50236Y25064D01*
G01X50172Y25026D01*
G01X50106Y24996D01*
G01X50038Y24975D01*
G01X49964Y24963D01*
G01X49895Y24958D01*
G01X47889Y24958D01*
G37*
G36*
G01X47889Y26959D02*
G01X47820Y26962D01*
G01X47749Y26974D01*
G01X47680Y26997D01*
G01X47612Y27028D01*
G01X47551Y27063D01*
G01X47492Y27109D01*
G01X47442Y27160D01*
G01X47398Y27218D01*
G01X47360Y27279D01*
G01X47330Y27345D01*
G01X47307Y27416D01*
G01X47294Y27487D01*
G01X47292Y27559D01*
G01X47294Y27632D01*
G01X47307Y27703D01*
G01X47330Y27772D01*
G01X47360Y27840D01*
G01X47398Y27901D01*
G01X47442Y27957D01*
G01X47492Y28011D01*
G01X47551Y28054D01*
G01X47612Y28092D01*
G01X47680Y28122D01*
G01X47749Y28143D01*
G01X47820Y28158D01*
G01X47889Y28160D01*
G01X49895Y28160D01*
G01X49964Y28158D01*
G01X50038Y28143D01*
G01X50106Y28122D01*
G01X50172Y28092D01*
G01X50236Y28054D01*
G01X50292Y28011D01*
G01X50342Y27957D01*
G01X50388Y27901D01*
G01X50426Y27840D01*
G01X50454Y27772D01*
G01X50477Y27703D01*
G01X50490Y27632D01*
G01X50495Y27559D01*
G01X50490Y27487D01*
G01X50477Y27416D01*
G01X50454Y27345D01*
G01X50426Y27279D01*
G01X50388Y27218D01*
G01X50342Y27160D01*
G01X50292Y27109D01*
G01X50236Y27063D01*
G01X50172Y27028D01*
G01X50106Y26997D01*
G01X50038Y26974D01*
G01X49964Y26962D01*
G01X49895Y26959D01*
G01X47889Y26959D01*
G37*
G36*
G01X47889Y28958D02*
G01X47820Y28963D01*
G01X47749Y28976D01*
G01X47680Y28996D01*
G01X47612Y29027D01*
G01X47551Y29065D01*
G01X47492Y29110D01*
G01X47442Y29161D01*
G01X47398Y29217D01*
G01X47360Y29281D01*
G01X47330Y29347D01*
G01X47307Y29415D01*
G01X47294Y29486D01*
G01X47292Y29560D01*
G01X47294Y29631D01*
G01X47307Y29702D01*
G01X47330Y29773D01*
G01X47360Y29839D01*
G01X47398Y29900D01*
G01X47442Y29959D01*
G01X47492Y30010D01*
G01X47551Y30055D01*
G01X47612Y30093D01*
G01X47680Y30121D01*
G01X47749Y30144D01*
G01X47820Y30157D01*
G01X47889Y30162D01*
G01X49895Y30162D01*
G01X49964Y30157D01*
G01X50038Y30144D01*
G01X50106Y30121D01*
G01X50172Y30093D01*
G01X50236Y30055D01*
G01X50292Y30010D01*
G01X50342Y29959D01*
G01X50388Y29900D01*
G01X50426Y29839D01*
G01X50454Y29773D01*
G01X50477Y29702D01*
G01X50490Y29631D01*
G01X50495Y29560D01*
G01X50490Y29486D01*
G01X50477Y29415D01*
G01X50454Y29347D01*
G01X50426Y29281D01*
G01X50388Y29217D01*
G01X50342Y29161D01*
G01X50292Y29110D01*
G01X50236Y29065D01*
G01X50172Y29027D01*
G01X50106Y28996D01*
G01X50038Y28976D01*
G01X49964Y28963D01*
G01X49895Y28958D01*
G01X47889Y28958D01*
G37*
G36*
G01X47889Y30957D02*
G01X47820Y30962D01*
G01X47749Y30975D01*
G01X47680Y30998D01*
G01X47612Y31026D01*
G01X47551Y31064D01*
G01X47492Y31109D01*
G01X47442Y31160D01*
G01X47398Y31219D01*
G01X47360Y31280D01*
G01X47330Y31346D01*
G01X47307Y31417D01*
G01X47294Y31488D01*
G01X47292Y31559D01*
G01X47294Y31633D01*
G01X47307Y31704D01*
G01X47330Y31772D01*
G01X47360Y31838D01*
G01X47398Y31902D01*
G01X47442Y31958D01*
G01X47492Y32009D01*
G01X47551Y32054D01*
G01X47612Y32092D01*
G01X47680Y32123D01*
G01X47749Y32143D01*
G01X47820Y32156D01*
G01X47889Y32161D01*
G01X49895Y32161D01*
G01X49964Y32156D01*
G01X50038Y32143D01*
G01X50106Y32123D01*
G01X50172Y32092D01*
G01X50236Y32054D01*
G01X50292Y32009D01*
G01X50342Y31958D01*
G01X50388Y31902D01*
G01X50426Y31838D01*
G01X50454Y31772D01*
G01X50477Y31704D01*
G01X50490Y31633D01*
G01X50495Y31559D01*
G01X50490Y31488D01*
G01X50477Y31417D01*
G01X50454Y31346D01*
G01X50426Y31280D01*
G01X50388Y31219D01*
G01X50342Y31160D01*
G01X50292Y31109D01*
G01X50236Y31064D01*
G01X50172Y31026D01*
G01X50106Y30998D01*
G01X50038Y30975D01*
G01X49964Y30962D01*
G01X49895Y30957D01*
G01X47889Y30957D01*
G37*
G36*
G01X47889Y32959D02*
G01X47820Y32961D01*
G01X47749Y32976D01*
G01X47680Y32997D01*
G01X47612Y33027D01*
G01X47551Y33065D01*
G01X47492Y33108D01*
G01X47442Y33162D01*
G01X47398Y33218D01*
G01X47360Y33279D01*
G01X47330Y33347D01*
G01X47307Y33416D01*
G01X47294Y33487D01*
G01X47292Y33561D01*
G01X47294Y33632D01*
G01X47307Y33703D01*
G01X47330Y33774D01*
G01X47360Y33840D01*
G01X47398Y33901D01*
G01X47442Y33959D01*
G01X47492Y34010D01*
G01X47551Y34056D01*
G01X47612Y34091D01*
G01X47680Y34122D01*
G01X47749Y34145D01*
G01X47820Y34157D01*
G01X47889Y34160D01*
G01X49895Y34160D01*
G01X49964Y34157D01*
G01X50038Y34145D01*
G01X50106Y34122D01*
G01X50172Y34091D01*
G01X50236Y34056D01*
G01X50292Y34010D01*
G01X50342Y33959D01*
G01X50388Y33901D01*
G01X50426Y33840D01*
G01X50454Y33774D01*
G01X50477Y33703D01*
G01X50490Y33632D01*
G01X50495Y33561D01*
G01X50490Y33487D01*
G01X50477Y33416D01*
G01X50454Y33347D01*
G01X50426Y33279D01*
G01X50388Y33218D01*
G01X50342Y33162D01*
G01X50292Y33108D01*
G01X50236Y33065D01*
G01X50172Y33027D01*
G01X50106Y32997D01*
G01X50038Y32976D01*
G01X49964Y32961D01*
G01X49895Y32959D01*
G01X47889Y32959D01*
G37*
G36*
G01X47889Y34958D02*
G01X47820Y34963D01*
G01X47749Y34975D01*
G01X47680Y34996D01*
G01X47612Y35026D01*
G01X47551Y35064D01*
G01X47492Y35110D01*
G01X47442Y35161D01*
G01X47398Y35217D01*
G01X47360Y35280D01*
G01X47330Y35346D01*
G01X47307Y35415D01*
G01X47294Y35486D01*
G01X47292Y35560D01*
G01X47294Y35633D01*
G01X47307Y35704D01*
G01X47330Y35773D01*
G01X47360Y35839D01*
G01X47398Y35902D01*
G01X47442Y35958D01*
G01X47492Y36009D01*
G01X47551Y36055D01*
G01X47612Y36093D01*
G01X47680Y36123D01*
G01X47749Y36144D01*
G01X47820Y36156D01*
G01X47889Y36161D01*
G01X49895Y36161D01*
G01X49964Y36156D01*
G01X50038Y36144D01*
G01X50106Y36123D01*
G01X50172Y36093D01*
G01X50236Y36055D01*
G01X50292Y36009D01*
G01X50342Y35958D01*
G01X50388Y35902D01*
G01X50426Y35839D01*
G01X50454Y35773D01*
G01X50477Y35704D01*
G01X50490Y35633D01*
G01X50495Y35560D01*
G01X50490Y35486D01*
G01X50477Y35415D01*
G01X50454Y35346D01*
G01X50426Y35280D01*
G01X50388Y35217D01*
G01X50342Y35161D01*
G01X50292Y35110D01*
G01X50236Y35064D01*
G01X50172Y35026D01*
G01X50106Y34996D01*
G01X50038Y34975D01*
G01X49964Y34963D01*
G01X49895Y34958D01*
G01X47889Y34958D01*
G37*
G36*
G01X47462Y8577D02*
G01X47462Y10980D01*
G01X48714Y10980D01*
G01X48714Y8577D01*
G01X47462Y8577D01*
G37*
G54D62*
G01X51037Y9779D03*
G36*
G01X48935Y7576D02*
G01X48935Y8780D01*
G01X50190Y8780D01*
G01X50190Y7576D01*
G01X48935Y7576D01*
G37*
G36*
G01X48666Y12344D02*
G01X48666Y14071D01*
G01X50393Y14071D01*
G01X50393Y12344D01*
G01X48666Y12344D01*
G37*
G36*
G01X47269Y5486D02*
G01X47269Y7213D01*
G01X51536Y7213D01*
G01X51536Y5486D01*
G01X47269Y5486D01*
G37*
G36*
G01X47269Y2946D02*
G01X47269Y4673D01*
G01X51536Y4673D01*
G01X51536Y2946D01*
G01X47269Y2946D01*
G37*
G36*
G01X47269Y406D02*
G01X47269Y2133D01*
G01X51536Y2133D01*
G01X51536Y406D01*
G01X47269Y406D01*
G37*
G36*
G01X41935Y13487D02*
G01X41935Y15722D01*
G01X44170Y15722D01*
G01X44170Y13487D01*
G01X41935Y13487D01*
G37*
G54D66*
G01X43053Y12065D03*
G01X43053Y9525D03*
G01X43053Y6985D03*
G01X43053Y4445D03*
G01X43053Y1905D03*
G36*
G01X30411Y18059D02*
G01X30411Y19786D01*
G01X32138Y19786D01*
G01X32138Y18059D01*
G01X30411Y18059D01*
G37*
G54D58*
G01X33274Y18923D03*
G01X35273Y18923D03*
G01X37273Y18923D03*
G36*
G01X38813Y8463D02*
G01X38813Y9316D01*
G01X39418Y9316D01*
G01X39418Y8463D01*
G01X38813Y8463D01*
G37*
G36*
G01X38115Y8463D02*
G01X38115Y9316D01*
G01X38717Y9316D01*
G01X38717Y8463D01*
G01X38115Y8463D01*
G37*
G36*
G01X38051Y6177D02*
G01X38051Y7030D01*
G01X38656Y7030D01*
G01X38656Y6177D01*
G01X38051Y6177D01*
G37*
G36*
G01X38752Y6177D02*
G01X38752Y7030D01*
G01X39354Y7030D01*
G01X39354Y6177D01*
G01X38752Y6177D01*
G37*
M00*
M02*
